<?xml version="1.0" encoding="utf-8" standalone="no"?>
<!DOCTYPE svg PUBLIC "-//W3C//DTD SVG 1.1//EN"
  "http://www.w3.org/Graphics/SVG/1.1/DTD/svg11.dtd">
<svg xmlns:xlink="http://www.w3.org/1999/xlink" width="1080pt" height="360pt" viewBox="0 0 1080 360" xmlns="http://www.w3.org/2000/svg" version="1.1">
 <metadata>
  <rdf:RDF xmlns:dc="http://purl.org/dc/elements/1.1/" xmlns:cc="http://creativecommons.org/ns#" xmlns:rdf="http://www.w3.org/1999/02/22-rdf-syntax-ns#">
   <cc:Work>
    <dc:type rdf:resource="http://purl.org/dc/dcmitype/StillImage"/>
    <dc:date>2023-01-11T02:06:14.252254</dc:date>
    <dc:format>image/svg+xml</dc:format>
    <dc:creator>
     <cc:Agent>
      <dc:title>Matplotlib v3.5.2, https://matplotlib.org/</dc:title>
     </cc:Agent>
    </dc:creator>
   </cc:Work>
  </rdf:RDF>
 </metadata>
 <defs>
  <style type="text/css">*{stroke-linejoin: round; stroke-linecap: butt}</style>
 </defs>
 <g id="figure_1">
  <g id="patch_1">
   <path d="M 0 360 
L 1080 360 
L 1080 0 
L 0 0 
z
" style="fill: #ffffff"/>
  </g>
  <g id="axes_1">
   <g id="patch_2">
    <path d="M 430.411765 169.2 
L 676.588235 169.2 
L 676.588235 43.2 
L 430.411765 43.2 
z
" style="fill: #ffffff"/>
   </g>
   <g id="matplotlib.axis_1">
    <g id="xtick_1">
     <g id="line2d_1">
      <path d="M 439.317964 169.2 
L 439.317964 43.2 
" clip-path="url(#pc785395723)" style="fill: none; stroke: #b0b0b0; stroke-width: 0.8; stroke-linecap: square"/>
     </g>
     <g id="line2d_2">
      <defs>
       <path id="m6c8481ce69" d="M 0 0 
L 0 3.5 
" style="stroke: #000000; stroke-width: 0.8"/>
      </defs>
      <g>
       <use xlink:href="#m6c8481ce69" x="439.317964" y="169.2" style="stroke: #000000; stroke-width: 0.8"/>
      </g>
     </g>
     <g id="text_1">
      <!-- 0 -->
      <g transform="translate(436.136714 183.798437)scale(0.1 -0.1)">
       <defs>
        <path id="DejaVuSans-30" d="M 2034 4250 
Q 1547 4250 1301 3770 
Q 1056 3291 1056 2328 
Q 1056 1369 1301 889 
Q 1547 409 2034 409 
Q 2525 409 2770 889 
Q 3016 1369 3016 2328 
Q 3016 3291 2770 3770 
Q 2525 4250 2034 4250 
z
M 2034 4750 
Q 2819 4750 3233 4129 
Q 3647 3509 3647 2328 
Q 3647 1150 3233 529 
Q 2819 -91 2034 -91 
Q 1250 -91 836 529 
Q 422 1150 422 2328 
Q 422 3509 836 4129 
Q 1250 4750 2034 4750 
z
" transform="scale(0.015625)"/>
       </defs>
       <use xlink:href="#DejaVuSans-30"/>
      </g>
     </g>
    </g>
    <g id="xtick_2">
     <g id="line2d_3">
      <path d="M 484.990778 169.2 
L 484.990778 43.2 
" clip-path="url(#pc785395723)" style="fill: none; stroke: #b0b0b0; stroke-width: 0.8; stroke-linecap: square"/>
     </g>
     <g id="line2d_4">
      <g>
       <use xlink:href="#m6c8481ce69" x="484.990778" y="169.2" style="stroke: #000000; stroke-width: 0.8"/>
      </g>
     </g>
     <g id="text_2">
      <!-- 2000 -->
      <g transform="translate(472.265778 183.798437)scale(0.1 -0.1)">
       <defs>
        <path id="DejaVuSans-32" d="M 1228 531 
L 3431 531 
L 3431 0 
L 469 0 
L 469 531 
Q 828 903 1448 1529 
Q 2069 2156 2228 2338 
Q 2531 2678 2651 2914 
Q 2772 3150 2772 3378 
Q 2772 3750 2511 3984 
Q 2250 4219 1831 4219 
Q 1534 4219 1204 4116 
Q 875 4013 500 3803 
L 500 4441 
Q 881 4594 1212 4672 
Q 1544 4750 1819 4750 
Q 2544 4750 2975 4387 
Q 3406 4025 3406 3419 
Q 3406 3131 3298 2873 
Q 3191 2616 2906 2266 
Q 2828 2175 2409 1742 
Q 1991 1309 1228 531 
z
" transform="scale(0.015625)"/>
       </defs>
       <use xlink:href="#DejaVuSans-32"/>
       <use xlink:href="#DejaVuSans-30" x="63.623047"/>
       <use xlink:href="#DejaVuSans-30" x="127.246094"/>
       <use xlink:href="#DejaVuSans-30" x="190.869141"/>
      </g>
     </g>
    </g>
    <g id="xtick_3">
     <g id="line2d_5">
      <path d="M 530.663593 169.2 
L 530.663593 43.2 
" clip-path="url(#pc785395723)" style="fill: none; stroke: #b0b0b0; stroke-width: 0.8; stroke-linecap: square"/>
     </g>
     <g id="line2d_6">
      <g>
       <use xlink:href="#m6c8481ce69" x="530.663593" y="169.2" style="stroke: #000000; stroke-width: 0.8"/>
      </g>
     </g>
     <g id="text_3">
      <!-- 4000 -->
      <g transform="translate(517.938593 183.798437)scale(0.1 -0.1)">
       <defs>
        <path id="DejaVuSans-34" d="M 2419 4116 
L 825 1625 
L 2419 1625 
L 2419 4116 
z
M 2253 4666 
L 3047 4666 
L 3047 1625 
L 3713 1625 
L 3713 1100 
L 3047 1100 
L 3047 0 
L 2419 0 
L 2419 1100 
L 313 1100 
L 313 1709 
L 2253 4666 
z
" transform="scale(0.015625)"/>
       </defs>
       <use xlink:href="#DejaVuSans-34"/>
       <use xlink:href="#DejaVuSans-30" x="63.623047"/>
       <use xlink:href="#DejaVuSans-30" x="127.246094"/>
       <use xlink:href="#DejaVuSans-30" x="190.869141"/>
      </g>
     </g>
    </g>
    <g id="xtick_4">
     <g id="line2d_7">
      <path d="M 576.336407 169.2 
L 576.336407 43.2 
" clip-path="url(#pc785395723)" style="fill: none; stroke: #b0b0b0; stroke-width: 0.8; stroke-linecap: square"/>
     </g>
     <g id="line2d_8">
      <g>
       <use xlink:href="#m6c8481ce69" x="576.336407" y="169.2" style="stroke: #000000; stroke-width: 0.8"/>
      </g>
     </g>
     <g id="text_4">
      <!-- 6000 -->
      <g transform="translate(563.611407 183.798437)scale(0.1 -0.1)">
       <defs>
        <path id="DejaVuSans-36" d="M 2113 2584 
Q 1688 2584 1439 2293 
Q 1191 2003 1191 1497 
Q 1191 994 1439 701 
Q 1688 409 2113 409 
Q 2538 409 2786 701 
Q 3034 994 3034 1497 
Q 3034 2003 2786 2293 
Q 2538 2584 2113 2584 
z
M 3366 4563 
L 3366 3988 
Q 3128 4100 2886 4159 
Q 2644 4219 2406 4219 
Q 1781 4219 1451 3797 
Q 1122 3375 1075 2522 
Q 1259 2794 1537 2939 
Q 1816 3084 2150 3084 
Q 2853 3084 3261 2657 
Q 3669 2231 3669 1497 
Q 3669 778 3244 343 
Q 2819 -91 2113 -91 
Q 1303 -91 875 529 
Q 447 1150 447 2328 
Q 447 3434 972 4092 
Q 1497 4750 2381 4750 
Q 2619 4750 2861 4703 
Q 3103 4656 3366 4563 
z
" transform="scale(0.015625)"/>
       </defs>
       <use xlink:href="#DejaVuSans-36"/>
       <use xlink:href="#DejaVuSans-30" x="63.623047"/>
       <use xlink:href="#DejaVuSans-30" x="127.246094"/>
       <use xlink:href="#DejaVuSans-30" x="190.869141"/>
      </g>
     </g>
    </g>
    <g id="xtick_5">
     <g id="line2d_9">
      <path d="M 622.009222 169.2 
L 622.009222 43.2 
" clip-path="url(#pc785395723)" style="fill: none; stroke: #b0b0b0; stroke-width: 0.8; stroke-linecap: square"/>
     </g>
     <g id="line2d_10">
      <g>
       <use xlink:href="#m6c8481ce69" x="622.009222" y="169.2" style="stroke: #000000; stroke-width: 0.8"/>
      </g>
     </g>
     <g id="text_5">
      <!-- 8000 -->
      <g transform="translate(609.284222 183.798437)scale(0.1 -0.1)">
       <defs>
        <path id="DejaVuSans-38" d="M 2034 2216 
Q 1584 2216 1326 1975 
Q 1069 1734 1069 1313 
Q 1069 891 1326 650 
Q 1584 409 2034 409 
Q 2484 409 2743 651 
Q 3003 894 3003 1313 
Q 3003 1734 2745 1975 
Q 2488 2216 2034 2216 
z
M 1403 2484 
Q 997 2584 770 2862 
Q 544 3141 544 3541 
Q 544 4100 942 4425 
Q 1341 4750 2034 4750 
Q 2731 4750 3128 4425 
Q 3525 4100 3525 3541 
Q 3525 3141 3298 2862 
Q 3072 2584 2669 2484 
Q 3125 2378 3379 2068 
Q 3634 1759 3634 1313 
Q 3634 634 3220 271 
Q 2806 -91 2034 -91 
Q 1263 -91 848 271 
Q 434 634 434 1313 
Q 434 1759 690 2068 
Q 947 2378 1403 2484 
z
M 1172 3481 
Q 1172 3119 1398 2916 
Q 1625 2713 2034 2713 
Q 2441 2713 2670 2916 
Q 2900 3119 2900 3481 
Q 2900 3844 2670 4047 
Q 2441 4250 2034 4250 
Q 1625 4250 1398 4047 
Q 1172 3844 1172 3481 
z
" transform="scale(0.015625)"/>
       </defs>
       <use xlink:href="#DejaVuSans-38"/>
       <use xlink:href="#DejaVuSans-30" x="63.623047"/>
       <use xlink:href="#DejaVuSans-30" x="127.246094"/>
       <use xlink:href="#DejaVuSans-30" x="190.869141"/>
      </g>
     </g>
    </g>
    <g id="xtick_6">
     <g id="line2d_11">
      <path d="M 667.682036 169.2 
L 667.682036 43.2 
" clip-path="url(#pc785395723)" style="fill: none; stroke: #b0b0b0; stroke-width: 0.8; stroke-linecap: square"/>
     </g>
     <g id="line2d_12">
      <g>
       <use xlink:href="#m6c8481ce69" x="667.682036" y="169.2" style="stroke: #000000; stroke-width: 0.8"/>
      </g>
     </g>
     <g id="text_6">
      <!-- 10000 -->
      <g transform="translate(651.775786 183.798437)scale(0.1 -0.1)">
       <defs>
        <path id="DejaVuSans-31" d="M 794 531 
L 1825 531 
L 1825 4091 
L 703 3866 
L 703 4441 
L 1819 4666 
L 2450 4666 
L 2450 531 
L 3481 531 
L 3481 0 
L 794 0 
L 794 531 
z
" transform="scale(0.015625)"/>
       </defs>
       <use xlink:href="#DejaVuSans-31"/>
       <use xlink:href="#DejaVuSans-30" x="63.623047"/>
       <use xlink:href="#DejaVuSans-30" x="127.246094"/>
       <use xlink:href="#DejaVuSans-30" x="190.869141"/>
       <use xlink:href="#DejaVuSans-30" x="254.492188"/>
      </g>
     </g>
    </g>
   </g>
   <g id="matplotlib.axis_2">
    <g id="ytick_1">
     <g id="line2d_13">
      <path d="M 430.411765 161.508082 
L 676.588235 161.508082 
" clip-path="url(#pc785395723)" style="fill: none; stroke: #b0b0b0; stroke-width: 0.8; stroke-linecap: square"/>
     </g>
     <g id="line2d_14">
      <defs>
       <path id="mddd1cce68b" d="M 0 0 
L -3.5 0 
" style="stroke: #000000; stroke-width: 0.8"/>
      </defs>
      <g>
       <use xlink:href="#mddd1cce68b" x="430.411765" y="161.508082" style="stroke: #000000; stroke-width: 0.8"/>
      </g>
     </g>
     <g id="text_7">
      <!-- 0 -->
      <g transform="translate(417.049265 165.307301)scale(0.1 -0.1)">
       <use xlink:href="#DejaVuSans-30"/>
      </g>
     </g>
    </g>
    <g id="ytick_2">
     <g id="line2d_15">
      <path d="M 430.411765 121.306909 
L 676.588235 121.306909 
" clip-path="url(#pc785395723)" style="fill: none; stroke: #b0b0b0; stroke-width: 0.8; stroke-linecap: square"/>
     </g>
     <g id="line2d_16">
      <g>
       <use xlink:href="#mddd1cce68b" x="430.411765" y="121.306909" style="stroke: #000000; stroke-width: 0.8"/>
      </g>
     </g>
     <g id="text_8">
      <!-- 50 -->
      <g transform="translate(410.686765 125.106128)scale(0.1 -0.1)">
       <defs>
        <path id="DejaVuSans-35" d="M 691 4666 
L 3169 4666 
L 3169 4134 
L 1269 4134 
L 1269 2991 
Q 1406 3038 1543 3061 
Q 1681 3084 1819 3084 
Q 2600 3084 3056 2656 
Q 3513 2228 3513 1497 
Q 3513 744 3044 326 
Q 2575 -91 1722 -91 
Q 1428 -91 1123 -41 
Q 819 9 494 109 
L 494 744 
Q 775 591 1075 516 
Q 1375 441 1709 441 
Q 2250 441 2565 725 
Q 2881 1009 2881 1497 
Q 2881 1984 2565 2268 
Q 2250 2553 1709 2553 
Q 1456 2553 1204 2497 
Q 953 2441 691 2322 
L 691 4666 
z
" transform="scale(0.015625)"/>
       </defs>
       <use xlink:href="#DejaVuSans-35"/>
       <use xlink:href="#DejaVuSans-30" x="63.623047"/>
      </g>
     </g>
    </g>
    <g id="ytick_3">
     <g id="line2d_17">
      <path d="M 430.411765 81.105736 
L 676.588235 81.105736 
" clip-path="url(#pc785395723)" style="fill: none; stroke: #b0b0b0; stroke-width: 0.8; stroke-linecap: square"/>
     </g>
     <g id="line2d_18">
      <g>
       <use xlink:href="#mddd1cce68b" x="430.411765" y="81.105736" style="stroke: #000000; stroke-width: 0.8"/>
      </g>
     </g>
     <g id="text_9">
      <!-- 100 -->
      <g transform="translate(404.324265 84.904955)scale(0.1 -0.1)">
       <use xlink:href="#DejaVuSans-31"/>
       <use xlink:href="#DejaVuSans-30" x="63.623047"/>
       <use xlink:href="#DejaVuSans-30" x="127.246094"/>
      </g>
     </g>
    </g>
   </g>
   <g id="line2d_19">
    <path d="M 441.601604 161.508082 
L 443.885245 161.508082 
L 446.168886 161.508082 
L 448.452526 161.508082 
L 450.736167 161.508082 
L 453.019808 161.508082 
L 455.303449 161.508082 
L 457.587089 161.508082 
L 459.87073 161.508082 
L 462.154371 161.508082 
L 464.438012 161.508082 
L 466.721652 161.508082 
L 469.005293 161.508082 
L 471.288934 161.508082 
L 473.572574 161.508082 
L 475.856215 161.508082 
L 478.139856 161.508082 
L 480.423497 161.508082 
L 482.707137 161.508082 
L 484.990778 161.508082 
L 487.274419 161.508082 
L 489.55806 161.508082 
L 491.8417 161.508082 
L 494.125341 161.508082 
L 496.408982 161.508082 
L 498.692623 161.508082 
L 500.976263 161.508082 
L 503.259904 161.508082 
L 505.543545 161.508082 
L 507.827185 161.508082 
L 510.110826 161.508082 
L 512.394467 161.508082 
L 514.678108 161.508082 
L 516.961748 161.508082 
L 519.245389 161.508082 
L 521.52903 161.508082 
L 523.812671 161.508082 
L 526.096311 161.508082 
L 528.379952 161.508082 
L 530.663593 161.508082 
L 532.947233 161.508082 
L 535.230874 161.508082 
L 537.514515 161.508082 
L 539.798156 161.508082 
L 542.081796 161.508082 
L 544.365437 161.508082 
L 546.649078 161.508082 
L 548.932719 161.508082 
L 551.216359 161.508082 
L 553.5 161.508082 
L 555.783641 161.508082 
L 558.067281 161.508082 
L 560.350922 161.508082 
L 562.634563 161.508082 
L 564.918204 161.508082 
L 567.201844 161.508082 
L 569.485485 161.508082 
L 571.769126 161.508082 
L 574.052767 161.508082 
L 576.336407 161.508082 
L 578.620048 161.508082 
L 580.903689 161.508082 
L 583.187329 161.508082 
L 585.47097 161.508082 
L 587.754611 161.508082 
L 590.038252 161.508082 
L 592.321892 161.508082 
L 594.605533 161.508082 
L 596.889174 161.508082 
L 599.172815 161.508082 
L 601.456455 161.508082 
L 603.740096 161.508082 
L 606.023737 161.508082 
L 608.307377 161.508082 
L 610.591018 161.508082 
L 612.874659 161.508082 
L 615.1583 161.508082 
L 617.44194 161.508082 
L 619.725581 161.508082 
L 622.009222 161.508082 
L 624.292863 161.508082 
L 626.576503 161.508082 
L 628.860144 161.508082 
L 631.143785 161.508082 
L 633.427426 161.508082 
L 635.711066 161.508082 
L 637.994707 161.508082 
L 640.278348 161.508082 
L 642.561988 161.508082 
L 644.845629 161.508082 
L 647.12927 161.508082 
L 649.412911 161.508082 
L 651.696551 161.508082 
L 653.980192 161.508082 
L 656.263833 161.508082 
L 658.547474 161.508082 
L 660.831114 161.508082 
L 663.114755 161.508082 
L 665.398396 161.508082 
" clip-path="url(#pc785395723)" style="fill: none; stroke: #1f77b4; stroke-width: 1.5; stroke-linecap: square"/>
   </g>
   <g id="line2d_20">
    <path d="M 441.601604 160.088865 
L 443.885245 160.939396 
L 446.168886 161.5731 
L 448.452526 161.577263 
L 450.736167 161.613824 
L 453.019808 161.633717 
L 455.303449 163.472727 
L 457.587089 162.976376 
L 459.87073 162.760902 
L 462.154371 162.696734 
L 464.438012 162.642714 
L 466.721652 162.590904 
L 469.005293 162.53619 
L 471.288934 162.52191 
L 473.572574 162.44815 
L 475.856215 162.325724 
L 478.139856 162.282751 
L 480.423497 162.234988 
L 482.707137 162.171735 
L 484.990778 162.148881 
L 487.274419 162.132724 
L 489.55806 162.115708 
L 491.8417 161.81207 
L 494.125341 161.793877 
L 496.408982 161.787362 
L 498.692623 161.766084 
L 500.976263 161.820071 
L 503.259904 161.827038 
L 505.543545 161.808191 
L 507.827185 158.702288 
L 510.110826 158.709398 
L 512.394467 158.771284 
L 514.678108 158.959178 
L 516.961748 159.050525 
L 519.245389 153.007551 
L 521.52903 153.482453 
L 523.812671 154.725073 
L 526.096311 155.968842 
L 528.379952 156.028263 
L 530.663593 156.124369 
L 532.947233 156.283895 
L 535.230874 156.335192 
L 537.514515 156.387793 
L 539.798156 156.562521 
L 542.081796 157.258845 
L 544.365437 157.305946 
L 546.649078 157.339571 
L 548.932719 158.211414 
L 551.216359 158.234106 
L 553.5 158.274887 
L 555.783641 158.295821 
L 558.067281 158.324551 
L 560.350922 158.357271 
L 562.634563 158.514663 
L 564.918204 158.537359 
L 567.201844 158.704624 
L 569.485485 158.725066 
L 571.769126 158.753618 
L 574.052767 158.769453 
L 576.336407 158.782603 
L 578.620048 158.810006 
L 580.903689 158.874766 
L 583.187329 158.888066 
L 585.47097 158.962327 
L 587.754611 158.997876 
L 590.038252 159.015351 
L 592.321892 159.005527 
L 594.605533 48.927273 
L 596.889174 49.270267 
L 599.172815 49.880496 
L 601.456455 60.804187 
L 603.740096 61.172547 
L 606.023737 61.507765 
L 608.307377 62.469891 
L 610.591018 62.746739 
L 612.874659 63.128753 
L 615.1583 63.503589 
L 617.44194 63.937602 
L 619.725581 64.34565 
L 622.009222 65.377606 
L 624.292863 65.973595 
L 626.576503 66.912247 
L 628.860144 67.957459 
L 631.143785 68.439995 
L 633.427426 68.785651 
L 635.711066 69.13543 
L 637.994707 70.507404 
L 640.278348 70.920572 
L 642.561988 71.537768 
L 644.845629 71.951815 
L 647.12927 72.182204 
L 649.412911 72.428178 
L 651.696551 72.795687 
L 653.980192 73.070863 
L 656.263833 73.341503 
L 658.547474 73.678972 
L 660.831114 73.877155 
L 663.114755 74.255955 
L 665.398396 74.624306 
" clip-path="url(#pc785395723)" style="fill: none; stroke: #ff7f0e; stroke-width: 1.5; stroke-linecap: square"/>
   </g>
   <g id="patch_3">
    <path d="M 430.411765 169.2 
L 430.411765 43.2 
" style="fill: none; stroke: #000000; stroke-width: 0.8; stroke-linejoin: miter; stroke-linecap: square"/>
   </g>
   <g id="patch_4">
    <path d="M 676.588235 169.2 
L 676.588235 43.2 
" style="fill: none; stroke: #000000; stroke-width: 0.8; stroke-linejoin: miter; stroke-linecap: square"/>
   </g>
   <g id="patch_5">
    <path d="M 430.411765 169.2 
L 676.588235 169.2 
" style="fill: none; stroke: #000000; stroke-width: 0.8; stroke-linejoin: miter; stroke-linecap: square"/>
   </g>
   <g id="patch_6">
    <path d="M 430.411765 43.2 
L 676.588235 43.2 
" style="fill: none; stroke: #000000; stroke-width: 0.8; stroke-linejoin: miter; stroke-linecap: square"/>
   </g>
  </g>
  <g id="axes_2">
   <g id="patch_7">
    <path d="M 135 169.2 
L 381.176471 169.2 
L 381.176471 43.2 
L 135 43.2 
z
" style="fill: #ffffff"/>
   </g>
   <g id="matplotlib.axis_3">
    <g id="xtick_7">
     <g id="line2d_21">
      <path d="M 143.906199 169.2 
L 143.906199 43.2 
" clip-path="url(#pbaf6bdaf1a)" style="fill: none; stroke: #b0b0b0; stroke-width: 0.8; stroke-linecap: square"/>
     </g>
     <g id="line2d_22">
      <g>
       <use xlink:href="#m6c8481ce69" x="143.906199" y="169.2" style="stroke: #000000; stroke-width: 0.8"/>
      </g>
     </g>
     <g id="text_10">
      <!-- 0 -->
      <g transform="translate(140.724949 183.798437)scale(0.1 -0.1)">
       <use xlink:href="#DejaVuSans-30"/>
      </g>
     </g>
    </g>
    <g id="xtick_8">
     <g id="line2d_23">
      <path d="M 189.579013 169.2 
L 189.579013 43.2 
" clip-path="url(#pbaf6bdaf1a)" style="fill: none; stroke: #b0b0b0; stroke-width: 0.8; stroke-linecap: square"/>
     </g>
     <g id="line2d_24">
      <g>
       <use xlink:href="#m6c8481ce69" x="189.579013" y="169.2" style="stroke: #000000; stroke-width: 0.8"/>
      </g>
     </g>
     <g id="text_11">
      <!-- 2000 -->
      <g transform="translate(176.854013 183.798437)scale(0.1 -0.1)">
       <use xlink:href="#DejaVuSans-32"/>
       <use xlink:href="#DejaVuSans-30" x="63.623047"/>
       <use xlink:href="#DejaVuSans-30" x="127.246094"/>
       <use xlink:href="#DejaVuSans-30" x="190.869141"/>
      </g>
     </g>
    </g>
    <g id="xtick_9">
     <g id="line2d_25">
      <path d="M 235.251828 169.2 
L 235.251828 43.2 
" clip-path="url(#pbaf6bdaf1a)" style="fill: none; stroke: #b0b0b0; stroke-width: 0.8; stroke-linecap: square"/>
     </g>
     <g id="line2d_26">
      <g>
       <use xlink:href="#m6c8481ce69" x="235.251828" y="169.2" style="stroke: #000000; stroke-width: 0.8"/>
      </g>
     </g>
     <g id="text_12">
      <!-- 4000 -->
      <g transform="translate(222.526828 183.798437)scale(0.1 -0.1)">
       <use xlink:href="#DejaVuSans-34"/>
       <use xlink:href="#DejaVuSans-30" x="63.623047"/>
       <use xlink:href="#DejaVuSans-30" x="127.246094"/>
       <use xlink:href="#DejaVuSans-30" x="190.869141"/>
      </g>
     </g>
    </g>
    <g id="xtick_10">
     <g id="line2d_27">
      <path d="M 280.924643 169.2 
L 280.924643 43.2 
" clip-path="url(#pbaf6bdaf1a)" style="fill: none; stroke: #b0b0b0; stroke-width: 0.8; stroke-linecap: square"/>
     </g>
     <g id="line2d_28">
      <g>
       <use xlink:href="#m6c8481ce69" x="280.924643" y="169.2" style="stroke: #000000; stroke-width: 0.8"/>
      </g>
     </g>
     <g id="text_13">
      <!-- 6000 -->
      <g transform="translate(268.199643 183.798437)scale(0.1 -0.1)">
       <use xlink:href="#DejaVuSans-36"/>
       <use xlink:href="#DejaVuSans-30" x="63.623047"/>
       <use xlink:href="#DejaVuSans-30" x="127.246094"/>
       <use xlink:href="#DejaVuSans-30" x="190.869141"/>
      </g>
     </g>
    </g>
    <g id="xtick_11">
     <g id="line2d_29">
      <path d="M 326.597457 169.2 
L 326.597457 43.2 
" clip-path="url(#pbaf6bdaf1a)" style="fill: none; stroke: #b0b0b0; stroke-width: 0.8; stroke-linecap: square"/>
     </g>
     <g id="line2d_30">
      <g>
       <use xlink:href="#m6c8481ce69" x="326.597457" y="169.2" style="stroke: #000000; stroke-width: 0.8"/>
      </g>
     </g>
     <g id="text_14">
      <!-- 8000 -->
      <g transform="translate(313.872457 183.798437)scale(0.1 -0.1)">
       <use xlink:href="#DejaVuSans-38"/>
       <use xlink:href="#DejaVuSans-30" x="63.623047"/>
       <use xlink:href="#DejaVuSans-30" x="127.246094"/>
       <use xlink:href="#DejaVuSans-30" x="190.869141"/>
      </g>
     </g>
    </g>
    <g id="xtick_12">
     <g id="line2d_31">
      <path d="M 372.270272 169.2 
L 372.270272 43.2 
" clip-path="url(#pbaf6bdaf1a)" style="fill: none; stroke: #b0b0b0; stroke-width: 0.8; stroke-linecap: square"/>
     </g>
     <g id="line2d_32">
      <g>
       <use xlink:href="#m6c8481ce69" x="372.270272" y="169.2" style="stroke: #000000; stroke-width: 0.8"/>
      </g>
     </g>
     <g id="text_15">
      <!-- 10000 -->
      <g transform="translate(356.364022 183.798437)scale(0.1 -0.1)">
       <use xlink:href="#DejaVuSans-31"/>
       <use xlink:href="#DejaVuSans-30" x="63.623047"/>
       <use xlink:href="#DejaVuSans-30" x="127.246094"/>
       <use xlink:href="#DejaVuSans-30" x="190.869141"/>
       <use xlink:href="#DejaVuSans-30" x="254.492188"/>
      </g>
     </g>
    </g>
    <g id="text_16">
     <!-- time(T)  -->
     <g transform="translate(238.24761 197.476562)scale(0.1 -0.1)">
      <defs>
       <path id="DejaVuSans-74" d="M 1172 4494 
L 1172 3500 
L 2356 3500 
L 2356 3053 
L 1172 3053 
L 1172 1153 
Q 1172 725 1289 603 
Q 1406 481 1766 481 
L 2356 481 
L 2356 0 
L 1766 0 
Q 1100 0 847 248 
Q 594 497 594 1153 
L 594 3053 
L 172 3053 
L 172 3500 
L 594 3500 
L 594 4494 
L 1172 4494 
z
" transform="scale(0.015625)"/>
       <path id="DejaVuSans-69" d="M 603 3500 
L 1178 3500 
L 1178 0 
L 603 0 
L 603 3500 
z
M 603 4863 
L 1178 4863 
L 1178 4134 
L 603 4134 
L 603 4863 
z
" transform="scale(0.015625)"/>
       <path id="DejaVuSans-6d" d="M 3328 2828 
Q 3544 3216 3844 3400 
Q 4144 3584 4550 3584 
Q 5097 3584 5394 3201 
Q 5691 2819 5691 2113 
L 5691 0 
L 5113 0 
L 5113 2094 
Q 5113 2597 4934 2840 
Q 4756 3084 4391 3084 
Q 3944 3084 3684 2787 
Q 3425 2491 3425 1978 
L 3425 0 
L 2847 0 
L 2847 2094 
Q 2847 2600 2669 2842 
Q 2491 3084 2119 3084 
Q 1678 3084 1418 2786 
Q 1159 2488 1159 1978 
L 1159 0 
L 581 0 
L 581 3500 
L 1159 3500 
L 1159 2956 
Q 1356 3278 1631 3431 
Q 1906 3584 2284 3584 
Q 2666 3584 2933 3390 
Q 3200 3197 3328 2828 
z
" transform="scale(0.015625)"/>
       <path id="DejaVuSans-65" d="M 3597 1894 
L 3597 1613 
L 953 1613 
Q 991 1019 1311 708 
Q 1631 397 2203 397 
Q 2534 397 2845 478 
Q 3156 559 3463 722 
L 3463 178 
Q 3153 47 2828 -22 
Q 2503 -91 2169 -91 
Q 1331 -91 842 396 
Q 353 884 353 1716 
Q 353 2575 817 3079 
Q 1281 3584 2069 3584 
Q 2775 3584 3186 3129 
Q 3597 2675 3597 1894 
z
M 3022 2063 
Q 3016 2534 2758 2815 
Q 2500 3097 2075 3097 
Q 1594 3097 1305 2825 
Q 1016 2553 972 2059 
L 3022 2063 
z
" transform="scale(0.015625)"/>
       <path id="DejaVuSans-28" d="M 1984 4856 
Q 1566 4138 1362 3434 
Q 1159 2731 1159 2009 
Q 1159 1288 1364 580 
Q 1569 -128 1984 -844 
L 1484 -844 
Q 1016 -109 783 600 
Q 550 1309 550 2009 
Q 550 2706 781 3412 
Q 1013 4119 1484 4856 
L 1984 4856 
z
" transform="scale(0.015625)"/>
       <path id="DejaVuSans-54" d="M -19 4666 
L 3928 4666 
L 3928 4134 
L 2272 4134 
L 2272 0 
L 1638 0 
L 1638 4134 
L -19 4134 
L -19 4666 
z
" transform="scale(0.015625)"/>
       <path id="DejaVuSans-29" d="M 513 4856 
L 1013 4856 
Q 1481 4119 1714 3412 
Q 1947 2706 1947 2009 
Q 1947 1309 1714 600 
Q 1481 -109 1013 -844 
L 513 -844 
Q 928 -128 1133 580 
Q 1338 1288 1338 2009 
Q 1338 2731 1133 3434 
Q 928 4138 513 4856 
z
" transform="scale(0.015625)"/>
       <path id="DejaVuSans-20" transform="scale(0.015625)"/>
      </defs>
      <use xlink:href="#DejaVuSans-74"/>
      <use xlink:href="#DejaVuSans-69" x="39.208984"/>
      <use xlink:href="#DejaVuSans-6d" x="66.992188"/>
      <use xlink:href="#DejaVuSans-65" x="164.404297"/>
      <use xlink:href="#DejaVuSans-28" x="225.927734"/>
      <use xlink:href="#DejaVuSans-54" x="264.941406"/>
      <use xlink:href="#DejaVuSans-29" x="326.025391"/>
      <use xlink:href="#DejaVuSans-20" x="365.039062"/>
     </g>
    </g>
   </g>
   <g id="matplotlib.axis_4">
    <g id="ytick_4">
     <g id="line2d_33">
      <path d="M 135 134.128366 
L 381.176471 134.128366 
" clip-path="url(#pbaf6bdaf1a)" style="fill: none; stroke: #b0b0b0; stroke-width: 0.8; stroke-linecap: square"/>
     </g>
     <g id="line2d_34">
      <g>
       <use xlink:href="#mddd1cce68b" x="135" y="134.128366" style="stroke: #000000; stroke-width: 0.8"/>
      </g>
     </g>
     <g id="text_17">
      <!-- 5 -->
      <g transform="translate(121.6375 137.927584)scale(0.1 -0.1)">
       <use xlink:href="#DejaVuSans-35"/>
      </g>
     </g>
    </g>
    <g id="ytick_5">
     <g id="line2d_35">
      <path d="M 135 97.447914 
L 381.176471 97.447914 
" clip-path="url(#pbaf6bdaf1a)" style="fill: none; stroke: #b0b0b0; stroke-width: 0.8; stroke-linecap: square"/>
     </g>
     <g id="line2d_36">
      <g>
       <use xlink:href="#mddd1cce68b" x="135" y="97.447914" style="stroke: #000000; stroke-width: 0.8"/>
      </g>
     </g>
     <g id="text_18">
      <!-- 10 -->
      <g transform="translate(115.275 101.247133)scale(0.1 -0.1)">
       <use xlink:href="#DejaVuSans-31"/>
       <use xlink:href="#DejaVuSans-30" x="63.623047"/>
      </g>
     </g>
    </g>
    <g id="ytick_6">
     <g id="line2d_37">
      <path d="M 135 60.767462 
L 381.176471 60.767462 
" clip-path="url(#pbaf6bdaf1a)" style="fill: none; stroke: #b0b0b0; stroke-width: 0.8; stroke-linecap: square"/>
     </g>
     <g id="line2d_38">
      <g>
       <use xlink:href="#mddd1cce68b" x="135" y="60.767462" style="stroke: #000000; stroke-width: 0.8"/>
      </g>
     </g>
     <g id="text_19">
      <!-- 15 -->
      <g transform="translate(115.275 64.566681)scale(0.1 -0.1)">
       <use xlink:href="#DejaVuSans-31"/>
       <use xlink:href="#DejaVuSans-35" x="63.623047"/>
      </g>
     </g>
    </g>
    <g id="text_20">
     <!-- Sigma_0 -->
     <g transform="translate(108.917188 127.553125)rotate(-90)scale(0.1 -0.1)">
      <defs>
       <path id="DejaVuSans-53" d="M 3425 4513 
L 3425 3897 
Q 3066 4069 2747 4153 
Q 2428 4238 2131 4238 
Q 1616 4238 1336 4038 
Q 1056 3838 1056 3469 
Q 1056 3159 1242 3001 
Q 1428 2844 1947 2747 
L 2328 2669 
Q 3034 2534 3370 2195 
Q 3706 1856 3706 1288 
Q 3706 609 3251 259 
Q 2797 -91 1919 -91 
Q 1588 -91 1214 -16 
Q 841 59 441 206 
L 441 856 
Q 825 641 1194 531 
Q 1563 422 1919 422 
Q 2459 422 2753 634 
Q 3047 847 3047 1241 
Q 3047 1584 2836 1778 
Q 2625 1972 2144 2069 
L 1759 2144 
Q 1053 2284 737 2584 
Q 422 2884 422 3419 
Q 422 4038 858 4394 
Q 1294 4750 2059 4750 
Q 2388 4750 2728 4690 
Q 3069 4631 3425 4513 
z
" transform="scale(0.015625)"/>
       <path id="DejaVuSans-67" d="M 2906 1791 
Q 2906 2416 2648 2759 
Q 2391 3103 1925 3103 
Q 1463 3103 1205 2759 
Q 947 2416 947 1791 
Q 947 1169 1205 825 
Q 1463 481 1925 481 
Q 2391 481 2648 825 
Q 2906 1169 2906 1791 
z
M 3481 434 
Q 3481 -459 3084 -895 
Q 2688 -1331 1869 -1331 
Q 1566 -1331 1297 -1286 
Q 1028 -1241 775 -1147 
L 775 -588 
Q 1028 -725 1275 -790 
Q 1522 -856 1778 -856 
Q 2344 -856 2625 -561 
Q 2906 -266 2906 331 
L 2906 616 
Q 2728 306 2450 153 
Q 2172 0 1784 0 
Q 1141 0 747 490 
Q 353 981 353 1791 
Q 353 2603 747 3093 
Q 1141 3584 1784 3584 
Q 2172 3584 2450 3431 
Q 2728 3278 2906 2969 
L 2906 3500 
L 3481 3500 
L 3481 434 
z
" transform="scale(0.015625)"/>
       <path id="DejaVuSans-61" d="M 2194 1759 
Q 1497 1759 1228 1600 
Q 959 1441 959 1056 
Q 959 750 1161 570 
Q 1363 391 1709 391 
Q 2188 391 2477 730 
Q 2766 1069 2766 1631 
L 2766 1759 
L 2194 1759 
z
M 3341 1997 
L 3341 0 
L 2766 0 
L 2766 531 
Q 2569 213 2275 61 
Q 1981 -91 1556 -91 
Q 1019 -91 701 211 
Q 384 513 384 1019 
Q 384 1609 779 1909 
Q 1175 2209 1959 2209 
L 2766 2209 
L 2766 2266 
Q 2766 2663 2505 2880 
Q 2244 3097 1772 3097 
Q 1472 3097 1187 3025 
Q 903 2953 641 2809 
L 641 3341 
Q 956 3463 1253 3523 
Q 1550 3584 1831 3584 
Q 2591 3584 2966 3190 
Q 3341 2797 3341 1997 
z
" transform="scale(0.015625)"/>
       <path id="DejaVuSans-5f" d="M 3263 -1063 
L 3263 -1509 
L -63 -1509 
L -63 -1063 
L 3263 -1063 
z
" transform="scale(0.015625)"/>
      </defs>
      <use xlink:href="#DejaVuSans-53"/>
      <use xlink:href="#DejaVuSans-69" x="63.476562"/>
      <use xlink:href="#DejaVuSans-67" x="91.259766"/>
      <use xlink:href="#DejaVuSans-6d" x="154.736328"/>
      <use xlink:href="#DejaVuSans-61" x="252.148438"/>
      <use xlink:href="#DejaVuSans-5f" x="313.427734"/>
      <use xlink:href="#DejaVuSans-30" x="363.427734"/>
     </g>
    </g>
   </g>
   <g id="line2d_39">
    <path d="M 146.18984 163.472727 
L 148.47348 163.472727 
L 150.757121 163.472727 
L 153.040762 163.472727 
L 155.324402 163.472727 
L 157.608043 163.472727 
L 159.891684 163.472727 
L 162.175325 163.472727 
L 164.458965 163.472727 
L 166.742606 163.472727 
L 169.026247 163.472727 
L 171.309888 163.472727 
L 173.593528 163.472727 
L 175.877169 163.472727 
L 178.16081 163.472727 
L 180.444451 163.472727 
L 182.728091 163.472727 
L 185.011732 163.472727 
L 187.295373 163.472727 
L 189.579013 163.472727 
L 191.862654 163.472727 
L 194.146295 163.472727 
L 196.429936 163.472727 
L 198.713576 163.472727 
L 200.997217 163.472727 
L 203.280858 163.472727 
L 205.564499 163.472727 
L 207.848139 163.472727 
L 210.13178 163.472727 
L 212.415421 163.472727 
L 214.699061 163.472727 
L 216.982702 163.472727 
L 219.266343 163.472727 
L 221.549984 163.472727 
L 223.833624 163.472727 
L 226.117265 163.472727 
L 228.400906 163.472727 
L 230.684547 163.472727 
L 232.968187 163.472727 
L 235.251828 163.472727 
L 237.535469 163.472727 
L 239.819109 163.472727 
L 242.10275 163.472727 
L 244.386391 163.472727 
L 246.670032 163.472727 
L 248.953672 163.472727 
L 251.237313 163.472727 
L 253.520954 163.472727 
L 255.804595 163.472727 
L 258.088235 163.472727 
L 260.371876 163.472727 
L 262.655517 163.472727 
L 264.939157 163.472727 
L 267.222798 163.472727 
L 269.506439 163.472727 
L 271.79008 163.472727 
L 274.07372 163.472727 
L 276.357361 163.472727 
L 278.641002 163.472727 
L 280.924643 163.472727 
L 283.208283 163.472727 
L 285.491924 163.472727 
L 287.775565 163.472727 
L 290.059206 163.472727 
L 292.342846 163.472727 
L 294.626487 163.472727 
L 296.910128 163.472727 
L 299.193768 163.472727 
L 301.477409 163.472727 
L 303.76105 163.472727 
L 306.044691 163.472727 
L 308.328331 163.472727 
L 310.611972 163.472727 
L 312.895613 163.472727 
L 315.179254 163.472727 
L 317.462894 163.472727 
L 319.746535 163.472727 
L 322.030176 163.472727 
L 324.313816 163.472727 
L 326.597457 163.472727 
L 328.881098 163.472727 
L 331.164739 163.472727 
L 333.448379 163.472727 
L 335.73202 163.472727 
L 338.015661 163.472727 
L 340.299302 163.472727 
L 342.582942 163.472727 
L 344.866583 163.472727 
L 347.150224 163.472727 
L 349.433864 163.472727 
L 351.717505 163.472727 
L 354.001146 163.472727 
L 356.284787 163.472727 
L 358.568427 163.472727 
L 360.852068 163.472727 
L 363.135709 163.472727 
L 365.41935 163.472727 
L 367.70299 163.472727 
L 369.986631 163.472727 
" clip-path="url(#pbaf6bdaf1a)" style="fill: none; stroke: #1f77b4; stroke-width: 1.5; stroke-linecap: square"/>
   </g>
   <g id="line2d_40">
    <path d="M 146.18984 156.282926 
L 148.47348 156.880268 
L 150.757121 154.136682 
L 153.040762 155.89608 
L 155.324402 156.245804 
L 157.608043 156.867329 
L 159.891684 152.363988 
L 162.175325 152.544332 
L 164.458965 152.284199 
L 166.742606 152.828696 
L 169.026247 153.384759 
L 171.309888 153.153399 
L 173.593528 153.572384 
L 175.877169 153.846537 
L 178.16081 154.056289 
L 180.444451 153.88512 
L 182.728091 154.099496 
L 185.011732 154.263935 
L 187.295373 154.290454 
L 189.579013 154.623125 
L 191.862654 154.865926 
L 194.146295 155.008844 
L 196.429936 154.117669 
L 198.713576 154.4183 
L 200.997217 154.556185 
L 203.280858 154.591467 
L 205.564499 153.898966 
L 207.848139 153.640297 
L 210.13178 153.739427 
L 212.415421 148.981832 
L 214.699061 149.257902 
L 216.982702 149.563847 
L 219.266343 149.442485 
L 221.549984 149.330198 
L 223.833624 139.155065 
L 226.117265 138.490362 
L 228.400906 135.743219 
L 230.684547 134.586383 
L 232.968187 134.879937 
L 235.251828 134.996643 
L 237.535469 134.853559 
L 239.819109 134.94815 
L 242.10275 135.138288 
L 244.386391 135.158117 
L 246.670032 134.020748 
L 248.953672 134.418794 
L 251.237313 135.030409 
L 253.520954 133.669109 
L 255.804595 134.156587 
L 258.088235 134.725224 
L 260.371876 135.10302 
L 262.655517 135.621293 
L 264.939157 135.946175 
L 267.222798 136.04346 
L 269.506439 136.408988 
L 271.79008 135.966077 
L 274.07372 136.431141 
L 276.357361 136.581719 
L 278.641002 136.933298 
L 280.924643 137.312681 
L 283.208283 137.506208 
L 285.491924 137.471478 
L 287.775565 137.785535 
L 290.059206 137.807412 
L 292.342846 137.996998 
L 294.626487 138.216772 
L 296.910128 138.218282 
L 299.193768 48.927273 
L 301.477409 49.558692 
L 303.76105 54.730236 
L 306.044691 57.565859 
L 308.328331 59.782474 
L 310.611972 58.763653 
L 312.895613 55.616694 
L 315.179254 58.991178 
L 317.462894 61.684155 
L 319.746535 60.638745 
L 322.030176 60.956295 
L 324.313816 62.018757 
L 326.597457 61.550149 
L 328.881098 65.23065 
L 331.164739 68.702384 
L 333.448379 72.082482 
L 335.73202 72.56101 
L 338.015661 75.977581 
L 340.299302 77.218427 
L 342.582942 72.345425 
L 344.866583 76.177449 
L 347.150224 77.62195 
L 349.433864 81.055533 
L 351.717505 82.71834 
L 354.001146 82.854285 
L 356.284787 82.173682 
L 358.568427 83.464273 
L 360.852068 84.77274 
L 363.135709 85.12049 
L 365.41935 84.831817 
L 367.70299 86.738919 
L 369.986631 89.035708 
" clip-path="url(#pbaf6bdaf1a)" style="fill: none; stroke: #ff7f0e; stroke-width: 1.5; stroke-linecap: square"/>
   </g>
   <g id="patch_8">
    <path d="M 135 169.2 
L 135 43.2 
" style="fill: none; stroke: #000000; stroke-width: 0.8; stroke-linejoin: miter; stroke-linecap: square"/>
   </g>
   <g id="patch_9">
    <path d="M 381.176471 169.2 
L 381.176471 43.2 
" style="fill: none; stroke: #000000; stroke-width: 0.8; stroke-linejoin: miter; stroke-linecap: square"/>
   </g>
   <g id="patch_10">
    <path d="M 135 169.2 
L 381.176471 169.2 
" style="fill: none; stroke: #000000; stroke-width: 0.8; stroke-linejoin: miter; stroke-linecap: square"/>
   </g>
   <g id="patch_11">
    <path d="M 135 43.2 
L 381.176471 43.2 
" style="fill: none; stroke: #000000; stroke-width: 0.8; stroke-linejoin: miter; stroke-linecap: square"/>
   </g>
  </g>
  <g id="axes_3">
   <g id="patch_12">
    <path d="M 725.823529 169.2 
L 972 169.2 
L 972 43.2 
L 725.823529 43.2 
z
" style="fill: #ffffff"/>
   </g>
   <g id="matplotlib.axis_5">
    <g id="xtick_13">
     <g id="line2d_41">
      <path d="M 734.729728 169.2 
L 734.729728 43.2 
" clip-path="url(#p63138d1363)" style="fill: none; stroke: #b0b0b0; stroke-width: 0.8; stroke-linecap: square"/>
     </g>
     <g id="line2d_42">
      <g>
       <use xlink:href="#m6c8481ce69" x="734.729728" y="169.2" style="stroke: #000000; stroke-width: 0.8"/>
      </g>
     </g>
     <g id="text_21">
      <!-- 0 -->
      <g transform="translate(731.548478 183.798437)scale(0.1 -0.1)">
       <use xlink:href="#DejaVuSans-30"/>
      </g>
     </g>
    </g>
    <g id="xtick_14">
     <g id="line2d_43">
      <path d="M 780.402543 169.2 
L 780.402543 43.2 
" clip-path="url(#p63138d1363)" style="fill: none; stroke: #b0b0b0; stroke-width: 0.8; stroke-linecap: square"/>
     </g>
     <g id="line2d_44">
      <g>
       <use xlink:href="#m6c8481ce69" x="780.402543" y="169.2" style="stroke: #000000; stroke-width: 0.8"/>
      </g>
     </g>
     <g id="text_22">
      <!-- 2000 -->
      <g transform="translate(767.677543 183.798437)scale(0.1 -0.1)">
       <use xlink:href="#DejaVuSans-32"/>
       <use xlink:href="#DejaVuSans-30" x="63.623047"/>
       <use xlink:href="#DejaVuSans-30" x="127.246094"/>
       <use xlink:href="#DejaVuSans-30" x="190.869141"/>
      </g>
     </g>
    </g>
    <g id="xtick_15">
     <g id="line2d_45">
      <path d="M 826.075357 169.2 
L 826.075357 43.2 
" clip-path="url(#p63138d1363)" style="fill: none; stroke: #b0b0b0; stroke-width: 0.8; stroke-linecap: square"/>
     </g>
     <g id="line2d_46">
      <g>
       <use xlink:href="#m6c8481ce69" x="826.075357" y="169.2" style="stroke: #000000; stroke-width: 0.8"/>
      </g>
     </g>
     <g id="text_23">
      <!-- 4000 -->
      <g transform="translate(813.350357 183.798437)scale(0.1 -0.1)">
       <use xlink:href="#DejaVuSans-34"/>
       <use xlink:href="#DejaVuSans-30" x="63.623047"/>
       <use xlink:href="#DejaVuSans-30" x="127.246094"/>
       <use xlink:href="#DejaVuSans-30" x="190.869141"/>
      </g>
     </g>
    </g>
    <g id="xtick_16">
     <g id="line2d_47">
      <path d="M 871.748172 169.2 
L 871.748172 43.2 
" clip-path="url(#p63138d1363)" style="fill: none; stroke: #b0b0b0; stroke-width: 0.8; stroke-linecap: square"/>
     </g>
     <g id="line2d_48">
      <g>
       <use xlink:href="#m6c8481ce69" x="871.748172" y="169.2" style="stroke: #000000; stroke-width: 0.8"/>
      </g>
     </g>
     <g id="text_24">
      <!-- 6000 -->
      <g transform="translate(859.023172 183.798437)scale(0.1 -0.1)">
       <use xlink:href="#DejaVuSans-36"/>
       <use xlink:href="#DejaVuSans-30" x="63.623047"/>
       <use xlink:href="#DejaVuSans-30" x="127.246094"/>
       <use xlink:href="#DejaVuSans-30" x="190.869141"/>
      </g>
     </g>
    </g>
    <g id="xtick_17">
     <g id="line2d_49">
      <path d="M 917.420987 169.2 
L 917.420987 43.2 
" clip-path="url(#p63138d1363)" style="fill: none; stroke: #b0b0b0; stroke-width: 0.8; stroke-linecap: square"/>
     </g>
     <g id="line2d_50">
      <g>
       <use xlink:href="#m6c8481ce69" x="917.420987" y="169.2" style="stroke: #000000; stroke-width: 0.8"/>
      </g>
     </g>
     <g id="text_25">
      <!-- 8000 -->
      <g transform="translate(904.695987 183.798437)scale(0.1 -0.1)">
       <use xlink:href="#DejaVuSans-38"/>
       <use xlink:href="#DejaVuSans-30" x="63.623047"/>
       <use xlink:href="#DejaVuSans-30" x="127.246094"/>
       <use xlink:href="#DejaVuSans-30" x="190.869141"/>
      </g>
     </g>
    </g>
    <g id="xtick_18">
     <g id="line2d_51">
      <path d="M 963.093801 169.2 
L 963.093801 43.2 
" clip-path="url(#p63138d1363)" style="fill: none; stroke: #b0b0b0; stroke-width: 0.8; stroke-linecap: square"/>
     </g>
     <g id="line2d_52">
      <g>
       <use xlink:href="#m6c8481ce69" x="963.093801" y="169.2" style="stroke: #000000; stroke-width: 0.8"/>
      </g>
     </g>
     <g id="text_26">
      <!-- 10000 -->
      <g transform="translate(947.187551 183.798437)scale(0.1 -0.1)">
       <use xlink:href="#DejaVuSans-31"/>
       <use xlink:href="#DejaVuSans-30" x="63.623047"/>
       <use xlink:href="#DejaVuSans-30" x="127.246094"/>
       <use xlink:href="#DejaVuSans-30" x="190.869141"/>
       <use xlink:href="#DejaVuSans-30" x="254.492188"/>
      </g>
     </g>
    </g>
    <g id="text_27">
     <!-- time(T)  -->
     <g transform="translate(829.07114 197.476562)scale(0.1 -0.1)">
      <use xlink:href="#DejaVuSans-74"/>
      <use xlink:href="#DejaVuSans-69" x="39.208984"/>
      <use xlink:href="#DejaVuSans-6d" x="66.992188"/>
      <use xlink:href="#DejaVuSans-65" x="164.404297"/>
      <use xlink:href="#DejaVuSans-28" x="225.927734"/>
      <use xlink:href="#DejaVuSans-54" x="264.941406"/>
      <use xlink:href="#DejaVuSans-29" x="326.025391"/>
      <use xlink:href="#DejaVuSans-20" x="365.039062"/>
     </g>
    </g>
   </g>
   <g id="matplotlib.axis_6">
    <g id="ytick_7">
     <g id="line2d_53">
      <path d="M 725.823529 164.37342 
L 972 164.37342 
" clip-path="url(#p63138d1363)" style="fill: none; stroke: #b0b0b0; stroke-width: 0.8; stroke-linecap: square"/>
     </g>
     <g id="line2d_54">
      <g>
       <use xlink:href="#mddd1cce68b" x="725.823529" y="164.37342" style="stroke: #000000; stroke-width: 0.8"/>
      </g>
     </g>
     <g id="text_28">
      <!-- 0.0 -->
      <g transform="translate(702.920404 168.172639)scale(0.1 -0.1)">
       <defs>
        <path id="DejaVuSans-2e" d="M 684 794 
L 1344 794 
L 1344 0 
L 684 0 
L 684 794 
z
" transform="scale(0.015625)"/>
       </defs>
       <use xlink:href="#DejaVuSans-30"/>
       <use xlink:href="#DejaVuSans-2e" x="63.623047"/>
       <use xlink:href="#DejaVuSans-30" x="95.410156"/>
      </g>
     </g>
    </g>
    <g id="ytick_8">
     <g id="line2d_55">
      <path d="M 725.823529 141.284191 
L 972 141.284191 
" clip-path="url(#p63138d1363)" style="fill: none; stroke: #b0b0b0; stroke-width: 0.8; stroke-linecap: square"/>
     </g>
     <g id="line2d_56">
      <g>
       <use xlink:href="#mddd1cce68b" x="725.823529" y="141.284191" style="stroke: #000000; stroke-width: 0.8"/>
      </g>
     </g>
     <g id="text_29">
      <!-- 0.2 -->
      <g transform="translate(702.920404 145.083409)scale(0.1 -0.1)">
       <use xlink:href="#DejaVuSans-30"/>
       <use xlink:href="#DejaVuSans-2e" x="63.623047"/>
       <use xlink:href="#DejaVuSans-32" x="95.410156"/>
      </g>
     </g>
    </g>
    <g id="ytick_9">
     <g id="line2d_57">
      <path d="M 725.823529 118.194961 
L 972 118.194961 
" clip-path="url(#p63138d1363)" style="fill: none; stroke: #b0b0b0; stroke-width: 0.8; stroke-linecap: square"/>
     </g>
     <g id="line2d_58">
      <g>
       <use xlink:href="#mddd1cce68b" x="725.823529" y="118.194961" style="stroke: #000000; stroke-width: 0.8"/>
      </g>
     </g>
     <g id="text_30">
      <!-- 0.4 -->
      <g transform="translate(702.920404 121.99418)scale(0.1 -0.1)">
       <use xlink:href="#DejaVuSans-30"/>
       <use xlink:href="#DejaVuSans-2e" x="63.623047"/>
       <use xlink:href="#DejaVuSans-34" x="95.410156"/>
      </g>
     </g>
    </g>
    <g id="ytick_10">
     <g id="line2d_59">
      <path d="M 725.823529 95.105732 
L 972 95.105732 
" clip-path="url(#p63138d1363)" style="fill: none; stroke: #b0b0b0; stroke-width: 0.8; stroke-linecap: square"/>
     </g>
     <g id="line2d_60">
      <g>
       <use xlink:href="#mddd1cce68b" x="725.823529" y="95.105732" style="stroke: #000000; stroke-width: 0.8"/>
      </g>
     </g>
     <g id="text_31">
      <!-- 0.6 -->
      <g transform="translate(702.920404 98.90495)scale(0.1 -0.1)">
       <use xlink:href="#DejaVuSans-30"/>
       <use xlink:href="#DejaVuSans-2e" x="63.623047"/>
       <use xlink:href="#DejaVuSans-36" x="95.410156"/>
      </g>
     </g>
    </g>
    <g id="ytick_11">
     <g id="line2d_61">
      <path d="M 725.823529 72.016502 
L 972 72.016502 
" clip-path="url(#p63138d1363)" style="fill: none; stroke: #b0b0b0; stroke-width: 0.8; stroke-linecap: square"/>
     </g>
     <g id="line2d_62">
      <g>
       <use xlink:href="#mddd1cce68b" x="725.823529" y="72.016502" style="stroke: #000000; stroke-width: 0.8"/>
      </g>
     </g>
     <g id="text_32">
      <!-- 0.8 -->
      <g transform="translate(702.920404 75.815721)scale(0.1 -0.1)">
       <use xlink:href="#DejaVuSans-30"/>
       <use xlink:href="#DejaVuSans-2e" x="63.623047"/>
       <use xlink:href="#DejaVuSans-38" x="95.410156"/>
      </g>
     </g>
    </g>
    <g id="ytick_12">
     <g id="line2d_63">
      <path d="M 725.823529 48.927273 
L 972 48.927273 
" clip-path="url(#p63138d1363)" style="fill: none; stroke: #b0b0b0; stroke-width: 0.8; stroke-linecap: square"/>
     </g>
     <g id="line2d_64">
      <g>
       <use xlink:href="#mddd1cce68b" x="725.823529" y="48.927273" style="stroke: #000000; stroke-width: 0.8"/>
      </g>
     </g>
     <g id="text_33">
      <!-- 1.0 -->
      <g transform="translate(702.920404 52.726491)scale(0.1 -0.1)">
       <use xlink:href="#DejaVuSans-31"/>
       <use xlink:href="#DejaVuSans-2e" x="63.623047"/>
       <use xlink:href="#DejaVuSans-30" x="95.410156"/>
      </g>
     </g>
    </g>
    <g id="text_34">
     <!-- Sigma_2 -->
     <g transform="translate(696.562592 127.553125)rotate(-90)scale(0.1 -0.1)">
      <use xlink:href="#DejaVuSans-53"/>
      <use xlink:href="#DejaVuSans-69" x="63.476562"/>
      <use xlink:href="#DejaVuSans-67" x="91.259766"/>
      <use xlink:href="#DejaVuSans-6d" x="154.736328"/>
      <use xlink:href="#DejaVuSans-61" x="252.148438"/>
      <use xlink:href="#DejaVuSans-5f" x="313.427734"/>
      <use xlink:href="#DejaVuSans-32" x="363.427734"/>
     </g>
    </g>
   </g>
   <g id="line2d_65">
    <path d="M 737.013369 48.927273 
L 739.29701 48.927273 
L 741.58065 48.927273 
L 743.864291 48.927273 
L 746.147932 48.927273 
L 748.431573 48.927273 
L 750.715213 48.927273 
L 752.998854 48.927273 
L 755.282495 48.927273 
L 757.566136 48.927273 
L 759.849776 48.927273 
L 762.133417 48.927273 
L 764.417058 48.927273 
L 766.700698 48.927273 
L 768.984339 48.927273 
L 771.26798 48.927273 
L 773.551621 48.927273 
L 775.835261 48.927273 
L 778.118902 48.927273 
L 780.402543 48.927273 
L 782.686184 48.927273 
L 784.969824 48.927273 
L 787.253465 48.927273 
L 789.537106 48.927273 
L 791.820746 48.927273 
L 794.104387 48.927273 
L 796.388028 48.927273 
L 798.671669 48.927273 
L 800.955309 48.927273 
L 803.23895 48.927273 
L 805.522591 48.927273 
L 807.806232 48.927273 
L 810.089872 48.927273 
L 812.373513 48.927273 
L 814.657154 48.927273 
L 816.940794 48.927273 
L 819.224435 48.927273 
L 821.508076 48.927273 
L 823.791717 48.927273 
L 826.075357 48.927273 
L 828.358998 48.927273 
L 830.642639 48.927273 
L 832.92628 48.927273 
L 835.20992 48.927273 
L 837.493561 48.927273 
L 839.777202 48.927273 
L 842.060843 48.927273 
L 844.344483 48.927273 
L 846.628124 48.927273 
L 848.911765 48.927273 
L 851.195405 48.927273 
L 853.479046 48.927273 
L 855.762687 48.927273 
L 858.046328 48.927273 
L 860.329968 48.927273 
L 862.613609 48.927273 
L 864.89725 48.927273 
L 867.180891 48.927273 
L 869.464531 48.927273 
L 871.748172 48.927273 
L 874.031813 48.927273 
L 876.315453 48.927273 
L 878.599094 48.927273 
L 880.882735 48.927273 
L 883.166376 48.927273 
L 885.450016 48.927273 
L 887.733657 48.927273 
L 890.017298 48.927273 
L 892.300939 48.927273 
L 894.584579 48.927273 
L 896.86822 48.927273 
L 899.151861 48.927273 
L 901.435501 48.927273 
L 903.719142 48.927273 
L 906.002783 48.927273 
L 908.286424 48.927273 
L 910.570064 48.927273 
L 912.853705 48.927273 
L 915.137346 48.927273 
L 917.420987 48.927273 
L 919.704627 48.927273 
L 921.988268 48.927273 
L 924.271909 48.927273 
L 926.555549 48.927273 
L 928.83919 48.927273 
L 931.122831 48.927273 
L 933.406472 48.927273 
L 935.690112 48.927273 
L 937.973753 48.927273 
L 940.257394 48.927273 
L 942.541035 48.927273 
L 944.824675 48.927273 
L 947.108316 48.927273 
L 949.391957 48.927273 
L 951.675598 48.927273 
L 953.959238 48.927273 
L 956.242879 48.927273 
L 958.52652 48.927273 
L 960.81016 48.927273 
" clip-path="url(#p63138d1363)" style="fill: none; stroke: #1f77b4; stroke-width: 1.5; stroke-linecap: square"/>
   </g>
   <g id="line2d_66">
    <path d="M 737.013369 140.030679 
L 739.29701 133.336242 
L 741.58065 129.540572 
L 743.864291 129.589973 
L 746.147932 130.129948 
L 748.431573 130.408461 
L 750.715213 132.4569 
L 752.998854 130.481077 
L 755.282495 129.998025 
L 757.566136 129.960319 
L 759.849776 129.819311 
L 762.133417 129.750467 
L 764.417058 129.550634 
L 766.700698 129.606566 
L 768.984339 129.354941 
L 771.26798 128.977391 
L 773.551621 128.883198 
L 775.835261 128.759008 
L 778.118902 128.551115 
L 780.402543 128.498668 
L 782.686184 128.465312 
L 784.969824 128.434107 
L 787.253465 127.345201 
L 789.537106 127.317012 
L 791.820746 127.329077 
L 794.104387 127.314162 
L 796.388028 127.557759 
L 798.671669 127.649054 
L 800.955309 127.621066 
L 803.23895 130.270937 
L 805.522591 130.346046 
L 807.806232 130.259787 
L 810.089872 129.87578 
L 812.373513 129.751195 
L 814.657154 140.952376 
L 816.940794 140.006062 
L 819.224435 137.451 
L 821.508076 134.72313 
L 823.791717 134.624224 
L 826.075357 134.469635 
L 828.358998 134.177043 
L 830.642639 134.124889 
L 832.92628 134.034195 
L 835.20992 133.714134 
L 837.493561 132.258525 
L 839.777202 132.186174 
L 842.060843 132.137631 
L 844.344483 130.334415 
L 846.628124 130.30569 
L 848.911765 130.252368 
L 851.195405 130.232975 
L 853.479046 130.206179 
L 855.762687 130.157026 
L 858.046328 129.859837 
L 860.329968 129.830644 
L 862.613609 129.525023 
L 864.89725 129.498708 
L 867.180891 129.45667 
L 869.464531 129.438196 
L 871.748172 129.423379 
L 874.031813 129.403176 
L 876.315453 129.312231 
L 878.599094 129.298332 
L 880.882735 129.174089 
L 883.166376 129.130521 
L 885.450016 129.109242 
L 887.733657 129.16767 
L 890.017298 163.472727 
L 892.300939 163.358175 
L 894.584579 163.15656 
L 896.86822 159.774404 
L 899.151861 159.650426 
L 901.435501 159.537305 
L 903.719142 159.213377 
L 906.002783 159.119795 
L 908.286424 158.991806 
L 910.570064 158.865414 
L 912.853705 158.719032 
L 915.137346 158.581621 
L 917.420987 158.229665 
L 919.704627 158.028355 
L 921.988268 157.716249 
L 924.271909 157.374415 
L 926.555549 157.210627 
L 928.83919 157.094134 
L 931.122831 156.975922 
L 933.406472 156.504475 
L 935.690112 156.366655 
L 937.973753 156.159324 
L 940.257394 156.020227 
L 942.541035 155.942759 
L 944.824675 155.859929 
L 947.108316 155.735116 
L 949.391957 155.642179 
L 951.675598 155.551239 
L 953.959238 155.436982 
L 956.242879 155.370147 
L 958.52652 155.242903 
L 960.81016 155.11889 
" clip-path="url(#p63138d1363)" style="fill: none; stroke: #ff7f0e; stroke-width: 1.5; stroke-linecap: square"/>
   </g>
   <g id="patch_13">
    <path d="M 725.823529 169.2 
L 725.823529 43.2 
" style="fill: none; stroke: #000000; stroke-width: 0.8; stroke-linejoin: miter; stroke-linecap: square"/>
   </g>
   <g id="patch_14">
    <path d="M 972 169.2 
L 972 43.2 
" style="fill: none; stroke: #000000; stroke-width: 0.8; stroke-linejoin: miter; stroke-linecap: square"/>
   </g>
   <g id="patch_15">
    <path d="M 725.823529 169.2 
L 972 169.2 
" style="fill: none; stroke: #000000; stroke-width: 0.8; stroke-linejoin: miter; stroke-linecap: square"/>
   </g>
   <g id="patch_16">
    <path d="M 725.823529 43.2 
L 972 43.2 
" style="fill: none; stroke: #000000; stroke-width: 0.8; stroke-linejoin: miter; stroke-linecap: square"/>
   </g>
  </g>
  <g id="axes_4">
   <g id="patch_17">
    <path d="M 135 320.4 
L 381.176471 320.4 
L 381.176471 194.4 
L 135 194.4 
z
" style="fill: #ffffff"/>
   </g>
   <g id="matplotlib.axis_7">
    <g id="xtick_19">
     <g id="line2d_67">
      <path d="M 168.569519 320.4 
L 168.569519 194.4 
" clip-path="url(#p8494043240)" style="fill: none; stroke: #b0b0b0; stroke-width: 0.8; stroke-linecap: square"/>
     </g>
     <g id="line2d_68">
      <g>
       <use xlink:href="#m6c8481ce69" x="168.569519" y="320.4" style="stroke: #000000; stroke-width: 0.8"/>
      </g>
     </g>
     <g id="text_35">
      <!-- 0.04 -->
      <g transform="translate(153.246862 334.998438)scale(0.1 -0.1)">
       <defs>
        <path id="DejaVuSans-2212" d="M 678 2272 
L 4684 2272 
L 4684 1741 
L 678 1741 
L 678 2272 
z
" transform="scale(0.015625)"/>
       </defs>
       <use xlink:href="#DejaVuSans-2212"/>
       <use xlink:href="#DejaVuSans-30" x="83.789062"/>
       <use xlink:href="#DejaVuSans-2e" x="147.412109"/>
       <use xlink:href="#DejaVuSans-30" x="179.199219"/>
       <use xlink:href="#DejaVuSans-34" x="242.822266"/>
      </g>
     </g>
    </g>
    <g id="xtick_20">
     <g id="line2d_69">
      <path d="M 213.328877 320.4 
L 213.328877 194.4 
" clip-path="url(#p8494043240)" style="fill: none; stroke: #b0b0b0; stroke-width: 0.8; stroke-linecap: square"/>
     </g>
     <g id="line2d_70">
      <g>
       <use xlink:href="#m6c8481ce69" x="213.328877" y="320.4" style="stroke: #000000; stroke-width: 0.8"/>
      </g>
     </g>
     <g id="text_36">
      <!-- 0.02 -->
      <g transform="translate(198.006221 334.998438)scale(0.1 -0.1)">
       <use xlink:href="#DejaVuSans-2212"/>
       <use xlink:href="#DejaVuSans-30" x="83.789062"/>
       <use xlink:href="#DejaVuSans-2e" x="147.412109"/>
       <use xlink:href="#DejaVuSans-30" x="179.199219"/>
       <use xlink:href="#DejaVuSans-32" x="242.822266"/>
      </g>
     </g>
    </g>
    <g id="xtick_21">
     <g id="line2d_71">
      <path d="M 258.088235 320.4 
L 258.088235 194.4 
" clip-path="url(#p8494043240)" style="fill: none; stroke: #b0b0b0; stroke-width: 0.8; stroke-linecap: square"/>
     </g>
     <g id="line2d_72">
      <g>
       <use xlink:href="#m6c8481ce69" x="258.088235" y="320.4" style="stroke: #000000; stroke-width: 0.8"/>
      </g>
     </g>
     <g id="text_37">
      <!-- 0.00 -->
      <g transform="translate(246.955423 334.998438)scale(0.1 -0.1)">
       <use xlink:href="#DejaVuSans-30"/>
       <use xlink:href="#DejaVuSans-2e" x="63.623047"/>
       <use xlink:href="#DejaVuSans-30" x="95.410156"/>
       <use xlink:href="#DejaVuSans-30" x="159.033203"/>
      </g>
     </g>
    </g>
    <g id="xtick_22">
     <g id="line2d_73">
      <path d="M 302.847594 320.4 
L 302.847594 194.4 
" clip-path="url(#p8494043240)" style="fill: none; stroke: #b0b0b0; stroke-width: 0.8; stroke-linecap: square"/>
     </g>
     <g id="line2d_74">
      <g>
       <use xlink:href="#m6c8481ce69" x="302.847594" y="320.4" style="stroke: #000000; stroke-width: 0.8"/>
      </g>
     </g>
     <g id="text_38">
      <!-- 0.02 -->
      <g transform="translate(291.714781 334.998438)scale(0.1 -0.1)">
       <use xlink:href="#DejaVuSans-30"/>
       <use xlink:href="#DejaVuSans-2e" x="63.623047"/>
       <use xlink:href="#DejaVuSans-30" x="95.410156"/>
       <use xlink:href="#DejaVuSans-32" x="159.033203"/>
      </g>
     </g>
    </g>
    <g id="xtick_23">
     <g id="line2d_75">
      <path d="M 347.606952 320.4 
L 347.606952 194.4 
" clip-path="url(#p8494043240)" style="fill: none; stroke: #b0b0b0; stroke-width: 0.8; stroke-linecap: square"/>
     </g>
     <g id="line2d_76">
      <g>
       <use xlink:href="#m6c8481ce69" x="347.606952" y="320.4" style="stroke: #000000; stroke-width: 0.8"/>
      </g>
     </g>
     <g id="text_39">
      <!-- 0.04 -->
      <g transform="translate(336.474139 334.998438)scale(0.1 -0.1)">
       <use xlink:href="#DejaVuSans-30"/>
       <use xlink:href="#DejaVuSans-2e" x="63.623047"/>
       <use xlink:href="#DejaVuSans-30" x="95.410156"/>
       <use xlink:href="#DejaVuSans-34" x="159.033203"/>
      </g>
     </g>
    </g>
   </g>
   <g id="matplotlib.axis_8">
    <g id="ytick_13">
     <g id="line2d_77">
      <path d="M 135 312.412319 
L 381.176471 312.412319 
" clip-path="url(#p8494043240)" style="fill: none; stroke: #b0b0b0; stroke-width: 0.8; stroke-linecap: square"/>
     </g>
     <g id="line2d_78">
      <g>
       <use xlink:href="#mddd1cce68b" x="135" y="312.412319" style="stroke: #000000; stroke-width: 0.8"/>
      </g>
     </g>
     <g id="text_40">
      <!-- 1.30 -->
      <g transform="translate(105.734375 316.211538)scale(0.1 -0.1)">
       <defs>
        <path id="DejaVuSans-33" d="M 2597 2516 
Q 3050 2419 3304 2112 
Q 3559 1806 3559 1356 
Q 3559 666 3084 287 
Q 2609 -91 1734 -91 
Q 1441 -91 1130 -33 
Q 819 25 488 141 
L 488 750 
Q 750 597 1062 519 
Q 1375 441 1716 441 
Q 2309 441 2620 675 
Q 2931 909 2931 1356 
Q 2931 1769 2642 2001 
Q 2353 2234 1838 2234 
L 1294 2234 
L 1294 2753 
L 1863 2753 
Q 2328 2753 2575 2939 
Q 2822 3125 2822 3475 
Q 2822 3834 2567 4026 
Q 2313 4219 1838 4219 
Q 1578 4219 1281 4162 
Q 984 4106 628 3988 
L 628 4550 
Q 988 4650 1302 4700 
Q 1616 4750 1894 4750 
Q 2613 4750 3031 4423 
Q 3450 4097 3450 3541 
Q 3450 3153 3228 2886 
Q 3006 2619 2597 2516 
z
" transform="scale(0.015625)"/>
       </defs>
       <use xlink:href="#DejaVuSans-31"/>
       <use xlink:href="#DejaVuSans-2e" x="63.623047"/>
       <use xlink:href="#DejaVuSans-33" x="95.410156"/>
       <use xlink:href="#DejaVuSans-30" x="159.033203"/>
      </g>
     </g>
    </g>
    <g id="ytick_14">
     <g id="line2d_79">
      <path d="M 135 270.472234 
L 381.176471 270.472234 
" clip-path="url(#p8494043240)" style="fill: none; stroke: #b0b0b0; stroke-width: 0.8; stroke-linecap: square"/>
     </g>
     <g id="line2d_80">
      <g>
       <use xlink:href="#mddd1cce68b" x="135" y="270.472234" style="stroke: #000000; stroke-width: 0.8"/>
      </g>
     </g>
     <g id="text_41">
      <!-- 1.35 -->
      <g transform="translate(105.734375 274.271452)scale(0.1 -0.1)">
       <use xlink:href="#DejaVuSans-31"/>
       <use xlink:href="#DejaVuSans-2e" x="63.623047"/>
       <use xlink:href="#DejaVuSans-33" x="95.410156"/>
       <use xlink:href="#DejaVuSans-35" x="159.033203"/>
      </g>
     </g>
    </g>
    <g id="ytick_15">
     <g id="line2d_81">
      <path d="M 135 228.532148 
L 381.176471 228.532148 
" clip-path="url(#p8494043240)" style="fill: none; stroke: #b0b0b0; stroke-width: 0.8; stroke-linecap: square"/>
     </g>
     <g id="line2d_82">
      <g>
       <use xlink:href="#mddd1cce68b" x="135" y="228.532148" style="stroke: #000000; stroke-width: 0.8"/>
      </g>
     </g>
     <g id="text_42">
      <!-- 1.40 -->
      <g transform="translate(105.734375 232.331367)scale(0.1 -0.1)">
       <use xlink:href="#DejaVuSans-31"/>
       <use xlink:href="#DejaVuSans-2e" x="63.623047"/>
       <use xlink:href="#DejaVuSans-34" x="95.410156"/>
       <use xlink:href="#DejaVuSans-30" x="159.033203"/>
      </g>
     </g>
    </g>
    <g id="text_43">
     <!-- 1e13 -->
     <g transform="translate(135 191.4)scale(0.1 -0.1)">
      <use xlink:href="#DejaVuSans-31"/>
      <use xlink:href="#DejaVuSans-65" x="63.623047"/>
      <use xlink:href="#DejaVuSans-31" x="125.146484"/>
      <use xlink:href="#DejaVuSans-33" x="188.769531"/>
     </g>
    </g>
   </g>
   <g id="line2d_83">
    <path d="M 258.088235 257.4 
" clip-path="url(#p8494043240)" style="fill: none; stroke: #1f77b4; stroke-width: 1.5; stroke-linecap: square"/>
   </g>
   <g id="patch_18">
    <path d="M 135 320.4 
L 135 194.4 
" style="fill: none; stroke: #000000; stroke-width: 0.8; stroke-linejoin: miter; stroke-linecap: square"/>
   </g>
   <g id="patch_19">
    <path d="M 381.176471 320.4 
L 381.176471 194.4 
" style="fill: none; stroke: #000000; stroke-width: 0.8; stroke-linejoin: miter; stroke-linecap: square"/>
   </g>
   <g id="patch_20">
    <path d="M 135 320.4 
L 381.176471 320.4 
" style="fill: none; stroke: #000000; stroke-width: 0.8; stroke-linejoin: miter; stroke-linecap: square"/>
   </g>
   <g id="patch_21">
    <path d="M 135 194.4 
L 381.176471 194.4 
" style="fill: none; stroke: #000000; stroke-width: 0.8; stroke-linejoin: miter; stroke-linecap: square"/>
   </g>
  </g>
  <g id="axes_5">
   <g id="patch_22">
    <path d="M 430.411765 320.4 
L 676.588235 320.4 
L 676.588235 194.4 
L 430.411765 194.4 
z
" style="fill: #ffffff"/>
   </g>
   <g id="matplotlib.axis_9">
    <g id="xtick_24">
     <g id="line2d_84">
      <path d="M 448.345776 320.4 
L 448.345776 194.4 
" clip-path="url(#pa93f98dbef)" style="fill: none; stroke: #b0b0b0; stroke-width: 0.8; stroke-linecap: square"/>
     </g>
     <g id="line2d_85">
      <g>
       <use xlink:href="#m6c8481ce69" x="448.345776" y="320.4" style="stroke: #000000; stroke-width: 0.8"/>
      </g>
     </g>
     <g id="text_44">
      <!-- 3 -->
      <g transform="translate(440.974682 334.998438)scale(0.1 -0.1)">
       <use xlink:href="#DejaVuSans-2212"/>
       <use xlink:href="#DejaVuSans-33" x="83.789062"/>
      </g>
     </g>
    </g>
    <g id="xtick_25">
     <g id="line2d_86">
      <path d="M 484.662961 320.4 
L 484.662961 194.4 
" clip-path="url(#pa93f98dbef)" style="fill: none; stroke: #b0b0b0; stroke-width: 0.8; stroke-linecap: square"/>
     </g>
     <g id="line2d_87">
      <g>
       <use xlink:href="#m6c8481ce69" x="484.662961" y="320.4" style="stroke: #000000; stroke-width: 0.8"/>
      </g>
     </g>
     <g id="text_45">
      <!-- 2 -->
      <g transform="translate(477.291867 334.998438)scale(0.1 -0.1)">
       <use xlink:href="#DejaVuSans-2212"/>
       <use xlink:href="#DejaVuSans-32" x="83.789062"/>
      </g>
     </g>
    </g>
    <g id="xtick_26">
     <g id="line2d_88">
      <path d="M 520.980146 320.4 
L 520.980146 194.4 
" clip-path="url(#pa93f98dbef)" style="fill: none; stroke: #b0b0b0; stroke-width: 0.8; stroke-linecap: square"/>
     </g>
     <g id="line2d_89">
      <g>
       <use xlink:href="#m6c8481ce69" x="520.980146" y="320.4" style="stroke: #000000; stroke-width: 0.8"/>
      </g>
     </g>
     <g id="text_46">
      <!-- 1 -->
      <g transform="translate(513.609052 334.998438)scale(0.1 -0.1)">
       <use xlink:href="#DejaVuSans-2212"/>
       <use xlink:href="#DejaVuSans-31" x="83.789062"/>
      </g>
     </g>
    </g>
    <g id="xtick_27">
     <g id="line2d_90">
      <path d="M 557.297331 320.4 
L 557.297331 194.4 
" clip-path="url(#pa93f98dbef)" style="fill: none; stroke: #b0b0b0; stroke-width: 0.8; stroke-linecap: square"/>
     </g>
     <g id="line2d_91">
      <g>
       <use xlink:href="#m6c8481ce69" x="557.297331" y="320.4" style="stroke: #000000; stroke-width: 0.8"/>
      </g>
     </g>
     <g id="text_47">
      <!-- 0 -->
      <g transform="translate(554.116081 334.998438)scale(0.1 -0.1)">
       <use xlink:href="#DejaVuSans-30"/>
      </g>
     </g>
    </g>
    <g id="xtick_28">
     <g id="line2d_92">
      <path d="M 593.614516 320.4 
L 593.614516 194.4 
" clip-path="url(#pa93f98dbef)" style="fill: none; stroke: #b0b0b0; stroke-width: 0.8; stroke-linecap: square"/>
     </g>
     <g id="line2d_93">
      <g>
       <use xlink:href="#m6c8481ce69" x="593.614516" y="320.4" style="stroke: #000000; stroke-width: 0.8"/>
      </g>
     </g>
     <g id="text_48">
      <!-- 1 -->
      <g transform="translate(590.433266 334.998438)scale(0.1 -0.1)">
       <use xlink:href="#DejaVuSans-31"/>
      </g>
     </g>
    </g>
    <g id="xtick_29">
     <g id="line2d_94">
      <path d="M 629.931701 320.4 
L 629.931701 194.4 
" clip-path="url(#pa93f98dbef)" style="fill: none; stroke: #b0b0b0; stroke-width: 0.8; stroke-linecap: square"/>
     </g>
     <g id="line2d_95">
      <g>
       <use xlink:href="#m6c8481ce69" x="629.931701" y="320.4" style="stroke: #000000; stroke-width: 0.8"/>
      </g>
     </g>
     <g id="text_49">
      <!-- 2 -->
      <g transform="translate(626.750451 334.998438)scale(0.1 -0.1)">
       <use xlink:href="#DejaVuSans-32"/>
      </g>
     </g>
    </g>
    <g id="xtick_30">
     <g id="line2d_96">
      <path d="M 666.248886 320.4 
L 666.248886 194.4 
" clip-path="url(#pa93f98dbef)" style="fill: none; stroke: #b0b0b0; stroke-width: 0.8; stroke-linecap: square"/>
     </g>
     <g id="line2d_97">
      <g>
       <use xlink:href="#m6c8481ce69" x="666.248886" y="320.4" style="stroke: #000000; stroke-width: 0.8"/>
      </g>
     </g>
     <g id="text_50">
      <!-- 3 -->
      <g transform="translate(663.067636 334.998438)scale(0.1 -0.1)">
       <use xlink:href="#DejaVuSans-33"/>
      </g>
     </g>
    </g>
   </g>
   <g id="matplotlib.axis_10">
    <g id="ytick_16">
     <g id="line2d_98">
      <path d="M 430.411765 291.913221 
L 676.588235 291.913221 
" clip-path="url(#pa93f98dbef)" style="fill: none; stroke: #b0b0b0; stroke-width: 0.8; stroke-linecap: square"/>
     </g>
     <g id="line2d_99">
      <g>
       <use xlink:href="#mddd1cce68b" x="430.411765" y="291.913221" style="stroke: #000000; stroke-width: 0.8"/>
      </g>
     </g>
     <g id="text_51">
      <!-- 200 -->
      <g transform="translate(395.944577 295.71244)scale(0.1 -0.1)">
       <use xlink:href="#DejaVuSans-2212"/>
       <use xlink:href="#DejaVuSans-32" x="83.789062"/>
       <use xlink:href="#DejaVuSans-30" x="147.412109"/>
       <use xlink:href="#DejaVuSans-30" x="211.035156"/>
      </g>
     </g>
    </g>
    <g id="ytick_17">
     <g id="line2d_100">
      <path d="M 430.411765 257.504891 
L 676.588235 257.504891 
" clip-path="url(#pa93f98dbef)" style="fill: none; stroke: #b0b0b0; stroke-width: 0.8; stroke-linecap: square"/>
     </g>
     <g id="line2d_101">
      <g>
       <use xlink:href="#mddd1cce68b" x="430.411765" y="257.504891" style="stroke: #000000; stroke-width: 0.8"/>
      </g>
     </g>
     <g id="text_52">
      <!-- 0 -->
      <g transform="translate(417.049265 261.30411)scale(0.1 -0.1)">
       <use xlink:href="#DejaVuSans-30"/>
      </g>
     </g>
    </g>
    <g id="ytick_18">
     <g id="line2d_102">
      <path d="M 430.411765 223.096562 
L 676.588235 223.096562 
" clip-path="url(#pa93f98dbef)" style="fill: none; stroke: #b0b0b0; stroke-width: 0.8; stroke-linecap: square"/>
     </g>
     <g id="line2d_103">
      <g>
       <use xlink:href="#mddd1cce68b" x="430.411765" y="223.096562" style="stroke: #000000; stroke-width: 0.8"/>
      </g>
     </g>
     <g id="text_53">
      <!-- 200 -->
      <g transform="translate(404.324265 226.89578)scale(0.1 -0.1)">
       <use xlink:href="#DejaVuSans-32"/>
       <use xlink:href="#DejaVuSans-30" x="63.623047"/>
       <use xlink:href="#DejaVuSans-30" x="127.246094"/>
      </g>
     </g>
    </g>
   </g>
   <g id="line2d_104">
    <path d="M 441.601604 255.586851 
L 443.862178 255.654415 
L 446.122752 255.720645 
L 448.383325 255.785542 
L 450.643899 255.849106 
L 452.904473 255.911337 
L 455.165046 255.972235 
L 457.42562 256.031799 
L 459.686193 256.09003 
L 461.946767 256.146929 
L 464.207341 256.202494 
L 466.467914 256.256726 
L 468.728488 256.309625 
L 470.989062 256.36119 
L 473.249635 256.411423 
L 475.510209 256.460322 
L 477.770783 256.507889 
L 480.031356 256.554122 
L 482.29193 256.599022 
L 484.552504 256.642589 
L 486.813077 256.684822 
L 489.073651 256.725723 
L 491.334225 256.76529 
L 493.594798 256.803524 
L 495.855372 256.840426 
L 498.115946 256.875994 
L 500.376519 256.910228 
L 502.637093 256.94313 
L 504.897667 256.974699 
L 507.15824 257.004934 
L 509.418814 257.033836 
L 511.679387 257.061405 
L 513.939961 257.087641 
L 516.200535 257.112544 
L 518.461108 257.136114 
L 520.721682 257.158351 
L 522.982256 257.179254 
L 525.242829 257.198824 
L 527.503403 257.217061 
L 529.763977 257.233965 
L 532.02455 257.249536 
L 534.285124 257.263774 
L 536.545698 257.276679 
L 538.806271 257.28825 
L 541.066845 257.298488 
L 543.327419 257.307393 
L 545.587992 257.314965 
L 547.848566 257.321204 
L 550.10914 257.32611 
L 552.369713 257.329682 
L 554.630287 257.331922 
L 556.89086 257.332828 
L 559.151434 257.332401 
L 561.412008 257.330641 
L 563.672581 257.327548 
L 565.933155 257.323122 
L 568.193729 257.317362 
L 570.454302 257.31027 
L 572.714876 257.301844 
L 574.97545 257.292085 
L 577.236023 257.280993 
L 579.496597 257.268568 
L 581.757171 257.25481 
L 584.017744 257.239718 
L 586.278318 257.223294 
L 588.538892 257.205536 
L 590.799465 257.186445 
L 593.060039 257.166021 
L 595.320613 257.144264 
L 597.581186 257.121174 
L 599.84176 257.09675 
L 602.102333 257.070994 
L 604.362907 257.043904 
L 606.623481 257.015481 
L 608.884054 256.985725 
L 611.144628 256.954636 
L 613.405202 256.922214 
L 615.665775 256.888459 
L 617.926349 256.85337 
L 620.186923 256.816948 
L 622.447496 256.779193 
L 624.70807 256.740105 
L 626.968644 256.699684 
L 629.229217 256.65793 
L 631.489791 256.614843 
L 633.750365 256.570422 
L 636.010938 256.524668 
L 638.271512 256.477581 
L 640.532086 256.429161 
L 642.792659 256.379408 
L 645.053233 256.328322 
L 647.313807 256.275903 
L 649.57438 256.22215 
L 651.834954 256.167064 
L 654.095527 256.110646 
L 656.356101 256.052894 
L 658.616675 255.993808 
L 660.877248 255.93339 
L 663.137822 255.871639 
L 665.398396 255.808554 
" clip-path="url(#pa93f98dbef)" style="fill: none; stroke: #1f77b4; stroke-width: 1.5; stroke-linecap: square"/>
   </g>
   <g id="line2d_105">
    <path d="M 441.601604 314.672727 
L 443.862178 313.520939 
L 446.122752 312.369044 
L 448.383325 311.217042 
L 450.643899 310.064933 
L 452.904473 308.912718 
L 455.165046 307.760395 
L 457.42562 306.607966 
L 459.686193 305.455429 
L 461.946767 304.302786 
L 464.207341 303.150036 
L 466.467914 301.997179 
L 468.728488 300.844215 
L 470.989062 299.691145 
L 473.249635 298.537967 
L 475.510209 297.384683 
L 477.770783 296.231292 
L 480.031356 295.077793 
L 482.29193 293.924188 
L 484.552504 292.770477 
L 486.813077 291.616658 
L 489.073651 290.462732 
L 491.334225 289.3087 
L 493.594798 288.15456 
L 495.855372 287.000314 
L 498.115946 285.845961 
L 500.376519 284.691501 
L 502.637093 283.536934 
L 504.897667 282.382261 
L 507.15824 281.22748 
L 509.418814 280.072593 
L 511.679387 278.917599 
L 513.939961 277.762497 
L 516.200535 276.607289 
L 518.461108 275.451974 
L 520.721682 274.296553 
L 522.982256 273.141024 
L 525.242829 271.985389 
L 527.503403 270.829646 
L 529.763977 269.673797 
L 532.02455 268.517841 
L 534.285124 267.361778 
L 536.545698 266.205608 
L 538.806271 265.049331 
L 541.066845 263.892948 
L 543.327419 262.736457 
L 545.587992 261.57986 
L 547.848566 260.423156 
L 550.10914 259.266345 
L 552.369713 258.109427 
L 554.630287 256.952402 
L 556.89086 255.79527 
L 559.151434 254.638032 
L 561.412008 253.480686 
L 563.672581 252.323234 
L 565.933155 251.165675 
L 568.193729 250.008009 
L 570.454302 248.850236 
L 572.714876 247.692356 
L 574.97545 246.53437 
L 577.236023 245.376276 
L 579.496597 244.218076 
L 581.757171 243.059769 
L 584.017744 241.901355 
L 586.278318 240.742834 
L 588.538892 239.584206 
L 590.799465 238.425471 
L 593.060039 237.26663 
L 595.320613 236.107681 
L 597.581186 234.948626 
L 599.84176 233.789464 
L 602.102333 232.630195 
L 604.362907 231.470819 
L 606.623481 230.311336 
L 608.884054 229.151746 
L 611.144628 227.99205 
L 613.405202 226.832246 
L 615.665775 225.672336 
L 617.926349 224.512319 
L 620.186923 223.352195 
L 622.447496 222.191964 
L 624.70807 221.031626 
L 626.968644 219.871182 
L 629.229217 218.71063 
L 631.489791 217.549972 
L 633.750365 216.389207 
L 636.010938 215.228335 
L 638.271512 214.067356 
L 640.532086 212.90627 
L 642.792659 211.745077 
L 645.053233 210.583778 
L 647.313807 209.422371 
L 649.57438 208.260858 
L 651.834954 207.099238 
L 654.095527 205.937511 
L 656.356101 204.775677 
L 658.616675 203.613736 
L 660.877248 202.451689 
L 663.137822 201.289534 
L 665.398396 200.127273 
" clip-path="url(#pa93f98dbef)" style="fill: none; stroke: #ff7f0e; stroke-width: 1.5; stroke-linecap: square"/>
   </g>
   <g id="patch_23">
    <path d="M 430.411765 320.4 
L 430.411765 194.4 
" style="fill: none; stroke: #000000; stroke-width: 0.8; stroke-linejoin: miter; stroke-linecap: square"/>
   </g>
   <g id="patch_24">
    <path d="M 676.588235 320.4 
L 676.588235 194.4 
" style="fill: none; stroke: #000000; stroke-width: 0.8; stroke-linejoin: miter; stroke-linecap: square"/>
   </g>
   <g id="patch_25">
    <path d="M 430.411765 320.4 
L 676.588235 320.4 
" style="fill: none; stroke: #000000; stroke-width: 0.8; stroke-linejoin: miter; stroke-linecap: square"/>
   </g>
   <g id="patch_26">
    <path d="M 430.411765 194.4 
L 676.588235 194.4 
" style="fill: none; stroke: #000000; stroke-width: 0.8; stroke-linejoin: miter; stroke-linecap: square"/>
   </g>
   <g id="legend_1">
    <g id="patch_27">
     <path d="M 648.916085 273.578125 
L 738.517647 273.578125 
Q 740.517647 273.578125 740.517647 271.578125 
L 740.517647 243.221875 
Q 740.517647 241.221875 738.517647 241.221875 
L 648.916085 241.221875 
Q 646.916085 241.221875 646.916085 243.221875 
L 646.916085 271.578125 
Q 646.916085 273.578125 648.916085 273.578125 
z
" style="fill: #ffffff; opacity: 0.8; stroke: #cccccc; stroke-linejoin: miter"/>
    </g>
    <g id="line2d_106">
     <path d="M 650.916085 249.320312 
L 660.916085 249.320312 
L 670.916085 249.320312 
" style="fill: none; stroke: #1f77b4; stroke-width: 1.5; stroke-linecap: square"/>
    </g>
    <g id="text_54">
     <!-- True -->
     <g transform="translate(678.916085 252.820312)scale(0.1 -0.1)">
      <defs>
       <path id="DejaVuSans-72" d="M 2631 2963 
Q 2534 3019 2420 3045 
Q 2306 3072 2169 3072 
Q 1681 3072 1420 2755 
Q 1159 2438 1159 1844 
L 1159 0 
L 581 0 
L 581 3500 
L 1159 3500 
L 1159 2956 
Q 1341 3275 1631 3429 
Q 1922 3584 2338 3584 
Q 2397 3584 2469 3576 
Q 2541 3569 2628 3553 
L 2631 2963 
z
" transform="scale(0.015625)"/>
       <path id="DejaVuSans-75" d="M 544 1381 
L 544 3500 
L 1119 3500 
L 1119 1403 
Q 1119 906 1312 657 
Q 1506 409 1894 409 
Q 2359 409 2629 706 
Q 2900 1003 2900 1516 
L 2900 3500 
L 3475 3500 
L 3475 0 
L 2900 0 
L 2900 538 
Q 2691 219 2414 64 
Q 2138 -91 1772 -91 
Q 1169 -91 856 284 
Q 544 659 544 1381 
z
M 1991 3584 
L 1991 3584 
z
" transform="scale(0.015625)"/>
      </defs>
      <use xlink:href="#DejaVuSans-54"/>
      <use xlink:href="#DejaVuSans-72" x="46.333984"/>
      <use xlink:href="#DejaVuSans-75" x="87.447266"/>
      <use xlink:href="#DejaVuSans-65" x="150.826172"/>
     </g>
    </g>
    <g id="line2d_107">
     <path d="M 650.916085 263.998438 
L 660.916085 263.998438 
L 670.916085 263.998438 
" style="fill: none; stroke: #ff7f0e; stroke-width: 1.5; stroke-linecap: square"/>
    </g>
    <g id="text_55">
     <!-- # of lines-4 -->
     <g transform="translate(678.916085 267.498438)scale(0.1 -0.1)">
      <defs>
       <path id="DejaVuSans-23" d="M 3272 2816 
L 2363 2816 
L 2100 1772 
L 3016 1772 
L 3272 2816 
z
M 2803 4594 
L 2478 3297 
L 3391 3297 
L 3719 4594 
L 4219 4594 
L 3897 3297 
L 4872 3297 
L 4872 2816 
L 3775 2816 
L 3519 1772 
L 4513 1772 
L 4513 1294 
L 3397 1294 
L 3072 0 
L 2572 0 
L 2894 1294 
L 1978 1294 
L 1656 0 
L 1153 0 
L 1478 1294 
L 494 1294 
L 494 1772 
L 1594 1772 
L 1856 2816 
L 850 2816 
L 850 3297 
L 1978 3297 
L 2297 4594 
L 2803 4594 
z
" transform="scale(0.015625)"/>
       <path id="DejaVuSans-6f" d="M 1959 3097 
Q 1497 3097 1228 2736 
Q 959 2375 959 1747 
Q 959 1119 1226 758 
Q 1494 397 1959 397 
Q 2419 397 2687 759 
Q 2956 1122 2956 1747 
Q 2956 2369 2687 2733 
Q 2419 3097 1959 3097 
z
M 1959 3584 
Q 2709 3584 3137 3096 
Q 3566 2609 3566 1747 
Q 3566 888 3137 398 
Q 2709 -91 1959 -91 
Q 1206 -91 779 398 
Q 353 888 353 1747 
Q 353 2609 779 3096 
Q 1206 3584 1959 3584 
z
" transform="scale(0.015625)"/>
       <path id="DejaVuSans-66" d="M 2375 4863 
L 2375 4384 
L 1825 4384 
Q 1516 4384 1395 4259 
Q 1275 4134 1275 3809 
L 1275 3500 
L 2222 3500 
L 2222 3053 
L 1275 3053 
L 1275 0 
L 697 0 
L 697 3053 
L 147 3053 
L 147 3500 
L 697 3500 
L 697 3744 
Q 697 4328 969 4595 
Q 1241 4863 1831 4863 
L 2375 4863 
z
" transform="scale(0.015625)"/>
       <path id="DejaVuSans-6c" d="M 603 4863 
L 1178 4863 
L 1178 0 
L 603 0 
L 603 4863 
z
" transform="scale(0.015625)"/>
       <path id="DejaVuSans-6e" d="M 3513 2113 
L 3513 0 
L 2938 0 
L 2938 2094 
Q 2938 2591 2744 2837 
Q 2550 3084 2163 3084 
Q 1697 3084 1428 2787 
Q 1159 2491 1159 1978 
L 1159 0 
L 581 0 
L 581 3500 
L 1159 3500 
L 1159 2956 
Q 1366 3272 1645 3428 
Q 1925 3584 2291 3584 
Q 2894 3584 3203 3211 
Q 3513 2838 3513 2113 
z
" transform="scale(0.015625)"/>
       <path id="DejaVuSans-73" d="M 2834 3397 
L 2834 2853 
Q 2591 2978 2328 3040 
Q 2066 3103 1784 3103 
Q 1356 3103 1142 2972 
Q 928 2841 928 2578 
Q 928 2378 1081 2264 
Q 1234 2150 1697 2047 
L 1894 2003 
Q 2506 1872 2764 1633 
Q 3022 1394 3022 966 
Q 3022 478 2636 193 
Q 2250 -91 1575 -91 
Q 1294 -91 989 -36 
Q 684 19 347 128 
L 347 722 
Q 666 556 975 473 
Q 1284 391 1588 391 
Q 1994 391 2212 530 
Q 2431 669 2431 922 
Q 2431 1156 2273 1281 
Q 2116 1406 1581 1522 
L 1381 1569 
Q 847 1681 609 1914 
Q 372 2147 372 2553 
Q 372 3047 722 3315 
Q 1072 3584 1716 3584 
Q 2034 3584 2315 3537 
Q 2597 3491 2834 3397 
z
" transform="scale(0.015625)"/>
       <path id="DejaVuSans-2d" d="M 313 2009 
L 1997 2009 
L 1997 1497 
L 313 1497 
L 313 2009 
z
" transform="scale(0.015625)"/>
      </defs>
      <use xlink:href="#DejaVuSans-23"/>
      <use xlink:href="#DejaVuSans-20" x="83.789062"/>
      <use xlink:href="#DejaVuSans-6f" x="115.576172"/>
      <use xlink:href="#DejaVuSans-66" x="176.757812"/>
      <use xlink:href="#DejaVuSans-20" x="211.962891"/>
      <use xlink:href="#DejaVuSans-6c" x="243.75"/>
      <use xlink:href="#DejaVuSans-69" x="271.533203"/>
      <use xlink:href="#DejaVuSans-6e" x="299.316406"/>
      <use xlink:href="#DejaVuSans-65" x="362.695312"/>
      <use xlink:href="#DejaVuSans-73" x="424.21875"/>
      <use xlink:href="#DejaVuSans-2d" x="476.318359"/>
      <use xlink:href="#DejaVuSans-34" x="512.402344"/>
     </g>
    </g>
   </g>
  </g>
 </g>
 <defs>
  <clipPath id="pc785395723">
   <rect x="430.411765" y="43.2" width="246.176471" height="126"/>
  </clipPath>
  <clipPath id="pbaf6bdaf1a">
   <rect x="135" y="43.2" width="246.176471" height="126"/>
  </clipPath>
  <clipPath id="p63138d1363">
   <rect x="725.823529" y="43.2" width="246.176471" height="126"/>
  </clipPath>
  <clipPath id="p8494043240">
   <rect x="135" y="194.4" width="246.176471" height="126"/>
  </clipPath>
  <clipPath id="pa93f98dbef">
   <rect x="430.411765" y="194.4" width="246.176471" height="126"/>
  </clipPath>
 </defs>
</svg>
