<?xml version="1.0" encoding="utf-8" standalone="no"?>
<!DOCTYPE svg PUBLIC "-//W3C//DTD SVG 1.1//EN"
  "http://www.w3.org/Graphics/SVG/1.1/DTD/svg11.dtd">
<svg xmlns:xlink="http://www.w3.org/1999/xlink" width="1080pt" height="360pt" viewBox="0 0 1080 360" xmlns="http://www.w3.org/2000/svg" version="1.1">
 <metadata>
  <rdf:RDF xmlns:dc="http://purl.org/dc/elements/1.1/" xmlns:cc="http://creativecommons.org/ns#" xmlns:rdf="http://www.w3.org/1999/02/22-rdf-syntax-ns#">
   <cc:Work>
    <dc:type rdf:resource="http://purl.org/dc/dcmitype/StillImage"/>
    <dc:date>2022-11-09T15:02:34.742967</dc:date>
    <dc:format>image/svg+xml</dc:format>
    <dc:creator>
     <cc:Agent>
      <dc:title>Matplotlib v3.5.1, https://matplotlib.org/</dc:title>
     </cc:Agent>
    </dc:creator>
   </cc:Work>
  </rdf:RDF>
 </metadata>
 <defs>
  <style type="text/css">*{stroke-linejoin: round; stroke-linecap: butt}</style>
 </defs>
 <g id="figure_1">
  <g id="patch_1">
   <path d="M 0 360 
L 1080 360 
L 1080 0 
L 0 0 
z
" style="fill: #ffffff"/>
  </g>
  <g id="axes_1">
   <g id="patch_2">
    <path d="M 430.411765 169.2 
L 676.588235 169.2 
L 676.588235 43.2 
L 430.411765 43.2 
z
" style="fill: #ffffff"/>
   </g>
   <g id="matplotlib.axis_1">
    <g id="xtick_1">
     <g id="line2d_1">
      <path d="M 439.317964 169.2 
L 439.317964 43.2 
" clip-path="url(#p1ec4f90ad8)" style="fill: none; stroke: #b0b0b0; stroke-width: 0.8; stroke-linecap: square"/>
     </g>
     <g id="line2d_2">
      <defs>
       <path id="m0e2ebfdb49" d="M 0 0 
L 0 3.5 
" style="stroke: #000000; stroke-width: 0.8"/>
      </defs>
      <g>
       <use xlink:href="#m0e2ebfdb49" x="439.317964" y="169.2" style="stroke: #000000; stroke-width: 0.8"/>
      </g>
     </g>
     <g id="text_1">
      <!-- 0 -->
      <g transform="translate(436.136714 183.798437)scale(0.1 -0.1)">
       <defs>
        <path id="DejaVuSans-30" d="M 2034 4250 
Q 1547 4250 1301 3770 
Q 1056 3291 1056 2328 
Q 1056 1369 1301 889 
Q 1547 409 2034 409 
Q 2525 409 2770 889 
Q 3016 1369 3016 2328 
Q 3016 3291 2770 3770 
Q 2525 4250 2034 4250 
z
M 2034 4750 
Q 2819 4750 3233 4129 
Q 3647 3509 3647 2328 
Q 3647 1150 3233 529 
Q 2819 -91 2034 -91 
Q 1250 -91 836 529 
Q 422 1150 422 2328 
Q 422 3509 836 4129 
Q 1250 4750 2034 4750 
z
" transform="scale(0.015625)"/>
       </defs>
       <use xlink:href="#DejaVuSans-30"/>
      </g>
     </g>
    </g>
    <g id="xtick_2">
     <g id="line2d_3">
      <path d="M 484.990778 169.2 
L 484.990778 43.2 
" clip-path="url(#p1ec4f90ad8)" style="fill: none; stroke: #b0b0b0; stroke-width: 0.8; stroke-linecap: square"/>
     </g>
     <g id="line2d_4">
      <g>
       <use xlink:href="#m0e2ebfdb49" x="484.990778" y="169.2" style="stroke: #000000; stroke-width: 0.8"/>
      </g>
     </g>
     <g id="text_2">
      <!-- 2000 -->
      <g transform="translate(472.265778 183.798437)scale(0.1 -0.1)">
       <defs>
        <path id="DejaVuSans-32" d="M 1228 531 
L 3431 531 
L 3431 0 
L 469 0 
L 469 531 
Q 828 903 1448 1529 
Q 2069 2156 2228 2338 
Q 2531 2678 2651 2914 
Q 2772 3150 2772 3378 
Q 2772 3750 2511 3984 
Q 2250 4219 1831 4219 
Q 1534 4219 1204 4116 
Q 875 4013 500 3803 
L 500 4441 
Q 881 4594 1212 4672 
Q 1544 4750 1819 4750 
Q 2544 4750 2975 4387 
Q 3406 4025 3406 3419 
Q 3406 3131 3298 2873 
Q 3191 2616 2906 2266 
Q 2828 2175 2409 1742 
Q 1991 1309 1228 531 
z
" transform="scale(0.015625)"/>
       </defs>
       <use xlink:href="#DejaVuSans-32"/>
       <use xlink:href="#DejaVuSans-30" x="63.623047"/>
       <use xlink:href="#DejaVuSans-30" x="127.246094"/>
       <use xlink:href="#DejaVuSans-30" x="190.869141"/>
      </g>
     </g>
    </g>
    <g id="xtick_3">
     <g id="line2d_5">
      <path d="M 530.663593 169.2 
L 530.663593 43.2 
" clip-path="url(#p1ec4f90ad8)" style="fill: none; stroke: #b0b0b0; stroke-width: 0.8; stroke-linecap: square"/>
     </g>
     <g id="line2d_6">
      <g>
       <use xlink:href="#m0e2ebfdb49" x="530.663593" y="169.2" style="stroke: #000000; stroke-width: 0.8"/>
      </g>
     </g>
     <g id="text_3">
      <!-- 4000 -->
      <g transform="translate(517.938593 183.798437)scale(0.1 -0.1)">
       <defs>
        <path id="DejaVuSans-34" d="M 2419 4116 
L 825 1625 
L 2419 1625 
L 2419 4116 
z
M 2253 4666 
L 3047 4666 
L 3047 1625 
L 3713 1625 
L 3713 1100 
L 3047 1100 
L 3047 0 
L 2419 0 
L 2419 1100 
L 313 1100 
L 313 1709 
L 2253 4666 
z
" transform="scale(0.015625)"/>
       </defs>
       <use xlink:href="#DejaVuSans-34"/>
       <use xlink:href="#DejaVuSans-30" x="63.623047"/>
       <use xlink:href="#DejaVuSans-30" x="127.246094"/>
       <use xlink:href="#DejaVuSans-30" x="190.869141"/>
      </g>
     </g>
    </g>
    <g id="xtick_4">
     <g id="line2d_7">
      <path d="M 576.336407 169.2 
L 576.336407 43.2 
" clip-path="url(#p1ec4f90ad8)" style="fill: none; stroke: #b0b0b0; stroke-width: 0.8; stroke-linecap: square"/>
     </g>
     <g id="line2d_8">
      <g>
       <use xlink:href="#m0e2ebfdb49" x="576.336407" y="169.2" style="stroke: #000000; stroke-width: 0.8"/>
      </g>
     </g>
     <g id="text_4">
      <!-- 6000 -->
      <g transform="translate(563.611407 183.798437)scale(0.1 -0.1)">
       <defs>
        <path id="DejaVuSans-36" d="M 2113 2584 
Q 1688 2584 1439 2293 
Q 1191 2003 1191 1497 
Q 1191 994 1439 701 
Q 1688 409 2113 409 
Q 2538 409 2786 701 
Q 3034 994 3034 1497 
Q 3034 2003 2786 2293 
Q 2538 2584 2113 2584 
z
M 3366 4563 
L 3366 3988 
Q 3128 4100 2886 4159 
Q 2644 4219 2406 4219 
Q 1781 4219 1451 3797 
Q 1122 3375 1075 2522 
Q 1259 2794 1537 2939 
Q 1816 3084 2150 3084 
Q 2853 3084 3261 2657 
Q 3669 2231 3669 1497 
Q 3669 778 3244 343 
Q 2819 -91 2113 -91 
Q 1303 -91 875 529 
Q 447 1150 447 2328 
Q 447 3434 972 4092 
Q 1497 4750 2381 4750 
Q 2619 4750 2861 4703 
Q 3103 4656 3366 4563 
z
" transform="scale(0.015625)"/>
       </defs>
       <use xlink:href="#DejaVuSans-36"/>
       <use xlink:href="#DejaVuSans-30" x="63.623047"/>
       <use xlink:href="#DejaVuSans-30" x="127.246094"/>
       <use xlink:href="#DejaVuSans-30" x="190.869141"/>
      </g>
     </g>
    </g>
    <g id="xtick_5">
     <g id="line2d_9">
      <path d="M 622.009222 169.2 
L 622.009222 43.2 
" clip-path="url(#p1ec4f90ad8)" style="fill: none; stroke: #b0b0b0; stroke-width: 0.8; stroke-linecap: square"/>
     </g>
     <g id="line2d_10">
      <g>
       <use xlink:href="#m0e2ebfdb49" x="622.009222" y="169.2" style="stroke: #000000; stroke-width: 0.8"/>
      </g>
     </g>
     <g id="text_5">
      <!-- 8000 -->
      <g transform="translate(609.284222 183.798437)scale(0.1 -0.1)">
       <defs>
        <path id="DejaVuSans-38" d="M 2034 2216 
Q 1584 2216 1326 1975 
Q 1069 1734 1069 1313 
Q 1069 891 1326 650 
Q 1584 409 2034 409 
Q 2484 409 2743 651 
Q 3003 894 3003 1313 
Q 3003 1734 2745 1975 
Q 2488 2216 2034 2216 
z
M 1403 2484 
Q 997 2584 770 2862 
Q 544 3141 544 3541 
Q 544 4100 942 4425 
Q 1341 4750 2034 4750 
Q 2731 4750 3128 4425 
Q 3525 4100 3525 3541 
Q 3525 3141 3298 2862 
Q 3072 2584 2669 2484 
Q 3125 2378 3379 2068 
Q 3634 1759 3634 1313 
Q 3634 634 3220 271 
Q 2806 -91 2034 -91 
Q 1263 -91 848 271 
Q 434 634 434 1313 
Q 434 1759 690 2068 
Q 947 2378 1403 2484 
z
M 1172 3481 
Q 1172 3119 1398 2916 
Q 1625 2713 2034 2713 
Q 2441 2713 2670 2916 
Q 2900 3119 2900 3481 
Q 2900 3844 2670 4047 
Q 2441 4250 2034 4250 
Q 1625 4250 1398 4047 
Q 1172 3844 1172 3481 
z
" transform="scale(0.015625)"/>
       </defs>
       <use xlink:href="#DejaVuSans-38"/>
       <use xlink:href="#DejaVuSans-30" x="63.623047"/>
       <use xlink:href="#DejaVuSans-30" x="127.246094"/>
       <use xlink:href="#DejaVuSans-30" x="190.869141"/>
      </g>
     </g>
    </g>
    <g id="xtick_6">
     <g id="line2d_11">
      <path d="M 667.682036 169.2 
L 667.682036 43.2 
" clip-path="url(#p1ec4f90ad8)" style="fill: none; stroke: #b0b0b0; stroke-width: 0.8; stroke-linecap: square"/>
     </g>
     <g id="line2d_12">
      <g>
       <use xlink:href="#m0e2ebfdb49" x="667.682036" y="169.2" style="stroke: #000000; stroke-width: 0.8"/>
      </g>
     </g>
     <g id="text_6">
      <!-- 10000 -->
      <g transform="translate(651.775786 183.798437)scale(0.1 -0.1)">
       <defs>
        <path id="DejaVuSans-31" d="M 794 531 
L 1825 531 
L 1825 4091 
L 703 3866 
L 703 4441 
L 1819 4666 
L 2450 4666 
L 2450 531 
L 3481 531 
L 3481 0 
L 794 0 
L 794 531 
z
" transform="scale(0.015625)"/>
       </defs>
       <use xlink:href="#DejaVuSans-31"/>
       <use xlink:href="#DejaVuSans-30" x="63.623047"/>
       <use xlink:href="#DejaVuSans-30" x="127.246094"/>
       <use xlink:href="#DejaVuSans-30" x="190.869141"/>
       <use xlink:href="#DejaVuSans-30" x="254.492188"/>
      </g>
     </g>
    </g>
   </g>
   <g id="matplotlib.axis_2">
    <g id="ytick_1">
     <g id="line2d_13">
      <path d="M 430.411765 158.11008 
L 676.588235 158.11008 
" clip-path="url(#p1ec4f90ad8)" style="fill: none; stroke: #b0b0b0; stroke-width: 0.8; stroke-linecap: square"/>
     </g>
     <g id="line2d_14">
      <defs>
       <path id="mecfdadb189" d="M 0 0 
L -3.5 0 
" style="stroke: #000000; stroke-width: 0.8"/>
      </defs>
      <g>
       <use xlink:href="#mecfdadb189" x="430.411765" y="158.11008" style="stroke: #000000; stroke-width: 0.8"/>
      </g>
     </g>
     <g id="text_7">
      <!-- −2 -->
      <g transform="translate(408.669577 161.909299)scale(0.1 -0.1)">
       <defs>
        <path id="DejaVuSans-2212" d="M 678 2272 
L 4684 2272 
L 4684 1741 
L 678 1741 
L 678 2272 
z
" transform="scale(0.015625)"/>
       </defs>
       <use xlink:href="#DejaVuSans-2212"/>
       <use xlink:href="#DejaVuSans-32" x="83.789062"/>
      </g>
     </g>
    </g>
    <g id="ytick_2">
     <g id="line2d_15">
      <path d="M 430.411765 120.447183 
L 676.588235 120.447183 
" clip-path="url(#p1ec4f90ad8)" style="fill: none; stroke: #b0b0b0; stroke-width: 0.8; stroke-linecap: square"/>
     </g>
     <g id="line2d_16">
      <g>
       <use xlink:href="#mecfdadb189" x="430.411765" y="120.447183" style="stroke: #000000; stroke-width: 0.8"/>
      </g>
     </g>
     <g id="text_8">
      <!-- 0 -->
      <g transform="translate(417.049265 124.246402)scale(0.1 -0.1)">
       <use xlink:href="#DejaVuSans-30"/>
      </g>
     </g>
    </g>
    <g id="ytick_3">
     <g id="line2d_17">
      <path d="M 430.411765 82.784285 
L 676.588235 82.784285 
" clip-path="url(#p1ec4f90ad8)" style="fill: none; stroke: #b0b0b0; stroke-width: 0.8; stroke-linecap: square"/>
     </g>
     <g id="line2d_18">
      <g>
       <use xlink:href="#mecfdadb189" x="430.411765" y="82.784285" style="stroke: #000000; stroke-width: 0.8"/>
      </g>
     </g>
     <g id="text_9">
      <!-- 2 -->
      <g transform="translate(417.049265 86.583504)scale(0.1 -0.1)">
       <use xlink:href="#DejaVuSans-32"/>
      </g>
     </g>
    </g>
    <g id="ytick_4">
     <g id="line2d_19">
      <path d="M 430.411765 45.121387 
L 676.588235 45.121387 
" clip-path="url(#p1ec4f90ad8)" style="fill: none; stroke: #b0b0b0; stroke-width: 0.8; stroke-linecap: square"/>
     </g>
     <g id="line2d_20">
      <g>
       <use xlink:href="#mecfdadb189" x="430.411765" y="45.121387" style="stroke: #000000; stroke-width: 0.8"/>
      </g>
     </g>
     <g id="text_10">
      <!-- 4 -->
      <g transform="translate(417.049265 48.920606)scale(0.1 -0.1)">
       <use xlink:href="#DejaVuSans-34"/>
      </g>
     </g>
    </g>
   </g>
   <g id="line2d_21">
    <path d="M 441.601604 120.447183 
L 443.885245 120.447183 
L 446.168886 120.447183 
L 448.452526 120.447183 
L 450.736167 120.447183 
L 453.019808 120.447183 
L 455.303449 120.447183 
L 457.587089 120.447183 
L 459.87073 120.447183 
L 462.154371 120.447183 
L 464.438012 120.447183 
L 466.721652 120.447183 
L 469.005293 120.447183 
L 471.288934 120.447183 
L 473.572574 120.447183 
L 475.856215 120.447183 
L 478.139856 120.447183 
L 480.423497 120.447183 
L 482.707137 120.447183 
L 484.990778 120.447183 
L 487.274419 120.447183 
L 489.55806 120.447183 
L 491.8417 120.447183 
L 494.125341 120.447183 
L 496.408982 120.447183 
L 498.692623 120.447183 
L 500.976263 120.447183 
L 503.259904 120.447183 
L 505.543545 120.447183 
L 507.827185 120.447183 
L 510.110826 120.447183 
L 512.394467 120.447183 
L 514.678108 120.447183 
L 516.961748 120.447183 
L 519.245389 120.447183 
L 521.52903 120.447183 
L 523.812671 120.447183 
L 526.096311 120.447183 
L 528.379952 120.447183 
L 530.663593 120.447183 
L 532.947233 120.447183 
L 535.230874 120.447183 
L 537.514515 120.447183 
L 539.798156 120.447183 
L 542.081796 120.447183 
L 544.365437 120.447183 
L 546.649078 120.447183 
L 548.932719 120.447183 
L 551.216359 120.447183 
L 553.5 120.447183 
L 555.783641 120.447183 
L 558.067281 120.447183 
L 560.350922 120.447183 
L 562.634563 120.447183 
L 564.918204 120.447183 
L 567.201844 120.447183 
L 569.485485 120.447183 
L 571.769126 120.447183 
L 574.052767 120.447183 
L 576.336407 120.447183 
L 578.620048 120.447183 
L 580.903689 120.447183 
L 583.187329 120.447183 
L 585.47097 120.447183 
L 587.754611 120.447183 
L 590.038252 120.447183 
L 592.321892 120.447183 
L 594.605533 120.447183 
L 596.889174 120.447183 
L 599.172815 120.447183 
L 601.456455 120.447183 
L 603.740096 120.447183 
L 606.023737 120.447183 
L 608.307377 120.447183 
L 610.591018 120.447183 
L 612.874659 120.447183 
L 615.1583 120.447183 
L 617.44194 120.447183 
L 619.725581 120.447183 
L 622.009222 120.447183 
L 624.292863 120.447183 
L 626.576503 120.447183 
L 628.860144 120.447183 
L 631.143785 120.447183 
L 633.427426 120.447183 
L 635.711066 120.447183 
L 637.994707 120.447183 
L 640.278348 120.447183 
L 642.561988 120.447183 
L 644.845629 120.447183 
L 647.12927 120.447183 
L 649.412911 120.447183 
L 651.696551 120.447183 
L 653.980192 120.447183 
L 656.263833 120.447183 
L 658.547474 120.447183 
L 660.831114 120.447183 
L 663.114755 120.447183 
L 665.398396 120.447183 
" clip-path="url(#p1ec4f90ad8)" style="fill: none; stroke: #1f77b4; stroke-width: 1.5; stroke-linecap: square"/>
   </g>
   <g id="line2d_22">
    <path d="M 441.601604 83.174708 
L 443.885245 109.371093 
L 446.168886 118.479363 
L 448.452526 103.08951 
L 450.736167 106.293408 
L 453.019808 132.736384 
L 455.303449 163.472727 
L 457.587089 160.802303 
L 459.87073 158.406866 
L 462.154371 155.878494 
L 464.438012 154.406611 
L 466.721652 152.920081 
L 469.005293 151.360652 
L 471.288934 147.625249 
L 473.572574 140.287052 
L 475.856215 139.467245 
L 478.139856 138.874879 
L 480.423497 138.41628 
L 482.707137 137.824876 
L 484.990778 137.407648 
L 487.274419 137.113804 
L 489.55806 136.653568 
L 491.8417 136.061052 
L 494.125341 132.668874 
L 496.408982 132.462552 
L 498.692623 132.280258 
L 500.976263 132.124941 
L 503.259904 131.8207 
L 505.543545 131.685231 
L 507.827185 131.346434 
L 510.110826 130.56126 
L 512.394467 131.311602 
L 514.678108 131.282406 
L 516.961748 130.975363 
L 519.245389 109.588726 
L 521.52903 110.660519 
L 523.812671 110.83541 
L 526.096311 110.893896 
L 528.379952 109.587562 
L 530.663593 109.301118 
L 532.947233 109.361864 
L 535.230874 109.996862 
L 537.514515 110.241486 
L 539.798156 110.341744 
L 542.081796 110.397737 
L 544.365437 110.531027 
L 546.649078 110.200183 
L 548.932719 109.338421 
L 551.216359 109.691792 
L 553.5 110.672543 
L 555.783641 110.88542 
L 558.067281 111.032416 
L 560.350922 111.131716 
L 562.634563 111.218667 
L 564.918204 111.437643 
L 567.201844 111.231474 
L 569.485485 111.397695 
L 571.769126 111.544114 
L 574.052767 111.787009 
L 576.336407 111.857511 
L 578.620048 111.902809 
L 580.903689 113.238465 
L 583.187329 115.432188 
L 585.47097 115.452071 
L 587.754611 115.453101 
L 590.038252 115.701422 
L 592.321892 115.762057 
L 594.605533 115.776785 
L 596.889174 116.135016 
L 599.172815 116.163535 
L 601.456455 116.20185 
L 603.740096 116.220686 
L 606.023737 116.261898 
L 608.307377 115.002961 
L 610.591018 114.976338 
L 612.874659 115.000675 
L 615.1583 115.047796 
L 617.44194 48.927273 
L 619.725581 49.294926 
L 622.009222 49.64849 
L 624.292863 50.722511 
L 626.576503 67.184617 
L 628.860144 73.80144 
L 631.143785 74.060397 
L 633.427426 74.974759 
L 635.711066 75.245155 
L 637.994707 75.440296 
L 640.278348 83.474602 
L 642.561988 83.706219 
L 644.845629 84.127149 
L 647.12927 84.635864 
L 649.412911 91.249274 
L 651.696551 91.38604 
L 653.980192 91.531226 
L 656.263833 91.650889 
L 658.547474 93.614649 
L 660.831114 93.726711 
L 663.114755 94.04666 
L 665.398396 94.098487 
" clip-path="url(#p1ec4f90ad8)" style="fill: none; stroke: #ff7f0e; stroke-width: 1.5; stroke-linecap: square"/>
   </g>
   <g id="patch_3">
    <path d="M 430.411765 169.2 
L 430.411765 43.2 
" style="fill: none; stroke: #000000; stroke-width: 0.8; stroke-linejoin: miter; stroke-linecap: square"/>
   </g>
   <g id="patch_4">
    <path d="M 676.588235 169.2 
L 676.588235 43.2 
" style="fill: none; stroke: #000000; stroke-width: 0.8; stroke-linejoin: miter; stroke-linecap: square"/>
   </g>
   <g id="patch_5">
    <path d="M 430.411765 169.2 
L 676.588235 169.2 
" style="fill: none; stroke: #000000; stroke-width: 0.8; stroke-linejoin: miter; stroke-linecap: square"/>
   </g>
   <g id="patch_6">
    <path d="M 430.411765 43.2 
L 676.588235 43.2 
" style="fill: none; stroke: #000000; stroke-width: 0.8; stroke-linejoin: miter; stroke-linecap: square"/>
   </g>
  </g>
  <g id="axes_2">
   <g id="patch_7">
    <path d="M 135 169.2 
L 381.176471 169.2 
L 381.176471 43.2 
L 135 43.2 
z
" style="fill: #ffffff"/>
   </g>
   <g id="matplotlib.axis_3">
    <g id="xtick_7">
     <g id="line2d_23">
      <path d="M 143.906199 169.2 
L 143.906199 43.2 
" clip-path="url(#p50749c0b86)" style="fill: none; stroke: #b0b0b0; stroke-width: 0.8; stroke-linecap: square"/>
     </g>
     <g id="line2d_24">
      <g>
       <use xlink:href="#m0e2ebfdb49" x="143.906199" y="169.2" style="stroke: #000000; stroke-width: 0.8"/>
      </g>
     </g>
     <g id="text_11">
      <!-- 0 -->
      <g transform="translate(140.724949 183.798437)scale(0.1 -0.1)">
       <use xlink:href="#DejaVuSans-30"/>
      </g>
     </g>
    </g>
    <g id="xtick_8">
     <g id="line2d_25">
      <path d="M 189.579013 169.2 
L 189.579013 43.2 
" clip-path="url(#p50749c0b86)" style="fill: none; stroke: #b0b0b0; stroke-width: 0.8; stroke-linecap: square"/>
     </g>
     <g id="line2d_26">
      <g>
       <use xlink:href="#m0e2ebfdb49" x="189.579013" y="169.2" style="stroke: #000000; stroke-width: 0.8"/>
      </g>
     </g>
     <g id="text_12">
      <!-- 2000 -->
      <g transform="translate(176.854013 183.798437)scale(0.1 -0.1)">
       <use xlink:href="#DejaVuSans-32"/>
       <use xlink:href="#DejaVuSans-30" x="63.623047"/>
       <use xlink:href="#DejaVuSans-30" x="127.246094"/>
       <use xlink:href="#DejaVuSans-30" x="190.869141"/>
      </g>
     </g>
    </g>
    <g id="xtick_9">
     <g id="line2d_27">
      <path d="M 235.251828 169.2 
L 235.251828 43.2 
" clip-path="url(#p50749c0b86)" style="fill: none; stroke: #b0b0b0; stroke-width: 0.8; stroke-linecap: square"/>
     </g>
     <g id="line2d_28">
      <g>
       <use xlink:href="#m0e2ebfdb49" x="235.251828" y="169.2" style="stroke: #000000; stroke-width: 0.8"/>
      </g>
     </g>
     <g id="text_13">
      <!-- 4000 -->
      <g transform="translate(222.526828 183.798437)scale(0.1 -0.1)">
       <use xlink:href="#DejaVuSans-34"/>
       <use xlink:href="#DejaVuSans-30" x="63.623047"/>
       <use xlink:href="#DejaVuSans-30" x="127.246094"/>
       <use xlink:href="#DejaVuSans-30" x="190.869141"/>
      </g>
     </g>
    </g>
    <g id="xtick_10">
     <g id="line2d_29">
      <path d="M 280.924643 169.2 
L 280.924643 43.2 
" clip-path="url(#p50749c0b86)" style="fill: none; stroke: #b0b0b0; stroke-width: 0.8; stroke-linecap: square"/>
     </g>
     <g id="line2d_30">
      <g>
       <use xlink:href="#m0e2ebfdb49" x="280.924643" y="169.2" style="stroke: #000000; stroke-width: 0.8"/>
      </g>
     </g>
     <g id="text_14">
      <!-- 6000 -->
      <g transform="translate(268.199643 183.798437)scale(0.1 -0.1)">
       <use xlink:href="#DejaVuSans-36"/>
       <use xlink:href="#DejaVuSans-30" x="63.623047"/>
       <use xlink:href="#DejaVuSans-30" x="127.246094"/>
       <use xlink:href="#DejaVuSans-30" x="190.869141"/>
      </g>
     </g>
    </g>
    <g id="xtick_11">
     <g id="line2d_31">
      <path d="M 326.597457 169.2 
L 326.597457 43.2 
" clip-path="url(#p50749c0b86)" style="fill: none; stroke: #b0b0b0; stroke-width: 0.8; stroke-linecap: square"/>
     </g>
     <g id="line2d_32">
      <g>
       <use xlink:href="#m0e2ebfdb49" x="326.597457" y="169.2" style="stroke: #000000; stroke-width: 0.8"/>
      </g>
     </g>
     <g id="text_15">
      <!-- 8000 -->
      <g transform="translate(313.872457 183.798437)scale(0.1 -0.1)">
       <use xlink:href="#DejaVuSans-38"/>
       <use xlink:href="#DejaVuSans-30" x="63.623047"/>
       <use xlink:href="#DejaVuSans-30" x="127.246094"/>
       <use xlink:href="#DejaVuSans-30" x="190.869141"/>
      </g>
     </g>
    </g>
    <g id="xtick_12">
     <g id="line2d_33">
      <path d="M 372.270272 169.2 
L 372.270272 43.2 
" clip-path="url(#p50749c0b86)" style="fill: none; stroke: #b0b0b0; stroke-width: 0.8; stroke-linecap: square"/>
     </g>
     <g id="line2d_34">
      <g>
       <use xlink:href="#m0e2ebfdb49" x="372.270272" y="169.2" style="stroke: #000000; stroke-width: 0.8"/>
      </g>
     </g>
     <g id="text_16">
      <!-- 10000 -->
      <g transform="translate(356.364022 183.798437)scale(0.1 -0.1)">
       <use xlink:href="#DejaVuSans-31"/>
       <use xlink:href="#DejaVuSans-30" x="63.623047"/>
       <use xlink:href="#DejaVuSans-30" x="127.246094"/>
       <use xlink:href="#DejaVuSans-30" x="190.869141"/>
       <use xlink:href="#DejaVuSans-30" x="254.492188"/>
      </g>
     </g>
    </g>
    <g id="text_17">
     <!-- time(T)  -->
     <g transform="translate(238.24761 197.476562)scale(0.1 -0.1)">
      <defs>
       <path id="DejaVuSans-74" d="M 1172 4494 
L 1172 3500 
L 2356 3500 
L 2356 3053 
L 1172 3053 
L 1172 1153 
Q 1172 725 1289 603 
Q 1406 481 1766 481 
L 2356 481 
L 2356 0 
L 1766 0 
Q 1100 0 847 248 
Q 594 497 594 1153 
L 594 3053 
L 172 3053 
L 172 3500 
L 594 3500 
L 594 4494 
L 1172 4494 
z
" transform="scale(0.015625)"/>
       <path id="DejaVuSans-69" d="M 603 3500 
L 1178 3500 
L 1178 0 
L 603 0 
L 603 3500 
z
M 603 4863 
L 1178 4863 
L 1178 4134 
L 603 4134 
L 603 4863 
z
" transform="scale(0.015625)"/>
       <path id="DejaVuSans-6d" d="M 3328 2828 
Q 3544 3216 3844 3400 
Q 4144 3584 4550 3584 
Q 5097 3584 5394 3201 
Q 5691 2819 5691 2113 
L 5691 0 
L 5113 0 
L 5113 2094 
Q 5113 2597 4934 2840 
Q 4756 3084 4391 3084 
Q 3944 3084 3684 2787 
Q 3425 2491 3425 1978 
L 3425 0 
L 2847 0 
L 2847 2094 
Q 2847 2600 2669 2842 
Q 2491 3084 2119 3084 
Q 1678 3084 1418 2786 
Q 1159 2488 1159 1978 
L 1159 0 
L 581 0 
L 581 3500 
L 1159 3500 
L 1159 2956 
Q 1356 3278 1631 3431 
Q 1906 3584 2284 3584 
Q 2666 3584 2933 3390 
Q 3200 3197 3328 2828 
z
" transform="scale(0.015625)"/>
       <path id="DejaVuSans-65" d="M 3597 1894 
L 3597 1613 
L 953 1613 
Q 991 1019 1311 708 
Q 1631 397 2203 397 
Q 2534 397 2845 478 
Q 3156 559 3463 722 
L 3463 178 
Q 3153 47 2828 -22 
Q 2503 -91 2169 -91 
Q 1331 -91 842 396 
Q 353 884 353 1716 
Q 353 2575 817 3079 
Q 1281 3584 2069 3584 
Q 2775 3584 3186 3129 
Q 3597 2675 3597 1894 
z
M 3022 2063 
Q 3016 2534 2758 2815 
Q 2500 3097 2075 3097 
Q 1594 3097 1305 2825 
Q 1016 2553 972 2059 
L 3022 2063 
z
" transform="scale(0.015625)"/>
       <path id="DejaVuSans-28" d="M 1984 4856 
Q 1566 4138 1362 3434 
Q 1159 2731 1159 2009 
Q 1159 1288 1364 580 
Q 1569 -128 1984 -844 
L 1484 -844 
Q 1016 -109 783 600 
Q 550 1309 550 2009 
Q 550 2706 781 3412 
Q 1013 4119 1484 4856 
L 1984 4856 
z
" transform="scale(0.015625)"/>
       <path id="DejaVuSans-54" d="M -19 4666 
L 3928 4666 
L 3928 4134 
L 2272 4134 
L 2272 0 
L 1638 0 
L 1638 4134 
L -19 4134 
L -19 4666 
z
" transform="scale(0.015625)"/>
       <path id="DejaVuSans-29" d="M 513 4856 
L 1013 4856 
Q 1481 4119 1714 3412 
Q 1947 2706 1947 2009 
Q 1947 1309 1714 600 
Q 1481 -109 1013 -844 
L 513 -844 
Q 928 -128 1133 580 
Q 1338 1288 1338 2009 
Q 1338 2731 1133 3434 
Q 928 4138 513 4856 
z
" transform="scale(0.015625)"/>
       <path id="DejaVuSans-20" transform="scale(0.015625)"/>
      </defs>
      <use xlink:href="#DejaVuSans-74"/>
      <use xlink:href="#DejaVuSans-69" x="39.208984"/>
      <use xlink:href="#DejaVuSans-6d" x="66.992188"/>
      <use xlink:href="#DejaVuSans-65" x="164.404297"/>
      <use xlink:href="#DejaVuSans-28" x="225.927734"/>
      <use xlink:href="#DejaVuSans-54" x="264.941406"/>
      <use xlink:href="#DejaVuSans-29" x="326.025391"/>
      <use xlink:href="#DejaVuSans-20" x="365.039062"/>
     </g>
    </g>
   </g>
   <g id="matplotlib.axis_4">
    <g id="ytick_5">
     <g id="line2d_35">
      <path d="M 135 163.472727 
L 381.176471 163.472727 
" clip-path="url(#p50749c0b86)" style="fill: none; stroke: #b0b0b0; stroke-width: 0.8; stroke-linecap: square"/>
     </g>
     <g id="line2d_36">
      <g>
       <use xlink:href="#mecfdadb189" x="135" y="163.472727" style="stroke: #000000; stroke-width: 0.8"/>
      </g>
     </g>
     <g id="text_18">
      <!-- 1 -->
      <g transform="translate(121.6375 167.271946)scale(0.1 -0.1)">
       <use xlink:href="#DejaVuSans-31"/>
      </g>
     </g>
    </g>
    <g id="ytick_6">
     <g id="line2d_37">
      <path d="M 135 122.264204 
L 381.176471 122.264204 
" clip-path="url(#p50749c0b86)" style="fill: none; stroke: #b0b0b0; stroke-width: 0.8; stroke-linecap: square"/>
     </g>
     <g id="line2d_38">
      <g>
       <use xlink:href="#mecfdadb189" x="135" y="122.264204" style="stroke: #000000; stroke-width: 0.8"/>
      </g>
     </g>
     <g id="text_19">
      <!-- 2 -->
      <g transform="translate(121.6375 126.063423)scale(0.1 -0.1)">
       <use xlink:href="#DejaVuSans-32"/>
      </g>
     </g>
    </g>
    <g id="ytick_7">
     <g id="line2d_39">
      <path d="M 135 81.05568 
L 381.176471 81.05568 
" clip-path="url(#p50749c0b86)" style="fill: none; stroke: #b0b0b0; stroke-width: 0.8; stroke-linecap: square"/>
     </g>
     <g id="line2d_40">
      <g>
       <use xlink:href="#mecfdadb189" x="135" y="81.05568" style="stroke: #000000; stroke-width: 0.8"/>
      </g>
     </g>
     <g id="text_20">
      <!-- 3 -->
      <g transform="translate(121.6375 84.854899)scale(0.1 -0.1)">
       <defs>
        <path id="DejaVuSans-33" d="M 2597 2516 
Q 3050 2419 3304 2112 
Q 3559 1806 3559 1356 
Q 3559 666 3084 287 
Q 2609 -91 1734 -91 
Q 1441 -91 1130 -33 
Q 819 25 488 141 
L 488 750 
Q 750 597 1062 519 
Q 1375 441 1716 441 
Q 2309 441 2620 675 
Q 2931 909 2931 1356 
Q 2931 1769 2642 2001 
Q 2353 2234 1838 2234 
L 1294 2234 
L 1294 2753 
L 1863 2753 
Q 2328 2753 2575 2939 
Q 2822 3125 2822 3475 
Q 2822 3834 2567 4026 
Q 2313 4219 1838 4219 
Q 1578 4219 1281 4162 
Q 984 4106 628 3988 
L 628 4550 
Q 988 4650 1302 4700 
Q 1616 4750 1894 4750 
Q 2613 4750 3031 4423 
Q 3450 4097 3450 3541 
Q 3450 3153 3228 2886 
Q 3006 2619 2597 2516 
z
" transform="scale(0.015625)"/>
       </defs>
       <use xlink:href="#DejaVuSans-33"/>
      </g>
     </g>
    </g>
    <g id="text_21">
     <!-- Sigma_0 -->
     <g transform="translate(115.279687 127.553125)rotate(-90)scale(0.1 -0.1)">
      <defs>
       <path id="DejaVuSans-53" d="M 3425 4513 
L 3425 3897 
Q 3066 4069 2747 4153 
Q 2428 4238 2131 4238 
Q 1616 4238 1336 4038 
Q 1056 3838 1056 3469 
Q 1056 3159 1242 3001 
Q 1428 2844 1947 2747 
L 2328 2669 
Q 3034 2534 3370 2195 
Q 3706 1856 3706 1288 
Q 3706 609 3251 259 
Q 2797 -91 1919 -91 
Q 1588 -91 1214 -16 
Q 841 59 441 206 
L 441 856 
Q 825 641 1194 531 
Q 1563 422 1919 422 
Q 2459 422 2753 634 
Q 3047 847 3047 1241 
Q 3047 1584 2836 1778 
Q 2625 1972 2144 2069 
L 1759 2144 
Q 1053 2284 737 2584 
Q 422 2884 422 3419 
Q 422 4038 858 4394 
Q 1294 4750 2059 4750 
Q 2388 4750 2728 4690 
Q 3069 4631 3425 4513 
z
" transform="scale(0.015625)"/>
       <path id="DejaVuSans-67" d="M 2906 1791 
Q 2906 2416 2648 2759 
Q 2391 3103 1925 3103 
Q 1463 3103 1205 2759 
Q 947 2416 947 1791 
Q 947 1169 1205 825 
Q 1463 481 1925 481 
Q 2391 481 2648 825 
Q 2906 1169 2906 1791 
z
M 3481 434 
Q 3481 -459 3084 -895 
Q 2688 -1331 1869 -1331 
Q 1566 -1331 1297 -1286 
Q 1028 -1241 775 -1147 
L 775 -588 
Q 1028 -725 1275 -790 
Q 1522 -856 1778 -856 
Q 2344 -856 2625 -561 
Q 2906 -266 2906 331 
L 2906 616 
Q 2728 306 2450 153 
Q 2172 0 1784 0 
Q 1141 0 747 490 
Q 353 981 353 1791 
Q 353 2603 747 3093 
Q 1141 3584 1784 3584 
Q 2172 3584 2450 3431 
Q 2728 3278 2906 2969 
L 2906 3500 
L 3481 3500 
L 3481 434 
z
" transform="scale(0.015625)"/>
       <path id="DejaVuSans-61" d="M 2194 1759 
Q 1497 1759 1228 1600 
Q 959 1441 959 1056 
Q 959 750 1161 570 
Q 1363 391 1709 391 
Q 2188 391 2477 730 
Q 2766 1069 2766 1631 
L 2766 1759 
L 2194 1759 
z
M 3341 1997 
L 3341 0 
L 2766 0 
L 2766 531 
Q 2569 213 2275 61 
Q 1981 -91 1556 -91 
Q 1019 -91 701 211 
Q 384 513 384 1019 
Q 384 1609 779 1909 
Q 1175 2209 1959 2209 
L 2766 2209 
L 2766 2266 
Q 2766 2663 2505 2880 
Q 2244 3097 1772 3097 
Q 1472 3097 1187 3025 
Q 903 2953 641 2809 
L 641 3341 
Q 956 3463 1253 3523 
Q 1550 3584 1831 3584 
Q 2591 3584 2966 3190 
Q 3341 2797 3341 1997 
z
" transform="scale(0.015625)"/>
       <path id="DejaVuSans-5f" d="M 3263 -1063 
L 3263 -1509 
L -63 -1509 
L -63 -1063 
L 3263 -1063 
z
" transform="scale(0.015625)"/>
      </defs>
      <use xlink:href="#DejaVuSans-53"/>
      <use xlink:href="#DejaVuSans-69" x="63.476562"/>
      <use xlink:href="#DejaVuSans-67" x="91.259766"/>
      <use xlink:href="#DejaVuSans-6d" x="154.736328"/>
      <use xlink:href="#DejaVuSans-61" x="252.148438"/>
      <use xlink:href="#DejaVuSans-5f" x="313.427734"/>
      <use xlink:href="#DejaVuSans-30" x="363.427734"/>
     </g>
    </g>
   </g>
   <g id="line2d_41">
    <path d="M 146.18984 163.472727 
L 148.47348 163.472727 
L 150.757121 163.472727 
L 153.040762 163.472727 
L 155.324402 163.472727 
L 157.608043 163.472727 
L 159.891684 163.472727 
L 162.175325 163.472727 
L 164.458965 163.472727 
L 166.742606 163.472727 
L 169.026247 163.472727 
L 171.309888 163.472727 
L 173.593528 163.472727 
L 175.877169 163.472727 
L 178.16081 163.472727 
L 180.444451 163.472727 
L 182.728091 163.472727 
L 185.011732 163.472727 
L 187.295373 163.472727 
L 189.579013 163.472727 
L 191.862654 163.472727 
L 194.146295 163.472727 
L 196.429936 163.472727 
L 198.713576 163.472727 
L 200.997217 163.472727 
L 203.280858 163.472727 
L 205.564499 163.472727 
L 207.848139 163.472727 
L 210.13178 163.472727 
L 212.415421 163.472727 
L 214.699061 163.472727 
L 216.982702 163.472727 
L 219.266343 163.472727 
L 221.549984 163.472727 
L 223.833624 163.472727 
L 226.117265 163.472727 
L 228.400906 163.472727 
L 230.684547 163.472727 
L 232.968187 163.472727 
L 235.251828 163.472727 
L 237.535469 163.472727 
L 239.819109 163.472727 
L 242.10275 163.472727 
L 244.386391 163.472727 
L 246.670032 163.472727 
L 248.953672 163.472727 
L 251.237313 163.472727 
L 253.520954 163.472727 
L 255.804595 163.472727 
L 258.088235 163.472727 
L 260.371876 163.472727 
L 262.655517 163.472727 
L 264.939157 163.472727 
L 267.222798 163.472727 
L 269.506439 163.472727 
L 271.79008 163.472727 
L 274.07372 163.472727 
L 276.357361 163.472727 
L 278.641002 163.472727 
L 280.924643 163.472727 
L 283.208283 163.472727 
L 285.491924 163.472727 
L 287.775565 163.472727 
L 290.059206 163.472727 
L 292.342846 163.472727 
L 294.626487 163.472727 
L 296.910128 163.472727 
L 299.193768 163.472727 
L 301.477409 163.472727 
L 303.76105 163.472727 
L 306.044691 163.472727 
L 308.328331 163.472727 
L 310.611972 163.472727 
L 312.895613 163.472727 
L 315.179254 163.472727 
L 317.462894 163.472727 
L 319.746535 163.472727 
L 322.030176 163.472727 
L 324.313816 163.472727 
L 326.597457 163.472727 
L 328.881098 163.472727 
L 331.164739 163.472727 
L 333.448379 163.472727 
L 335.73202 163.472727 
L 338.015661 163.472727 
L 340.299302 163.472727 
L 342.582942 163.472727 
L 344.866583 163.472727 
L 347.150224 163.472727 
L 349.433864 163.472727 
L 351.717505 163.472727 
L 354.001146 163.472727 
L 356.284787 163.472727 
L 358.568427 163.472727 
L 360.852068 163.472727 
L 363.135709 163.472727 
L 365.41935 163.472727 
L 367.70299 163.472727 
L 369.986631 163.472727 
" clip-path="url(#p50749c0b86)" style="fill: none; stroke: #1f77b4; stroke-width: 1.5; stroke-linecap: square"/>
   </g>
   <g id="line2d_42">
    <path d="M 146.18984 108.476709 
L 148.47348 111.310337 
L 150.757121 116.808229 
L 153.040762 103.926785 
L 155.324402 103.506231 
L 157.608043 81.181922 
L 159.891684 48.927273 
L 162.175325 60.066707 
L 164.458965 62.734262 
L 166.742606 68.841237 
L 169.026247 70.434637 
L 171.309888 75.599699 
L 173.593528 80.55974 
L 175.877169 82.529079 
L 178.16081 81.532902 
L 180.444451 83.653951 
L 182.728091 86.388698 
L 185.011732 89.184761 
L 187.295373 91.522778 
L 189.579013 94.308069 
L 191.862654 96.745516 
L 194.146295 91.985676 
L 196.429936 93.126718 
L 198.713576 91.100807 
L 200.997217 91.838723 
L 203.280858 93.754912 
L 205.564499 95.22954 
L 207.848139 96.149705 
L 210.13178 98.177268 
L 212.415421 98.73151 
L 214.699061 99.181377 
L 216.982702 97.654694 
L 219.266343 98.528148 
L 221.549984 99.565987 
L 223.833624 81.630126 
L 226.117265 81.34518 
L 228.400906 82.477949 
L 230.684547 84.347182 
L 232.968187 82.641555 
L 235.251828 83.052975 
L 237.535469 84.45135 
L 239.819109 84.728121 
L 242.10275 85.833746 
L 244.386391 86.861716 
L 246.670032 88.185498 
L 248.953672 89.209461 
L 251.237313 87.9765 
L 253.520954 86.629652 
L 255.804595 87.202337 
L 258.088235 85.974935 
L 260.371876 86.669447 
L 262.655517 87.244098 
L 264.939157 88.395678 
L 267.222798 89.366435 
L 269.506439 89.631416 
L 271.79008 89.779477 
L 274.07372 90.518153 
L 276.357361 91.053839 
L 278.641002 91.526671 
L 280.924643 91.903692 
L 283.208283 92.697501 
L 285.491924 91.946467 
L 287.775565 88.486949 
L 290.059206 89.110479 
L 292.342846 90.086543 
L 294.626487 90.335916 
L 296.910128 90.99248 
L 299.193768 91.686244 
L 301.477409 91.7224 
L 303.76105 91.973398 
L 306.044691 92.780362 
L 308.328331 93.631307 
L 310.611972 94.147479 
L 312.895613 91.849287 
L 315.179254 92.447573 
L 317.462894 93.219549 
L 319.746535 93.731122 
L 322.030176 60.760187 
L 324.313816 62.214378 
L 326.597457 63.564382 
L 328.881098 63.983706 
L 331.164739 59.790695 
L 333.448379 58.109272 
L 335.73202 58.938498 
L 338.015661 59.249748 
L 340.299302 59.870203 
L 342.582942 60.916856 
L 344.866583 56.503496 
L 347.150224 57.032622 
L 349.433864 57.286336 
L 351.717505 57.615727 
L 354.001146 55.059524 
L 356.284787 55.684604 
L 358.568427 56.585073 
L 360.852068 57.650885 
L 363.135709 56.376053 
L 365.41935 57.042019 
L 367.70299 57.335231 
L 369.986631 58.233376 
" clip-path="url(#p50749c0b86)" style="fill: none; stroke: #ff7f0e; stroke-width: 1.5; stroke-linecap: square"/>
   </g>
   <g id="patch_8">
    <path d="M 135 169.2 
L 135 43.2 
" style="fill: none; stroke: #000000; stroke-width: 0.8; stroke-linejoin: miter; stroke-linecap: square"/>
   </g>
   <g id="patch_9">
    <path d="M 381.176471 169.2 
L 381.176471 43.2 
" style="fill: none; stroke: #000000; stroke-width: 0.8; stroke-linejoin: miter; stroke-linecap: square"/>
   </g>
   <g id="patch_10">
    <path d="M 135 169.2 
L 381.176471 169.2 
" style="fill: none; stroke: #000000; stroke-width: 0.8; stroke-linejoin: miter; stroke-linecap: square"/>
   </g>
   <g id="patch_11">
    <path d="M 135 43.2 
L 381.176471 43.2 
" style="fill: none; stroke: #000000; stroke-width: 0.8; stroke-linejoin: miter; stroke-linecap: square"/>
   </g>
  </g>
  <g id="axes_3">
   <g id="patch_12">
    <path d="M 725.823529 169.2 
L 972 169.2 
L 972 43.2 
L 725.823529 43.2 
z
" style="fill: #ffffff"/>
   </g>
   <g id="matplotlib.axis_5">
    <g id="xtick_13">
     <g id="line2d_43">
      <path d="M 734.729728 169.2 
L 734.729728 43.2 
" clip-path="url(#p6eb823fe69)" style="fill: none; stroke: #b0b0b0; stroke-width: 0.8; stroke-linecap: square"/>
     </g>
     <g id="line2d_44">
      <g>
       <use xlink:href="#m0e2ebfdb49" x="734.729728" y="169.2" style="stroke: #000000; stroke-width: 0.8"/>
      </g>
     </g>
     <g id="text_22">
      <!-- 0 -->
      <g transform="translate(731.548478 183.798437)scale(0.1 -0.1)">
       <use xlink:href="#DejaVuSans-30"/>
      </g>
     </g>
    </g>
    <g id="xtick_14">
     <g id="line2d_45">
      <path d="M 780.402543 169.2 
L 780.402543 43.2 
" clip-path="url(#p6eb823fe69)" style="fill: none; stroke: #b0b0b0; stroke-width: 0.8; stroke-linecap: square"/>
     </g>
     <g id="line2d_46">
      <g>
       <use xlink:href="#m0e2ebfdb49" x="780.402543" y="169.2" style="stroke: #000000; stroke-width: 0.8"/>
      </g>
     </g>
     <g id="text_23">
      <!-- 2000 -->
      <g transform="translate(767.677543 183.798437)scale(0.1 -0.1)">
       <use xlink:href="#DejaVuSans-32"/>
       <use xlink:href="#DejaVuSans-30" x="63.623047"/>
       <use xlink:href="#DejaVuSans-30" x="127.246094"/>
       <use xlink:href="#DejaVuSans-30" x="190.869141"/>
      </g>
     </g>
    </g>
    <g id="xtick_15">
     <g id="line2d_47">
      <path d="M 826.075357 169.2 
L 826.075357 43.2 
" clip-path="url(#p6eb823fe69)" style="fill: none; stroke: #b0b0b0; stroke-width: 0.8; stroke-linecap: square"/>
     </g>
     <g id="line2d_48">
      <g>
       <use xlink:href="#m0e2ebfdb49" x="826.075357" y="169.2" style="stroke: #000000; stroke-width: 0.8"/>
      </g>
     </g>
     <g id="text_24">
      <!-- 4000 -->
      <g transform="translate(813.350357 183.798437)scale(0.1 -0.1)">
       <use xlink:href="#DejaVuSans-34"/>
       <use xlink:href="#DejaVuSans-30" x="63.623047"/>
       <use xlink:href="#DejaVuSans-30" x="127.246094"/>
       <use xlink:href="#DejaVuSans-30" x="190.869141"/>
      </g>
     </g>
    </g>
    <g id="xtick_16">
     <g id="line2d_49">
      <path d="M 871.748172 169.2 
L 871.748172 43.2 
" clip-path="url(#p6eb823fe69)" style="fill: none; stroke: #b0b0b0; stroke-width: 0.8; stroke-linecap: square"/>
     </g>
     <g id="line2d_50">
      <g>
       <use xlink:href="#m0e2ebfdb49" x="871.748172" y="169.2" style="stroke: #000000; stroke-width: 0.8"/>
      </g>
     </g>
     <g id="text_25">
      <!-- 6000 -->
      <g transform="translate(859.023172 183.798437)scale(0.1 -0.1)">
       <use xlink:href="#DejaVuSans-36"/>
       <use xlink:href="#DejaVuSans-30" x="63.623047"/>
       <use xlink:href="#DejaVuSans-30" x="127.246094"/>
       <use xlink:href="#DejaVuSans-30" x="190.869141"/>
      </g>
     </g>
    </g>
    <g id="xtick_17">
     <g id="line2d_51">
      <path d="M 917.420987 169.2 
L 917.420987 43.2 
" clip-path="url(#p6eb823fe69)" style="fill: none; stroke: #b0b0b0; stroke-width: 0.8; stroke-linecap: square"/>
     </g>
     <g id="line2d_52">
      <g>
       <use xlink:href="#m0e2ebfdb49" x="917.420987" y="169.2" style="stroke: #000000; stroke-width: 0.8"/>
      </g>
     </g>
     <g id="text_26">
      <!-- 8000 -->
      <g transform="translate(904.695987 183.798437)scale(0.1 -0.1)">
       <use xlink:href="#DejaVuSans-38"/>
       <use xlink:href="#DejaVuSans-30" x="63.623047"/>
       <use xlink:href="#DejaVuSans-30" x="127.246094"/>
       <use xlink:href="#DejaVuSans-30" x="190.869141"/>
      </g>
     </g>
    </g>
    <g id="xtick_18">
     <g id="line2d_53">
      <path d="M 963.093801 169.2 
L 963.093801 43.2 
" clip-path="url(#p6eb823fe69)" style="fill: none; stroke: #b0b0b0; stroke-width: 0.8; stroke-linecap: square"/>
     </g>
     <g id="line2d_54">
      <g>
       <use xlink:href="#m0e2ebfdb49" x="963.093801" y="169.2" style="stroke: #000000; stroke-width: 0.8"/>
      </g>
     </g>
     <g id="text_27">
      <!-- 10000 -->
      <g transform="translate(947.187551 183.798437)scale(0.1 -0.1)">
       <use xlink:href="#DejaVuSans-31"/>
       <use xlink:href="#DejaVuSans-30" x="63.623047"/>
       <use xlink:href="#DejaVuSans-30" x="127.246094"/>
       <use xlink:href="#DejaVuSans-30" x="190.869141"/>
       <use xlink:href="#DejaVuSans-30" x="254.492188"/>
      </g>
     </g>
    </g>
    <g id="text_28">
     <!-- time(T)  -->
     <g transform="translate(829.07114 197.476562)scale(0.1 -0.1)">
      <use xlink:href="#DejaVuSans-74"/>
      <use xlink:href="#DejaVuSans-69" x="39.208984"/>
      <use xlink:href="#DejaVuSans-6d" x="66.992188"/>
      <use xlink:href="#DejaVuSans-65" x="164.404297"/>
      <use xlink:href="#DejaVuSans-28" x="225.927734"/>
      <use xlink:href="#DejaVuSans-54" x="264.941406"/>
      <use xlink:href="#DejaVuSans-29" x="326.025391"/>
      <use xlink:href="#DejaVuSans-20" x="365.039062"/>
     </g>
    </g>
   </g>
   <g id="matplotlib.axis_6">
    <g id="ytick_8">
     <g id="line2d_55">
      <path d="M 725.823529 160.51654 
L 972 160.51654 
" clip-path="url(#p6eb823fe69)" style="fill: none; stroke: #b0b0b0; stroke-width: 0.8; stroke-linecap: square"/>
     </g>
     <g id="line2d_56">
      <g>
       <use xlink:href="#mecfdadb189" x="725.823529" y="160.51654" style="stroke: #000000; stroke-width: 0.8"/>
      </g>
     </g>
     <g id="text_29">
      <!-- 0.2 -->
      <g transform="translate(702.920404 164.315759)scale(0.1 -0.1)">
       <defs>
        <path id="DejaVuSans-2e" d="M 684 794 
L 1344 794 
L 1344 0 
L 684 0 
L 684 794 
z
" transform="scale(0.015625)"/>
       </defs>
       <use xlink:href="#DejaVuSans-30"/>
       <use xlink:href="#DejaVuSans-2e" x="63.623047"/>
       <use xlink:href="#DejaVuSans-32" x="95.410156"/>
      </g>
     </g>
    </g>
    <g id="ytick_9">
     <g id="line2d_57">
      <path d="M 725.823529 132.619223 
L 972 132.619223 
" clip-path="url(#p6eb823fe69)" style="fill: none; stroke: #b0b0b0; stroke-width: 0.8; stroke-linecap: square"/>
     </g>
     <g id="line2d_58">
      <g>
       <use xlink:href="#mecfdadb189" x="725.823529" y="132.619223" style="stroke: #000000; stroke-width: 0.8"/>
      </g>
     </g>
     <g id="text_30">
      <!-- 0.4 -->
      <g transform="translate(702.920404 136.418442)scale(0.1 -0.1)">
       <use xlink:href="#DejaVuSans-30"/>
       <use xlink:href="#DejaVuSans-2e" x="63.623047"/>
       <use xlink:href="#DejaVuSans-34" x="95.410156"/>
      </g>
     </g>
    </g>
    <g id="ytick_10">
     <g id="line2d_59">
      <path d="M 725.823529 104.721906 
L 972 104.721906 
" clip-path="url(#p6eb823fe69)" style="fill: none; stroke: #b0b0b0; stroke-width: 0.8; stroke-linecap: square"/>
     </g>
     <g id="line2d_60">
      <g>
       <use xlink:href="#mecfdadb189" x="725.823529" y="104.721906" style="stroke: #000000; stroke-width: 0.8"/>
      </g>
     </g>
     <g id="text_31">
      <!-- 0.6 -->
      <g transform="translate(702.920404 108.521125)scale(0.1 -0.1)">
       <use xlink:href="#DejaVuSans-30"/>
       <use xlink:href="#DejaVuSans-2e" x="63.623047"/>
       <use xlink:href="#DejaVuSans-36" x="95.410156"/>
      </g>
     </g>
    </g>
    <g id="ytick_11">
     <g id="line2d_61">
      <path d="M 725.823529 76.82459 
L 972 76.82459 
" clip-path="url(#p6eb823fe69)" style="fill: none; stroke: #b0b0b0; stroke-width: 0.8; stroke-linecap: square"/>
     </g>
     <g id="line2d_62">
      <g>
       <use xlink:href="#mecfdadb189" x="725.823529" y="76.82459" style="stroke: #000000; stroke-width: 0.8"/>
      </g>
     </g>
     <g id="text_32">
      <!-- 0.8 -->
      <g transform="translate(702.920404 80.623808)scale(0.1 -0.1)">
       <use xlink:href="#DejaVuSans-30"/>
       <use xlink:href="#DejaVuSans-2e" x="63.623047"/>
       <use xlink:href="#DejaVuSans-38" x="95.410156"/>
      </g>
     </g>
    </g>
    <g id="ytick_12">
     <g id="line2d_63">
      <path d="M 725.823529 48.927273 
L 972 48.927273 
" clip-path="url(#p6eb823fe69)" style="fill: none; stroke: #b0b0b0; stroke-width: 0.8; stroke-linecap: square"/>
     </g>
     <g id="line2d_64">
      <g>
       <use xlink:href="#mecfdadb189" x="725.823529" y="48.927273" style="stroke: #000000; stroke-width: 0.8"/>
      </g>
     </g>
     <g id="text_33">
      <!-- 1.0 -->
      <g transform="translate(702.920404 52.726491)scale(0.1 -0.1)">
       <use xlink:href="#DejaVuSans-31"/>
       <use xlink:href="#DejaVuSans-2e" x="63.623047"/>
       <use xlink:href="#DejaVuSans-30" x="95.410156"/>
      </g>
     </g>
    </g>
    <g id="text_34">
     <!-- Sigma_2 -->
     <g transform="translate(696.562592 127.553125)rotate(-90)scale(0.1 -0.1)">
      <use xlink:href="#DejaVuSans-53"/>
      <use xlink:href="#DejaVuSans-69" x="63.476562"/>
      <use xlink:href="#DejaVuSans-67" x="91.259766"/>
      <use xlink:href="#DejaVuSans-6d" x="154.736328"/>
      <use xlink:href="#DejaVuSans-61" x="252.148438"/>
      <use xlink:href="#DejaVuSans-5f" x="313.427734"/>
      <use xlink:href="#DejaVuSans-32" x="363.427734"/>
     </g>
    </g>
   </g>
   <g id="line2d_65">
    <path d="M 737.013369 48.927273 
L 739.29701 48.927273 
L 741.58065 48.927273 
L 743.864291 48.927273 
L 746.147932 48.927273 
L 748.431573 48.927273 
L 750.715213 48.927273 
L 752.998854 48.927273 
L 755.282495 48.927273 
L 757.566136 48.927273 
L 759.849776 48.927273 
L 762.133417 48.927273 
L 764.417058 48.927273 
L 766.700698 48.927273 
L 768.984339 48.927273 
L 771.26798 48.927273 
L 773.551621 48.927273 
L 775.835261 48.927273 
L 778.118902 48.927273 
L 780.402543 48.927273 
L 782.686184 48.927273 
L 784.969824 48.927273 
L 787.253465 48.927273 
L 789.537106 48.927273 
L 791.820746 48.927273 
L 794.104387 48.927273 
L 796.388028 48.927273 
L 798.671669 48.927273 
L 800.955309 48.927273 
L 803.23895 48.927273 
L 805.522591 48.927273 
L 807.806232 48.927273 
L 810.089872 48.927273 
L 812.373513 48.927273 
L 814.657154 48.927273 
L 816.940794 48.927273 
L 819.224435 48.927273 
L 821.508076 48.927273 
L 823.791717 48.927273 
L 826.075357 48.927273 
L 828.358998 48.927273 
L 830.642639 48.927273 
L 832.92628 48.927273 
L 835.20992 48.927273 
L 837.493561 48.927273 
L 839.777202 48.927273 
L 842.060843 48.927273 
L 844.344483 48.927273 
L 846.628124 48.927273 
L 848.911765 48.927273 
L 851.195405 48.927273 
L 853.479046 48.927273 
L 855.762687 48.927273 
L 858.046328 48.927273 
L 860.329968 48.927273 
L 862.613609 48.927273 
L 864.89725 48.927273 
L 867.180891 48.927273 
L 869.464531 48.927273 
L 871.748172 48.927273 
L 874.031813 48.927273 
L 876.315453 48.927273 
L 878.599094 48.927273 
L 880.882735 48.927273 
L 883.166376 48.927273 
L 885.450016 48.927273 
L 887.733657 48.927273 
L 890.017298 48.927273 
L 892.300939 48.927273 
L 894.584579 48.927273 
L 896.86822 48.927273 
L 899.151861 48.927273 
L 901.435501 48.927273 
L 903.719142 48.927273 
L 906.002783 48.927273 
L 908.286424 48.927273 
L 910.570064 48.927273 
L 912.853705 48.927273 
L 915.137346 48.927273 
L 917.420987 48.927273 
L 919.704627 48.927273 
L 921.988268 48.927273 
L 924.271909 48.927273 
L 926.555549 48.927273 
L 928.83919 48.927273 
L 931.122831 48.927273 
L 933.406472 48.927273 
L 935.690112 48.927273 
L 937.973753 48.927273 
L 940.257394 48.927273 
L 942.541035 48.927273 
L 944.824675 48.927273 
L 947.108316 48.927273 
L 949.391957 48.927273 
L 951.675598 48.927273 
L 953.959238 48.927273 
L 956.242879 48.927273 
L 958.52652 48.927273 
L 960.81016 48.927273 
" clip-path="url(#p6eb823fe69)" style="fill: none; stroke: #1f77b4; stroke-width: 1.5; stroke-linecap: square"/>
   </g>
   <g id="line2d_66">
    <path d="M 737.013369 163.472727 
L 739.29701 149.190151 
L 741.58065 145.683848 
L 743.864291 149.259608 
L 746.147932 148.561407 
L 748.431573 146.021185 
L 750.715213 152.507611 
L 752.998854 151.860285 
L 755.282495 151.507376 
L 757.566136 150.997996 
L 759.849776 150.938049 
L 762.133417 150.652509 
L 764.417058 150.289525 
L 766.700698 149.146629 
L 768.984339 146.791615 
L 771.26798 146.670494 
L 773.551621 146.59616 
L 775.835261 146.520907 
L 778.118902 146.438212 
L 780.402543 146.379209 
L 782.686184 146.307775 
L 784.969824 146.384708 
L 787.253465 146.332957 
L 789.537106 145.443048 
L 791.820746 145.435546 
L 794.104387 145.423186 
L 796.388028 145.431478 
L 798.671669 145.413774 
L 800.955309 145.381911 
L 803.23895 145.367701 
L 805.522591 145.206874 
L 807.806232 145.456199 
L 810.089872 145.485926 
L 812.373513 145.431784 
L 814.657154 143.849331 
L 816.940794 143.751887 
L 819.224435 143.737533 
L 821.508076 143.723412 
L 823.791717 143.903828 
L 826.075357 143.963319 
L 828.358998 143.967193 
L 830.642639 143.902401 
L 832.92628 143.877825 
L 835.20992 143.873635 
L 837.493561 143.868063 
L 839.777202 143.856912 
L 842.060843 143.938217 
L 844.344483 144.094775 
L 846.628124 144.058561 
L 848.911765 143.968034 
L 851.195405 143.951595 
L 853.479046 143.962046 
L 855.762687 143.956499 
L 858.046328 143.948131 
L 860.329968 143.932434 
L 862.613609 143.984779 
L 864.89725 143.966491 
L 867.180891 143.959997 
L 869.464531 143.939356 
L 871.748172 143.94529 
L 874.031813 143.948062 
L 876.315453 143.797418 
L 878.599094 143.517356 
L 880.882735 143.51714 
L 883.166376 143.51147 
L 885.450016 143.501882 
L 887.733657 143.50055 
L 890.017298 143.50248 
L 892.300939 143.48947 
L 894.584579 143.499633 
L 896.86822 143.494972 
L 899.151861 143.490446 
L 901.435501 143.490954 
L 903.719142 143.633312 
L 906.002783 143.638923 
L 908.286424 143.635218 
L 910.570064 143.634054 
L 912.853705 147.428212 
L 915.137346 147.401413 
L 917.420987 147.375718 
L 919.704627 147.281955 
L 921.988268 145.390856 
L 924.271909 144.734855 
L 926.555549 144.717129 
L 928.83919 144.650553 
L 931.122831 144.641744 
L 933.406472 144.630282 
L 935.690112 143.910799 
L 937.973753 143.903415 
L 940.257394 143.88551 
L 942.541035 143.852309 
L 944.824675 143.313665 
L 947.108316 143.308396 
L 949.391957 143.302312 
L 951.675598 143.29674 
L 953.959238 143.18229 
L 956.242879 143.18129 
L 958.52652 143.167588 
L 960.81016 143.165172 
" clip-path="url(#p6eb823fe69)" style="fill: none; stroke: #ff7f0e; stroke-width: 1.5; stroke-linecap: square"/>
   </g>
   <g id="patch_13">
    <path d="M 725.823529 169.2 
L 725.823529 43.2 
" style="fill: none; stroke: #000000; stroke-width: 0.8; stroke-linejoin: miter; stroke-linecap: square"/>
   </g>
   <g id="patch_14">
    <path d="M 972 169.2 
L 972 43.2 
" style="fill: none; stroke: #000000; stroke-width: 0.8; stroke-linejoin: miter; stroke-linecap: square"/>
   </g>
   <g id="patch_15">
    <path d="M 725.823529 169.2 
L 972 169.2 
" style="fill: none; stroke: #000000; stroke-width: 0.8; stroke-linejoin: miter; stroke-linecap: square"/>
   </g>
   <g id="patch_16">
    <path d="M 725.823529 43.2 
L 972 43.2 
" style="fill: none; stroke: #000000; stroke-width: 0.8; stroke-linejoin: miter; stroke-linecap: square"/>
   </g>
  </g>
  <g id="axes_4">
   <g id="patch_17">
    <path d="M 135 320.4 
L 381.176471 320.4 
L 381.176471 194.4 
L 135 194.4 
z
" style="fill: #ffffff"/>
   </g>
   <g id="matplotlib.axis_7">
    <g id="xtick_19">
     <g id="line2d_67">
      <path d="M 168.569519 320.4 
L 168.569519 194.4 
" clip-path="url(#p397085e810)" style="fill: none; stroke: #b0b0b0; stroke-width: 0.8; stroke-linecap: square"/>
     </g>
     <g id="line2d_68">
      <g>
       <use xlink:href="#m0e2ebfdb49" x="168.569519" y="320.4" style="stroke: #000000; stroke-width: 0.8"/>
      </g>
     </g>
     <g id="text_35">
      <!-- −0.04 -->
      <g transform="translate(153.246862 334.998438)scale(0.1 -0.1)">
       <use xlink:href="#DejaVuSans-2212"/>
       <use xlink:href="#DejaVuSans-30" x="83.789062"/>
       <use xlink:href="#DejaVuSans-2e" x="147.412109"/>
       <use xlink:href="#DejaVuSans-30" x="179.199219"/>
       <use xlink:href="#DejaVuSans-34" x="242.822266"/>
      </g>
     </g>
    </g>
    <g id="xtick_20">
     <g id="line2d_69">
      <path d="M 213.328877 320.4 
L 213.328877 194.4 
" clip-path="url(#p397085e810)" style="fill: none; stroke: #b0b0b0; stroke-width: 0.8; stroke-linecap: square"/>
     </g>
     <g id="line2d_70">
      <g>
       <use xlink:href="#m0e2ebfdb49" x="213.328877" y="320.4" style="stroke: #000000; stroke-width: 0.8"/>
      </g>
     </g>
     <g id="text_36">
      <!-- −0.02 -->
      <g transform="translate(198.006221 334.998438)scale(0.1 -0.1)">
       <use xlink:href="#DejaVuSans-2212"/>
       <use xlink:href="#DejaVuSans-30" x="83.789062"/>
       <use xlink:href="#DejaVuSans-2e" x="147.412109"/>
       <use xlink:href="#DejaVuSans-30" x="179.199219"/>
       <use xlink:href="#DejaVuSans-32" x="242.822266"/>
      </g>
     </g>
    </g>
    <g id="xtick_21">
     <g id="line2d_71">
      <path d="M 258.088235 320.4 
L 258.088235 194.4 
" clip-path="url(#p397085e810)" style="fill: none; stroke: #b0b0b0; stroke-width: 0.8; stroke-linecap: square"/>
     </g>
     <g id="line2d_72">
      <g>
       <use xlink:href="#m0e2ebfdb49" x="258.088235" y="320.4" style="stroke: #000000; stroke-width: 0.8"/>
      </g>
     </g>
     <g id="text_37">
      <!-- 0.00 -->
      <g transform="translate(246.955423 334.998438)scale(0.1 -0.1)">
       <use xlink:href="#DejaVuSans-30"/>
       <use xlink:href="#DejaVuSans-2e" x="63.623047"/>
       <use xlink:href="#DejaVuSans-30" x="95.410156"/>
       <use xlink:href="#DejaVuSans-30" x="159.033203"/>
      </g>
     </g>
    </g>
    <g id="xtick_22">
     <g id="line2d_73">
      <path d="M 302.847594 320.4 
L 302.847594 194.4 
" clip-path="url(#p397085e810)" style="fill: none; stroke: #b0b0b0; stroke-width: 0.8; stroke-linecap: square"/>
     </g>
     <g id="line2d_74">
      <g>
       <use xlink:href="#m0e2ebfdb49" x="302.847594" y="320.4" style="stroke: #000000; stroke-width: 0.8"/>
      </g>
     </g>
     <g id="text_38">
      <!-- 0.02 -->
      <g transform="translate(291.714781 334.998438)scale(0.1 -0.1)">
       <use xlink:href="#DejaVuSans-30"/>
       <use xlink:href="#DejaVuSans-2e" x="63.623047"/>
       <use xlink:href="#DejaVuSans-30" x="95.410156"/>
       <use xlink:href="#DejaVuSans-32" x="159.033203"/>
      </g>
     </g>
    </g>
    <g id="xtick_23">
     <g id="line2d_75">
      <path d="M 347.606952 320.4 
L 347.606952 194.4 
" clip-path="url(#p397085e810)" style="fill: none; stroke: #b0b0b0; stroke-width: 0.8; stroke-linecap: square"/>
     </g>
     <g id="line2d_76">
      <g>
       <use xlink:href="#m0e2ebfdb49" x="347.606952" y="320.4" style="stroke: #000000; stroke-width: 0.8"/>
      </g>
     </g>
     <g id="text_39">
      <!-- 0.04 -->
      <g transform="translate(336.474139 334.998438)scale(0.1 -0.1)">
       <use xlink:href="#DejaVuSans-30"/>
       <use xlink:href="#DejaVuSans-2e" x="63.623047"/>
       <use xlink:href="#DejaVuSans-30" x="95.410156"/>
       <use xlink:href="#DejaVuSans-34" x="159.033203"/>
      </g>
     </g>
    </g>
   </g>
   <g id="matplotlib.axis_8">
    <g id="ytick_13">
     <g id="line2d_77">
      <path d="M 135 319.944575 
L 381.176471 319.944575 
" clip-path="url(#p397085e810)" style="fill: none; stroke: #b0b0b0; stroke-width: 0.8; stroke-linecap: square"/>
     </g>
     <g id="line2d_78">
      <g>
       <use xlink:href="#mecfdadb189" x="135" y="319.944575" style="stroke: #000000; stroke-width: 0.8"/>
      </g>
     </g>
     <g id="text_40">
      <!-- 2.30 -->
      <g transform="translate(105.734375 323.743794)scale(0.1 -0.1)">
       <use xlink:href="#DejaVuSans-32"/>
       <use xlink:href="#DejaVuSans-2e" x="63.623047"/>
       <use xlink:href="#DejaVuSans-33" x="95.410156"/>
       <use xlink:href="#DejaVuSans-30" x="159.033203"/>
      </g>
     </g>
    </g>
    <g id="ytick_14">
     <g id="line2d_79">
      <path d="M 135 296.403054 
L 381.176471 296.403054 
" clip-path="url(#p397085e810)" style="fill: none; stroke: #b0b0b0; stroke-width: 0.8; stroke-linecap: square"/>
     </g>
     <g id="line2d_80">
      <g>
       <use xlink:href="#mecfdadb189" x="135" y="296.403054" style="stroke: #000000; stroke-width: 0.8"/>
      </g>
     </g>
     <g id="text_41">
      <!-- 2.35 -->
      <g transform="translate(105.734375 300.202273)scale(0.1 -0.1)">
       <defs>
        <path id="DejaVuSans-35" d="M 691 4666 
L 3169 4666 
L 3169 4134 
L 1269 4134 
L 1269 2991 
Q 1406 3038 1543 3061 
Q 1681 3084 1819 3084 
Q 2600 3084 3056 2656 
Q 3513 2228 3513 1497 
Q 3513 744 3044 326 
Q 2575 -91 1722 -91 
Q 1428 -91 1123 -41 
Q 819 9 494 109 
L 494 744 
Q 775 591 1075 516 
Q 1375 441 1709 441 
Q 2250 441 2565 725 
Q 2881 1009 2881 1497 
Q 2881 1984 2565 2268 
Q 2250 2553 1709 2553 
Q 1456 2553 1204 2497 
Q 953 2441 691 2322 
L 691 4666 
z
" transform="scale(0.015625)"/>
       </defs>
       <use xlink:href="#DejaVuSans-32"/>
       <use xlink:href="#DejaVuSans-2e" x="63.623047"/>
       <use xlink:href="#DejaVuSans-33" x="95.410156"/>
       <use xlink:href="#DejaVuSans-35" x="159.033203"/>
      </g>
     </g>
    </g>
    <g id="ytick_15">
     <g id="line2d_81">
      <path d="M 135 272.861533 
L 381.176471 272.861533 
" clip-path="url(#p397085e810)" style="fill: none; stroke: #b0b0b0; stroke-width: 0.8; stroke-linecap: square"/>
     </g>
     <g id="line2d_82">
      <g>
       <use xlink:href="#mecfdadb189" x="135" y="272.861533" style="stroke: #000000; stroke-width: 0.8"/>
      </g>
     </g>
     <g id="text_42">
      <!-- 2.40 -->
      <g transform="translate(105.734375 276.660752)scale(0.1 -0.1)">
       <use xlink:href="#DejaVuSans-32"/>
       <use xlink:href="#DejaVuSans-2e" x="63.623047"/>
       <use xlink:href="#DejaVuSans-34" x="95.410156"/>
       <use xlink:href="#DejaVuSans-30" x="159.033203"/>
      </g>
     </g>
    </g>
    <g id="ytick_16">
     <g id="line2d_83">
      <path d="M 135 249.320012 
L 381.176471 249.320012 
" clip-path="url(#p397085e810)" style="fill: none; stroke: #b0b0b0; stroke-width: 0.8; stroke-linecap: square"/>
     </g>
     <g id="line2d_84">
      <g>
       <use xlink:href="#mecfdadb189" x="135" y="249.320012" style="stroke: #000000; stroke-width: 0.8"/>
      </g>
     </g>
     <g id="text_43">
      <!-- 2.45 -->
      <g transform="translate(105.734375 253.119231)scale(0.1 -0.1)">
       <use xlink:href="#DejaVuSans-32"/>
       <use xlink:href="#DejaVuSans-2e" x="63.623047"/>
       <use xlink:href="#DejaVuSans-34" x="95.410156"/>
       <use xlink:href="#DejaVuSans-35" x="159.033203"/>
      </g>
     </g>
    </g>
    <g id="ytick_17">
     <g id="line2d_85">
      <path d="M 135 225.778491 
L 381.176471 225.778491 
" clip-path="url(#p397085e810)" style="fill: none; stroke: #b0b0b0; stroke-width: 0.8; stroke-linecap: square"/>
     </g>
     <g id="line2d_86">
      <g>
       <use xlink:href="#mecfdadb189" x="135" y="225.778491" style="stroke: #000000; stroke-width: 0.8"/>
      </g>
     </g>
     <g id="text_44">
      <!-- 2.50 -->
      <g transform="translate(105.734375 229.57771)scale(0.1 -0.1)">
       <use xlink:href="#DejaVuSans-32"/>
       <use xlink:href="#DejaVuSans-2e" x="63.623047"/>
       <use xlink:href="#DejaVuSans-35" x="95.410156"/>
       <use xlink:href="#DejaVuSans-30" x="159.033203"/>
      </g>
     </g>
    </g>
    <g id="ytick_18">
     <g id="line2d_87">
      <path d="M 135 202.23697 
L 381.176471 202.23697 
" clip-path="url(#p397085e810)" style="fill: none; stroke: #b0b0b0; stroke-width: 0.8; stroke-linecap: square"/>
     </g>
     <g id="line2d_88">
      <g>
       <use xlink:href="#mecfdadb189" x="135" y="202.23697" style="stroke: #000000; stroke-width: 0.8"/>
      </g>
     </g>
     <g id="text_45">
      <!-- 2.55 -->
      <g transform="translate(105.734375 206.036189)scale(0.1 -0.1)">
       <use xlink:href="#DejaVuSans-32"/>
       <use xlink:href="#DejaVuSans-2e" x="63.623047"/>
       <use xlink:href="#DejaVuSans-35" x="95.410156"/>
       <use xlink:href="#DejaVuSans-35" x="159.033203"/>
      </g>
     </g>
    </g>
    <g id="text_46">
     <!-- 1e8 -->
     <g transform="translate(135 191.4)scale(0.1 -0.1)">
      <use xlink:href="#DejaVuSans-31"/>
      <use xlink:href="#DejaVuSans-65" x="63.623047"/>
      <use xlink:href="#DejaVuSans-38" x="125.146484"/>
     </g>
    </g>
   </g>
   <g id="line2d_89">
    <path d="M 258.088235 257.4 
" clip-path="url(#p397085e810)" style="fill: none; stroke: #1f77b4; stroke-width: 1.5; stroke-linecap: square"/>
   </g>
   <g id="patch_18">
    <path d="M 135 320.4 
L 135 194.4 
" style="fill: none; stroke: #000000; stroke-width: 0.8; stroke-linejoin: miter; stroke-linecap: square"/>
   </g>
   <g id="patch_19">
    <path d="M 381.176471 320.4 
L 381.176471 194.4 
" style="fill: none; stroke: #000000; stroke-width: 0.8; stroke-linejoin: miter; stroke-linecap: square"/>
   </g>
   <g id="patch_20">
    <path d="M 135 320.4 
L 381.176471 320.4 
" style="fill: none; stroke: #000000; stroke-width: 0.8; stroke-linejoin: miter; stroke-linecap: square"/>
   </g>
   <g id="patch_21">
    <path d="M 135 194.4 
L 381.176471 194.4 
" style="fill: none; stroke: #000000; stroke-width: 0.8; stroke-linejoin: miter; stroke-linecap: square"/>
   </g>
  </g>
  <g id="axes_5">
   <g id="patch_22">
    <path d="M 430.411765 320.4 
L 676.588235 320.4 
L 676.588235 194.4 
L 430.411765 194.4 
z
" style="fill: #ffffff"/>
   </g>
   <g id="matplotlib.axis_9">
    <g id="xtick_24">
     <g id="line2d_90">
      <path d="M 444.357452 320.4 
L 444.357452 194.4 
" clip-path="url(#p1e99f8fae2)" style="fill: none; stroke: #b0b0b0; stroke-width: 0.8; stroke-linecap: square"/>
     </g>
     <g id="line2d_91">
      <g>
       <use xlink:href="#m0e2ebfdb49" x="444.357452" y="320.4" style="stroke: #000000; stroke-width: 0.8"/>
      </g>
     </g>
     <g id="text_47">
      <!-- −3 -->
      <g transform="translate(436.986358 334.998438)scale(0.1 -0.1)">
       <use xlink:href="#DejaVuSans-2212"/>
       <use xlink:href="#DejaVuSans-33" x="83.789062"/>
      </g>
     </g>
    </g>
    <g id="xtick_25">
     <g id="line2d_92">
      <path d="M 481.447066 320.4 
L 481.447066 194.4 
" clip-path="url(#p1e99f8fae2)" style="fill: none; stroke: #b0b0b0; stroke-width: 0.8; stroke-linecap: square"/>
     </g>
     <g id="line2d_93">
      <g>
       <use xlink:href="#m0e2ebfdb49" x="481.447066" y="320.4" style="stroke: #000000; stroke-width: 0.8"/>
      </g>
     </g>
     <g id="text_48">
      <!-- −2 -->
      <g transform="translate(474.075972 334.998438)scale(0.1 -0.1)">
       <use xlink:href="#DejaVuSans-2212"/>
       <use xlink:href="#DejaVuSans-32" x="83.789062"/>
      </g>
     </g>
    </g>
    <g id="xtick_26">
     <g id="line2d_94">
      <path d="M 518.536681 320.4 
L 518.536681 194.4 
" clip-path="url(#p1e99f8fae2)" style="fill: none; stroke: #b0b0b0; stroke-width: 0.8; stroke-linecap: square"/>
     </g>
     <g id="line2d_95">
      <g>
       <use xlink:href="#m0e2ebfdb49" x="518.536681" y="320.4" style="stroke: #000000; stroke-width: 0.8"/>
      </g>
     </g>
     <g id="text_49">
      <!-- −1 -->
      <g transform="translate(511.165587 334.998438)scale(0.1 -0.1)">
       <use xlink:href="#DejaVuSans-2212"/>
       <use xlink:href="#DejaVuSans-31" x="83.789062"/>
      </g>
     </g>
    </g>
    <g id="xtick_27">
     <g id="line2d_96">
      <path d="M 555.626295 320.4 
L 555.626295 194.4 
" clip-path="url(#p1e99f8fae2)" style="fill: none; stroke: #b0b0b0; stroke-width: 0.8; stroke-linecap: square"/>
     </g>
     <g id="line2d_97">
      <g>
       <use xlink:href="#m0e2ebfdb49" x="555.626295" y="320.4" style="stroke: #000000; stroke-width: 0.8"/>
      </g>
     </g>
     <g id="text_50">
      <!-- 0 -->
      <g transform="translate(552.445045 334.998438)scale(0.1 -0.1)">
       <use xlink:href="#DejaVuSans-30"/>
      </g>
     </g>
    </g>
    <g id="xtick_28">
     <g id="line2d_98">
      <path d="M 592.71591 320.4 
L 592.71591 194.4 
" clip-path="url(#p1e99f8fae2)" style="fill: none; stroke: #b0b0b0; stroke-width: 0.8; stroke-linecap: square"/>
     </g>
     <g id="line2d_99">
      <g>
       <use xlink:href="#m0e2ebfdb49" x="592.71591" y="320.4" style="stroke: #000000; stroke-width: 0.8"/>
      </g>
     </g>
     <g id="text_51">
      <!-- 1 -->
      <g transform="translate(589.53466 334.998438)scale(0.1 -0.1)">
       <use xlink:href="#DejaVuSans-31"/>
      </g>
     </g>
    </g>
    <g id="xtick_29">
     <g id="line2d_100">
      <path d="M 629.805524 320.4 
L 629.805524 194.4 
" clip-path="url(#p1e99f8fae2)" style="fill: none; stroke: #b0b0b0; stroke-width: 0.8; stroke-linecap: square"/>
     </g>
     <g id="line2d_101">
      <g>
       <use xlink:href="#m0e2ebfdb49" x="629.805524" y="320.4" style="stroke: #000000; stroke-width: 0.8"/>
      </g>
     </g>
     <g id="text_52">
      <!-- 2 -->
      <g transform="translate(626.624274 334.998438)scale(0.1 -0.1)">
       <use xlink:href="#DejaVuSans-32"/>
      </g>
     </g>
    </g>
    <g id="xtick_30">
     <g id="line2d_102">
      <path d="M 666.895139 320.4 
L 666.895139 194.4 
" clip-path="url(#p1e99f8fae2)" style="fill: none; stroke: #b0b0b0; stroke-width: 0.8; stroke-linecap: square"/>
     </g>
     <g id="line2d_103">
      <g>
       <use xlink:href="#m0e2ebfdb49" x="666.895139" y="320.4" style="stroke: #000000; stroke-width: 0.8"/>
      </g>
     </g>
     <g id="text_53">
      <!-- 3 -->
      <g transform="translate(663.713889 334.998438)scale(0.1 -0.1)">
       <use xlink:href="#DejaVuSans-33"/>
      </g>
     </g>
    </g>
   </g>
   <g id="matplotlib.axis_10">
    <g id="ytick_19">
     <g id="line2d_104">
      <path d="M 430.411765 302.669154 
L 676.588235 302.669154 
" clip-path="url(#p1e99f8fae2)" style="fill: none; stroke: #b0b0b0; stroke-width: 0.8; stroke-linecap: square"/>
     </g>
     <g id="line2d_105">
      <g>
       <use xlink:href="#mecfdadb189" x="430.411765" y="302.669154" style="stroke: #000000; stroke-width: 0.8"/>
      </g>
     </g>
     <g id="text_54">
      <!-- 2 -->
      <g transform="translate(417.049265 306.468372)scale(0.1 -0.1)">
       <use xlink:href="#DejaVuSans-32"/>
      </g>
     </g>
    </g>
    <g id="ytick_20">
     <g id="line2d_106">
      <path d="M 430.411765 278.644681 
L 676.588235 278.644681 
" clip-path="url(#p1e99f8fae2)" style="fill: none; stroke: #b0b0b0; stroke-width: 0.8; stroke-linecap: square"/>
     </g>
     <g id="line2d_107">
      <g>
       <use xlink:href="#mecfdadb189" x="430.411765" y="278.644681" style="stroke: #000000; stroke-width: 0.8"/>
      </g>
     </g>
     <g id="text_55">
      <!-- 4 -->
      <g transform="translate(417.049265 282.4439)scale(0.1 -0.1)">
       <use xlink:href="#DejaVuSans-34"/>
      </g>
     </g>
    </g>
    <g id="ytick_21">
     <g id="line2d_108">
      <path d="M 430.411765 254.620209 
L 676.588235 254.620209 
" clip-path="url(#p1e99f8fae2)" style="fill: none; stroke: #b0b0b0; stroke-width: 0.8; stroke-linecap: square"/>
     </g>
     <g id="line2d_109">
      <g>
       <use xlink:href="#mecfdadb189" x="430.411765" y="254.620209" style="stroke: #000000; stroke-width: 0.8"/>
      </g>
     </g>
     <g id="text_56">
      <!-- 6 -->
      <g transform="translate(417.049265 258.419428)scale(0.1 -0.1)">
       <use xlink:href="#DejaVuSans-36"/>
      </g>
     </g>
    </g>
    <g id="ytick_22">
     <g id="line2d_110">
      <path d="M 430.411765 230.595737 
L 676.588235 230.595737 
" clip-path="url(#p1e99f8fae2)" style="fill: none; stroke: #b0b0b0; stroke-width: 0.8; stroke-linecap: square"/>
     </g>
     <g id="line2d_111">
      <g>
       <use xlink:href="#mecfdadb189" x="430.411765" y="230.595737" style="stroke: #000000; stroke-width: 0.8"/>
      </g>
     </g>
     <g id="text_57">
      <!-- 8 -->
      <g transform="translate(417.049265 234.394956)scale(0.1 -0.1)">
       <use xlink:href="#DejaVuSans-38"/>
      </g>
     </g>
    </g>
    <g id="ytick_23">
     <g id="line2d_112">
      <path d="M 430.411765 206.571265 
L 676.588235 206.571265 
" clip-path="url(#p1e99f8fae2)" style="fill: none; stroke: #b0b0b0; stroke-width: 0.8; stroke-linecap: square"/>
     </g>
     <g id="line2d_113">
      <g>
       <use xlink:href="#mecfdadb189" x="430.411765" y="206.571265" style="stroke: #000000; stroke-width: 0.8"/>
      </g>
     </g>
     <g id="text_58">
      <!-- 10 -->
      <g transform="translate(410.686765 210.370483)scale(0.1 -0.1)">
       <use xlink:href="#DejaVuSans-31"/>
       <use xlink:href="#DejaVuSans-30" x="63.623047"/>
      </g>
     </g>
    </g>
   </g>
   <g id="line2d_114">
    <path d="M 441.601604 201.149719 
L 443.862178 205.606695 
L 446.122752 209.974426 
L 448.383325 214.252911 
L 450.643899 218.44215 
L 452.904473 222.542144 
L 455.165046 226.552892 
L 457.42562 230.474395 
L 459.686193 234.306652 
L 461.946767 238.049663 
L 464.207341 241.70343 
L 466.467914 245.26795 
L 468.728488 248.743225 
L 470.989062 252.129255 
L 473.249635 255.426038 
L 475.510209 258.633577 
L 477.770783 261.75187 
L 480.031356 264.780917 
L 482.29193 267.720719 
L 484.552504 270.571275 
L 486.813077 273.332586 
L 489.073651 276.004651 
L 491.334225 278.58747 
L 493.594798 281.081044 
L 495.855372 283.485373 
L 498.115946 285.800456 
L 500.376519 288.026293 
L 502.637093 290.162885 
L 504.897667 292.210231 
L 507.15824 294.168332 
L 509.418814 296.037187 
L 511.679387 297.816797 
L 513.939961 299.507161 
L 516.200535 301.108279 
L 518.461108 302.620153 
L 520.721682 304.04278 
L 522.982256 305.376162 
L 525.242829 306.620298 
L 527.503403 307.775189 
L 529.763977 308.840835 
L 532.02455 309.817234 
L 534.285124 310.704389 
L 536.545698 311.502297 
L 538.806271 312.21096 
L 541.066845 312.830378 
L 543.327419 313.36055 
L 545.587992 313.801477 
L 547.848566 314.153158 
L 550.10914 314.415593 
L 552.369713 314.588783 
L 554.630287 314.672727 
L 556.89086 314.667426 
L 559.151434 314.572879 
L 561.412008 314.389087 
L 563.672581 314.116049 
L 565.933155 313.753766 
L 568.193729 313.302237 
L 570.454302 312.761462 
L 572.714876 312.131442 
L 574.97545 311.412177 
L 577.236023 310.603666 
L 579.496597 309.705909 
L 581.757171 308.718907 
L 584.017744 307.642659 
L 586.278318 306.477166 
L 588.538892 305.222427 
L 590.799465 303.878443 
L 593.060039 302.445213 
L 595.320613 300.922738 
L 597.581186 299.311017 
L 599.84176 297.61005 
L 602.102333 295.819838 
L 604.362907 293.94038 
L 606.623481 291.971677 
L 608.884054 289.913729 
L 611.144628 287.766534 
L 613.405202 285.530094 
L 615.665775 283.204409 
L 617.926349 280.789478 
L 620.186923 278.285302 
L 622.447496 275.69188 
L 624.70807 273.009212 
L 626.968644 270.237299 
L 629.229217 267.376141 
L 631.489791 264.425737 
L 633.750365 261.386087 
L 636.010938 258.257192 
L 638.271512 255.039051 
L 640.532086 251.731665 
L 642.792659 248.335033 
L 645.053233 244.849155 
L 647.313807 241.274032 
L 649.57438 237.609664 
L 651.834954 233.85605 
L 654.095527 230.01319 
L 656.356101 226.081085 
L 658.616675 222.059735 
L 660.877248 217.949138 
L 663.137822 213.749297 
L 665.398396 209.460209 
" clip-path="url(#p1e99f8fae2)" style="fill: none; stroke: #1f77b4; stroke-width: 1.5; stroke-linecap: square"/>
   </g>
   <g id="line2d_115">
    <path d="M 441.601604 298.846066 
L 443.862178 299.267494 
L 446.122752 299.659972 
L 448.383325 300.023498 
L 450.643899 300.358074 
L 452.904473 300.663699 
L 455.165046 300.940373 
L 457.42562 301.188097 
L 459.686193 301.406869 
L 461.946767 301.596691 
L 464.207341 301.757562 
L 466.467914 301.889483 
L 468.728488 301.992452 
L 470.989062 302.066471 
L 473.249635 302.111539 
L 475.510209 302.127656 
L 477.770783 302.114823 
L 480.031356 302.073039 
L 482.29193 302.002304 
L 484.552504 301.902618 
L 486.813077 301.773981 
L 489.073651 301.616394 
L 491.334225 301.429856 
L 493.594798 301.214367 
L 495.855372 300.969927 
L 498.115946 300.696537 
L 500.376519 300.394196 
L 502.637093 300.062904 
L 504.897667 299.702661 
L 507.15824 299.313468 
L 509.418814 298.895324 
L 511.679387 298.448229 
L 513.939961 297.972183 
L 516.200535 297.467187 
L 518.461108 296.933239 
L 520.721682 296.370341 
L 522.982256 295.778492 
L 525.242829 295.157693 
L 527.503403 294.507943 
L 529.763977 293.829241 
L 532.02455 293.12159 
L 534.285124 292.384987 
L 536.545698 291.619434 
L 538.806271 290.824929 
L 541.066845 290.001474 
L 543.327419 289.149069 
L 545.587992 288.267712 
L 547.848566 287.357405 
L 550.10914 286.418147 
L 552.369713 285.449938 
L 554.630287 284.452779 
L 556.89086 283.426668 
L 559.151434 282.371607 
L 561.412008 281.287596 
L 563.672581 280.174633 
L 565.933155 279.03272 
L 568.193729 277.861855 
L 570.454302 276.662041 
L 572.714876 275.433275 
L 574.97545 274.175558 
L 577.236023 272.888891 
L 579.496597 271.573273 
L 581.757171 270.228705 
L 584.017744 268.855185 
L 586.278318 267.452715 
L 588.538892 266.021294 
L 590.799465 264.560922 
L 593.060039 263.071599 
L 595.320613 261.553326 
L 597.581186 260.006102 
L 599.84176 258.429927 
L 602.102333 256.824802 
L 604.362907 255.190725 
L 606.623481 253.527698 
L 608.884054 251.83572 
L 611.144628 250.114791 
L 613.405202 248.364912 
L 615.665775 246.586082 
L 617.926349 244.778301 
L 620.186923 242.941569 
L 622.447496 241.075886 
L 624.70807 239.181253 
L 626.968644 237.257669 
L 629.229217 235.305134 
L 631.489791 233.323649 
L 633.750365 231.313212 
L 636.010938 229.273825 
L 638.271512 227.205487 
L 640.532086 225.108199 
L 642.792659 222.981959 
L 645.053233 220.826769 
L 647.313807 218.642628 
L 649.57438 216.429536 
L 651.834954 214.187494 
L 654.095527 211.916501 
L 656.356101 209.616556 
L 658.616675 207.287662 
L 660.877248 204.929816 
L 663.137822 202.54302 
L 665.398396 200.127273 
" clip-path="url(#p1e99f8fae2)" style="fill: none; stroke: #ff7f0e; stroke-width: 1.5; stroke-linecap: square"/>
   </g>
   <g id="patch_23">
    <path d="M 430.411765 320.4 
L 430.411765 194.4 
" style="fill: none; stroke: #000000; stroke-width: 0.8; stroke-linejoin: miter; stroke-linecap: square"/>
   </g>
   <g id="patch_24">
    <path d="M 676.588235 320.4 
L 676.588235 194.4 
" style="fill: none; stroke: #000000; stroke-width: 0.8; stroke-linejoin: miter; stroke-linecap: square"/>
   </g>
   <g id="patch_25">
    <path d="M 430.411765 320.4 
L 676.588235 320.4 
" style="fill: none; stroke: #000000; stroke-width: 0.8; stroke-linejoin: miter; stroke-linecap: square"/>
   </g>
   <g id="patch_26">
    <path d="M 430.411765 194.4 
L 676.588235 194.4 
" style="fill: none; stroke: #000000; stroke-width: 0.8; stroke-linejoin: miter; stroke-linecap: square"/>
   </g>
   <g id="legend_1">
    <g id="patch_27">
     <path d="M 648.916085 273.578125 
L 738.517647 273.578125 
Q 740.517647 273.578125 740.517647 271.578125 
L 740.517647 243.221875 
Q 740.517647 241.221875 738.517647 241.221875 
L 648.916085 241.221875 
Q 646.916085 241.221875 646.916085 243.221875 
L 646.916085 271.578125 
Q 646.916085 273.578125 648.916085 273.578125 
z
" style="fill: #ffffff; opacity: 0.8; stroke: #cccccc; stroke-linejoin: miter"/>
    </g>
    <g id="line2d_116">
     <path d="M 650.916085 249.320312 
L 660.916085 249.320312 
L 670.916085 249.320312 
" style="fill: none; stroke: #1f77b4; stroke-width: 1.5; stroke-linecap: square"/>
    </g>
    <g id="text_59">
     <!-- True -->
     <g transform="translate(678.916085 252.820312)scale(0.1 -0.1)">
      <defs>
       <path id="DejaVuSans-72" d="M 2631 2963 
Q 2534 3019 2420 3045 
Q 2306 3072 2169 3072 
Q 1681 3072 1420 2755 
Q 1159 2438 1159 1844 
L 1159 0 
L 581 0 
L 581 3500 
L 1159 3500 
L 1159 2956 
Q 1341 3275 1631 3429 
Q 1922 3584 2338 3584 
Q 2397 3584 2469 3576 
Q 2541 3569 2628 3553 
L 2631 2963 
z
" transform="scale(0.015625)"/>
       <path id="DejaVuSans-75" d="M 544 1381 
L 544 3500 
L 1119 3500 
L 1119 1403 
Q 1119 906 1312 657 
Q 1506 409 1894 409 
Q 2359 409 2629 706 
Q 2900 1003 2900 1516 
L 2900 3500 
L 3475 3500 
L 3475 0 
L 2900 0 
L 2900 538 
Q 2691 219 2414 64 
Q 2138 -91 1772 -91 
Q 1169 -91 856 284 
Q 544 659 544 1381 
z
M 1991 3584 
L 1991 3584 
z
" transform="scale(0.015625)"/>
      </defs>
      <use xlink:href="#DejaVuSans-54"/>
      <use xlink:href="#DejaVuSans-72" x="46.333984"/>
      <use xlink:href="#DejaVuSans-75" x="87.447266"/>
      <use xlink:href="#DejaVuSans-65" x="150.826172"/>
     </g>
    </g>
    <g id="line2d_117">
     <path d="M 650.916085 263.998438 
L 660.916085 263.998438 
L 670.916085 263.998438 
" style="fill: none; stroke: #ff7f0e; stroke-width: 1.5; stroke-linecap: square"/>
    </g>
    <g id="text_60">
     <!-- # of lines-4 -->
     <g transform="translate(678.916085 267.498438)scale(0.1 -0.1)">
      <defs>
       <path id="DejaVuSans-23" d="M 3272 2816 
L 2363 2816 
L 2100 1772 
L 3016 1772 
L 3272 2816 
z
M 2803 4594 
L 2478 3297 
L 3391 3297 
L 3719 4594 
L 4219 4594 
L 3897 3297 
L 4872 3297 
L 4872 2816 
L 3775 2816 
L 3519 1772 
L 4513 1772 
L 4513 1294 
L 3397 1294 
L 3072 0 
L 2572 0 
L 2894 1294 
L 1978 1294 
L 1656 0 
L 1153 0 
L 1478 1294 
L 494 1294 
L 494 1772 
L 1594 1772 
L 1856 2816 
L 850 2816 
L 850 3297 
L 1978 3297 
L 2297 4594 
L 2803 4594 
z
" transform="scale(0.015625)"/>
       <path id="DejaVuSans-6f" d="M 1959 3097 
Q 1497 3097 1228 2736 
Q 959 2375 959 1747 
Q 959 1119 1226 758 
Q 1494 397 1959 397 
Q 2419 397 2687 759 
Q 2956 1122 2956 1747 
Q 2956 2369 2687 2733 
Q 2419 3097 1959 3097 
z
M 1959 3584 
Q 2709 3584 3137 3096 
Q 3566 2609 3566 1747 
Q 3566 888 3137 398 
Q 2709 -91 1959 -91 
Q 1206 -91 779 398 
Q 353 888 353 1747 
Q 353 2609 779 3096 
Q 1206 3584 1959 3584 
z
" transform="scale(0.015625)"/>
       <path id="DejaVuSans-66" d="M 2375 4863 
L 2375 4384 
L 1825 4384 
Q 1516 4384 1395 4259 
Q 1275 4134 1275 3809 
L 1275 3500 
L 2222 3500 
L 2222 3053 
L 1275 3053 
L 1275 0 
L 697 0 
L 697 3053 
L 147 3053 
L 147 3500 
L 697 3500 
L 697 3744 
Q 697 4328 969 4595 
Q 1241 4863 1831 4863 
L 2375 4863 
z
" transform="scale(0.015625)"/>
       <path id="DejaVuSans-6c" d="M 603 4863 
L 1178 4863 
L 1178 0 
L 603 0 
L 603 4863 
z
" transform="scale(0.015625)"/>
       <path id="DejaVuSans-6e" d="M 3513 2113 
L 3513 0 
L 2938 0 
L 2938 2094 
Q 2938 2591 2744 2837 
Q 2550 3084 2163 3084 
Q 1697 3084 1428 2787 
Q 1159 2491 1159 1978 
L 1159 0 
L 581 0 
L 581 3500 
L 1159 3500 
L 1159 2956 
Q 1366 3272 1645 3428 
Q 1925 3584 2291 3584 
Q 2894 3584 3203 3211 
Q 3513 2838 3513 2113 
z
" transform="scale(0.015625)"/>
       <path id="DejaVuSans-73" d="M 2834 3397 
L 2834 2853 
Q 2591 2978 2328 3040 
Q 2066 3103 1784 3103 
Q 1356 3103 1142 2972 
Q 928 2841 928 2578 
Q 928 2378 1081 2264 
Q 1234 2150 1697 2047 
L 1894 2003 
Q 2506 1872 2764 1633 
Q 3022 1394 3022 966 
Q 3022 478 2636 193 
Q 2250 -91 1575 -91 
Q 1294 -91 989 -36 
Q 684 19 347 128 
L 347 722 
Q 666 556 975 473 
Q 1284 391 1588 391 
Q 1994 391 2212 530 
Q 2431 669 2431 922 
Q 2431 1156 2273 1281 
Q 2116 1406 1581 1522 
L 1381 1569 
Q 847 1681 609 1914 
Q 372 2147 372 2553 
Q 372 3047 722 3315 
Q 1072 3584 1716 3584 
Q 2034 3584 2315 3537 
Q 2597 3491 2834 3397 
z
" transform="scale(0.015625)"/>
       <path id="DejaVuSans-2d" d="M 313 2009 
L 1997 2009 
L 1997 1497 
L 313 1497 
L 313 2009 
z
" transform="scale(0.015625)"/>
      </defs>
      <use xlink:href="#DejaVuSans-23"/>
      <use xlink:href="#DejaVuSans-20" x="83.789062"/>
      <use xlink:href="#DejaVuSans-6f" x="115.576172"/>
      <use xlink:href="#DejaVuSans-66" x="176.757812"/>
      <use xlink:href="#DejaVuSans-20" x="211.962891"/>
      <use xlink:href="#DejaVuSans-6c" x="243.75"/>
      <use xlink:href="#DejaVuSans-69" x="271.533203"/>
      <use xlink:href="#DejaVuSans-6e" x="299.316406"/>
      <use xlink:href="#DejaVuSans-65" x="362.695312"/>
      <use xlink:href="#DejaVuSans-73" x="424.21875"/>
      <use xlink:href="#DejaVuSans-2d" x="476.318359"/>
      <use xlink:href="#DejaVuSans-34" x="512.402344"/>
     </g>
    </g>
   </g>
  </g>
 </g>
 <defs>
  <clipPath id="p1ec4f90ad8">
   <rect x="430.411765" y="43.2" width="246.176471" height="126"/>
  </clipPath>
  <clipPath id="p50749c0b86">
   <rect x="135" y="43.2" width="246.176471" height="126"/>
  </clipPath>
  <clipPath id="p6eb823fe69">
   <rect x="725.823529" y="43.2" width="246.176471" height="126"/>
  </clipPath>
  <clipPath id="p397085e810">
   <rect x="135" y="194.4" width="246.176471" height="126"/>
  </clipPath>
  <clipPath id="p1e99f8fae2">
   <rect x="430.411765" y="194.4" width="246.176471" height="126"/>
  </clipPath>
 </defs>
</svg>
