<?xml version="1.0" encoding="utf-8" standalone="no"?>
<!DOCTYPE svg PUBLIC "-//W3C//DTD SVG 1.1//EN"
  "http://www.w3.org/Graphics/SVG/1.1/DTD/svg11.dtd">
<svg xmlns:xlink="http://www.w3.org/1999/xlink" width="1080pt" height="720pt" viewBox="0 0 1080 720" xmlns="http://www.w3.org/2000/svg" version="1.1">
 <metadata>
  <rdf:RDF xmlns:dc="http://purl.org/dc/elements/1.1/" xmlns:cc="http://creativecommons.org/ns#" xmlns:rdf="http://www.w3.org/1999/02/22-rdf-syntax-ns#">
   <cc:Work>
    <dc:type rdf:resource="http://purl.org/dc/dcmitype/StillImage"/>
    <dc:date>2022-10-24T16:35:52.067935</dc:date>
    <dc:format>image/svg+xml</dc:format>
    <dc:creator>
     <cc:Agent>
      <dc:title>Matplotlib v3.5.1, https://matplotlib.org/</dc:title>
     </cc:Agent>
    </dc:creator>
   </cc:Work>
  </rdf:RDF>
 </metadata>
 <defs>
  <style type="text/css">*{stroke-linejoin: round; stroke-linecap: butt}</style>
 </defs>
 <g id="figure_1">
  <g id="patch_1">
   <path d="M 0 720 
L 1080 720 
L 1080 0 
L 0 0 
z
" style="fill: #ffffff"/>
  </g>
  <g id="axes_1">
   <g id="patch_2">
    <path d="M 135 640.8 
L 972 640.8 
L 972 86.4 
L 135 86.4 
z
" style="fill: #ffffff"/>
   </g>
   <g id="matplotlib.axis_1">
    <g id="xtick_1">
     <g id="line2d_1">
      <path d="M 173.045455 640.8 
L 173.045455 86.4 
" clip-path="url(#pf8c9ef3af0)" style="fill: none; stroke: #b0b0b0; stroke-width: 0.8; stroke-linecap: square"/>
     </g>
     <g id="line2d_2">
      <defs>
       <path id="md531b1d41e" d="M 0 0 
L 0 3.5 
" style="stroke: #000000; stroke-width: 0.8"/>
      </defs>
      <g>
       <use xlink:href="#md531b1d41e" x="173.045455" y="640.8" style="stroke: #000000; stroke-width: 0.8"/>
      </g>
     </g>
     <g id="text_1">
      <!-- −4 -->
      <g transform="translate(165.674361 655.398438)scale(0.1 -0.1)">
       <defs>
        <path id="DejaVuSans-2212" d="M 678 2272 
L 4684 2272 
L 4684 1741 
L 678 1741 
L 678 2272 
z
" transform="scale(0.015625)"/>
        <path id="DejaVuSans-34" d="M 2419 4116 
L 825 1625 
L 2419 1625 
L 2419 4116 
z
M 2253 4666 
L 3047 4666 
L 3047 1625 
L 3713 1625 
L 3713 1100 
L 3047 1100 
L 3047 0 
L 2419 0 
L 2419 1100 
L 313 1100 
L 313 1709 
L 2253 4666 
z
" transform="scale(0.015625)"/>
       </defs>
       <use xlink:href="#DejaVuSans-2212"/>
       <use xlink:href="#DejaVuSans-34" x="83.789062"/>
      </g>
     </g>
    </g>
    <g id="xtick_2">
     <g id="line2d_3">
      <path d="M 268.159091 640.8 
L 268.159091 86.4 
" clip-path="url(#pf8c9ef3af0)" style="fill: none; stroke: #b0b0b0; stroke-width: 0.8; stroke-linecap: square"/>
     </g>
     <g id="line2d_4">
      <g>
       <use xlink:href="#md531b1d41e" x="268.159091" y="640.8" style="stroke: #000000; stroke-width: 0.8"/>
      </g>
     </g>
     <g id="text_2">
      <!-- −3 -->
      <g transform="translate(260.787997 655.398438)scale(0.1 -0.1)">
       <defs>
        <path id="DejaVuSans-33" d="M 2597 2516 
Q 3050 2419 3304 2112 
Q 3559 1806 3559 1356 
Q 3559 666 3084 287 
Q 2609 -91 1734 -91 
Q 1441 -91 1130 -33 
Q 819 25 488 141 
L 488 750 
Q 750 597 1062 519 
Q 1375 441 1716 441 
Q 2309 441 2620 675 
Q 2931 909 2931 1356 
Q 2931 1769 2642 2001 
Q 2353 2234 1838 2234 
L 1294 2234 
L 1294 2753 
L 1863 2753 
Q 2328 2753 2575 2939 
Q 2822 3125 2822 3475 
Q 2822 3834 2567 4026 
Q 2313 4219 1838 4219 
Q 1578 4219 1281 4162 
Q 984 4106 628 3988 
L 628 4550 
Q 988 4650 1302 4700 
Q 1616 4750 1894 4750 
Q 2613 4750 3031 4423 
Q 3450 4097 3450 3541 
Q 3450 3153 3228 2886 
Q 3006 2619 2597 2516 
z
" transform="scale(0.015625)"/>
       </defs>
       <use xlink:href="#DejaVuSans-2212"/>
       <use xlink:href="#DejaVuSans-33" x="83.789062"/>
      </g>
     </g>
    </g>
    <g id="xtick_3">
     <g id="line2d_5">
      <path d="M 363.272727 640.8 
L 363.272727 86.4 
" clip-path="url(#pf8c9ef3af0)" style="fill: none; stroke: #b0b0b0; stroke-width: 0.8; stroke-linecap: square"/>
     </g>
     <g id="line2d_6">
      <g>
       <use xlink:href="#md531b1d41e" x="363.272727" y="640.8" style="stroke: #000000; stroke-width: 0.8"/>
      </g>
     </g>
     <g id="text_3">
      <!-- −2 -->
      <g transform="translate(355.901634 655.398438)scale(0.1 -0.1)">
       <defs>
        <path id="DejaVuSans-32" d="M 1228 531 
L 3431 531 
L 3431 0 
L 469 0 
L 469 531 
Q 828 903 1448 1529 
Q 2069 2156 2228 2338 
Q 2531 2678 2651 2914 
Q 2772 3150 2772 3378 
Q 2772 3750 2511 3984 
Q 2250 4219 1831 4219 
Q 1534 4219 1204 4116 
Q 875 4013 500 3803 
L 500 4441 
Q 881 4594 1212 4672 
Q 1544 4750 1819 4750 
Q 2544 4750 2975 4387 
Q 3406 4025 3406 3419 
Q 3406 3131 3298 2873 
Q 3191 2616 2906 2266 
Q 2828 2175 2409 1742 
Q 1991 1309 1228 531 
z
" transform="scale(0.015625)"/>
       </defs>
       <use xlink:href="#DejaVuSans-2212"/>
       <use xlink:href="#DejaVuSans-32" x="83.789062"/>
      </g>
     </g>
    </g>
    <g id="xtick_4">
     <g id="line2d_7">
      <path d="M 458.386364 640.8 
L 458.386364 86.4 
" clip-path="url(#pf8c9ef3af0)" style="fill: none; stroke: #b0b0b0; stroke-width: 0.8; stroke-linecap: square"/>
     </g>
     <g id="line2d_8">
      <g>
       <use xlink:href="#md531b1d41e" x="458.386364" y="640.8" style="stroke: #000000; stroke-width: 0.8"/>
      </g>
     </g>
     <g id="text_4">
      <!-- −1 -->
      <g transform="translate(451.01527 655.398438)scale(0.1 -0.1)">
       <defs>
        <path id="DejaVuSans-31" d="M 794 531 
L 1825 531 
L 1825 4091 
L 703 3866 
L 703 4441 
L 1819 4666 
L 2450 4666 
L 2450 531 
L 3481 531 
L 3481 0 
L 794 0 
L 794 531 
z
" transform="scale(0.015625)"/>
       </defs>
       <use xlink:href="#DejaVuSans-2212"/>
       <use xlink:href="#DejaVuSans-31" x="83.789062"/>
      </g>
     </g>
    </g>
    <g id="xtick_5">
     <g id="line2d_9">
      <path d="M 553.5 640.8 
L 553.5 86.4 
" clip-path="url(#pf8c9ef3af0)" style="fill: none; stroke: #b0b0b0; stroke-width: 0.8; stroke-linecap: square"/>
     </g>
     <g id="line2d_10">
      <g>
       <use xlink:href="#md531b1d41e" x="553.5" y="640.8" style="stroke: #000000; stroke-width: 0.8"/>
      </g>
     </g>
     <g id="text_5">
      <!-- 0 -->
      <g transform="translate(550.31875 655.398438)scale(0.1 -0.1)">
       <defs>
        <path id="DejaVuSans-30" d="M 2034 4250 
Q 1547 4250 1301 3770 
Q 1056 3291 1056 2328 
Q 1056 1369 1301 889 
Q 1547 409 2034 409 
Q 2525 409 2770 889 
Q 3016 1369 3016 2328 
Q 3016 3291 2770 3770 
Q 2525 4250 2034 4250 
z
M 2034 4750 
Q 2819 4750 3233 4129 
Q 3647 3509 3647 2328 
Q 3647 1150 3233 529 
Q 2819 -91 2034 -91 
Q 1250 -91 836 529 
Q 422 1150 422 2328 
Q 422 3509 836 4129 
Q 1250 4750 2034 4750 
z
" transform="scale(0.015625)"/>
       </defs>
       <use xlink:href="#DejaVuSans-30"/>
      </g>
     </g>
    </g>
    <g id="xtick_6">
     <g id="line2d_11">
      <path d="M 648.613636 640.8 
L 648.613636 86.4 
" clip-path="url(#pf8c9ef3af0)" style="fill: none; stroke: #b0b0b0; stroke-width: 0.8; stroke-linecap: square"/>
     </g>
     <g id="line2d_12">
      <g>
       <use xlink:href="#md531b1d41e" x="648.613636" y="640.8" style="stroke: #000000; stroke-width: 0.8"/>
      </g>
     </g>
     <g id="text_6">
      <!-- 1 -->
      <g transform="translate(645.432386 655.398438)scale(0.1 -0.1)">
       <use xlink:href="#DejaVuSans-31"/>
      </g>
     </g>
    </g>
    <g id="xtick_7">
     <g id="line2d_13">
      <path d="M 743.727273 640.8 
L 743.727273 86.4 
" clip-path="url(#pf8c9ef3af0)" style="fill: none; stroke: #b0b0b0; stroke-width: 0.8; stroke-linecap: square"/>
     </g>
     <g id="line2d_14">
      <g>
       <use xlink:href="#md531b1d41e" x="743.727273" y="640.8" style="stroke: #000000; stroke-width: 0.8"/>
      </g>
     </g>
     <g id="text_7">
      <!-- 2 -->
      <g transform="translate(740.546023 655.398438)scale(0.1 -0.1)">
       <use xlink:href="#DejaVuSans-32"/>
      </g>
     </g>
    </g>
    <g id="xtick_8">
     <g id="line2d_15">
      <path d="M 838.840909 640.8 
L 838.840909 86.4 
" clip-path="url(#pf8c9ef3af0)" style="fill: none; stroke: #b0b0b0; stroke-width: 0.8; stroke-linecap: square"/>
     </g>
     <g id="line2d_16">
      <g>
       <use xlink:href="#md531b1d41e" x="838.840909" y="640.8" style="stroke: #000000; stroke-width: 0.8"/>
      </g>
     </g>
     <g id="text_8">
      <!-- 3 -->
      <g transform="translate(835.659659 655.398438)scale(0.1 -0.1)">
       <use xlink:href="#DejaVuSans-33"/>
      </g>
     </g>
    </g>
    <g id="xtick_9">
     <g id="line2d_17">
      <path d="M 933.954545 640.8 
L 933.954545 86.4 
" clip-path="url(#pf8c9ef3af0)" style="fill: none; stroke: #b0b0b0; stroke-width: 0.8; stroke-linecap: square"/>
     </g>
     <g id="line2d_18">
      <g>
       <use xlink:href="#md531b1d41e" x="933.954545" y="640.8" style="stroke: #000000; stroke-width: 0.8"/>
      </g>
     </g>
     <g id="text_9">
      <!-- 4 -->
      <g transform="translate(930.773295 655.398438)scale(0.1 -0.1)">
       <use xlink:href="#DejaVuSans-34"/>
      </g>
     </g>
    </g>
   </g>
   <g id="matplotlib.axis_2">
    <g id="ytick_1">
     <g id="line2d_19">
      <path d="M 135 615.6 
L 972 615.6 
" clip-path="url(#pf8c9ef3af0)" style="fill: none; stroke: #b0b0b0; stroke-width: 0.8; stroke-linecap: square"/>
     </g>
     <g id="line2d_20">
      <defs>
       <path id="m249ebc6dda" d="M 0 0 
L -3.5 0 
" style="stroke: #000000; stroke-width: 0.8"/>
      </defs>
      <g>
       <use xlink:href="#m249ebc6dda" x="135" y="615.6" style="stroke: #000000; stroke-width: 0.8"/>
      </g>
     </g>
     <g id="text_10">
      <!-- −60 -->
      <g transform="translate(106.895313 619.399219)scale(0.1 -0.1)">
       <defs>
        <path id="DejaVuSans-36" d="M 2113 2584 
Q 1688 2584 1439 2293 
Q 1191 2003 1191 1497 
Q 1191 994 1439 701 
Q 1688 409 2113 409 
Q 2538 409 2786 701 
Q 3034 994 3034 1497 
Q 3034 2003 2786 2293 
Q 2538 2584 2113 2584 
z
M 3366 4563 
L 3366 3988 
Q 3128 4100 2886 4159 
Q 2644 4219 2406 4219 
Q 1781 4219 1451 3797 
Q 1122 3375 1075 2522 
Q 1259 2794 1537 2939 
Q 1816 3084 2150 3084 
Q 2853 3084 3261 2657 
Q 3669 2231 3669 1497 
Q 3669 778 3244 343 
Q 2819 -91 2113 -91 
Q 1303 -91 875 529 
Q 447 1150 447 2328 
Q 447 3434 972 4092 
Q 1497 4750 2381 4750 
Q 2619 4750 2861 4703 
Q 3103 4656 3366 4563 
z
" transform="scale(0.015625)"/>
       </defs>
       <use xlink:href="#DejaVuSans-2212"/>
       <use xlink:href="#DejaVuSans-36" x="83.789062"/>
       <use xlink:href="#DejaVuSans-30" x="147.412109"/>
      </g>
     </g>
    </g>
    <g id="ytick_2">
     <g id="line2d_21">
      <path d="M 135 531.6 
L 972 531.6 
" clip-path="url(#pf8c9ef3af0)" style="fill: none; stroke: #b0b0b0; stroke-width: 0.8; stroke-linecap: square"/>
     </g>
     <g id="line2d_22">
      <g>
       <use xlink:href="#m249ebc6dda" x="135" y="531.6" style="stroke: #000000; stroke-width: 0.8"/>
      </g>
     </g>
     <g id="text_11">
      <!-- −40 -->
      <g transform="translate(106.895313 535.399219)scale(0.1 -0.1)">
       <use xlink:href="#DejaVuSans-2212"/>
       <use xlink:href="#DejaVuSans-34" x="83.789062"/>
       <use xlink:href="#DejaVuSans-30" x="147.412109"/>
      </g>
     </g>
    </g>
    <g id="ytick_3">
     <g id="line2d_23">
      <path d="M 135 447.6 
L 972 447.6 
" clip-path="url(#pf8c9ef3af0)" style="fill: none; stroke: #b0b0b0; stroke-width: 0.8; stroke-linecap: square"/>
     </g>
     <g id="line2d_24">
      <g>
       <use xlink:href="#m249ebc6dda" x="135" y="447.6" style="stroke: #000000; stroke-width: 0.8"/>
      </g>
     </g>
     <g id="text_12">
      <!-- −20 -->
      <g transform="translate(106.895313 451.399219)scale(0.1 -0.1)">
       <use xlink:href="#DejaVuSans-2212"/>
       <use xlink:href="#DejaVuSans-32" x="83.789062"/>
       <use xlink:href="#DejaVuSans-30" x="147.412109"/>
      </g>
     </g>
    </g>
    <g id="ytick_4">
     <g id="line2d_25">
      <path d="M 135 363.6 
L 972 363.6 
" clip-path="url(#pf8c9ef3af0)" style="fill: none; stroke: #b0b0b0; stroke-width: 0.8; stroke-linecap: square"/>
     </g>
     <g id="line2d_26">
      <g>
       <use xlink:href="#m249ebc6dda" x="135" y="363.6" style="stroke: #000000; stroke-width: 0.8"/>
      </g>
     </g>
     <g id="text_13">
      <!-- 0 -->
      <g transform="translate(121.6375 367.399219)scale(0.1 -0.1)">
       <use xlink:href="#DejaVuSans-30"/>
      </g>
     </g>
    </g>
    <g id="ytick_5">
     <g id="line2d_27">
      <path d="M 135 279.6 
L 972 279.6 
" clip-path="url(#pf8c9ef3af0)" style="fill: none; stroke: #b0b0b0; stroke-width: 0.8; stroke-linecap: square"/>
     </g>
     <g id="line2d_28">
      <g>
       <use xlink:href="#m249ebc6dda" x="135" y="279.6" style="stroke: #000000; stroke-width: 0.8"/>
      </g>
     </g>
     <g id="text_14">
      <!-- 20 -->
      <g transform="translate(115.275 283.399219)scale(0.1 -0.1)">
       <use xlink:href="#DejaVuSans-32"/>
       <use xlink:href="#DejaVuSans-30" x="63.623047"/>
      </g>
     </g>
    </g>
    <g id="ytick_6">
     <g id="line2d_29">
      <path d="M 135 195.6 
L 972 195.6 
" clip-path="url(#pf8c9ef3af0)" style="fill: none; stroke: #b0b0b0; stroke-width: 0.8; stroke-linecap: square"/>
     </g>
     <g id="line2d_30">
      <g>
       <use xlink:href="#m249ebc6dda" x="135" y="195.6" style="stroke: #000000; stroke-width: 0.8"/>
      </g>
     </g>
     <g id="text_15">
      <!-- 40 -->
      <g transform="translate(115.275 199.399219)scale(0.1 -0.1)">
       <use xlink:href="#DejaVuSans-34"/>
       <use xlink:href="#DejaVuSans-30" x="63.623047"/>
      </g>
     </g>
    </g>
    <g id="ytick_7">
     <g id="line2d_31">
      <path d="M 135 111.6 
L 972 111.6 
" clip-path="url(#pf8c9ef3af0)" style="fill: none; stroke: #b0b0b0; stroke-width: 0.8; stroke-linecap: square"/>
     </g>
     <g id="line2d_32">
      <g>
       <use xlink:href="#m249ebc6dda" x="135" y="111.6" style="stroke: #000000; stroke-width: 0.8"/>
      </g>
     </g>
     <g id="text_16">
      <!-- 60 -->
      <g transform="translate(115.275 115.399219)scale(0.1 -0.1)">
       <use xlink:href="#DejaVuSans-36"/>
       <use xlink:href="#DejaVuSans-30" x="63.623047"/>
      </g>
     </g>
    </g>
   </g>
   <g id="line2d_33">
    <path d="M 173.045455 111.6 
L 180.731405 127.224622 
L 188.417355 142.204323 
L 196.103306 156.5524 
L 203.789256 170.282151 
L 211.475207 183.406872 
L 219.161157 195.939861 
L 226.847107 207.894416 
L 234.533058 219.283834 
L 242.219008 230.121412 
L 249.904959 240.420448 
L 257.590909 250.194239 
L 265.27686 259.456081 
L 272.96281 268.219274 
L 280.64876 276.497113 
L 288.334711 284.302897 
L 296.020661 291.649922 
L 303.706612 298.551486 
L 311.392562 305.020887 
L 319.078512 311.071421 
L 326.764463 316.716386 
L 334.450413 321.969079 
L 342.136364 326.842798 
L 349.822314 331.350841 
L 357.508264 335.506503 
L 365.194215 339.323083 
L 372.880165 342.813879 
L 380.566116 345.992186 
L 388.252066 348.871304 
L 395.938017 351.464528 
L 403.623967 353.785157 
L 411.309917 355.846488 
L 418.995868 357.661818 
L 426.681818 359.244444 
L 434.367769 360.607665 
L 442.053719 361.764776 
L 449.739669 362.729076 
L 457.42562 363.513862 
L 465.11157 364.132431 
L 472.797521 364.59808 
L 480.483471 364.924107 
L 488.169421 365.12381 
L 495.855372 365.210485 
L 503.541322 365.19743 
L 511.227273 365.097942 
L 518.913223 364.925319 
L 526.599174 364.692858 
L 534.285124 364.413856 
L 541.971074 364.101611 
L 549.657025 363.76942 
L 557.342975 363.43058 
L 565.028926 363.098389 
L 572.714876 362.786144 
L 580.400826 362.507142 
L 588.086777 362.274681 
L 595.772727 362.102058 
L 603.458678 362.00257 
L 611.144628 361.989515 
L 618.830579 362.07619 
L 626.516529 362.275893 
L 634.202479 362.60192 
L 641.88843 363.067569 
L 649.57438 363.686138 
L 657.260331 364.470924 
L 664.946281 365.435224 
L 672.632231 366.592335 
L 680.318182 367.955556 
L 688.004132 369.538182 
L 695.690083 371.353512 
L 703.376033 373.414843 
L 711.061983 375.735472 
L 718.747934 378.328696 
L 726.433884 381.207814 
L 734.119835 384.386121 
L 741.805785 387.876917 
L 749.491736 391.693497 
L 757.177686 395.849159 
L 764.863636 400.357202 
L 772.549587 405.230921 
L 780.235537 410.483614 
L 787.921488 416.128579 
L 795.607438 422.179113 
L 803.293388 428.648514 
L 810.979339 435.550078 
L 818.665289 442.897103 
L 826.35124 450.702887 
L 834.03719 458.980726 
L 841.72314 467.743919 
L 849.409091 477.005761 
L 857.095041 486.779552 
L 864.780992 497.078588 
L 872.466942 507.916166 
L 880.152893 519.305584 
L 887.838843 531.260139 
L 895.524793 543.793128 
L 903.210744 556.917849 
L 910.896694 570.6476 
L 918.582645 584.995677 
L 926.268595 599.975378 
L 933.954545 615.6 
" clip-path="url(#pf8c9ef3af0)" style="fill: none; stroke: #1f77b4; stroke-width: 1.5; stroke-linecap: square"/>
   </g>
   <g id="line2d_34">
    <path d="M 173.045455 125.992094 
L 180.731405 140.711171 
L 188.417355 154.823041 
L 196.103306 168.340224 
L 203.789256 181.275239 
L 211.475207 193.640606 
L 219.161157 205.448845 
L 226.847107 216.712475 
L 234.533058 227.444015 
L 242.219008 237.655986 
L 249.904959 247.360906 
L 257.590909 256.571296 
L 265.27686 265.299675 
L 272.96281 273.558563 
L 280.64876 281.360479 
L 288.334711 288.717943 
L 296.020661 295.643474 
L 303.706612 302.149592 
L 311.392562 308.248817 
L 319.078512 313.953668 
L 326.764463 319.276665 
L 334.450413 324.230328 
L 342.136364 328.827175 
L 349.822314 333.079727 
L 357.508264 337.000503 
L 365.194215 340.602022 
L 372.880165 343.896805 
L 380.566116 346.897371 
L 388.252066 349.61624 
L 395.938017 352.065931 
L 403.623967 354.258963 
L 411.309917 356.207857 
L 418.995868 357.925131 
L 426.681818 359.423306 
L 434.367769 360.714901 
L 442.053719 361.812436 
L 449.739669 362.72843 
L 457.42562 363.475403 
L 465.11157 364.065874 
L 472.797521 364.512363 
L 480.483471 364.82739 
L 488.169421 365.023475 
L 495.855372 365.113136 
L 503.541322 365.108893 
L 511.227273 365.023266 
L 518.913223 364.868775 
L 526.599174 364.657939 
L 534.285124 364.403278 
L 541.971074 364.117311 
L 549.657025 363.812559 
L 557.342975 363.501539 
L 565.028926 363.196773 
L 572.714876 362.91078 
L 580.400826 362.656079 
L 588.086777 362.445189 
L 595.772727 362.290632 
L 603.458678 362.204925 
L 611.144628 362.200589 
L 618.830579 362.290143 
L 626.516529 362.486107 
L 634.202479 362.801001 
L 641.88843 363.247344 
L 649.57438 363.837655 
L 657.260331 364.584454 
L 664.946281 365.500262 
L 672.632231 366.597596 
L 680.318182 367.888978 
L 688.004132 369.386926 
L 695.690083 371.103961 
L 703.376033 373.052601 
L 711.061983 375.245367 
L 718.747934 377.694777 
L 726.433884 380.413353 
L 734.119835 383.413612 
L 741.805785 386.708075 
L 749.491736 390.309261 
L 757.177686 394.22969 
L 764.863636 398.481882 
L 772.549587 403.078356 
L 780.235537 408.031632 
L 787.921488 413.354228 
L 795.607438 419.058666 
L 803.293388 425.157464 
L 810.979339 431.663142 
L 818.665289 438.58822 
L 826.35124 445.945217 
L 834.03719 453.746653 
L 841.72314 462.005048 
L 849.409091 470.73292 
L 857.095041 479.94279 
L 864.780992 489.647177 
L 872.466942 499.858601 
L 880.152893 510.589581 
L 887.838843 521.852637 
L 895.524793 533.660289 
L 903.210744 546.025056 
L 910.896694 558.959458 
L 918.582645 572.476014 
L 926.268595 586.587244 
L 933.954545 601.305667 
" clip-path="url(#pf8c9ef3af0)" style="fill: none; stroke: #ff7f0e; stroke-width: 1.5; stroke-linecap: square"/>
   </g>
   <g id="line2d_35">
    <path d="M 173.045455 138.09342 
L 180.731405 151.750249 
L 188.417355 164.868573 
L 196.103306 177.457998 
L 203.789256 189.528194 
L 211.475207 201.088891 
L 219.161157 212.14988 
L 226.847107 222.721011 
L 234.533058 232.812196 
L 242.219008 242.433409 
L 249.904959 251.594684 
L 257.590909 260.306113 
L 265.27686 268.577854 
L 272.96281 276.420121 
L 280.64876 283.84319 
L 288.334711 290.857401 
L 296.020661 297.47315 
L 303.706612 303.700896 
L 311.392562 309.551159 
L 319.078512 315.03452 
L 326.764463 320.161619 
L 334.450413 324.943159 
L 342.136364 329.389903 
L 349.822314 333.512673 
L 357.508264 337.322353 
L 365.194215 340.82989 
L 372.880165 344.046288 
L 380.566116 346.982613 
L 388.252066 349.649994 
L 395.938017 352.059618 
L 403.623967 354.222734 
L 411.309917 356.150651 
L 418.995868 357.854739 
L 426.681818 359.34643 
L 434.367769 360.637215 
L 442.053719 361.738647 
L 449.739669 362.662338 
L 457.42562 363.419964 
L 465.11157 364.023259 
L 472.797521 364.484017 
L 480.483471 364.814096 
L 488.169421 365.025413 
L 495.855372 365.129945 
L 503.541322 365.139731 
L 511.227273 365.066871 
L 518.913223 364.923523 
L 526.599174 364.72191 
L 534.285124 364.474312 
L 541.971074 364.193073 
L 549.657025 363.890594 
L 557.342975 363.57934 
L 565.028926 363.271836 
L 572.714876 362.980667 
L 580.400826 362.718479 
L 588.086777 362.497979 
L 595.772727 362.331934 
L 603.458678 362.233173 
L 611.144628 362.214585 
L 618.830579 362.28912 
L 626.516529 362.469789 
L 634.202479 362.769662 
L 641.88843 363.201873 
L 649.57438 363.779613 
L 657.260331 364.516138 
L 664.946281 365.42476 
L 672.632231 366.518856 
L 680.318182 367.811862 
L 688.004132 369.317273 
L 695.690083 371.048647 
L 703.376033 373.019604 
L 711.061983 375.243821 
L 718.747934 377.735038 
L 726.433884 380.507056 
L 734.119835 383.573736 
L 741.805785 386.949001 
L 749.491736 390.646832 
L 757.177686 394.681273 
L 764.863636 399.066429 
L 772.549587 403.816465 
L 780.235537 408.945606 
L 787.921488 414.468139 
L 795.607438 420.398411 
L 803.293388 426.75083 
L 810.979339 433.539866 
L 818.665289 440.780047 
L 826.35124 448.485964 
L 834.03719 456.672268 
L 841.72314 465.353671 
L 849.409091 474.544945 
L 857.095041 484.260924 
L 864.780992 494.516502 
L 872.466942 505.326633 
L 880.152893 516.706334 
L 887.838843 528.670681 
L 895.524793 541.23481 
L 903.210744 554.41392 
L 910.896694 568.223269 
L 918.582645 582.678177 
L 926.268595 597.794024 
L 933.954545 613.586251 
" clip-path="url(#pf8c9ef3af0)" style="fill: none; stroke: #2ca02c; stroke-width: 1.5; stroke-linecap: square"/>
   </g>
   <g id="line2d_36">
    <path d="M 173.045455 184.040434 
L 180.731405 192.616244 
L 188.417355 201.097459 
L 196.103306 209.464962 
L 203.789256 217.700923 
L 211.475207 225.78877 
L 219.161157 233.713167 
L 226.847107 241.459984 
L 234.533058 249.016274 
L 242.219008 256.370245 
L 249.904959 263.511238 
L 257.590909 270.429696 
L 265.27686 277.117143 
L 272.96281 283.566153 
L 280.64876 289.770329 
L 288.334711 295.724276 
L 296.020661 301.423572 
L 303.706612 306.864746 
L 311.392562 312.045251 
L 319.078512 316.963436 
L 326.764463 321.618525 
L 334.450413 326.010584 
L 342.136364 330.140504 
L 349.822314 334.009968 
L 357.508264 337.621426 
L 365.194215 340.978074 
L 372.880165 344.083824 
L 380.566116 346.943277 
L 388.252066 349.561702 
L 395.938017 351.945007 
L 403.623967 354.099712 
L 411.309917 356.032926 
L 418.995868 357.752319 
L 426.681818 359.266099 
L 434.367769 360.582983 
L 442.053719 361.71217 
L 449.739669 362.663323 
L 457.42562 363.446532 
L 465.11157 364.072297 
L 472.797521 364.5515 
L 480.483471 364.895375 
L 488.169421 365.115487 
L 495.855372 365.223706 
L 503.541322 365.232176 
L 511.227273 365.153297 
L 518.913223 364.999691 
L 526.599174 364.784184 
L 534.285124 364.519773 
L 541.971074 364.219606 
L 549.657025 363.896951 
L 557.342975 363.565175 
L 565.028926 363.237715 
L 572.714876 362.928054 
L 580.400826 362.649693 
L 588.086777 362.416126 
L 595.772727 362.240817 
L 603.458678 362.13717 
L 611.144628 362.118504 
L 618.830579 362.19803 
L 626.516529 362.388823 
L 634.202479 362.703794 
L 641.88843 363.15567 
L 649.57438 363.756962 
L 657.260331 364.519944 
L 664.946281 365.456622 
L 672.632231 366.578714 
L 680.318182 367.897621 
L 688.004132 369.4244 
L 695.690083 371.16974 
L 703.376033 373.143937 
L 711.061983 375.356866 
L 718.747934 377.817956 
L 726.433884 380.536166 
L 734.119835 383.519954 
L 741.805785 386.777259 
L 749.491736 390.315466 
L 757.177686 394.141389 
L 764.863636 398.261238 
L 772.549587 402.6806 
L 780.235537 407.404405 
L 787.921488 412.436907 
L 795.607438 417.781656 
L 803.293388 423.44147 
L 810.979339 429.418413 
L 818.665289 435.713767 
L 826.35124 442.328005 
L 834.03719 449.260768 
L 841.72314 456.510836 
L 849.409091 464.076105 
L 857.095041 471.95356 
L 864.780992 480.139249 
L 872.466942 488.628258 
L 880.152893 497.414682 
L 887.838843 506.491605 
L 895.524793 515.851068 
L 903.210744 525.484047 
L 910.896694 535.380427 
L 918.582645 545.528974 
L 926.268595 555.917311 
L 933.954545 566.531892 
" clip-path="url(#pf8c9ef3af0)" style="fill: none; stroke: #d62728; stroke-width: 1.5; stroke-linecap: square"/>
   </g>
   <g id="line2d_37">
    <path d="M 173.045455 145.452584 
L 180.731405 159.177622 
L 188.417355 172.240584 
L 196.103306 184.671926 
L 203.789256 196.500174 
L 211.475207 207.752029 
L 219.161157 218.452484 
L 226.847107 228.624922 
L 234.533058 238.291228 
L 242.219008 247.471884 
L 249.904959 256.186068 
L 257.590909 264.451751 
L 265.27686 272.285784 
L 272.96281 279.703993 
L 280.64876 286.721259 
L 288.334711 293.351604 
L 296.020661 299.608271 
L 303.706612 305.503801 
L 311.392562 311.050105 
L 319.078512 316.258539 
L 326.764463 321.139967 
L 334.450413 325.704831 
L 342.136364 329.963211 
L 349.822314 333.924886 
L 357.508264 337.599387 
L 365.194215 340.996054 
L 372.880165 344.124084 
L 380.566116 346.992582 
L 388.252066 349.610602 
L 395.938017 351.987188 
L 403.623967 354.131418 
L 411.309917 356.052435 
L 418.995868 357.759481 
L 426.681818 359.261927 
L 434.367769 360.569302 
L 442.053719 361.691312 
L 449.739669 362.637867 
L 457.42562 363.419094 
L 465.11157 364.045357 
L 472.797521 364.527264 
L 480.483471 364.875679 
L 488.169421 365.101729 
L 495.855372 365.216808 
L 503.541322 365.232572 
L 511.227273 365.160943 
L 518.913223 365.014101 
L 526.599174 364.804475 
L 534.285124 364.54473 
L 541.971074 364.247757 
L 549.657025 363.926653 
L 557.342975 363.594701 
L 565.028926 363.265346 
L 572.714876 362.952173 
L 580.400826 362.66887 
L 588.086777 362.429205 
L 595.772727 362.246986 
L 603.458678 362.136021 
L 611.144628 362.110085 
L 618.830579 362.182866 
L 626.516529 362.367929 
L 634.202479 362.678656 
L 641.88843 363.128202 
L 649.57438 363.729433 
L 657.260331 364.49487 
L 664.946281 365.436631 
L 672.632231 366.56636 
L 680.318182 367.895163 
L 688.004132 369.433538 
L 695.690083 371.191303 
L 703.376033 373.177515 
L 711.061983 375.400396 
L 718.747934 377.867247 
L 726.433884 380.584367 
L 734.119835 383.55696 
L 741.805785 386.789049 
L 749.491736 390.283378 
L 757.177686 394.041318 
L 764.863636 398.062766 
L 772.549587 402.346043 
L 780.235537 406.887786 
L 787.921488 411.682843 
L 795.607438 416.724158 
L 803.293388 422.00266 
L 810.979339 427.507141 
L 818.665289 433.22414 
L 826.35124 439.137817 
L 834.03719 445.229827 
L 841.72314 451.479192 
L 849.409091 457.862168 
L 857.095041 464.352108 
L 864.780992 470.919329 
L 872.466942 477.530964 
L 880.152893 484.150823 
L 887.838843 490.739246 
L 895.524793 497.252951 
L 903.210744 503.64488 
L 910.896694 509.864048 
L 918.582645 515.85538 
L 926.268595 521.55955 
L 933.954545 526.912819 
" clip-path="url(#pf8c9ef3af0)" style="fill: none; stroke: #9467bd; stroke-width: 1.5; stroke-linecap: square"/>
   </g>
   <g id="patch_3">
    <path d="M 135 640.8 
L 135 86.4 
" style="fill: none; stroke: #000000; stroke-width: 0.8; stroke-linejoin: miter; stroke-linecap: square"/>
   </g>
   <g id="patch_4">
    <path d="M 972 640.8 
L 972 86.4 
" style="fill: none; stroke: #000000; stroke-width: 0.8; stroke-linejoin: miter; stroke-linecap: square"/>
   </g>
   <g id="patch_5">
    <path d="M 135 640.8 
L 972 640.8 
" style="fill: none; stroke: #000000; stroke-width: 0.8; stroke-linejoin: miter; stroke-linecap: square"/>
   </g>
   <g id="patch_6">
    <path d="M 135 86.4 
L 972 86.4 
" style="fill: none; stroke: #000000; stroke-width: 0.8; stroke-linejoin: miter; stroke-linecap: square"/>
   </g>
   <g id="legend_1">
    <g id="patch_7">
     <path d="M 995.465625 401.795312 
L 1048.7 401.795312 
Q 1050.7 401.795312 1050.7 399.795312 
L 1050.7 327.404687 
Q 1050.7 325.404687 1048.7 325.404687 
L 995.465625 325.404687 
Q 993.465625 325.404687 993.465625 327.404687 
L 993.465625 399.795312 
Q 993.465625 401.795312 995.465625 401.795312 
z
" style="fill: #ffffff; opacity: 0.8; stroke: #cccccc; stroke-linejoin: miter"/>
    </g>
    <g id="line2d_38">
     <path d="M 997.465625 333.503125 
L 1007.465625 333.503125 
L 1017.465625 333.503125 
" style="fill: none; stroke: #1f77b4; stroke-width: 1.5; stroke-linecap: square"/>
    </g>
    <g id="text_17">
     <!-- True -->
     <g transform="translate(1025.465625 337.003125)scale(0.1 -0.1)">
      <defs>
       <path id="DejaVuSans-54" d="M -19 4666 
L 3928 4666 
L 3928 4134 
L 2272 4134 
L 2272 0 
L 1638 0 
L 1638 4134 
L -19 4134 
L -19 4666 
z
" transform="scale(0.015625)"/>
       <path id="DejaVuSans-72" d="M 2631 2963 
Q 2534 3019 2420 3045 
Q 2306 3072 2169 3072 
Q 1681 3072 1420 2755 
Q 1159 2438 1159 1844 
L 1159 0 
L 581 0 
L 581 3500 
L 1159 3500 
L 1159 2956 
Q 1341 3275 1631 3429 
Q 1922 3584 2338 3584 
Q 2397 3584 2469 3576 
Q 2541 3569 2628 3553 
L 2631 2963 
z
" transform="scale(0.015625)"/>
       <path id="DejaVuSans-75" d="M 544 1381 
L 544 3500 
L 1119 3500 
L 1119 1403 
Q 1119 906 1312 657 
Q 1506 409 1894 409 
Q 2359 409 2629 706 
Q 2900 1003 2900 1516 
L 2900 3500 
L 3475 3500 
L 3475 0 
L 2900 0 
L 2900 538 
Q 2691 219 2414 64 
Q 2138 -91 1772 -91 
Q 1169 -91 856 284 
Q 544 659 544 1381 
z
M 1991 3584 
L 1991 3584 
z
" transform="scale(0.015625)"/>
       <path id="DejaVuSans-65" d="M 3597 1894 
L 3597 1613 
L 953 1613 
Q 991 1019 1311 708 
Q 1631 397 2203 397 
Q 2534 397 2845 478 
Q 3156 559 3463 722 
L 3463 178 
Q 3153 47 2828 -22 
Q 2503 -91 2169 -91 
Q 1331 -91 842 396 
Q 353 884 353 1716 
Q 353 2575 817 3079 
Q 1281 3584 2069 3584 
Q 2775 3584 3186 3129 
Q 3597 2675 3597 1894 
z
M 3022 2063 
Q 3016 2534 2758 2815 
Q 2500 3097 2075 3097 
Q 1594 3097 1305 2825 
Q 1016 2553 972 2059 
L 3022 2063 
z
" transform="scale(0.015625)"/>
      </defs>
      <use xlink:href="#DejaVuSans-54"/>
      <use xlink:href="#DejaVuSans-72" x="46.333984"/>
      <use xlink:href="#DejaVuSans-75" x="87.447266"/>
      <use xlink:href="#DejaVuSans-65" x="150.826172"/>
     </g>
    </g>
    <g id="line2d_39">
     <path d="M 997.465625 348.18125 
L 1007.465625 348.18125 
L 1017.465625 348.18125 
" style="fill: none; stroke: #ff7f0e; stroke-width: 1.5; stroke-linecap: square"/>
    </g>
    <g id="text_18">
     <!-- 3 -->
     <g transform="translate(1025.465625 351.68125)scale(0.1 -0.1)">
      <use xlink:href="#DejaVuSans-33"/>
     </g>
    </g>
    <g id="line2d_40">
     <path d="M 997.465625 362.859375 
L 1007.465625 362.859375 
L 1017.465625 362.859375 
" style="fill: none; stroke: #2ca02c; stroke-width: 1.5; stroke-linecap: square"/>
    </g>
    <g id="text_19">
     <!-- 4 -->
     <g transform="translate(1025.465625 366.359375)scale(0.1 -0.1)">
      <use xlink:href="#DejaVuSans-34"/>
     </g>
    </g>
    <g id="line2d_41">
     <path d="M 997.465625 377.5375 
L 1007.465625 377.5375 
L 1017.465625 377.5375 
" style="fill: none; stroke: #d62728; stroke-width: 1.5; stroke-linecap: square"/>
    </g>
    <g id="text_20">
     <!-- 5 -->
     <g transform="translate(1025.465625 381.0375)scale(0.1 -0.1)">
      <defs>
       <path id="DejaVuSans-35" d="M 691 4666 
L 3169 4666 
L 3169 4134 
L 1269 4134 
L 1269 2991 
Q 1406 3038 1543 3061 
Q 1681 3084 1819 3084 
Q 2600 3084 3056 2656 
Q 3513 2228 3513 1497 
Q 3513 744 3044 326 
Q 2575 -91 1722 -91 
Q 1428 -91 1123 -41 
Q 819 9 494 109 
L 494 744 
Q 775 591 1075 516 
Q 1375 441 1709 441 
Q 2250 441 2565 725 
Q 2881 1009 2881 1497 
Q 2881 1984 2565 2268 
Q 2250 2553 1709 2553 
Q 1456 2553 1204 2497 
Q 953 2441 691 2322 
L 691 4666 
z
" transform="scale(0.015625)"/>
      </defs>
      <use xlink:href="#DejaVuSans-35"/>
     </g>
    </g>
    <g id="line2d_42">
     <path d="M 997.465625 392.215625 
L 1007.465625 392.215625 
L 1017.465625 392.215625 
" style="fill: none; stroke: #9467bd; stroke-width: 1.5; stroke-linecap: square"/>
    </g>
    <g id="text_21">
     <!-- 6 -->
     <g transform="translate(1025.465625 395.715625)scale(0.1 -0.1)">
      <use xlink:href="#DejaVuSans-36"/>
     </g>
    </g>
   </g>
  </g>
 </g>
 <defs>
  <clipPath id="pf8c9ef3af0">
   <rect x="135" y="86.4" width="837" height="554.4"/>
  </clipPath>
 </defs>
</svg>
