<?xml version="1.0" encoding="utf-8" standalone="no"?>
<!DOCTYPE svg PUBLIC "-//W3C//DTD SVG 1.1//EN"
  "http://www.w3.org/Graphics/SVG/1.1/DTD/svg11.dtd">
<svg xmlns:xlink="http://www.w3.org/1999/xlink" width="1080pt" height="360pt" viewBox="0 0 1080 360" xmlns="http://www.w3.org/2000/svg" version="1.1">
 <metadata>
  <rdf:RDF xmlns:dc="http://purl.org/dc/elements/1.1/" xmlns:cc="http://creativecommons.org/ns#" xmlns:rdf="http://www.w3.org/1999/02/22-rdf-syntax-ns#">
   <cc:Work>
    <dc:type rdf:resource="http://purl.org/dc/dcmitype/StillImage"/>
    <dc:date>2022-10-24T14:52:29.474666</dc:date>
    <dc:format>image/svg+xml</dc:format>
    <dc:creator>
     <cc:Agent>
      <dc:title>Matplotlib v3.5.1, https://matplotlib.org/</dc:title>
     </cc:Agent>
    </dc:creator>
   </cc:Work>
  </rdf:RDF>
 </metadata>
 <defs>
  <style type="text/css">*{stroke-linejoin: round; stroke-linecap: butt}</style>
 </defs>
 <g id="figure_1">
  <g id="patch_1">
   <path d="M 0 360 
L 1080 360 
L 1080 0 
L 0 0 
z
" style="fill: #ffffff"/>
  </g>
  <g id="axes_1">
   <g id="patch_2">
    <path d="M 135 320.4 
L 972 320.4 
L 972 43.2 
L 135 43.2 
z
" style="fill: #ffffff"/>
   </g>
   <g id="matplotlib.axis_1">
    <g id="xtick_1">
     <g id="line2d_1">
      <path d="M 249.136364 320.4 
L 249.136364 43.2 
" clip-path="url(#p38f6e4d18a)" style="fill: none; stroke: #b0b0b0; stroke-width: 0.8; stroke-linecap: square"/>
     </g>
     <g id="line2d_2">
      <defs>
       <path id="m5f899a056b" d="M 0 0 
L 0 3.5 
" style="stroke: #000000; stroke-width: 0.8"/>
      </defs>
      <g>
       <use xlink:href="#m5f899a056b" x="249.136364" y="320.4" style="stroke: #000000; stroke-width: 0.8"/>
      </g>
     </g>
     <g id="text_1">
      <!-- −4 -->
      <g transform="translate(241.76527 334.998438)scale(0.1 -0.1)">
       <defs>
        <path id="DejaVuSans-2212" d="M 678 2272 
L 4684 2272 
L 4684 1741 
L 678 1741 
L 678 2272 
z
" transform="scale(0.015625)"/>
        <path id="DejaVuSans-34" d="M 2419 4116 
L 825 1625 
L 2419 1625 
L 2419 4116 
z
M 2253 4666 
L 3047 4666 
L 3047 1625 
L 3713 1625 
L 3713 1100 
L 3047 1100 
L 3047 0 
L 2419 0 
L 2419 1100 
L 313 1100 
L 313 1709 
L 2253 4666 
z
" transform="scale(0.015625)"/>
       </defs>
       <use xlink:href="#DejaVuSans-2212"/>
       <use xlink:href="#DejaVuSans-34" x="83.789062"/>
      </g>
     </g>
    </g>
    <g id="xtick_2">
     <g id="line2d_3">
      <path d="M 401.318182 320.4 
L 401.318182 43.2 
" clip-path="url(#p38f6e4d18a)" style="fill: none; stroke: #b0b0b0; stroke-width: 0.8; stroke-linecap: square"/>
     </g>
     <g id="line2d_4">
      <g>
       <use xlink:href="#m5f899a056b" x="401.318182" y="320.4" style="stroke: #000000; stroke-width: 0.8"/>
      </g>
     </g>
     <g id="text_2">
      <!-- −2 -->
      <g transform="translate(393.947088 334.998438)scale(0.1 -0.1)">
       <defs>
        <path id="DejaVuSans-32" d="M 1228 531 
L 3431 531 
L 3431 0 
L 469 0 
L 469 531 
Q 828 903 1448 1529 
Q 2069 2156 2228 2338 
Q 2531 2678 2651 2914 
Q 2772 3150 2772 3378 
Q 2772 3750 2511 3984 
Q 2250 4219 1831 4219 
Q 1534 4219 1204 4116 
Q 875 4013 500 3803 
L 500 4441 
Q 881 4594 1212 4672 
Q 1544 4750 1819 4750 
Q 2544 4750 2975 4387 
Q 3406 4025 3406 3419 
Q 3406 3131 3298 2873 
Q 3191 2616 2906 2266 
Q 2828 2175 2409 1742 
Q 1991 1309 1228 531 
z
" transform="scale(0.015625)"/>
       </defs>
       <use xlink:href="#DejaVuSans-2212"/>
       <use xlink:href="#DejaVuSans-32" x="83.789062"/>
      </g>
     </g>
    </g>
    <g id="xtick_3">
     <g id="line2d_5">
      <path d="M 553.5 320.4 
L 553.5 43.2 
" clip-path="url(#p38f6e4d18a)" style="fill: none; stroke: #b0b0b0; stroke-width: 0.8; stroke-linecap: square"/>
     </g>
     <g id="line2d_6">
      <g>
       <use xlink:href="#m5f899a056b" x="553.5" y="320.4" style="stroke: #000000; stroke-width: 0.8"/>
      </g>
     </g>
     <g id="text_3">
      <!-- 0 -->
      <g transform="translate(550.31875 334.998438)scale(0.1 -0.1)">
       <defs>
        <path id="DejaVuSans-30" d="M 2034 4250 
Q 1547 4250 1301 3770 
Q 1056 3291 1056 2328 
Q 1056 1369 1301 889 
Q 1547 409 2034 409 
Q 2525 409 2770 889 
Q 3016 1369 3016 2328 
Q 3016 3291 2770 3770 
Q 2525 4250 2034 4250 
z
M 2034 4750 
Q 2819 4750 3233 4129 
Q 3647 3509 3647 2328 
Q 3647 1150 3233 529 
Q 2819 -91 2034 -91 
Q 1250 -91 836 529 
Q 422 1150 422 2328 
Q 422 3509 836 4129 
Q 1250 4750 2034 4750 
z
" transform="scale(0.015625)"/>
       </defs>
       <use xlink:href="#DejaVuSans-30"/>
      </g>
     </g>
    </g>
    <g id="xtick_4">
     <g id="line2d_7">
      <path d="M 705.681818 320.4 
L 705.681818 43.2 
" clip-path="url(#p38f6e4d18a)" style="fill: none; stroke: #b0b0b0; stroke-width: 0.8; stroke-linecap: square"/>
     </g>
     <g id="line2d_8">
      <g>
       <use xlink:href="#m5f899a056b" x="705.681818" y="320.4" style="stroke: #000000; stroke-width: 0.8"/>
      </g>
     </g>
     <g id="text_4">
      <!-- 2 -->
      <g transform="translate(702.500568 334.998438)scale(0.1 -0.1)">
       <use xlink:href="#DejaVuSans-32"/>
      </g>
     </g>
    </g>
    <g id="xtick_5">
     <g id="line2d_9">
      <path d="M 857.863636 320.4 
L 857.863636 43.2 
" clip-path="url(#p38f6e4d18a)" style="fill: none; stroke: #b0b0b0; stroke-width: 0.8; stroke-linecap: square"/>
     </g>
     <g id="line2d_10">
      <g>
       <use xlink:href="#m5f899a056b" x="857.863636" y="320.4" style="stroke: #000000; stroke-width: 0.8"/>
      </g>
     </g>
     <g id="text_5">
      <!-- 4 -->
      <g transform="translate(854.682386 334.998438)scale(0.1 -0.1)">
       <use xlink:href="#DejaVuSans-34"/>
      </g>
     </g>
    </g>
   </g>
   <g id="matplotlib.axis_2">
    <g id="ytick_1">
     <g id="line2d_11">
      <path d="M 135 288.609046 
L 972 288.609046 
" clip-path="url(#p38f6e4d18a)" style="fill: none; stroke: #b0b0b0; stroke-width: 0.8; stroke-linecap: square"/>
     </g>
     <g id="line2d_12">
      <defs>
       <path id="m0f9420ae48" d="M 0 0 
L -3.5 0 
" style="stroke: #000000; stroke-width: 0.8"/>
      </defs>
      <g>
       <use xlink:href="#m0f9420ae48" x="135" y="288.609046" style="stroke: #000000; stroke-width: 0.8"/>
      </g>
     </g>
     <g id="text_6">
      <!-- −4 -->
      <g transform="translate(113.257812 292.408265)scale(0.1 -0.1)">
       <use xlink:href="#DejaVuSans-2212"/>
       <use xlink:href="#DejaVuSans-34" x="83.789062"/>
      </g>
     </g>
    </g>
    <g id="ytick_2">
     <g id="line2d_13">
      <path d="M 135 250.227137 
L 972 250.227137 
" clip-path="url(#p38f6e4d18a)" style="fill: none; stroke: #b0b0b0; stroke-width: 0.8; stroke-linecap: square"/>
     </g>
     <g id="line2d_14">
      <g>
       <use xlink:href="#m0f9420ae48" x="135" y="250.227137" style="stroke: #000000; stroke-width: 0.8"/>
      </g>
     </g>
     <g id="text_7">
      <!-- −2 -->
      <g transform="translate(113.257812 254.026356)scale(0.1 -0.1)">
       <use xlink:href="#DejaVuSans-2212"/>
       <use xlink:href="#DejaVuSans-32" x="83.789062"/>
      </g>
     </g>
    </g>
    <g id="ytick_3">
     <g id="line2d_15">
      <path d="M 135 211.845229 
L 972 211.845229 
" clip-path="url(#p38f6e4d18a)" style="fill: none; stroke: #b0b0b0; stroke-width: 0.8; stroke-linecap: square"/>
     </g>
     <g id="line2d_16">
      <g>
       <use xlink:href="#m0f9420ae48" x="135" y="211.845229" style="stroke: #000000; stroke-width: 0.8"/>
      </g>
     </g>
     <g id="text_8">
      <!-- 0 -->
      <g transform="translate(121.6375 215.644448)scale(0.1 -0.1)">
       <use xlink:href="#DejaVuSans-30"/>
      </g>
     </g>
    </g>
    <g id="ytick_4">
     <g id="line2d_17">
      <path d="M 135 173.463321 
L 972 173.463321 
" clip-path="url(#p38f6e4d18a)" style="fill: none; stroke: #b0b0b0; stroke-width: 0.8; stroke-linecap: square"/>
     </g>
     <g id="line2d_18">
      <g>
       <use xlink:href="#m0f9420ae48" x="135" y="173.463321" style="stroke: #000000; stroke-width: 0.8"/>
      </g>
     </g>
     <g id="text_9">
      <!-- 2 -->
      <g transform="translate(121.6375 177.26254)scale(0.1 -0.1)">
       <use xlink:href="#DejaVuSans-32"/>
      </g>
     </g>
    </g>
    <g id="ytick_5">
     <g id="line2d_19">
      <path d="M 135 135.081412 
L 972 135.081412 
" clip-path="url(#p38f6e4d18a)" style="fill: none; stroke: #b0b0b0; stroke-width: 0.8; stroke-linecap: square"/>
     </g>
     <g id="line2d_20">
      <g>
       <use xlink:href="#m0f9420ae48" x="135" y="135.081412" style="stroke: #000000; stroke-width: 0.8"/>
      </g>
     </g>
     <g id="text_10">
      <!-- 4 -->
      <g transform="translate(121.6375 138.880631)scale(0.1 -0.1)">
       <use xlink:href="#DejaVuSans-34"/>
      </g>
     </g>
    </g>
    <g id="ytick_6">
     <g id="line2d_21">
      <path d="M 135 96.699504 
L 972 96.699504 
" clip-path="url(#p38f6e4d18a)" style="fill: none; stroke: #b0b0b0; stroke-width: 0.8; stroke-linecap: square"/>
     </g>
     <g id="line2d_22">
      <g>
       <use xlink:href="#m0f9420ae48" x="135" y="96.699504" style="stroke: #000000; stroke-width: 0.8"/>
      </g>
     </g>
     <g id="text_11">
      <!-- 6 -->
      <g transform="translate(121.6375 100.498723)scale(0.1 -0.1)">
       <defs>
        <path id="DejaVuSans-36" d="M 2113 2584 
Q 1688 2584 1439 2293 
Q 1191 2003 1191 1497 
Q 1191 994 1439 701 
Q 1688 409 2113 409 
Q 2538 409 2786 701 
Q 3034 994 3034 1497 
Q 3034 2003 2786 2293 
Q 2538 2584 2113 2584 
z
M 3366 4563 
L 3366 3988 
Q 3128 4100 2886 4159 
Q 2644 4219 2406 4219 
Q 1781 4219 1451 3797 
Q 1122 3375 1075 2522 
Q 1259 2794 1537 2939 
Q 1816 3084 2150 3084 
Q 2853 3084 3261 2657 
Q 3669 2231 3669 1497 
Q 3669 778 3244 343 
Q 2819 -91 2113 -91 
Q 1303 -91 875 529 
Q 447 1150 447 2328 
Q 447 3434 972 4092 
Q 1497 4750 2381 4750 
Q 2619 4750 2861 4703 
Q 3103 4656 3366 4563 
z
" transform="scale(0.015625)"/>
       </defs>
       <use xlink:href="#DejaVuSans-36"/>
      </g>
     </g>
    </g>
    <g id="ytick_7">
     <g id="line2d_23">
      <path d="M 135 58.317596 
L 972 58.317596 
" clip-path="url(#p38f6e4d18a)" style="fill: none; stroke: #b0b0b0; stroke-width: 0.8; stroke-linecap: square"/>
     </g>
     <g id="line2d_24">
      <g>
       <use xlink:href="#m0f9420ae48" x="135" y="58.317596" style="stroke: #000000; stroke-width: 0.8"/>
      </g>
     </g>
     <g id="text_12">
      <!-- 8 -->
      <g transform="translate(121.6375 62.116815)scale(0.1 -0.1)">
       <defs>
        <path id="DejaVuSans-38" d="M 2034 2216 
Q 1584 2216 1326 1975 
Q 1069 1734 1069 1313 
Q 1069 891 1326 650 
Q 1584 409 2034 409 
Q 2484 409 2743 651 
Q 3003 894 3003 1313 
Q 3003 1734 2745 1975 
Q 2488 2216 2034 2216 
z
M 1403 2484 
Q 997 2584 770 2862 
Q 544 3141 544 3541 
Q 544 4100 942 4425 
Q 1341 4750 2034 4750 
Q 2731 4750 3128 4425 
Q 3525 4100 3525 3541 
Q 3525 3141 3298 2862 
Q 3072 2584 2669 2484 
Q 3125 2378 3379 2068 
Q 3634 1759 3634 1313 
Q 3634 634 3220 271 
Q 2806 -91 2034 -91 
Q 1263 -91 848 271 
Q 434 634 434 1313 
Q 434 1759 690 2068 
Q 947 2378 1403 2484 
z
M 1172 3481 
Q 1172 3119 1398 2916 
Q 1625 2713 2034 2713 
Q 2441 2713 2670 2916 
Q 2900 3119 2900 3481 
Q 2900 3844 2670 4047 
Q 2441 4250 2034 4250 
Q 1625 4250 1398 4047 
Q 1172 3844 1172 3481 
z
" transform="scale(0.015625)"/>
       </defs>
       <use xlink:href="#DejaVuSans-38"/>
      </g>
     </g>
    </g>
   </g>
   <g id="line2d_25">
    <path d="M 173.045455 115.890458 
L 180.731405 117.828939 
L 188.417355 119.767419 
L 196.103306 121.705899 
L 203.789256 123.644379 
L 211.475207 125.582859 
L 219.161157 127.52134 
L 226.847107 129.45982 
L 234.533058 131.3983 
L 242.219008 133.33678 
L 249.904959 135.27526 
L 257.590909 137.213741 
L 265.27686 139.152221 
L 272.96281 141.090701 
L 280.64876 143.029181 
L 288.334711 144.967662 
L 296.020661 146.906142 
L 303.706612 148.844622 
L 311.392562 150.783102 
L 319.078512 152.721582 
L 326.764463 154.660063 
L 334.450413 156.598543 
L 342.136364 158.537023 
L 349.822314 160.475503 
L 357.508264 162.413984 
L 365.194215 164.352464 
L 372.880165 166.290944 
L 380.566116 168.229424 
L 388.252066 170.167904 
L 395.938017 172.106385 
L 403.623967 174.044865 
L 411.309917 175.983345 
L 418.995868 177.921825 
L 426.681818 179.860306 
L 434.367769 181.798786 
L 442.053719 183.737266 
L 449.739669 185.675746 
L 457.42562 187.614226 
L 465.11157 189.552707 
L 472.797521 191.491187 
L 480.483471 193.429667 
L 488.169421 195.368147 
L 495.855372 197.306628 
L 503.541322 199.245108 
L 511.227273 201.183588 
L 518.913223 203.122068 
L 526.599174 205.060548 
L 534.285124 206.999029 
L 541.971074 208.937509 
L 549.657025 210.875989 
L 557.342975 212.814469 
L 565.028926 214.752949 
L 572.714876 216.69143 
L 580.400826 218.62991 
L 588.086777 220.56839 
L 595.772727 222.50687 
L 603.458678 224.445351 
L 611.144628 226.383831 
L 618.830579 228.322311 
L 626.516529 230.260791 
L 634.202479 232.199271 
L 641.88843 234.137752 
L 649.57438 236.076232 
L 657.260331 238.014712 
L 664.946281 239.953192 
L 672.632231 241.891673 
L 680.318182 243.830153 
L 688.004132 245.768633 
L 695.690083 247.707113 
L 703.376033 249.645593 
L 711.061983 251.584074 
L 718.747934 253.522554 
L 726.433884 255.461034 
L 734.119835 257.399514 
L 741.805785 259.337995 
L 749.491736 261.276475 
L 757.177686 263.214955 
L 764.863636 265.153435 
L 772.549587 267.091915 
L 780.235537 269.030396 
L 787.921488 270.968876 
L 795.607438 272.907356 
L 803.293388 274.845836 
L 810.979339 276.784316 
L 818.665289 278.722797 
L 826.35124 280.661277 
L 834.03719 282.599757 
L 841.72314 284.538237 
L 849.409091 286.476718 
L 857.095041 288.415198 
L 864.780992 290.353678 
L 872.466942 292.292158 
L 880.152893 294.230638 
L 887.838843 296.169119 
L 895.524793 298.107599 
L 903.210744 300.046079 
L 910.896694 301.984559 
L 918.582645 303.92304 
L 926.268595 305.86152 
L 933.954545 307.8 
" clip-path="url(#p38f6e4d18a)" style="fill: none; stroke: #1f77b4; stroke-width: 1.5; stroke-linecap: square"/>
   </g>
   <g id="line2d_26">
    <path d="M 173.045455 121.090302 
L 180.731405 122.917024 
L 188.417355 124.743746 
L 196.103306 126.570468 
L 203.789256 128.39719 
L 211.475207 130.223912 
L 219.161157 132.050634 
L 226.847107 133.877356 
L 234.533058 135.704078 
L 242.219008 137.5308 
L 249.904959 139.357522 
L 257.590909 141.184244 
L 265.27686 143.010966 
L 272.96281 144.837688 
L 280.64876 146.66441 
L 288.334711 148.491132 
L 296.020661 150.317854 
L 303.706612 152.144576 
L 311.392562 153.971298 
L 319.078512 155.79802 
L 326.764463 157.624742 
L 334.450413 159.451464 
L 342.136364 161.278187 
L 349.822314 163.104909 
L 357.508264 164.931631 
L 365.194215 166.758353 
L 372.880165 168.585075 
L 380.566116 170.411797 
L 388.252066 172.238519 
L 395.938017 174.065241 
L 403.623967 175.891963 
L 411.309917 177.718685 
L 418.995868 179.545407 
L 426.681818 181.372129 
L 434.367769 183.198851 
L 442.053719 185.025573 
L 449.739669 186.852295 
L 457.42562 188.679017 
L 465.11157 190.505739 
L 472.797521 192.332461 
L 480.483471 194.159183 
L 488.169421 195.985905 
L 495.855372 197.812627 
L 503.541322 199.639349 
L 511.227273 201.466071 
L 518.913223 203.292793 
L 526.599174 205.119515 
L 534.285124 206.946238 
L 541.971074 208.77296 
L 549.657025 210.599682 
L 557.342975 212.426404 
L 565.028926 214.253126 
L 572.714876 216.079848 
L 580.400826 217.90657 
L 588.086777 219.733292 
L 595.772727 221.560014 
L 603.458678 223.386736 
L 611.144628 225.213458 
L 618.830579 227.04018 
L 626.516529 228.866902 
L 634.202479 230.693624 
L 641.88843 232.520346 
L 649.57438 234.347068 
L 657.260331 236.17379 
L 664.946281 238.000512 
L 672.632231 239.827234 
L 680.318182 241.653956 
L 688.004132 243.480678 
L 695.690083 245.3074 
L 703.376033 247.134122 
L 711.061983 248.960844 
L 718.747934 250.787566 
L 726.433884 252.614289 
L 734.119835 254.441011 
L 741.805785 256.267733 
L 749.491736 258.094455 
L 757.177686 259.921177 
L 764.863636 261.747899 
L 772.549587 263.574621 
L 780.235537 265.401343 
L 787.921488 267.228065 
L 795.607438 269.054787 
L 803.293388 270.881509 
L 810.979339 272.708231 
L 818.665289 274.534953 
L 826.35124 276.361675 
L 834.03719 278.188397 
L 841.72314 280.015119 
L 849.409091 281.841841 
L 857.095041 283.668563 
L 864.780992 285.495285 
L 872.466942 287.322007 
L 880.152893 289.148729 
L 887.838843 290.975451 
L 895.524793 292.802173 
L 903.210744 294.628895 
L 910.896694 296.455617 
L 918.582645 298.28234 
L 926.268595 300.109062 
L 933.954545 301.935784 
" clip-path="url(#p38f6e4d18a)" style="fill: none; stroke: #ff7f0e; stroke-width: 1.5; stroke-linecap: square"/>
   </g>
   <g id="line2d_27">
    <path d="M 173.045455 110.118957 
L 180.731405 112.399646 
L 188.417355 114.671155 
L 196.103306 116.933483 
L 203.789256 119.18663 
L 211.475207 121.430596 
L 219.161157 123.66538 
L 226.847107 125.890984 
L 234.533058 128.107407 
L 242.219008 130.314648 
L 249.904959 132.512709 
L 257.590909 134.701589 
L 265.27686 136.881287 
L 272.96281 139.051805 
L 280.64876 141.213142 
L 288.334711 143.365297 
L 296.020661 145.508272 
L 303.706612 147.642066 
L 311.392562 149.766678 
L 319.078512 151.88211 
L 326.764463 153.98836 
L 334.450413 156.08543 
L 342.136364 158.173318 
L 349.822314 160.252026 
L 357.508264 162.321552 
L 365.194215 164.381898 
L 372.880165 166.433062 
L 380.566116 168.475046 
L 388.252066 170.507848 
L 395.938017 172.53147 
L 403.623967 174.54591 
L 411.309917 176.551169 
L 418.995868 178.547248 
L 426.681818 180.534145 
L 434.367769 182.511861 
L 442.053719 184.480397 
L 449.739669 186.439751 
L 457.42562 188.389924 
L 465.11157 190.330917 
L 472.797521 192.262728 
L 480.483471 194.185358 
L 488.169421 196.098808 
L 495.855372 198.003076 
L 503.541322 199.898163 
L 511.227273 201.784069 
L 518.913223 203.660794 
L 526.599174 205.528339 
L 534.285124 207.386702 
L 541.971074 209.235884 
L 549.657025 211.075885 
L 557.342975 212.906705 
L 565.028926 214.728344 
L 572.714876 216.540802 
L 580.400826 218.344079 
L 588.086777 220.138176 
L 595.772727 221.923091 
L 603.458678 223.698825 
L 611.144628 225.465378 
L 618.830579 227.22275 
L 626.516529 228.970941 
L 634.202479 230.709951 
L 641.88843 232.43978 
L 649.57438 234.160428 
L 657.260331 235.871895 
L 664.946281 237.57418 
L 672.632231 239.267285 
L 680.318182 240.951209 
L 688.004132 242.625952 
L 695.690083 244.291514 
L 703.376033 245.947895 
L 711.061983 247.595095 
L 718.747934 249.233114 
L 726.433884 250.861951 
L 734.119835 252.481608 
L 741.805785 254.092084 
L 749.491736 255.693379 
L 757.177686 257.285492 
L 764.863636 258.868425 
L 772.549587 260.442177 
L 780.235537 262.006748 
L 787.921488 263.562137 
L 795.607438 265.108346 
L 803.293388 266.645374 
L 810.979339 268.17322 
L 818.665289 269.691886 
L 826.35124 271.201371 
L 834.03719 272.701674 
L 841.72314 274.192797 
L 849.409091 275.674738 
L 857.095041 277.147499 
L 864.780992 278.611079 
L 872.466942 280.065477 
L 880.152893 281.510695 
L 887.838843 282.946731 
L 895.524793 284.373587 
L 903.210744 285.791261 
L 910.896694 287.199755 
L 918.582645 288.599067 
L 926.268595 289.989199 
L 933.954545 291.370149 
" clip-path="url(#p38f6e4d18a)" style="fill: none; stroke: #2ca02c; stroke-width: 1.5; stroke-linecap: square"/>
   </g>
   <g id="line2d_28">
    <path d="M 173.045455 111.311 
L 180.731405 113.515802 
L 188.417355 115.714562 
L 196.103306 117.907214 
L 203.789256 120.093697 
L 211.475207 122.273948 
L 219.161157 124.447901 
L 226.847107 126.615495 
L 234.533058 128.776665 
L 242.219008 130.931349 
L 249.904959 133.079482 
L 257.590909 135.221002 
L 265.27686 137.355845 
L 272.96281 139.483947 
L 280.64876 141.605245 
L 288.334711 143.719677 
L 296.020661 145.827177 
L 303.706612 147.927684 
L 311.392562 150.021133 
L 319.078512 152.107461 
L 326.764463 154.186605 
L 334.450413 156.258501 
L 342.136364 158.323086 
L 349.822314 160.380297 
L 357.508264 162.430069 
L 365.194215 164.47234 
L 372.880165 166.507047 
L 380.566116 168.534125 
L 388.252066 170.553511 
L 395.938017 172.565143 
L 403.623967 174.568956 
L 411.309917 176.564887 
L 418.995868 178.552873 
L 426.681818 180.53285 
L 434.367769 182.504755 
L 442.053719 184.468524 
L 449.739669 186.424095 
L 457.42562 188.371403 
L 465.11157 190.310385 
L 472.797521 192.240978 
L 480.483471 194.163119 
L 488.169421 196.076744 
L 495.855372 197.981789 
L 503.541322 199.878191 
L 511.227273 201.765887 
L 518.913223 203.644813 
L 526.599174 205.514907 
L 534.285124 207.376103 
L 541.971074 209.22834 
L 549.657025 211.071554 
L 557.342975 212.90568 
L 565.028926 214.730657 
L 572.714876 216.54642 
L 580.400826 218.352906 
L 588.086777 220.150052 
L 595.772727 221.937794 
L 603.458678 223.716068 
L 611.144628 225.484812 
L 618.830579 227.243962 
L 626.516529 228.993454 
L 634.202479 230.733226 
L 641.88843 232.463213 
L 649.57438 234.183352 
L 657.260331 235.893581 
L 664.946281 237.593834 
L 672.632231 239.28405 
L 680.318182 240.964165 
L 688.004132 242.634114 
L 695.690083 244.293836 
L 703.376033 245.943265 
L 711.061983 247.58234 
L 718.747934 249.210996 
L 726.433884 250.829171 
L 734.119835 252.4368 
L 741.805785 254.03382 
L 749.491736 255.620169 
L 757.177686 257.195782 
L 764.863636 258.760595 
L 772.549587 260.314547 
L 780.235537 261.857573 
L 787.921488 263.389609 
L 795.607438 264.910593 
L 803.293388 266.420461 
L 810.979339 267.91915 
L 818.665289 269.406595 
L 826.35124 270.882735 
L 834.03719 272.347504 
L 841.72314 273.800841 
L 849.409091 275.242681 
L 857.095041 276.672962 
L 864.780992 278.091618 
L 872.466942 279.498589 
L 880.152893 280.893809 
L 887.838843 282.277215 
L 895.524793 283.648745 
L 903.210744 285.008334 
L 910.896694 286.355919 
L 918.582645 287.691437 
L 926.268595 289.014824 
L 933.954545 290.326018 
" clip-path="url(#p38f6e4d18a)" style="fill: none; stroke: #d62728; stroke-width: 1.5; stroke-linecap: square"/>
   </g>
   <g id="line2d_29">
    <path d="M 173.045455 55.8 
L 180.731405 62.862832 
L 188.417355 69.610227 
L 196.103306 76.054916 
L 203.789256 82.209367 
L 211.475207 88.085792 
L 219.161157 93.696146 
L 226.847107 99.052123 
L 234.533058 104.165161 
L 242.219008 109.046439 
L 249.904959 113.706878 
L 257.590909 118.157139 
L 265.27686 122.407629 
L 272.96281 126.468492 
L 280.64876 130.349616 
L 288.334711 134.060632 
L 296.020661 137.61091 
L 303.706612 141.009564 
L 311.392562 144.265449 
L 319.078512 147.387162 
L 326.764463 150.383041 
L 334.450413 153.261166 
L 342.136364 156.02936 
L 349.822314 158.695187 
L 357.508264 161.265952 
L 365.194215 163.748702 
L 372.880165 166.150227 
L 380.566116 168.477059 
L 388.252066 170.735468 
L 395.938017 172.931471 
L 403.623967 175.070824 
L 411.309917 177.159024 
L 418.995868 179.201311 
L 426.681818 181.202668 
L 434.367769 183.167817 
L 442.053719 185.101224 
L 449.739669 187.007096 
L 457.42562 188.889382 
L 465.11157 190.751771 
L 472.797521 192.597697 
L 480.483471 194.430334 
L 488.169421 196.252597 
L 495.855372 198.067144 
L 503.541322 199.876375 
L 511.227273 201.682431 
L 518.913223 203.487194 
L 526.599174 205.29229 
L 534.285124 207.099085 
L 541.971074 208.908687 
L 549.657025 210.721947 
L 557.342975 212.539456 
L 565.028926 214.361549 
L 572.714876 216.1883 
L 580.400826 218.019526 
L 588.086777 219.854787 
L 595.772727 221.693384 
L 603.458678 223.534359 
L 611.144628 225.376496 
L 618.830579 227.218321 
L 626.516529 229.058103 
L 634.202479 230.893851 
L 641.88843 232.723316 
L 649.57438 234.543992 
L 657.260331 236.353113 
L 664.946281 238.147657 
L 672.632231 239.924342 
L 680.318182 241.679628 
L 688.004132 243.409717 
L 695.690083 245.110554 
L 703.376033 246.777823 
L 711.061983 248.406953 
L 718.747934 249.993112 
L 726.433884 251.531212 
L 734.119835 253.015905 
L 741.805785 254.441586 
L 749.491736 255.802391 
L 757.177686 257.092198 
L 764.863636 258.304627 
L 772.549587 259.433041 
L 780.235537 260.470541 
L 787.921488 261.409974 
L 795.607438 262.243926 
L 803.293388 262.964726 
L 810.979339 263.564445 
L 818.665289 264.034895 
L 826.35124 264.36763 
L 834.03719 264.553946 
L 841.72314 264.58488 
L 849.409091 264.451213 
L 857.095041 264.143465 
L 864.780992 263.651899 
L 872.466942 262.96652 
L 880.152893 262.077075 
L 887.838843 260.973052 
L 895.524793 259.64368 
L 903.210744 258.077933 
L 910.896694 256.264522 
L 918.582645 254.191905 
L 926.268595 251.848278 
L 933.954545 249.22158 
" clip-path="url(#p38f6e4d18a)" style="fill: none; stroke: #9467bd; stroke-width: 1.5; stroke-linecap: square"/>
   </g>
   <g id="line2d_30">
    <path d="M 173.045455 101.635644 
L 180.731405 103.462359 
L 188.417355 105.436148 
L 196.103306 107.539988 
L 203.789256 109.757844 
L 211.475207 112.074639 
L 219.161157 114.476229 
L 226.847107 116.949379 
L 234.533058 119.48174 
L 242.219008 122.061816 
L 249.904959 124.678948 
L 257.590909 127.323281 
L 265.27686 129.985743 
L 272.96281 132.658018 
L 280.64876 135.332523 
L 288.334711 138.002377 
L 296.020661 140.661382 
L 303.706612 143.303995 
L 311.392562 145.925301 
L 319.078512 148.52099 
L 326.764463 151.087332 
L 334.450413 153.621149 
L 342.136364 156.119791 
L 349.822314 158.581111 
L 357.508264 161.003441 
L 365.194215 163.385562 
L 372.880165 165.726686 
L 380.566116 168.026421 
L 388.252066 170.284755 
L 395.938017 172.502025 
L 403.623967 174.678894 
L 411.309917 176.816324 
L 418.995868 178.915552 
L 426.681818 180.978063 
L 434.367769 183.005568 
L 442.053719 184.999975 
L 449.739669 186.963364 
L 457.42562 188.897964 
L 465.11157 190.806128 
L 472.797521 192.690302 
L 480.483471 194.553006 
L 488.169421 196.396807 
L 495.855372 198.224291 
L 503.541322 200.03804 
L 511.227273 201.840607 
L 518.913223 203.634489 
L 526.599174 205.422102 
L 534.285124 207.205758 
L 541.971074 208.987634 
L 549.657025 210.769754 
L 557.342975 212.553958 
L 565.028926 214.34188 
L 572.714876 216.134919 
L 580.400826 217.934218 
L 588.086777 219.740636 
L 595.772727 221.554722 
L 603.458678 223.376692 
L 611.144628 225.206401 
L 618.830579 227.043322 
L 626.516529 228.886514 
L 634.202479 230.734602 
L 641.88843 232.585751 
L 649.57438 234.437637 
L 657.260331 236.287428 
L 664.946281 238.13175 
L 672.632231 239.966672 
L 680.318182 241.787669 
L 688.004132 243.589608 
L 695.690083 245.366716 
L 703.376033 247.112553 
L 711.061983 248.819995 
L 718.747934 250.481198 
L 726.433884 252.087581 
L 734.119835 253.629798 
L 741.805785 255.097711 
L 749.491736 256.480364 
L 757.177686 257.765964 
L 764.863636 258.941848 
L 772.549587 259.994461 
L 780.235537 260.909331 
L 787.921488 261.671042 
L 795.607438 262.263212 
L 803.293388 262.668464 
L 810.979339 262.8684 
L 818.665289 262.843582 
L 826.35124 262.573497 
L 834.03719 262.036541 
L 841.72314 261.209988 
L 849.409091 260.069965 
L 857.095041 258.59143 
L 864.780992 256.748143 
L 872.466942 254.512642 
L 880.152893 251.856219 
L 887.838843 248.748891 
L 895.524793 245.159379 
L 903.210744 241.05508 
L 910.896694 236.402041 
L 918.582645 231.164938 
L 926.268595 225.307044 
L 933.954545 218.790208 
" clip-path="url(#p38f6e4d18a)" style="fill: none; stroke: #8c564b; stroke-width: 1.5; stroke-linecap: square"/>
   </g>
   <g id="patch_3">
    <path d="M 135 320.4 
L 135 43.2 
" style="fill: none; stroke: #000000; stroke-width: 0.8; stroke-linejoin: miter; stroke-linecap: square"/>
   </g>
   <g id="patch_4">
    <path d="M 972 320.4 
L 972 43.2 
" style="fill: none; stroke: #000000; stroke-width: 0.8; stroke-linejoin: miter; stroke-linecap: square"/>
   </g>
   <g id="patch_5">
    <path d="M 135 320.4 
L 972 320.4 
" style="fill: none; stroke: #000000; stroke-width: 0.8; stroke-linejoin: miter; stroke-linecap: square"/>
   </g>
   <g id="patch_6">
    <path d="M 135 43.2 
L 972 43.2 
" style="fill: none; stroke: #000000; stroke-width: 0.8; stroke-linejoin: miter; stroke-linecap: square"/>
   </g>
   <g id="legend_1">
    <g id="patch_7">
     <path d="M 995.465625 227.334375 
L 1048.7 227.334375 
Q 1050.7 227.334375 1050.7 225.334375 
L 1050.7 138.265625 
Q 1050.7 136.265625 1048.7 136.265625 
L 995.465625 136.265625 
Q 993.465625 136.265625 993.465625 138.265625 
L 993.465625 225.334375 
Q 993.465625 227.334375 995.465625 227.334375 
z
" style="fill: #ffffff; opacity: 0.8; stroke: #cccccc; stroke-linejoin: miter"/>
    </g>
    <g id="line2d_31">
     <path d="M 997.465625 144.364062 
L 1007.465625 144.364062 
L 1017.465625 144.364062 
" style="fill: none; stroke: #1f77b4; stroke-width: 1.5; stroke-linecap: square"/>
    </g>
    <g id="text_13">
     <!-- True -->
     <g transform="translate(1025.465625 147.864062)scale(0.1 -0.1)">
      <defs>
       <path id="DejaVuSans-54" d="M -19 4666 
L 3928 4666 
L 3928 4134 
L 2272 4134 
L 2272 0 
L 1638 0 
L 1638 4134 
L -19 4134 
L -19 4666 
z
" transform="scale(0.015625)"/>
       <path id="DejaVuSans-72" d="M 2631 2963 
Q 2534 3019 2420 3045 
Q 2306 3072 2169 3072 
Q 1681 3072 1420 2755 
Q 1159 2438 1159 1844 
L 1159 0 
L 581 0 
L 581 3500 
L 1159 3500 
L 1159 2956 
Q 1341 3275 1631 3429 
Q 1922 3584 2338 3584 
Q 2397 3584 2469 3576 
Q 2541 3569 2628 3553 
L 2631 2963 
z
" transform="scale(0.015625)"/>
       <path id="DejaVuSans-75" d="M 544 1381 
L 544 3500 
L 1119 3500 
L 1119 1403 
Q 1119 906 1312 657 
Q 1506 409 1894 409 
Q 2359 409 2629 706 
Q 2900 1003 2900 1516 
L 2900 3500 
L 3475 3500 
L 3475 0 
L 2900 0 
L 2900 538 
Q 2691 219 2414 64 
Q 2138 -91 1772 -91 
Q 1169 -91 856 284 
Q 544 659 544 1381 
z
M 1991 3584 
L 1991 3584 
z
" transform="scale(0.015625)"/>
       <path id="DejaVuSans-65" d="M 3597 1894 
L 3597 1613 
L 953 1613 
Q 991 1019 1311 708 
Q 1631 397 2203 397 
Q 2534 397 2845 478 
Q 3156 559 3463 722 
L 3463 178 
Q 3153 47 2828 -22 
Q 2503 -91 2169 -91 
Q 1331 -91 842 396 
Q 353 884 353 1716 
Q 353 2575 817 3079 
Q 1281 3584 2069 3584 
Q 2775 3584 3186 3129 
Q 3597 2675 3597 1894 
z
M 3022 2063 
Q 3016 2534 2758 2815 
Q 2500 3097 2075 3097 
Q 1594 3097 1305 2825 
Q 1016 2553 972 2059 
L 3022 2063 
z
" transform="scale(0.015625)"/>
      </defs>
      <use xlink:href="#DejaVuSans-54"/>
      <use xlink:href="#DejaVuSans-72" x="46.333984"/>
      <use xlink:href="#DejaVuSans-75" x="87.447266"/>
      <use xlink:href="#DejaVuSans-65" x="150.826172"/>
     </g>
    </g>
    <g id="line2d_32">
     <path d="M 997.465625 159.042187 
L 1007.465625 159.042187 
L 1017.465625 159.042187 
" style="fill: none; stroke: #ff7f0e; stroke-width: 1.5; stroke-linecap: square"/>
    </g>
    <g id="text_14">
     <!-- 1 -->
     <g transform="translate(1025.465625 162.542187)scale(0.1 -0.1)">
      <defs>
       <path id="DejaVuSans-31" d="M 794 531 
L 1825 531 
L 1825 4091 
L 703 3866 
L 703 4441 
L 1819 4666 
L 2450 4666 
L 2450 531 
L 3481 531 
L 3481 0 
L 794 0 
L 794 531 
z
" transform="scale(0.015625)"/>
      </defs>
      <use xlink:href="#DejaVuSans-31"/>
     </g>
    </g>
    <g id="line2d_33">
     <path d="M 997.465625 173.720312 
L 1007.465625 173.720312 
L 1017.465625 173.720312 
" style="fill: none; stroke: #2ca02c; stroke-width: 1.5; stroke-linecap: square"/>
    </g>
    <g id="text_15">
     <!-- 2 -->
     <g transform="translate(1025.465625 177.220312)scale(0.1 -0.1)">
      <use xlink:href="#DejaVuSans-32"/>
     </g>
    </g>
    <g id="line2d_34">
     <path d="M 997.465625 188.398438 
L 1007.465625 188.398438 
L 1017.465625 188.398438 
" style="fill: none; stroke: #d62728; stroke-width: 1.5; stroke-linecap: square"/>
    </g>
    <g id="text_16">
     <!-- 3 -->
     <g transform="translate(1025.465625 191.898438)scale(0.1 -0.1)">
      <defs>
       <path id="DejaVuSans-33" d="M 2597 2516 
Q 3050 2419 3304 2112 
Q 3559 1806 3559 1356 
Q 3559 666 3084 287 
Q 2609 -91 1734 -91 
Q 1441 -91 1130 -33 
Q 819 25 488 141 
L 488 750 
Q 750 597 1062 519 
Q 1375 441 1716 441 
Q 2309 441 2620 675 
Q 2931 909 2931 1356 
Q 2931 1769 2642 2001 
Q 2353 2234 1838 2234 
L 1294 2234 
L 1294 2753 
L 1863 2753 
Q 2328 2753 2575 2939 
Q 2822 3125 2822 3475 
Q 2822 3834 2567 4026 
Q 2313 4219 1838 4219 
Q 1578 4219 1281 4162 
Q 984 4106 628 3988 
L 628 4550 
Q 988 4650 1302 4700 
Q 1616 4750 1894 4750 
Q 2613 4750 3031 4423 
Q 3450 4097 3450 3541 
Q 3450 3153 3228 2886 
Q 3006 2619 2597 2516 
z
" transform="scale(0.015625)"/>
      </defs>
      <use xlink:href="#DejaVuSans-33"/>
     </g>
    </g>
    <g id="line2d_35">
     <path d="M 997.465625 203.076562 
L 1007.465625 203.076562 
L 1017.465625 203.076562 
" style="fill: none; stroke: #9467bd; stroke-width: 1.5; stroke-linecap: square"/>
    </g>
    <g id="text_17">
     <!-- 4 -->
     <g transform="translate(1025.465625 206.576562)scale(0.1 -0.1)">
      <use xlink:href="#DejaVuSans-34"/>
     </g>
    </g>
    <g id="line2d_36">
     <path d="M 997.465625 217.754687 
L 1007.465625 217.754687 
L 1017.465625 217.754687 
" style="fill: none; stroke: #8c564b; stroke-width: 1.5; stroke-linecap: square"/>
    </g>
    <g id="text_18">
     <!-- 5 -->
     <g transform="translate(1025.465625 221.254687)scale(0.1 -0.1)">
      <defs>
       <path id="DejaVuSans-35" d="M 691 4666 
L 3169 4666 
L 3169 4134 
L 1269 4134 
L 1269 2991 
Q 1406 3038 1543 3061 
Q 1681 3084 1819 3084 
Q 2600 3084 3056 2656 
Q 3513 2228 3513 1497 
Q 3513 744 3044 326 
Q 2575 -91 1722 -91 
Q 1428 -91 1123 -41 
Q 819 9 494 109 
L 494 744 
Q 775 591 1075 516 
Q 1375 441 1709 441 
Q 2250 441 2565 725 
Q 2881 1009 2881 1497 
Q 2881 1984 2565 2268 
Q 2250 2553 1709 2553 
Q 1456 2553 1204 2497 
Q 953 2441 691 2322 
L 691 4666 
z
" transform="scale(0.015625)"/>
      </defs>
      <use xlink:href="#DejaVuSans-35"/>
     </g>
    </g>
   </g>
  </g>
 </g>
 <defs>
  <clipPath id="p38f6e4d18a">
   <rect x="135" y="43.2" width="837" height="277.2"/>
  </clipPath>
 </defs>
</svg>
