<?xml version="1.0" encoding="utf-8" standalone="no"?>
<!DOCTYPE svg PUBLIC "-//W3C//DTD SVG 1.1//EN"
  "http://www.w3.org/Graphics/SVG/1.1/DTD/svg11.dtd">
<svg xmlns:xlink="http://www.w3.org/1999/xlink" width="1440pt" height="720pt" viewBox="0 0 1440 720" xmlns="http://www.w3.org/2000/svg" version="1.1">
 <metadata>
  <rdf:RDF xmlns:dc="http://purl.org/dc/elements/1.1/" xmlns:cc="http://creativecommons.org/ns#" xmlns:rdf="http://www.w3.org/1999/02/22-rdf-syntax-ns#">
   <cc:Work>
    <dc:type rdf:resource="http://purl.org/dc/dcmitype/StillImage"/>
    <dc:date>2022-11-27T01:28:14.425123</dc:date>
    <dc:format>image/svg+xml</dc:format>
    <dc:creator>
     <cc:Agent>
      <dc:title>Matplotlib v3.5.1, https://matplotlib.org/</dc:title>
     </cc:Agent>
    </dc:creator>
   </cc:Work>
  </rdf:RDF>
 </metadata>
 <defs>
  <style type="text/css">*{stroke-linejoin: round; stroke-linecap: butt}</style>
 </defs>
 <g id="figure_1">
  <g id="patch_1">
   <path d="M 0 720 
L 1440 720 
L 1440 0 
L 0 0 
z
" style="fill: #ffffff"/>
  </g>
  <g id="axes_1">
   <g id="patch_2">
    <path d="M 180 640.8 
L 687.272727 640.8 
L 687.272727 86.4 
L 180 86.4 
z
" style="fill: #ffffff"/>
   </g>
   <g id="matplotlib.axis_1">
    <g id="xtick_1">
     <g id="line2d_1">
      <path d="M 191.400705 640.8 
L 191.400705 86.4 
" clip-path="url(#p57d932e5f2)" style="fill: none; stroke: #b0b0b0; stroke-width: 0.8; stroke-linecap: square"/>
     </g>
     <g id="line2d_2">
      <defs>
       <path id="m0f5bc294dc" d="M 0 0 
L 0 3.5 
" style="stroke: #000000; stroke-width: 0.8"/>
      </defs>
      <g>
       <use xlink:href="#m0f5bc294dc" x="191.400705" y="640.8" style="stroke: #000000; stroke-width: 0.8"/>
      </g>
     </g>
     <g id="text_1">
      <!-- −1.5 -->
      <g transform="translate(179.259299 655.398438)scale(0.1 -0.1)">
       <defs>
        <path id="DejaVuSans-2212" d="M 678 2272 
L 4684 2272 
L 4684 1741 
L 678 1741 
L 678 2272 
z
" transform="scale(0.015625)"/>
        <path id="DejaVuSans-31" d="M 794 531 
L 1825 531 
L 1825 4091 
L 703 3866 
L 703 4441 
L 1819 4666 
L 2450 4666 
L 2450 531 
L 3481 531 
L 3481 0 
L 794 0 
L 794 531 
z
" transform="scale(0.015625)"/>
        <path id="DejaVuSans-2e" d="M 684 794 
L 1344 794 
L 1344 0 
L 684 0 
L 684 794 
z
" transform="scale(0.015625)"/>
        <path id="DejaVuSans-35" d="M 691 4666 
L 3169 4666 
L 3169 4134 
L 1269 4134 
L 1269 2991 
Q 1406 3038 1543 3061 
Q 1681 3084 1819 3084 
Q 2600 3084 3056 2656 
Q 3513 2228 3513 1497 
Q 3513 744 3044 326 
Q 2575 -91 1722 -91 
Q 1428 -91 1123 -41 
Q 819 9 494 109 
L 494 744 
Q 775 591 1075 516 
Q 1375 441 1709 441 
Q 2250 441 2565 725 
Q 2881 1009 2881 1497 
Q 2881 1984 2565 2268 
Q 2250 2553 1709 2553 
Q 1456 2553 1204 2497 
Q 953 2441 691 2322 
L 691 4666 
z
" transform="scale(0.015625)"/>
       </defs>
       <use xlink:href="#DejaVuSans-2212"/>
       <use xlink:href="#DejaVuSans-31" x="83.789062"/>
       <use xlink:href="#DejaVuSans-2e" x="147.412109"/>
       <use xlink:href="#DejaVuSans-35" x="179.199219"/>
      </g>
     </g>
    </g>
    <g id="xtick_2">
     <g id="line2d_3">
      <path d="M 251.615401 640.8 
L 251.615401 86.4 
" clip-path="url(#p57d932e5f2)" style="fill: none; stroke: #b0b0b0; stroke-width: 0.8; stroke-linecap: square"/>
     </g>
     <g id="line2d_4">
      <g>
       <use xlink:href="#m0f5bc294dc" x="251.615401" y="640.8" style="stroke: #000000; stroke-width: 0.8"/>
      </g>
     </g>
     <g id="text_2">
      <!-- −1.0 -->
      <g transform="translate(239.473995 655.398438)scale(0.1 -0.1)">
       <defs>
        <path id="DejaVuSans-30" d="M 2034 4250 
Q 1547 4250 1301 3770 
Q 1056 3291 1056 2328 
Q 1056 1369 1301 889 
Q 1547 409 2034 409 
Q 2525 409 2770 889 
Q 3016 1369 3016 2328 
Q 3016 3291 2770 3770 
Q 2525 4250 2034 4250 
z
M 2034 4750 
Q 2819 4750 3233 4129 
Q 3647 3509 3647 2328 
Q 3647 1150 3233 529 
Q 2819 -91 2034 -91 
Q 1250 -91 836 529 
Q 422 1150 422 2328 
Q 422 3509 836 4129 
Q 1250 4750 2034 4750 
z
" transform="scale(0.015625)"/>
       </defs>
       <use xlink:href="#DejaVuSans-2212"/>
       <use xlink:href="#DejaVuSans-31" x="83.789062"/>
       <use xlink:href="#DejaVuSans-2e" x="147.412109"/>
       <use xlink:href="#DejaVuSans-30" x="179.199219"/>
      </g>
     </g>
    </g>
    <g id="xtick_3">
     <g id="line2d_5">
      <path d="M 311.830097 640.8 
L 311.830097 86.4 
" clip-path="url(#p57d932e5f2)" style="fill: none; stroke: #b0b0b0; stroke-width: 0.8; stroke-linecap: square"/>
     </g>
     <g id="line2d_6">
      <g>
       <use xlink:href="#m0f5bc294dc" x="311.830097" y="640.8" style="stroke: #000000; stroke-width: 0.8"/>
      </g>
     </g>
     <g id="text_3">
      <!-- −0.5 -->
      <g transform="translate(299.688691 655.398438)scale(0.1 -0.1)">
       <use xlink:href="#DejaVuSans-2212"/>
       <use xlink:href="#DejaVuSans-30" x="83.789062"/>
       <use xlink:href="#DejaVuSans-2e" x="147.412109"/>
       <use xlink:href="#DejaVuSans-35" x="179.199219"/>
      </g>
     </g>
    </g>
    <g id="xtick_4">
     <g id="line2d_7">
      <path d="M 372.044793 640.8 
L 372.044793 86.4 
" clip-path="url(#p57d932e5f2)" style="fill: none; stroke: #b0b0b0; stroke-width: 0.8; stroke-linecap: square"/>
     </g>
     <g id="line2d_8">
      <g>
       <use xlink:href="#m0f5bc294dc" x="372.044793" y="640.8" style="stroke: #000000; stroke-width: 0.8"/>
      </g>
     </g>
     <g id="text_4">
      <!-- 0.0 -->
      <g transform="translate(364.093231 655.398438)scale(0.1 -0.1)">
       <use xlink:href="#DejaVuSans-30"/>
       <use xlink:href="#DejaVuSans-2e" x="63.623047"/>
       <use xlink:href="#DejaVuSans-30" x="95.410156"/>
      </g>
     </g>
    </g>
    <g id="xtick_5">
     <g id="line2d_9">
      <path d="M 432.25949 640.8 
L 432.25949 86.4 
" clip-path="url(#p57d932e5f2)" style="fill: none; stroke: #b0b0b0; stroke-width: 0.8; stroke-linecap: square"/>
     </g>
     <g id="line2d_10">
      <g>
       <use xlink:href="#m0f5bc294dc" x="432.25949" y="640.8" style="stroke: #000000; stroke-width: 0.8"/>
      </g>
     </g>
     <g id="text_5">
      <!-- 0.5 -->
      <g transform="translate(424.307927 655.398438)scale(0.1 -0.1)">
       <use xlink:href="#DejaVuSans-30"/>
       <use xlink:href="#DejaVuSans-2e" x="63.623047"/>
       <use xlink:href="#DejaVuSans-35" x="95.410156"/>
      </g>
     </g>
    </g>
    <g id="xtick_6">
     <g id="line2d_11">
      <path d="M 492.474186 640.8 
L 492.474186 86.4 
" clip-path="url(#p57d932e5f2)" style="fill: none; stroke: #b0b0b0; stroke-width: 0.8; stroke-linecap: square"/>
     </g>
     <g id="line2d_12">
      <g>
       <use xlink:href="#m0f5bc294dc" x="492.474186" y="640.8" style="stroke: #000000; stroke-width: 0.8"/>
      </g>
     </g>
     <g id="text_6">
      <!-- 1.0 -->
      <g transform="translate(484.522623 655.398438)scale(0.1 -0.1)">
       <use xlink:href="#DejaVuSans-31"/>
       <use xlink:href="#DejaVuSans-2e" x="63.623047"/>
       <use xlink:href="#DejaVuSans-30" x="95.410156"/>
      </g>
     </g>
    </g>
    <g id="xtick_7">
     <g id="line2d_13">
      <path d="M 552.688882 640.8 
L 552.688882 86.4 
" clip-path="url(#p57d932e5f2)" style="fill: none; stroke: #b0b0b0; stroke-width: 0.8; stroke-linecap: square"/>
     </g>
     <g id="line2d_14">
      <g>
       <use xlink:href="#m0f5bc294dc" x="552.688882" y="640.8" style="stroke: #000000; stroke-width: 0.8"/>
      </g>
     </g>
     <g id="text_7">
      <!-- 1.5 -->
      <g transform="translate(544.737319 655.398438)scale(0.1 -0.1)">
       <use xlink:href="#DejaVuSans-31"/>
       <use xlink:href="#DejaVuSans-2e" x="63.623047"/>
       <use xlink:href="#DejaVuSans-35" x="95.410156"/>
      </g>
     </g>
    </g>
    <g id="xtick_8">
     <g id="line2d_15">
      <path d="M 612.903578 640.8 
L 612.903578 86.4 
" clip-path="url(#p57d932e5f2)" style="fill: none; stroke: #b0b0b0; stroke-width: 0.8; stroke-linecap: square"/>
     </g>
     <g id="line2d_16">
      <g>
       <use xlink:href="#m0f5bc294dc" x="612.903578" y="640.8" style="stroke: #000000; stroke-width: 0.8"/>
      </g>
     </g>
     <g id="text_8">
      <!-- 2.0 -->
      <g transform="translate(604.952015 655.398438)scale(0.1 -0.1)">
       <defs>
        <path id="DejaVuSans-32" d="M 1228 531 
L 3431 531 
L 3431 0 
L 469 0 
L 469 531 
Q 828 903 1448 1529 
Q 2069 2156 2228 2338 
Q 2531 2678 2651 2914 
Q 2772 3150 2772 3378 
Q 2772 3750 2511 3984 
Q 2250 4219 1831 4219 
Q 1534 4219 1204 4116 
Q 875 4013 500 3803 
L 500 4441 
Q 881 4594 1212 4672 
Q 1544 4750 1819 4750 
Q 2544 4750 2975 4387 
Q 3406 4025 3406 3419 
Q 3406 3131 3298 2873 
Q 3191 2616 2906 2266 
Q 2828 2175 2409 1742 
Q 1991 1309 1228 531 
z
" transform="scale(0.015625)"/>
       </defs>
       <use xlink:href="#DejaVuSans-32"/>
       <use xlink:href="#DejaVuSans-2e" x="63.623047"/>
       <use xlink:href="#DejaVuSans-30" x="95.410156"/>
      </g>
     </g>
    </g>
    <g id="xtick_9">
     <g id="line2d_17">
      <path d="M 673.118274 640.8 
L 673.118274 86.4 
" clip-path="url(#p57d932e5f2)" style="fill: none; stroke: #b0b0b0; stroke-width: 0.8; stroke-linecap: square"/>
     </g>
     <g id="line2d_18">
      <g>
       <use xlink:href="#m0f5bc294dc" x="673.118274" y="640.8" style="stroke: #000000; stroke-width: 0.8"/>
      </g>
     </g>
     <g id="text_9">
      <!-- 2.5 -->
      <g transform="translate(665.166711 655.398438)scale(0.1 -0.1)">
       <use xlink:href="#DejaVuSans-32"/>
       <use xlink:href="#DejaVuSans-2e" x="63.623047"/>
       <use xlink:href="#DejaVuSans-35" x="95.410156"/>
      </g>
     </g>
    </g>
    <g id="text_10">
     <!-- X  -->
     <g transform="translate(428.622301 669.076563)scale(0.1 -0.1)">
      <defs>
       <path id="DejaVuSans-58" d="M 403 4666 
L 1081 4666 
L 2241 2931 
L 3406 4666 
L 4084 4666 
L 2584 2425 
L 4184 0 
L 3506 0 
L 2194 1984 
L 872 0 
L 191 0 
L 1856 2491 
L 403 4666 
z
" transform="scale(0.015625)"/>
       <path id="DejaVuSans-20" transform="scale(0.015625)"/>
      </defs>
      <use xlink:href="#DejaVuSans-58"/>
      <use xlink:href="#DejaVuSans-20" x="68.505859"/>
     </g>
    </g>
   </g>
   <g id="matplotlib.axis_2">
    <g id="ytick_1">
     <g id="line2d_19">
      <path d="M 180 601.596613 
L 687.272727 601.596613 
" clip-path="url(#p57d932e5f2)" style="fill: none; stroke: #b0b0b0; stroke-width: 0.8; stroke-linecap: square"/>
     </g>
     <g id="line2d_20">
      <defs>
       <path id="m90b55269aa" d="M 0 0 
L -3.5 0 
" style="stroke: #000000; stroke-width: 0.8"/>
      </defs>
      <g>
       <use xlink:href="#m90b55269aa" x="180" y="601.596613" style="stroke: #000000; stroke-width: 0.8"/>
      </g>
     </g>
     <g id="text_11">
      <!-- −20 -->
      <g transform="translate(151.895312 605.395831)scale(0.1 -0.1)">
       <use xlink:href="#DejaVuSans-2212"/>
       <use xlink:href="#DejaVuSans-32" x="83.789062"/>
       <use xlink:href="#DejaVuSans-30" x="147.412109"/>
      </g>
     </g>
    </g>
    <g id="ytick_2">
     <g id="line2d_21">
      <path d="M 180 515.139297 
L 687.272727 515.139297 
" clip-path="url(#p57d932e5f2)" style="fill: none; stroke: #b0b0b0; stroke-width: 0.8; stroke-linecap: square"/>
     </g>
     <g id="line2d_22">
      <g>
       <use xlink:href="#m90b55269aa" x="180" y="515.139297" style="stroke: #000000; stroke-width: 0.8"/>
      </g>
     </g>
     <g id="text_12">
      <!-- −15 -->
      <g transform="translate(151.895312 518.938515)scale(0.1 -0.1)">
       <use xlink:href="#DejaVuSans-2212"/>
       <use xlink:href="#DejaVuSans-31" x="83.789062"/>
       <use xlink:href="#DejaVuSans-35" x="147.412109"/>
      </g>
     </g>
    </g>
    <g id="ytick_3">
     <g id="line2d_23">
      <path d="M 180 428.68198 
L 687.272727 428.68198 
" clip-path="url(#p57d932e5f2)" style="fill: none; stroke: #b0b0b0; stroke-width: 0.8; stroke-linecap: square"/>
     </g>
     <g id="line2d_24">
      <g>
       <use xlink:href="#m90b55269aa" x="180" y="428.68198" style="stroke: #000000; stroke-width: 0.8"/>
      </g>
     </g>
     <g id="text_13">
      <!-- −10 -->
      <g transform="translate(151.895312 432.481199)scale(0.1 -0.1)">
       <use xlink:href="#DejaVuSans-2212"/>
       <use xlink:href="#DejaVuSans-31" x="83.789062"/>
       <use xlink:href="#DejaVuSans-30" x="147.412109"/>
      </g>
     </g>
    </g>
    <g id="ytick_4">
     <g id="line2d_25">
      <path d="M 180 342.224664 
L 687.272727 342.224664 
" clip-path="url(#p57d932e5f2)" style="fill: none; stroke: #b0b0b0; stroke-width: 0.8; stroke-linecap: square"/>
     </g>
     <g id="line2d_26">
      <g>
       <use xlink:href="#m90b55269aa" x="180" y="342.224664" style="stroke: #000000; stroke-width: 0.8"/>
      </g>
     </g>
     <g id="text_14">
      <!-- −5 -->
      <g transform="translate(158.257812 346.023883)scale(0.1 -0.1)">
       <use xlink:href="#DejaVuSans-2212"/>
       <use xlink:href="#DejaVuSans-35" x="83.789062"/>
      </g>
     </g>
    </g>
    <g id="ytick_5">
     <g id="line2d_27">
      <path d="M 180 255.767348 
L 687.272727 255.767348 
" clip-path="url(#p57d932e5f2)" style="fill: none; stroke: #b0b0b0; stroke-width: 0.8; stroke-linecap: square"/>
     </g>
     <g id="line2d_28">
      <g>
       <use xlink:href="#m90b55269aa" x="180" y="255.767348" style="stroke: #000000; stroke-width: 0.8"/>
      </g>
     </g>
     <g id="text_15">
      <!-- 0 -->
      <g transform="translate(166.6375 259.566567)scale(0.1 -0.1)">
       <use xlink:href="#DejaVuSans-30"/>
      </g>
     </g>
    </g>
    <g id="ytick_6">
     <g id="line2d_29">
      <path d="M 180 169.310032 
L 687.272727 169.310032 
" clip-path="url(#p57d932e5f2)" style="fill: none; stroke: #b0b0b0; stroke-width: 0.8; stroke-linecap: square"/>
     </g>
     <g id="line2d_30">
      <g>
       <use xlink:href="#m90b55269aa" x="180" y="169.310032" style="stroke: #000000; stroke-width: 0.8"/>
      </g>
     </g>
     <g id="text_16">
      <!-- 5 -->
      <g transform="translate(166.6375 173.109251)scale(0.1 -0.1)">
       <use xlink:href="#DejaVuSans-35"/>
      </g>
     </g>
    </g>
    <g id="text_17">
     <!-- Drift(X) -->
     <g transform="translate(145.815625 381.853906)rotate(-90)scale(0.1 -0.1)">
      <defs>
       <path id="DejaVuSans-44" d="M 1259 4147 
L 1259 519 
L 2022 519 
Q 2988 519 3436 956 
Q 3884 1394 3884 2338 
Q 3884 3275 3436 3711 
Q 2988 4147 2022 4147 
L 1259 4147 
z
M 628 4666 
L 1925 4666 
Q 3281 4666 3915 4102 
Q 4550 3538 4550 2338 
Q 4550 1131 3912 565 
Q 3275 0 1925 0 
L 628 0 
L 628 4666 
z
" transform="scale(0.015625)"/>
       <path id="DejaVuSans-72" d="M 2631 2963 
Q 2534 3019 2420 3045 
Q 2306 3072 2169 3072 
Q 1681 3072 1420 2755 
Q 1159 2438 1159 1844 
L 1159 0 
L 581 0 
L 581 3500 
L 1159 3500 
L 1159 2956 
Q 1341 3275 1631 3429 
Q 1922 3584 2338 3584 
Q 2397 3584 2469 3576 
Q 2541 3569 2628 3553 
L 2631 2963 
z
" transform="scale(0.015625)"/>
       <path id="DejaVuSans-69" d="M 603 3500 
L 1178 3500 
L 1178 0 
L 603 0 
L 603 3500 
z
M 603 4863 
L 1178 4863 
L 1178 4134 
L 603 4134 
L 603 4863 
z
" transform="scale(0.015625)"/>
       <path id="DejaVuSans-66" d="M 2375 4863 
L 2375 4384 
L 1825 4384 
Q 1516 4384 1395 4259 
Q 1275 4134 1275 3809 
L 1275 3500 
L 2222 3500 
L 2222 3053 
L 1275 3053 
L 1275 0 
L 697 0 
L 697 3053 
L 147 3053 
L 147 3500 
L 697 3500 
L 697 3744 
Q 697 4328 969 4595 
Q 1241 4863 1831 4863 
L 2375 4863 
z
" transform="scale(0.015625)"/>
       <path id="DejaVuSans-74" d="M 1172 4494 
L 1172 3500 
L 2356 3500 
L 2356 3053 
L 1172 3053 
L 1172 1153 
Q 1172 725 1289 603 
Q 1406 481 1766 481 
L 2356 481 
L 2356 0 
L 1766 0 
Q 1100 0 847 248 
Q 594 497 594 1153 
L 594 3053 
L 172 3053 
L 172 3500 
L 594 3500 
L 594 4494 
L 1172 4494 
z
" transform="scale(0.015625)"/>
       <path id="DejaVuSans-28" d="M 1984 4856 
Q 1566 4138 1362 3434 
Q 1159 2731 1159 2009 
Q 1159 1288 1364 580 
Q 1569 -128 1984 -844 
L 1484 -844 
Q 1016 -109 783 600 
Q 550 1309 550 2009 
Q 550 2706 781 3412 
Q 1013 4119 1484 4856 
L 1984 4856 
z
" transform="scale(0.015625)"/>
       <path id="DejaVuSans-29" d="M 513 4856 
L 1013 4856 
Q 1481 4119 1714 3412 
Q 1947 2706 1947 2009 
Q 1947 1309 1714 600 
Q 1481 -109 1013 -844 
L 513 -844 
Q 928 -128 1133 580 
Q 1338 1288 1338 2009 
Q 1338 2731 1133 3434 
Q 928 4138 513 4856 
z
" transform="scale(0.015625)"/>
      </defs>
      <use xlink:href="#DejaVuSans-44"/>
      <use xlink:href="#DejaVuSans-72" x="77.001953"/>
      <use xlink:href="#DejaVuSans-69" x="118.115234"/>
      <use xlink:href="#DejaVuSans-66" x="145.898438"/>
      <use xlink:href="#DejaVuSans-74" x="179.353516"/>
      <use xlink:href="#DejaVuSans-28" x="218.5625"/>
      <use xlink:href="#DejaVuSans-58" x="257.576172"/>
      <use xlink:href="#DejaVuSans-29" x="326.082031"/>
     </g>
    </g>
   </g>
   <g id="line2d_31">
    <path d="M 203.057851 192.279312 
L 212.469219 205.391581 
L 221.880587 214.541997 
L 231.291955 220.579929 
L 240.703323 224.247411 
L 250.114691 226.185188 
L 259.526058 226.938769 
L 268.937426 226.964469 
L 278.348794 226.635463 
L 287.760162 226.24783 
L 297.17153 226.026601 
L 306.582898 226.131811 
L 315.994265 226.664542 
L 325.405633 227.672974 
L 334.817001 229.158433 
L 344.228369 231.081437 
L 353.639737 233.367748 
L 363.051105 235.914415 
L 372.462473 238.595825 
L 381.87384 241.269751 
L 391.285208 243.783401 
L 400.696576 245.979461 
L 410.107944 247.70215 
L 419.519312 248.803263 
L 428.93068 249.148222 
L 438.342048 248.622121 
L 447.753415 247.135777 
L 457.164783 244.631777 
L 466.576151 241.090525 
L 475.987519 236.536292 
L 485.398887 231.043261 
L 494.810255 224.74158 
L 504.221623 217.823404 
L 513.63299 210.548947 
L 523.044358 203.25253 
L 532.455726 196.348627 
L 541.867094 190.337916 
L 551.278462 185.813321 
L 560.68983 183.46607 
L 570.101198 184.091732 
L 579.512565 188.596273 
L 588.923933 198.002102 
L 598.335301 213.454115 
L 607.746669 236.22575 
L 617.158037 267.72503 
L 626.569405 309.500611 
L 635.980772 363.247835 
L 645.39214 430.81477 
L 654.803508 514.208267 
L 664.214876 615.6 
" clip-path="url(#p57d932e5f2)" style="fill: none; stroke: #1f77b4; stroke-width: 1.5; stroke-linecap: square"/>
   </g>
   <g id="line2d_32">
    <path d="M 203.057851 180.235736 
L 212.469219 183.476517 
L 221.880587 186.869746 
L 231.291955 190.338762 
L 240.703323 193.813269 
L 250.114691 197.22934 
L 259.526058 200.52941 
L 268.937426 203.662282 
L 278.348794 206.583126 
L 287.760162 209.253477 
L 297.17153 211.641235 
L 306.582898 213.720669 
L 315.994265 215.472409 
L 325.405633 216.883457 
L 334.817001 217.947176 
L 344.228369 218.663298 
L 353.639737 219.037921 
L 363.051105 219.083506 
L 372.462473 218.818883 
L 381.87384 218.269247 
L 391.285208 217.46616 
L 400.696576 216.447548 
L 410.107944 215.257704 
L 419.519312 213.947289 
L 428.93068 212.573325 
L 438.342048 211.199206 
L 447.753415 209.894688 
L 457.164783 208.735895 
L 466.576151 207.805314 
L 475.987519 207.191803 
L 485.398887 206.990581 
L 494.810255 207.303236 
L 504.221623 208.237722 
L 513.63299 209.908357 
L 523.044358 212.435827 
L 532.455726 215.947182 
L 541.867094 220.575841 
L 551.278462 226.461586 
L 560.68983 233.750568 
L 570.101198 242.5953 
L 579.512565 253.154664 
L 588.923933 265.593908 
L 598.335301 280.084645 
L 607.746669 296.804855 
L 617.158037 315.938882 
L 626.569405 337.677437 
L 635.980772 362.217599 
L 645.39214 389.762811 
L 654.803508 420.522882 
L 664.214876 454.713987 
" clip-path="url(#p57d932e5f2)" style="fill: none; stroke: #ff7f0e; stroke-width: 1.5; stroke-linecap: square"/>
   </g>
   <g id="line2d_33">
    <path d="M 203.057851 180.235736 
L 212.469219 183.476517 
L 221.880587 186.869746 
L 231.291955 190.338762 
L 240.703323 193.813269 
L 250.114691 197.22934 
L 259.526058 200.52941 
L 268.937426 203.662282 
L 278.348794 206.583126 
L 287.760162 209.253477 
L 297.17153 211.641235 
L 306.582898 213.720669 
L 315.994265 215.472409 
L 325.405633 216.883457 
L 334.817001 217.947176 
L 344.228369 218.663298 
L 353.639737 219.037921 
L 363.051105 219.083506 
L 372.462473 218.818883 
L 381.87384 218.269247 
L 391.285208 217.46616 
L 400.696576 216.447548 
L 410.107944 215.257704 
L 419.519312 213.947289 
L 428.93068 212.573325 
L 438.342048 211.199206 
L 447.753415 209.894688 
L 457.164783 208.735895 
L 466.576151 207.805314 
L 475.987519 207.191803 
L 485.398887 206.990581 
L 494.810255 207.303236 
L 504.221623 208.237722 
L 513.63299 209.908357 
L 523.044358 212.435827 
L 532.455726 215.947182 
L 541.867094 220.575841 
L 551.278462 226.461586 
L 560.68983 233.750568 
L 570.101198 242.5953 
L 579.512565 253.154664 
L 588.923933 265.593908 
L 598.335301 280.084645 
L 607.746669 296.804855 
L 617.158037 315.938882 
L 626.569405 337.677437 
L 635.980772 362.217599 
L 645.39214 389.762811 
L 654.803508 420.522882 
L 664.214876 454.713987 
" clip-path="url(#p57d932e5f2)" style="fill: none; stroke: #2ca02c; stroke-width: 1.5; stroke-linecap: square"/>
   </g>
   <g id="line2d_34">
    <path d="M 203.057851 180.235736 
L 212.469219 183.476517 
L 221.880587 186.869746 
L 231.291955 190.338762 
L 240.703323 193.813269 
L 250.114691 197.22934 
L 259.526058 200.52941 
L 268.937426 203.662282 
L 278.348794 206.583126 
L 287.760162 209.253477 
L 297.17153 211.641235 
L 306.582898 213.720669 
L 315.994265 215.472409 
L 325.405633 216.883457 
L 334.817001 217.947176 
L 344.228369 218.663298 
L 353.639737 219.037921 
L 363.051105 219.083506 
L 372.462473 218.818883 
L 381.87384 218.269247 
L 391.285208 217.46616 
L 400.696576 216.447548 
L 410.107944 215.257704 
L 419.519312 213.947289 
L 428.93068 212.573325 
L 438.342048 211.199206 
L 447.753415 209.894688 
L 457.164783 208.735895 
L 466.576151 207.805314 
L 475.987519 207.191803 
L 485.398887 206.990581 
L 494.810255 207.303236 
L 504.221623 208.237722 
L 513.63299 209.908357 
L 523.044358 212.435827 
L 532.455726 215.947182 
L 541.867094 220.575841 
L 551.278462 226.461586 
L 560.68983 233.750568 
L 570.101198 242.5953 
L 579.512565 253.154664 
L 588.923933 265.593908 
L 598.335301 280.084645 
L 607.746669 296.804855 
L 617.158037 315.938882 
L 626.569405 337.677437 
L 635.980772 362.217599 
L 645.39214 389.762811 
L 654.803508 420.522882 
L 664.214876 454.713987 
" clip-path="url(#p57d932e5f2)" style="fill: none; stroke: #d62728; stroke-width: 1.5; stroke-linecap: square"/>
   </g>
   <g id="line2d_35">
    <path d="M 203.057851 180.235736 
L 212.469219 183.476517 
L 221.880587 186.869746 
L 231.291955 190.338762 
L 240.703323 193.813269 
L 250.114691 197.22934 
L 259.526058 200.52941 
L 268.937426 203.662282 
L 278.348794 206.583126 
L 287.760162 209.253477 
L 297.17153 211.641235 
L 306.582898 213.720669 
L 315.994265 215.472409 
L 325.405633 216.883457 
L 334.817001 217.947176 
L 344.228369 218.663298 
L 353.639737 219.037921 
L 363.051105 219.083506 
L 372.462473 218.818883 
L 381.87384 218.269247 
L 391.285208 217.46616 
L 400.696576 216.447548 
L 410.107944 215.257704 
L 419.519312 213.947289 
L 428.93068 212.573325 
L 438.342048 211.199206 
L 447.753415 209.894688 
L 457.164783 208.735895 
L 466.576151 207.805314 
L 475.987519 207.191803 
L 485.398887 206.990581 
L 494.810255 207.303236 
L 504.221623 208.237722 
L 513.63299 209.908357 
L 523.044358 212.435827 
L 532.455726 215.947182 
L 541.867094 220.575841 
L 551.278462 226.461586 
L 560.68983 233.750568 
L 570.101198 242.5953 
L 579.512565 253.154664 
L 588.923933 265.593908 
L 598.335301 280.084645 
L 607.746669 296.804855 
L 617.158037 315.938882 
L 626.569405 337.677437 
L 635.980772 362.217599 
L 645.39214 389.762811 
L 654.803508 420.522882 
L 664.214876 454.713987 
" clip-path="url(#p57d932e5f2)" style="fill: none; stroke: #9467bd; stroke-width: 1.5; stroke-linecap: square"/>
   </g>
   <g id="line2d_36">
    <path d="M 203.057851 180.236074 
L 212.469219 183.476788 
L 221.880587 186.86996 
L 231.291955 190.338926 
L 240.703323 193.813392 
L 250.114691 197.229428 
L 259.526058 200.529469 
L 268.937426 203.662318 
L 278.348794 206.583142 
L 287.760162 209.253478 
L 297.17153 211.641224 
L 306.582898 213.720647 
L 315.994265 215.47238 
L 325.405633 216.883421 
L 334.817001 217.947135 
L 344.228369 218.663253 
L 353.639737 219.03787 
L 363.051105 219.083451 
L 372.462473 218.818824 
L 381.87384 218.269183 
L 391.285208 217.46609 
L 400.696576 216.447471 
L 410.107944 215.25762 
L 419.519312 213.947197 
L 428.93068 212.573225 
L 438.342048 211.199096 
L 447.753415 209.894568 
L 457.164783 208.735764 
L 466.576151 207.805173 
L 475.987519 207.191651 
L 485.398887 206.990419 
L 494.810255 207.303066 
L 504.221623 208.237544 
L 513.63299 209.908173 
L 523.044358 212.435639 
L 532.455726 215.946994 
L 541.867094 220.575655 
L 551.278462 226.461408 
L 560.68983 233.7504 
L 570.101198 242.59515 
L 579.512565 253.154538 
L 588.923933 265.593814 
L 598.335301 280.08459 
L 607.746669 296.804848 
L 617.158037 315.938934 
L 626.569405 337.67756 
L 635.980772 362.217804 
L 645.39214 389.763112 
L 654.803508 420.523293 
L 664.214876 454.714525 
" clip-path="url(#p57d932e5f2)" style="fill: none; stroke: #8c564b; stroke-width: 1.5; stroke-linecap: square"/>
   </g>
   <g id="line2d_37">
    <path d="M 203.057851 111.6 
L 212.469219 128.707827 
L 221.880587 143.997865 
L 231.291955 157.593136 
L 240.703323 169.613207 
L 250.114691 180.174197 
L 259.526058 189.388774 
L 268.937426 197.366155 
L 278.348794 204.212104 
L 287.760162 210.028938 
L 297.17153 214.91552 
L 306.582898 218.967265 
L 315.994265 222.276134 
L 325.405633 224.930641 
L 334.817001 227.015845 
L 344.228369 228.613358 
L 353.639737 229.801339 
L 363.051105 230.654498 
L 372.462473 231.244091 
L 381.87384 231.637926 
L 391.285208 231.90036 
L 400.696576 232.092299 
L 410.107944 232.271197 
L 419.519312 232.491059 
L 428.93068 232.802437 
L 438.342048 233.252435 
L 447.753415 233.884703 
L 457.164783 234.739444 
L 466.576151 235.853408 
L 475.987519 237.259893 
L 485.398887 238.988748 
L 494.810255 241.066371 
L 504.221623 243.51571 
L 513.63299 246.35626 
L 523.044358 249.604067 
L 532.455726 253.271726 
L 541.867094 257.368381 
L 551.278462 261.899724 
L 560.68983 266.867998 
L 570.101198 272.271995 
L 579.512565 278.107055 
L 588.923933 284.365068 
L 598.335301 291.034475 
L 607.746669 298.100262 
L 617.158037 305.543967 
L 626.569405 313.343678 
L 635.980772 321.474031 
L 645.39214 329.90621 
L 654.803508 338.607951 
L 664.214876 347.543536 
" clip-path="url(#p57d932e5f2)" style="fill: none; stroke: #e377c2; stroke-width: 1.5; stroke-linecap: square"/>
   </g>
   <g id="patch_3">
    <path d="M 180 640.8 
L 180 86.4 
" style="fill: none; stroke: #000000; stroke-width: 0.8; stroke-linejoin: miter; stroke-linecap: square"/>
   </g>
   <g id="patch_4">
    <path d="M 687.272727 640.8 
L 687.272727 86.4 
" style="fill: none; stroke: #000000; stroke-width: 0.8; stroke-linejoin: miter; stroke-linecap: square"/>
   </g>
   <g id="patch_5">
    <path d="M 180 640.8 
L 687.272727 640.8 
" style="fill: none; stroke: #000000; stroke-width: 0.8; stroke-linejoin: miter; stroke-linecap: square"/>
   </g>
   <g id="patch_6">
    <path d="M 180 86.4 
L 687.272727 86.4 
" style="fill: none; stroke: #000000; stroke-width: 0.8; stroke-linejoin: miter; stroke-linecap: square"/>
   </g>
   <g id="legend_1">
    <g id="patch_7">
     <path d="M 454.272727 472.534375 
L 673.272727 472.534375 
Q 677.272727 472.534375 677.272727 468.534375 
L 677.272727 258.665625 
Q 677.272727 254.665625 673.272727 254.665625 
L 454.272727 254.665625 
Q 450.272727 254.665625 450.272727 258.665625 
L 450.272727 468.534375 
Q 450.272727 472.534375 454.272727 472.534375 
z
" style="fill: #ffffff; opacity: 0.8; stroke: #cccccc; stroke-linejoin: miter"/>
    </g>
    <g id="line2d_38">
     <path d="M 458.272727 270.8625 
L 478.272727 270.8625 
L 498.272727 270.8625 
" style="fill: none; stroke: #1f77b4; stroke-width: 1.5; stroke-linecap: square"/>
    </g>
    <g id="text_18">
     <!-- True -->
     <g transform="translate(514.272727 277.8625)scale(0.2 -0.2)">
      <defs>
       <path id="DejaVuSans-54" d="M -19 4666 
L 3928 4666 
L 3928 4134 
L 2272 4134 
L 2272 0 
L 1638 0 
L 1638 4134 
L -19 4134 
L -19 4666 
z
" transform="scale(0.015625)"/>
       <path id="DejaVuSans-75" d="M 544 1381 
L 544 3500 
L 1119 3500 
L 1119 1403 
Q 1119 906 1312 657 
Q 1506 409 1894 409 
Q 2359 409 2629 706 
Q 2900 1003 2900 1516 
L 2900 3500 
L 3475 3500 
L 3475 0 
L 2900 0 
L 2900 538 
Q 2691 219 2414 64 
Q 2138 -91 1772 -91 
Q 1169 -91 856 284 
Q 544 659 544 1381 
z
M 1991 3584 
L 1991 3584 
z
" transform="scale(0.015625)"/>
       <path id="DejaVuSans-65" d="M 3597 1894 
L 3597 1613 
L 953 1613 
Q 991 1019 1311 708 
Q 1631 397 2203 397 
Q 2534 397 2845 478 
Q 3156 559 3463 722 
L 3463 178 
Q 3153 47 2828 -22 
Q 2503 -91 2169 -91 
Q 1331 -91 842 396 
Q 353 884 353 1716 
Q 353 2575 817 3079 
Q 1281 3584 2069 3584 
Q 2775 3584 3186 3129 
Q 3597 2675 3597 1894 
z
M 3022 2063 
Q 3016 2534 2758 2815 
Q 2500 3097 2075 3097 
Q 1594 3097 1305 2825 
Q 1016 2553 972 2059 
L 3022 2063 
z
" transform="scale(0.015625)"/>
      </defs>
      <use xlink:href="#DejaVuSans-54"/>
      <use xlink:href="#DejaVuSans-72" x="46.333984"/>
      <use xlink:href="#DejaVuSans-75" x="87.447266"/>
      <use xlink:href="#DejaVuSans-65" x="150.826172"/>
     </g>
    </g>
    <g id="line2d_39">
     <path d="M 458.272727 300.21875 
L 478.272727 300.21875 
L 498.272727 300.21875 
" style="fill: none; stroke: #ff7f0e; stroke-width: 1.5; stroke-linecap: square"/>
    </g>
    <g id="text_19">
     <!-- 1 6.2350 -->
     <g transform="translate(514.272727 307.21875)scale(0.2 -0.2)">
      <defs>
       <path id="DejaVuSans-36" d="M 2113 2584 
Q 1688 2584 1439 2293 
Q 1191 2003 1191 1497 
Q 1191 994 1439 701 
Q 1688 409 2113 409 
Q 2538 409 2786 701 
Q 3034 994 3034 1497 
Q 3034 2003 2786 2293 
Q 2538 2584 2113 2584 
z
M 3366 4563 
L 3366 3988 
Q 3128 4100 2886 4159 
Q 2644 4219 2406 4219 
Q 1781 4219 1451 3797 
Q 1122 3375 1075 2522 
Q 1259 2794 1537 2939 
Q 1816 3084 2150 3084 
Q 2853 3084 3261 2657 
Q 3669 2231 3669 1497 
Q 3669 778 3244 343 
Q 2819 -91 2113 -91 
Q 1303 -91 875 529 
Q 447 1150 447 2328 
Q 447 3434 972 4092 
Q 1497 4750 2381 4750 
Q 2619 4750 2861 4703 
Q 3103 4656 3366 4563 
z
" transform="scale(0.015625)"/>
       <path id="DejaVuSans-33" d="M 2597 2516 
Q 3050 2419 3304 2112 
Q 3559 1806 3559 1356 
Q 3559 666 3084 287 
Q 2609 -91 1734 -91 
Q 1441 -91 1130 -33 
Q 819 25 488 141 
L 488 750 
Q 750 597 1062 519 
Q 1375 441 1716 441 
Q 2309 441 2620 675 
Q 2931 909 2931 1356 
Q 2931 1769 2642 2001 
Q 2353 2234 1838 2234 
L 1294 2234 
L 1294 2753 
L 1863 2753 
Q 2328 2753 2575 2939 
Q 2822 3125 2822 3475 
Q 2822 3834 2567 4026 
Q 2313 4219 1838 4219 
Q 1578 4219 1281 4162 
Q 984 4106 628 3988 
L 628 4550 
Q 988 4650 1302 4700 
Q 1616 4750 1894 4750 
Q 2613 4750 3031 4423 
Q 3450 4097 3450 3541 
Q 3450 3153 3228 2886 
Q 3006 2619 2597 2516 
z
" transform="scale(0.015625)"/>
      </defs>
      <use xlink:href="#DejaVuSans-31"/>
      <use xlink:href="#DejaVuSans-20" x="63.623047"/>
      <use xlink:href="#DejaVuSans-36" x="95.410156"/>
      <use xlink:href="#DejaVuSans-2e" x="159.033203"/>
      <use xlink:href="#DejaVuSans-32" x="190.820312"/>
      <use xlink:href="#DejaVuSans-33" x="254.443359"/>
      <use xlink:href="#DejaVuSans-35" x="318.066406"/>
      <use xlink:href="#DejaVuSans-30" x="381.689453"/>
     </g>
    </g>
    <g id="line2d_40">
     <path d="M 458.272727 329.575 
L 478.272727 329.575 
L 498.272727 329.575 
" style="fill: none; stroke: #2ca02c; stroke-width: 1.5; stroke-linecap: square"/>
    </g>
    <g id="text_20">
     <!-- 1/n 6.2350 -->
     <g transform="translate(514.272727 336.575)scale(0.2 -0.2)">
      <defs>
       <path id="DejaVuSans-2f" d="M 1625 4666 
L 2156 4666 
L 531 -594 
L 0 -594 
L 1625 4666 
z
" transform="scale(0.015625)"/>
       <path id="DejaVuSans-6e" d="M 3513 2113 
L 3513 0 
L 2938 0 
L 2938 2094 
Q 2938 2591 2744 2837 
Q 2550 3084 2163 3084 
Q 1697 3084 1428 2787 
Q 1159 2491 1159 1978 
L 1159 0 
L 581 0 
L 581 3500 
L 1159 3500 
L 1159 2956 
Q 1366 3272 1645 3428 
Q 1925 3584 2291 3584 
Q 2894 3584 3203 3211 
Q 3513 2838 3513 2113 
z
" transform="scale(0.015625)"/>
      </defs>
      <use xlink:href="#DejaVuSans-31"/>
      <use xlink:href="#DejaVuSans-2f" x="63.623047"/>
      <use xlink:href="#DejaVuSans-6e" x="97.314453"/>
      <use xlink:href="#DejaVuSans-20" x="160.693359"/>
      <use xlink:href="#DejaVuSans-36" x="192.480469"/>
      <use xlink:href="#DejaVuSans-2e" x="256.103516"/>
      <use xlink:href="#DejaVuSans-32" x="287.890625"/>
      <use xlink:href="#DejaVuSans-33" x="351.513672"/>
      <use xlink:href="#DejaVuSans-35" x="415.136719"/>
      <use xlink:href="#DejaVuSans-30" x="478.759766"/>
     </g>
    </g>
    <g id="line2d_41">
     <path d="M 458.272727 360.575 
L 478.272727 360.575 
L 498.272727 360.575 
" style="fill: none; stroke: #d62728; stroke-width: 1.5; stroke-linecap: square"/>
    </g>
    <g id="text_21">
     <!-- $1/(n^3)$ 6.2350 -->
     <g transform="translate(514.272727 367.575)scale(0.2 -0.2)">
      <defs>
       <path id="DejaVuSans-Oblique-6e" d="M 3566 2113 
L 3156 0 
L 2578 0 
L 2988 2091 
Q 3016 2238 3031 2350 
Q 3047 2463 3047 2528 
Q 3047 2791 2881 2937 
Q 2716 3084 2419 3084 
Q 1956 3084 1622 2776 
Q 1288 2469 1184 1941 
L 800 0 
L 225 0 
L 903 3500 
L 1478 3500 
L 1363 2950 
Q 1603 3253 1940 3418 
Q 2278 3584 2650 3584 
Q 3113 3584 3367 3334 
Q 3622 3084 3622 2631 
Q 3622 2519 3608 2391 
Q 3594 2263 3566 2113 
z
" transform="scale(0.015625)"/>
      </defs>
      <use xlink:href="#DejaVuSans-31" transform="translate(0 0.765625)"/>
      <use xlink:href="#DejaVuSans-2f" transform="translate(63.623047 0.765625)"/>
      <use xlink:href="#DejaVuSans-28" transform="translate(97.314453 0.765625)"/>
      <use xlink:href="#DejaVuSans-Oblique-6e" transform="translate(136.328125 0.765625)"/>
      <use xlink:href="#DejaVuSans-33" transform="translate(204.356927 39.046875)scale(0.7)"/>
      <use xlink:href="#DejaVuSans-29" transform="translate(251.627435 0.765625)"/>
      <use xlink:href="#DejaVuSans-20" transform="translate(290.641107 0.765625)"/>
      <use xlink:href="#DejaVuSans-36" transform="translate(322.428216 0.765625)"/>
      <use xlink:href="#DejaVuSans-2e" transform="translate(386.051263 0.765625)"/>
      <use xlink:href="#DejaVuSans-32" transform="translate(412.338372 0.765625)"/>
      <use xlink:href="#DejaVuSans-33" transform="translate(475.961419 0.765625)"/>
      <use xlink:href="#DejaVuSans-35" transform="translate(539.584466 0.765625)"/>
      <use xlink:href="#DejaVuSans-30" transform="translate(603.207513 0.765625)"/>
     </g>
    </g>
    <g id="line2d_42">
     <path d="M 458.272727 391.375 
L 478.272727 391.375 
L 498.272727 391.375 
" style="fill: none; stroke: #9467bd; stroke-width: 1.5; stroke-linecap: square"/>
    </g>
    <g id="text_22">
     <!-- $1/(n^7)$ 6.2350 -->
     <g transform="translate(514.272727 398.375)scale(0.2 -0.2)">
      <defs>
       <path id="DejaVuSans-37" d="M 525 4666 
L 3525 4666 
L 3525 4397 
L 1831 0 
L 1172 0 
L 2766 4134 
L 525 4134 
L 525 4666 
z
" transform="scale(0.015625)"/>
      </defs>
      <use xlink:href="#DejaVuSans-31" transform="translate(0 0.684375)"/>
      <use xlink:href="#DejaVuSans-2f" transform="translate(63.623047 0.684375)"/>
      <use xlink:href="#DejaVuSans-28" transform="translate(97.314453 0.684375)"/>
      <use xlink:href="#DejaVuSans-Oblique-6e" transform="translate(136.328125 0.684375)"/>
      <use xlink:href="#DejaVuSans-37" transform="translate(204.356927 38.965625)scale(0.7)"/>
      <use xlink:href="#DejaVuSans-29" transform="translate(251.627435 0.684375)"/>
      <use xlink:href="#DejaVuSans-20" transform="translate(290.641107 0.684375)"/>
      <use xlink:href="#DejaVuSans-36" transform="translate(322.428216 0.684375)"/>
      <use xlink:href="#DejaVuSans-2e" transform="translate(386.051263 0.684375)"/>
      <use xlink:href="#DejaVuSans-32" transform="translate(412.338372 0.684375)"/>
      <use xlink:href="#DejaVuSans-33" transform="translate(475.961419 0.684375)"/>
      <use xlink:href="#DejaVuSans-35" transform="translate(539.584466 0.684375)"/>
      <use xlink:href="#DejaVuSans-30" transform="translate(603.207513 0.684375)"/>
     </g>
    </g>
    <g id="line2d_43">
     <path d="M 458.272727 422.375 
L 478.272727 422.375 
L 498.272727 422.375 
" style="fill: none; stroke: #8c564b; stroke-width: 1.5; stroke-linecap: square"/>
    </g>
    <g id="text_23">
     <!-- $1/(n^{12})$ 6.2350 -->
     <g transform="translate(514.272727 429.375)scale(0.2 -0.2)">
      <use xlink:href="#DejaVuSans-31" transform="translate(0 0.765625)"/>
      <use xlink:href="#DejaVuSans-2f" transform="translate(63.623047 0.765625)"/>
      <use xlink:href="#DejaVuSans-28" transform="translate(97.314453 0.765625)"/>
      <use xlink:href="#DejaVuSans-Oblique-6e" transform="translate(136.328125 0.765625)"/>
      <use xlink:href="#DejaVuSans-31" transform="translate(204.356927 39.046875)scale(0.7)"/>
      <use xlink:href="#DejaVuSans-32" transform="translate(248.89306 39.046875)scale(0.7)"/>
      <use xlink:href="#DejaVuSans-29" transform="translate(296.163568 0.765625)"/>
      <use xlink:href="#DejaVuSans-20" transform="translate(335.17724 0.765625)"/>
      <use xlink:href="#DejaVuSans-36" transform="translate(366.964349 0.765625)"/>
      <use xlink:href="#DejaVuSans-2e" transform="translate(430.587396 0.765625)"/>
      <use xlink:href="#DejaVuSans-32" transform="translate(456.874505 0.765625)"/>
      <use xlink:href="#DejaVuSans-33" transform="translate(520.497552 0.765625)"/>
      <use xlink:href="#DejaVuSans-35" transform="translate(584.120599 0.765625)"/>
      <use xlink:href="#DejaVuSans-30" transform="translate(647.743646 0.765625)"/>
     </g>
    </g>
    <g id="line2d_44">
     <path d="M 458.272727 453.375 
L 478.272727 453.375 
L 498.272727 453.375 
" style="fill: none; stroke: #e377c2; stroke-width: 1.5; stroke-linecap: square"/>
    </g>
    <g id="text_24">
     <!-- $1/(n^{20})$ 13.2114 -->
     <g transform="translate(514.272727 460.375)scale(0.2 -0.2)">
      <defs>
       <path id="DejaVuSans-34" d="M 2419 4116 
L 825 1625 
L 2419 1625 
L 2419 4116 
z
M 2253 4666 
L 3047 4666 
L 3047 1625 
L 3713 1625 
L 3713 1100 
L 3047 1100 
L 3047 0 
L 2419 0 
L 2419 1100 
L 313 1100 
L 313 1709 
L 2253 4666 
z
" transform="scale(0.015625)"/>
      </defs>
      <use xlink:href="#DejaVuSans-31" transform="translate(0 0.765625)"/>
      <use xlink:href="#DejaVuSans-2f" transform="translate(63.623047 0.765625)"/>
      <use xlink:href="#DejaVuSans-28" transform="translate(97.314453 0.765625)"/>
      <use xlink:href="#DejaVuSans-Oblique-6e" transform="translate(136.328125 0.765625)"/>
      <use xlink:href="#DejaVuSans-32" transform="translate(204.356927 39.046875)scale(0.7)"/>
      <use xlink:href="#DejaVuSans-30" transform="translate(248.89306 39.046875)scale(0.7)"/>
      <use xlink:href="#DejaVuSans-29" transform="translate(296.163568 0.765625)"/>
      <use xlink:href="#DejaVuSans-20" transform="translate(335.17724 0.765625)"/>
      <use xlink:href="#DejaVuSans-31" transform="translate(366.964349 0.765625)"/>
      <use xlink:href="#DejaVuSans-33" transform="translate(430.587396 0.765625)"/>
      <use xlink:href="#DejaVuSans-2e" transform="translate(494.210443 0.765625)"/>
      <use xlink:href="#DejaVuSans-32" transform="translate(520.497552 0.765625)"/>
      <use xlink:href="#DejaVuSans-31" transform="translate(584.120599 0.765625)"/>
      <use xlink:href="#DejaVuSans-31" transform="translate(647.743646 0.765625)"/>
      <use xlink:href="#DejaVuSans-34" transform="translate(711.366693 0.765625)"/>
     </g>
    </g>
   </g>
  </g>
  <g id="axes_2">
   <g id="patch_8">
    <path d="M 788.727273 640.8 
L 1296 640.8 
L 1296 86.4 
L 788.727273 86.4 
z
" style="fill: #ffffff"/>
   </g>
   <g id="matplotlib.axis_3">
    <g id="xtick_10">
     <g id="line2d_45">
      <path d="M 831 640.8 
L 831 86.4 
" clip-path="url(#p9efc8d0384)" style="fill: none; stroke: #b0b0b0; stroke-width: 0.8; stroke-linecap: square"/>
     </g>
     <g id="line2d_46">
      <g>
       <use xlink:href="#m0f5bc294dc" x="831" y="640.8" style="stroke: #000000; stroke-width: 0.8"/>
      </g>
     </g>
     <g id="text_25">
      <!-- 1 -->
      <g transform="translate(827.81875 655.398438)scale(0.1 -0.1)">
       <use xlink:href="#DejaVuSans-31"/>
      </g>
     </g>
    </g>
    <g id="xtick_11">
     <g id="line2d_47">
      <path d="M 915.545455 640.8 
L 915.545455 86.4 
" clip-path="url(#p9efc8d0384)" style="fill: none; stroke: #b0b0b0; stroke-width: 0.8; stroke-linecap: square"/>
     </g>
     <g id="line2d_48">
      <g>
       <use xlink:href="#m0f5bc294dc" x="915.545455" y="640.8" style="stroke: #000000; stroke-width: 0.8"/>
      </g>
     </g>
     <g id="text_26">
      <!-- 1/n -->
      <g transform="translate(907.51108 655.398438)scale(0.1 -0.1)">
       <use xlink:href="#DejaVuSans-31"/>
       <use xlink:href="#DejaVuSans-2f" x="63.623047"/>
       <use xlink:href="#DejaVuSans-6e" x="97.314453"/>
      </g>
     </g>
    </g>
    <g id="xtick_12">
     <g id="line2d_49">
      <path d="M 1000.090909 640.8 
L 1000.090909 86.4 
" clip-path="url(#p9efc8d0384)" style="fill: none; stroke: #b0b0b0; stroke-width: 0.8; stroke-linecap: square"/>
     </g>
     <g id="line2d_50">
      <g>
       <use xlink:href="#m0f5bc294dc" x="1000.090909" y="640.8" style="stroke: #000000; stroke-width: 0.8"/>
      </g>
     </g>
     <g id="text_27">
      <!-- $1/(n^3)$ -->
      <g transform="translate(985.540909 656.220312)scale(0.1 -0.1)">
       <use xlink:href="#DejaVuSans-31" transform="translate(0 0.765625)"/>
       <use xlink:href="#DejaVuSans-2f" transform="translate(63.623047 0.765625)"/>
       <use xlink:href="#DejaVuSans-28" transform="translate(97.314453 0.765625)"/>
       <use xlink:href="#DejaVuSans-Oblique-6e" transform="translate(136.328125 0.765625)"/>
       <use xlink:href="#DejaVuSans-33" transform="translate(204.356927 39.046875)scale(0.7)"/>
       <use xlink:href="#DejaVuSans-29" transform="translate(251.627435 0.765625)"/>
      </g>
     </g>
    </g>
    <g id="xtick_13">
     <g id="line2d_51">
      <path d="M 1084.636364 640.8 
L 1084.636364 86.4 
" clip-path="url(#p9efc8d0384)" style="fill: none; stroke: #b0b0b0; stroke-width: 0.8; stroke-linecap: square"/>
     </g>
     <g id="line2d_52">
      <g>
       <use xlink:href="#m0f5bc294dc" x="1084.636364" y="640.8" style="stroke: #000000; stroke-width: 0.8"/>
      </g>
     </g>
     <g id="text_28">
      <!-- $1/(n^7)$ -->
      <g transform="translate(1070.086364 656.120312)scale(0.1 -0.1)">
       <use xlink:href="#DejaVuSans-31" transform="translate(0 0.684375)"/>
       <use xlink:href="#DejaVuSans-2f" transform="translate(63.623047 0.684375)"/>
       <use xlink:href="#DejaVuSans-28" transform="translate(97.314453 0.684375)"/>
       <use xlink:href="#DejaVuSans-Oblique-6e" transform="translate(136.328125 0.684375)"/>
       <use xlink:href="#DejaVuSans-37" transform="translate(204.356927 38.965625)scale(0.7)"/>
       <use xlink:href="#DejaVuSans-29" transform="translate(251.627435 0.684375)"/>
      </g>
     </g>
    </g>
    <g id="xtick_14">
     <g id="line2d_53">
      <path d="M 1169.181818 640.8 
L 1169.181818 86.4 
" clip-path="url(#p9efc8d0384)" style="fill: none; stroke: #b0b0b0; stroke-width: 0.8; stroke-linecap: square"/>
     </g>
     <g id="line2d_54">
      <g>
       <use xlink:href="#m0f5bc294dc" x="1169.181818" y="640.8" style="stroke: #000000; stroke-width: 0.8"/>
      </g>
     </g>
     <g id="text_29">
      <!-- $1/(n^{12})$ -->
      <g transform="translate(1152.381818 656.220312)scale(0.1 -0.1)">
       <use xlink:href="#DejaVuSans-31" transform="translate(0 0.765625)"/>
       <use xlink:href="#DejaVuSans-2f" transform="translate(63.623047 0.765625)"/>
       <use xlink:href="#DejaVuSans-28" transform="translate(97.314453 0.765625)"/>
       <use xlink:href="#DejaVuSans-Oblique-6e" transform="translate(136.328125 0.765625)"/>
       <use xlink:href="#DejaVuSans-31" transform="translate(204.356927 39.046875)scale(0.7)"/>
       <use xlink:href="#DejaVuSans-32" transform="translate(248.89306 39.046875)scale(0.7)"/>
       <use xlink:href="#DejaVuSans-29" transform="translate(296.163568 0.765625)"/>
      </g>
     </g>
    </g>
    <g id="xtick_15">
     <g id="line2d_55">
      <path d="M 1253.727273 640.8 
L 1253.727273 86.4 
" clip-path="url(#p9efc8d0384)" style="fill: none; stroke: #b0b0b0; stroke-width: 0.8; stroke-linecap: square"/>
     </g>
     <g id="line2d_56">
      <g>
       <use xlink:href="#m0f5bc294dc" x="1253.727273" y="640.8" style="stroke: #000000; stroke-width: 0.8"/>
      </g>
     </g>
     <g id="text_30">
      <!-- $1/(n^{20})$ -->
      <g transform="translate(1236.927273 656.220312)scale(0.1 -0.1)">
       <use xlink:href="#DejaVuSans-31" transform="translate(0 0.765625)"/>
       <use xlink:href="#DejaVuSans-2f" transform="translate(63.623047 0.765625)"/>
       <use xlink:href="#DejaVuSans-28" transform="translate(97.314453 0.765625)"/>
       <use xlink:href="#DejaVuSans-Oblique-6e" transform="translate(136.328125 0.765625)"/>
       <use xlink:href="#DejaVuSans-32" transform="translate(204.356927 39.046875)scale(0.7)"/>
       <use xlink:href="#DejaVuSans-30" transform="translate(248.89306 39.046875)scale(0.7)"/>
       <use xlink:href="#DejaVuSans-29" transform="translate(296.163568 0.765625)"/>
      </g>
     </g>
    </g>
    <g id="text_31">
     <!-- L -->
     <g transform="translate(1039.577699 669.898438)scale(0.1 -0.1)">
      <defs>
       <path id="DejaVuSans-4c" d="M 628 4666 
L 1259 4666 
L 1259 531 
L 3531 531 
L 3531 0 
L 628 0 
L 628 4666 
z
" transform="scale(0.015625)"/>
      </defs>
      <use xlink:href="#DejaVuSans-4c"/>
     </g>
    </g>
   </g>
   <g id="matplotlib.axis_4">
    <g id="ytick_7">
     <g id="line2d_57">
      <path d="M 788.727273 632.577256 
L 1296 632.577256 
" clip-path="url(#p9efc8d0384)" style="fill: none; stroke: #b0b0b0; stroke-width: 0.8; stroke-linecap: square"/>
     </g>
     <g id="line2d_58">
      <g>
       <use xlink:href="#m90b55269aa" x="788.727273" y="632.577256" style="stroke: #000000; stroke-width: 0.8"/>
      </g>
     </g>
     <g id="text_32">
      <!-- 6 -->
      <g transform="translate(775.364773 636.376475)scale(0.1 -0.1)">
       <use xlink:href="#DejaVuSans-36"/>
      </g>
     </g>
    </g>
    <g id="ytick_8">
     <g id="line2d_59">
      <path d="M 788.727273 560.333313 
L 1296 560.333313 
" clip-path="url(#p9efc8d0384)" style="fill: none; stroke: #b0b0b0; stroke-width: 0.8; stroke-linecap: square"/>
     </g>
     <g id="line2d_60">
      <g>
       <use xlink:href="#m90b55269aa" x="788.727273" y="560.333313" style="stroke: #000000; stroke-width: 0.8"/>
      </g>
     </g>
     <g id="text_33">
      <!-- 7 -->
      <g transform="translate(775.364773 564.132531)scale(0.1 -0.1)">
       <use xlink:href="#DejaVuSans-37"/>
      </g>
     </g>
    </g>
    <g id="ytick_9">
     <g id="line2d_61">
      <path d="M 788.727273 488.089369 
L 1296 488.089369 
" clip-path="url(#p9efc8d0384)" style="fill: none; stroke: #b0b0b0; stroke-width: 0.8; stroke-linecap: square"/>
     </g>
     <g id="line2d_62">
      <g>
       <use xlink:href="#m90b55269aa" x="788.727273" y="488.089369" style="stroke: #000000; stroke-width: 0.8"/>
      </g>
     </g>
     <g id="text_34">
      <!-- 8 -->
      <g transform="translate(775.364773 491.888588)scale(0.1 -0.1)">
       <defs>
        <path id="DejaVuSans-38" d="M 2034 2216 
Q 1584 2216 1326 1975 
Q 1069 1734 1069 1313 
Q 1069 891 1326 650 
Q 1584 409 2034 409 
Q 2484 409 2743 651 
Q 3003 894 3003 1313 
Q 3003 1734 2745 1975 
Q 2488 2216 2034 2216 
z
M 1403 2484 
Q 997 2584 770 2862 
Q 544 3141 544 3541 
Q 544 4100 942 4425 
Q 1341 4750 2034 4750 
Q 2731 4750 3128 4425 
Q 3525 4100 3525 3541 
Q 3525 3141 3298 2862 
Q 3072 2584 2669 2484 
Q 3125 2378 3379 2068 
Q 3634 1759 3634 1313 
Q 3634 634 3220 271 
Q 2806 -91 2034 -91 
Q 1263 -91 848 271 
Q 434 634 434 1313 
Q 434 1759 690 2068 
Q 947 2378 1403 2484 
z
M 1172 3481 
Q 1172 3119 1398 2916 
Q 1625 2713 2034 2713 
Q 2441 2713 2670 2916 
Q 2900 3119 2900 3481 
Q 2900 3844 2670 4047 
Q 2441 4250 2034 4250 
Q 1625 4250 1398 4047 
Q 1172 3844 1172 3481 
z
" transform="scale(0.015625)"/>
       </defs>
       <use xlink:href="#DejaVuSans-38"/>
      </g>
     </g>
    </g>
    <g id="ytick_10">
     <g id="line2d_63">
      <path d="M 788.727273 415.845425 
L 1296 415.845425 
" clip-path="url(#p9efc8d0384)" style="fill: none; stroke: #b0b0b0; stroke-width: 0.8; stroke-linecap: square"/>
     </g>
     <g id="line2d_64">
      <g>
       <use xlink:href="#m90b55269aa" x="788.727273" y="415.845425" style="stroke: #000000; stroke-width: 0.8"/>
      </g>
     </g>
     <g id="text_35">
      <!-- 9 -->
      <g transform="translate(775.364773 419.644644)scale(0.1 -0.1)">
       <defs>
        <path id="DejaVuSans-39" d="M 703 97 
L 703 672 
Q 941 559 1184 500 
Q 1428 441 1663 441 
Q 2288 441 2617 861 
Q 2947 1281 2994 2138 
Q 2813 1869 2534 1725 
Q 2256 1581 1919 1581 
Q 1219 1581 811 2004 
Q 403 2428 403 3163 
Q 403 3881 828 4315 
Q 1253 4750 1959 4750 
Q 2769 4750 3195 4129 
Q 3622 3509 3622 2328 
Q 3622 1225 3098 567 
Q 2575 -91 1691 -91 
Q 1453 -91 1209 -44 
Q 966 3 703 97 
z
M 1959 2075 
Q 2384 2075 2632 2365 
Q 2881 2656 2881 3163 
Q 2881 3666 2632 3958 
Q 2384 4250 1959 4250 
Q 1534 4250 1286 3958 
Q 1038 3666 1038 3163 
Q 1038 2656 1286 2365 
Q 1534 2075 1959 2075 
z
" transform="scale(0.015625)"/>
       </defs>
       <use xlink:href="#DejaVuSans-39"/>
      </g>
     </g>
    </g>
    <g id="ytick_11">
     <g id="line2d_65">
      <path d="M 788.727273 343.601481 
L 1296 343.601481 
" clip-path="url(#p9efc8d0384)" style="fill: none; stroke: #b0b0b0; stroke-width: 0.8; stroke-linecap: square"/>
     </g>
     <g id="line2d_66">
      <g>
       <use xlink:href="#m90b55269aa" x="788.727273" y="343.601481" style="stroke: #000000; stroke-width: 0.8"/>
      </g>
     </g>
     <g id="text_36">
      <!-- 10 -->
      <g transform="translate(769.002273 347.4007)scale(0.1 -0.1)">
       <use xlink:href="#DejaVuSans-31"/>
       <use xlink:href="#DejaVuSans-30" x="63.623047"/>
      </g>
     </g>
    </g>
    <g id="ytick_12">
     <g id="line2d_67">
      <path d="M 788.727273 271.357537 
L 1296 271.357537 
" clip-path="url(#p9efc8d0384)" style="fill: none; stroke: #b0b0b0; stroke-width: 0.8; stroke-linecap: square"/>
     </g>
     <g id="line2d_68">
      <g>
       <use xlink:href="#m90b55269aa" x="788.727273" y="271.357537" style="stroke: #000000; stroke-width: 0.8"/>
      </g>
     </g>
     <g id="text_37">
      <!-- 11 -->
      <g transform="translate(769.002273 275.156756)scale(0.1 -0.1)">
       <use xlink:href="#DejaVuSans-31"/>
       <use xlink:href="#DejaVuSans-31" x="63.623047"/>
      </g>
     </g>
    </g>
    <g id="ytick_13">
     <g id="line2d_69">
      <path d="M 788.727273 199.113594 
L 1296 199.113594 
" clip-path="url(#p9efc8d0384)" style="fill: none; stroke: #b0b0b0; stroke-width: 0.8; stroke-linecap: square"/>
     </g>
     <g id="line2d_70">
      <g>
       <use xlink:href="#m90b55269aa" x="788.727273" y="199.113594" style="stroke: #000000; stroke-width: 0.8"/>
      </g>
     </g>
     <g id="text_38">
      <!-- 12 -->
      <g transform="translate(769.002273 202.912812)scale(0.1 -0.1)">
       <use xlink:href="#DejaVuSans-31"/>
       <use xlink:href="#DejaVuSans-32" x="63.623047"/>
      </g>
     </g>
    </g>
    <g id="ytick_14">
     <g id="line2d_71">
      <path d="M 788.727273 126.86965 
L 1296 126.86965 
" clip-path="url(#p9efc8d0384)" style="fill: none; stroke: #b0b0b0; stroke-width: 0.8; stroke-linecap: square"/>
     </g>
     <g id="line2d_72">
      <g>
       <use xlink:href="#m90b55269aa" x="788.727273" y="126.86965" style="stroke: #000000; stroke-width: 0.8"/>
      </g>
     </g>
     <g id="text_39">
      <!-- 13 -->
      <g transform="translate(769.002273 130.668869)scale(0.1 -0.1)">
       <use xlink:href="#DejaVuSans-31"/>
       <use xlink:href="#DejaVuSans-33" x="63.623047"/>
      </g>
     </g>
    </g>
    <g id="text_40">
     <!-- Error -->
     <g transform="translate(762.922585 375.785156)rotate(-90)scale(0.1 -0.1)">
      <defs>
       <path id="DejaVuSans-45" d="M 628 4666 
L 3578 4666 
L 3578 4134 
L 1259 4134 
L 1259 2753 
L 3481 2753 
L 3481 2222 
L 1259 2222 
L 1259 531 
L 3634 531 
L 3634 0 
L 628 0 
L 628 4666 
z
" transform="scale(0.015625)"/>
       <path id="DejaVuSans-6f" d="M 1959 3097 
Q 1497 3097 1228 2736 
Q 959 2375 959 1747 
Q 959 1119 1226 758 
Q 1494 397 1959 397 
Q 2419 397 2687 759 
Q 2956 1122 2956 1747 
Q 2956 2369 2687 2733 
Q 2419 3097 1959 3097 
z
M 1959 3584 
Q 2709 3584 3137 3096 
Q 3566 2609 3566 1747 
Q 3566 888 3137 398 
Q 2709 -91 1959 -91 
Q 1206 -91 779 398 
Q 353 888 353 1747 
Q 353 2609 779 3096 
Q 1206 3584 1959 3584 
z
" transform="scale(0.015625)"/>
      </defs>
      <use xlink:href="#DejaVuSans-45"/>
      <use xlink:href="#DejaVuSans-72" x="63.183594"/>
      <use xlink:href="#DejaVuSans-72" x="102.546875"/>
      <use xlink:href="#DejaVuSans-6f" x="141.410156"/>
      <use xlink:href="#DejaVuSans-72" x="202.591797"/>
     </g>
    </g>
   </g>
   <g id="line2d_73">
    <path d="M 809.863636 615.598598 
L 852.136364 615.598598 
L 852.136364 615.598598 
L 809.863636 615.598598 
L 809.863636 615.598598 
" clip-path="url(#p9efc8d0384)" style="fill: none; stroke: #000000; stroke-linecap: square"/>
   </g>
   <g id="line2d_74">
    <path d="M 831 615.598598 
L 831 615.598598 
" clip-path="url(#p9efc8d0384)" style="fill: none; stroke: #000000; stroke-linecap: square"/>
   </g>
   <g id="line2d_75">
    <path d="M 831 615.598598 
L 831 615.598598 
" clip-path="url(#p9efc8d0384)" style="fill: none; stroke: #000000; stroke-linecap: square"/>
   </g>
   <g id="line2d_76">
    <path d="M 820.431818 615.598598 
L 841.568182 615.598598 
" clip-path="url(#p9efc8d0384)" style="fill: none; stroke: #000000; stroke-linecap: square"/>
   </g>
   <g id="line2d_77">
    <path d="M 820.431818 615.598598 
L 841.568182 615.598598 
" clip-path="url(#p9efc8d0384)" style="fill: none; stroke: #000000; stroke-linecap: square"/>
   </g>
   <g id="line2d_78"/>
   <g id="line2d_79">
    <path d="M 894.409091 615.598598 
L 936.681818 615.598598 
L 936.681818 615.598598 
L 894.409091 615.598598 
L 894.409091 615.598598 
" clip-path="url(#p9efc8d0384)" style="fill: none; stroke: #000000; stroke-linecap: square"/>
   </g>
   <g id="line2d_80">
    <path d="M 915.545455 615.598598 
L 915.545455 615.598598 
" clip-path="url(#p9efc8d0384)" style="fill: none; stroke: #000000; stroke-linecap: square"/>
   </g>
   <g id="line2d_81">
    <path d="M 915.545455 615.598598 
L 915.545455 615.598598 
" clip-path="url(#p9efc8d0384)" style="fill: none; stroke: #000000; stroke-linecap: square"/>
   </g>
   <g id="line2d_82">
    <path d="M 904.977273 615.598598 
L 926.113636 615.598598 
" clip-path="url(#p9efc8d0384)" style="fill: none; stroke: #000000; stroke-linecap: square"/>
   </g>
   <g id="line2d_83">
    <path d="M 904.977273 615.598598 
L 926.113636 615.598598 
" clip-path="url(#p9efc8d0384)" style="fill: none; stroke: #000000; stroke-linecap: square"/>
   </g>
   <g id="line2d_84"/>
   <g id="line2d_85">
    <path d="M 978.954545 615.598598 
L 1021.227273 615.598598 
L 1021.227273 615.598598 
L 978.954545 615.598598 
L 978.954545 615.598598 
" clip-path="url(#p9efc8d0384)" style="fill: none; stroke: #000000; stroke-linecap: square"/>
   </g>
   <g id="line2d_86">
    <path d="M 1000.090909 615.598598 
L 1000.090909 615.598598 
" clip-path="url(#p9efc8d0384)" style="fill: none; stroke: #000000; stroke-linecap: square"/>
   </g>
   <g id="line2d_87">
    <path d="M 1000.090909 615.598598 
L 1000.090909 615.598598 
" clip-path="url(#p9efc8d0384)" style="fill: none; stroke: #000000; stroke-linecap: square"/>
   </g>
   <g id="line2d_88">
    <path d="M 989.522727 615.598598 
L 1010.659091 615.598598 
" clip-path="url(#p9efc8d0384)" style="fill: none; stroke: #000000; stroke-linecap: square"/>
   </g>
   <g id="line2d_89">
    <path d="M 989.522727 615.598598 
L 1010.659091 615.598598 
" clip-path="url(#p9efc8d0384)" style="fill: none; stroke: #000000; stroke-linecap: square"/>
   </g>
   <g id="line2d_90"/>
   <g id="line2d_91">
    <path d="M 1063.5 615.598598 
L 1105.772727 615.598598 
L 1105.772727 615.598598 
L 1063.5 615.598598 
L 1063.5 615.598598 
" clip-path="url(#p9efc8d0384)" style="fill: none; stroke: #000000; stroke-linecap: square"/>
   </g>
   <g id="line2d_92">
    <path d="M 1084.636364 615.598598 
L 1084.636364 615.598598 
" clip-path="url(#p9efc8d0384)" style="fill: none; stroke: #000000; stroke-linecap: square"/>
   </g>
   <g id="line2d_93">
    <path d="M 1084.636364 615.598598 
L 1084.636364 615.598598 
" clip-path="url(#p9efc8d0384)" style="fill: none; stroke: #000000; stroke-linecap: square"/>
   </g>
   <g id="line2d_94">
    <path d="M 1074.068182 615.598598 
L 1095.204545 615.598598 
" clip-path="url(#p9efc8d0384)" style="fill: none; stroke: #000000; stroke-linecap: square"/>
   </g>
   <g id="line2d_95">
    <path d="M 1074.068182 615.598598 
L 1095.204545 615.598598 
" clip-path="url(#p9efc8d0384)" style="fill: none; stroke: #000000; stroke-linecap: square"/>
   </g>
   <g id="line2d_96"/>
   <g id="line2d_97">
    <path d="M 1148.045455 615.6 
L 1190.318182 615.6 
L 1190.318182 615.6 
L 1148.045455 615.6 
L 1148.045455 615.6 
" clip-path="url(#p9efc8d0384)" style="fill: none; stroke: #000000; stroke-linecap: square"/>
   </g>
   <g id="line2d_98">
    <path d="M 1169.181818 615.6 
L 1169.181818 615.6 
" clip-path="url(#p9efc8d0384)" style="fill: none; stroke: #000000; stroke-linecap: square"/>
   </g>
   <g id="line2d_99">
    <path d="M 1169.181818 615.6 
L 1169.181818 615.6 
" clip-path="url(#p9efc8d0384)" style="fill: none; stroke: #000000; stroke-linecap: square"/>
   </g>
   <g id="line2d_100">
    <path d="M 1158.613636 615.6 
L 1179.75 615.6 
" clip-path="url(#p9efc8d0384)" style="fill: none; stroke: #000000; stroke-linecap: square"/>
   </g>
   <g id="line2d_101">
    <path d="M 1158.613636 615.6 
L 1179.75 615.6 
" clip-path="url(#p9efc8d0384)" style="fill: none; stroke: #000000; stroke-linecap: square"/>
   </g>
   <g id="line2d_102"/>
   <g id="line2d_103">
    <path d="M 1232.590909 111.6 
L 1274.863636 111.6 
L 1274.863636 111.6 
L 1232.590909 111.6 
L 1232.590909 111.6 
" clip-path="url(#p9efc8d0384)" style="fill: none; stroke: #000000; stroke-linecap: square"/>
   </g>
   <g id="line2d_104">
    <path d="M 1253.727273 111.6 
L 1253.727273 111.6 
" clip-path="url(#p9efc8d0384)" style="fill: none; stroke: #000000; stroke-linecap: square"/>
   </g>
   <g id="line2d_105">
    <path d="M 1253.727273 111.6 
L 1253.727273 111.6 
" clip-path="url(#p9efc8d0384)" style="fill: none; stroke: #000000; stroke-linecap: square"/>
   </g>
   <g id="line2d_106">
    <path d="M 1243.159091 111.6 
L 1264.295455 111.6 
" clip-path="url(#p9efc8d0384)" style="fill: none; stroke: #000000; stroke-linecap: square"/>
   </g>
   <g id="line2d_107">
    <path d="M 1243.159091 111.6 
L 1264.295455 111.6 
" clip-path="url(#p9efc8d0384)" style="fill: none; stroke: #000000; stroke-linecap: square"/>
   </g>
   <g id="line2d_108"/>
   <g id="line2d_109">
    <path d="M 809.863636 615.598598 
L 852.136364 615.598598 
" clip-path="url(#p9efc8d0384)" style="fill: none; stroke: #ff7f0e; stroke-linecap: square"/>
   </g>
   <g id="line2d_110">
    <path d="M 894.409091 615.598598 
L 936.681818 615.598598 
" clip-path="url(#p9efc8d0384)" style="fill: none; stroke: #ff7f0e; stroke-linecap: square"/>
   </g>
   <g id="line2d_111">
    <path d="M 978.954545 615.598598 
L 1021.227273 615.598598 
" clip-path="url(#p9efc8d0384)" style="fill: none; stroke: #ff7f0e; stroke-linecap: square"/>
   </g>
   <g id="line2d_112">
    <path d="M 1063.5 615.598598 
L 1105.772727 615.598598 
" clip-path="url(#p9efc8d0384)" style="fill: none; stroke: #ff7f0e; stroke-linecap: square"/>
   </g>
   <g id="line2d_113">
    <path d="M 1148.045455 615.6 
L 1190.318182 615.6 
" clip-path="url(#p9efc8d0384)" style="fill: none; stroke: #ff7f0e; stroke-linecap: square"/>
   </g>
   <g id="line2d_114">
    <path d="M 1232.590909 111.6 
L 1274.863636 111.6 
" clip-path="url(#p9efc8d0384)" style="fill: none; stroke: #ff7f0e; stroke-linecap: square"/>
   </g>
   <g id="patch_9">
    <path d="M 788.727273 640.8 
L 788.727273 86.4 
" style="fill: none; stroke: #000000; stroke-width: 0.8; stroke-linejoin: miter; stroke-linecap: square"/>
   </g>
   <g id="patch_10">
    <path d="M 1296 640.8 
L 1296 86.4 
" style="fill: none; stroke: #000000; stroke-width: 0.8; stroke-linejoin: miter; stroke-linecap: square"/>
   </g>
   <g id="patch_11">
    <path d="M 788.727273 640.8 
L 1296 640.8 
" style="fill: none; stroke: #000000; stroke-width: 0.8; stroke-linejoin: miter; stroke-linecap: square"/>
   </g>
   <g id="patch_12">
    <path d="M 788.727273 86.4 
L 1296 86.4 
" style="fill: none; stroke: #000000; stroke-width: 0.8; stroke-linejoin: miter; stroke-linecap: square"/>
   </g>
  </g>
 </g>
 <defs>
  <clipPath id="p57d932e5f2">
   <rect x="180" y="86.4" width="507.272727" height="554.4"/>
  </clipPath>
  <clipPath id="p9efc8d0384">
   <rect x="788.727273" y="86.4" width="507.272727" height="554.4"/>
  </clipPath>
 </defs>
</svg>
