<?xml version="1.0" encoding="utf-8" standalone="no"?>
<!DOCTYPE svg PUBLIC "-//W3C//DTD SVG 1.1//EN"
  "http://www.w3.org/Graphics/SVG/1.1/DTD/svg11.dtd">
<svg xmlns:xlink="http://www.w3.org/1999/xlink" width="1440pt" height="720pt" viewBox="0 0 1440 720" xmlns="http://www.w3.org/2000/svg" version="1.1">
 <metadata>
  <rdf:RDF xmlns:dc="http://purl.org/dc/elements/1.1/" xmlns:cc="http://creativecommons.org/ns#" xmlns:rdf="http://www.w3.org/1999/02/22-rdf-syntax-ns#">
   <cc:Work>
    <dc:type rdf:resource="http://purl.org/dc/dcmitype/StillImage"/>
    <dc:date>2022-11-27T01:19:20.889680</dc:date>
    <dc:format>image/svg+xml</dc:format>
    <dc:creator>
     <cc:Agent>
      <dc:title>Matplotlib v3.5.1, https://matplotlib.org/</dc:title>
     </cc:Agent>
    </dc:creator>
   </cc:Work>
  </rdf:RDF>
 </metadata>
 <defs>
  <style type="text/css">*{stroke-linejoin: round; stroke-linecap: butt}</style>
 </defs>
 <g id="figure_1">
  <g id="patch_1">
   <path d="M 0 720 
L 1440 720 
L 1440 0 
L 0 0 
z
" style="fill: #ffffff"/>
  </g>
  <g id="axes_1">
   <g id="patch_2">
    <path d="M 180 640.8 
L 687.272727 640.8 
L 687.272727 86.4 
L 180 86.4 
z
" style="fill: #ffffff"/>
   </g>
   <g id="matplotlib.axis_1">
    <g id="xtick_1">
     <g id="line2d_1">
      <path d="M 193.705708 640.8 
L 193.705708 86.4 
" clip-path="url(#pf4bd12135d)" style="fill: none; stroke: #b0b0b0; stroke-width: 0.8; stroke-linecap: square"/>
     </g>
     <g id="line2d_2">
      <defs>
       <path id="m9bcbde73d1" d="M 0 0 
L 0 3.5 
" style="stroke: #000000; stroke-width: 0.8"/>
      </defs>
      <g>
       <use xlink:href="#m9bcbde73d1" x="193.705708" y="640.8" style="stroke: #000000; stroke-width: 0.8"/>
      </g>
     </g>
     <g id="text_1">
      <!-- −1.5 -->
      <g transform="translate(181.564301 655.398438)scale(0.1 -0.1)">
       <defs>
        <path id="DejaVuSans-2212" d="M 678 2272 
L 4684 2272 
L 4684 1741 
L 678 1741 
L 678 2272 
z
" transform="scale(0.015625)"/>
        <path id="DejaVuSans-31" d="M 794 531 
L 1825 531 
L 1825 4091 
L 703 3866 
L 703 4441 
L 1819 4666 
L 2450 4666 
L 2450 531 
L 3481 531 
L 3481 0 
L 794 0 
L 794 531 
z
" transform="scale(0.015625)"/>
        <path id="DejaVuSans-2e" d="M 684 794 
L 1344 794 
L 1344 0 
L 684 0 
L 684 794 
z
" transform="scale(0.015625)"/>
        <path id="DejaVuSans-35" d="M 691 4666 
L 3169 4666 
L 3169 4134 
L 1269 4134 
L 1269 2991 
Q 1406 3038 1543 3061 
Q 1681 3084 1819 3084 
Q 2600 3084 3056 2656 
Q 3513 2228 3513 1497 
Q 3513 744 3044 326 
Q 2575 -91 1722 -91 
Q 1428 -91 1123 -41 
Q 819 9 494 109 
L 494 744 
Q 775 591 1075 516 
Q 1375 441 1709 441 
Q 2250 441 2565 725 
Q 2881 1009 2881 1497 
Q 2881 1984 2565 2268 
Q 2250 2553 1709 2553 
Q 1456 2553 1204 2497 
Q 953 2441 691 2322 
L 691 4666 
z
" transform="scale(0.015625)"/>
       </defs>
       <use xlink:href="#DejaVuSans-2212"/>
       <use xlink:href="#DejaVuSans-31" x="83.789062"/>
       <use xlink:href="#DejaVuSans-2e" x="147.412109"/>
       <use xlink:href="#DejaVuSans-35" x="179.199219"/>
      </g>
     </g>
    </g>
    <g id="xtick_2">
     <g id="line2d_3">
      <path d="M 253.571566 640.8 
L 253.571566 86.4 
" clip-path="url(#pf4bd12135d)" style="fill: none; stroke: #b0b0b0; stroke-width: 0.8; stroke-linecap: square"/>
     </g>
     <g id="line2d_4">
      <g>
       <use xlink:href="#m9bcbde73d1" x="253.571566" y="640.8" style="stroke: #000000; stroke-width: 0.8"/>
      </g>
     </g>
     <g id="text_2">
      <!-- −1.0 -->
      <g transform="translate(241.43016 655.398438)scale(0.1 -0.1)">
       <defs>
        <path id="DejaVuSans-30" d="M 2034 4250 
Q 1547 4250 1301 3770 
Q 1056 3291 1056 2328 
Q 1056 1369 1301 889 
Q 1547 409 2034 409 
Q 2525 409 2770 889 
Q 3016 1369 3016 2328 
Q 3016 3291 2770 3770 
Q 2525 4250 2034 4250 
z
M 2034 4750 
Q 2819 4750 3233 4129 
Q 3647 3509 3647 2328 
Q 3647 1150 3233 529 
Q 2819 -91 2034 -91 
Q 1250 -91 836 529 
Q 422 1150 422 2328 
Q 422 3509 836 4129 
Q 1250 4750 2034 4750 
z
" transform="scale(0.015625)"/>
       </defs>
       <use xlink:href="#DejaVuSans-2212"/>
       <use xlink:href="#DejaVuSans-31" x="83.789062"/>
       <use xlink:href="#DejaVuSans-2e" x="147.412109"/>
       <use xlink:href="#DejaVuSans-30" x="179.199219"/>
      </g>
     </g>
    </g>
    <g id="xtick_3">
     <g id="line2d_5">
      <path d="M 313.437425 640.8 
L 313.437425 86.4 
" clip-path="url(#pf4bd12135d)" style="fill: none; stroke: #b0b0b0; stroke-width: 0.8; stroke-linecap: square"/>
     </g>
     <g id="line2d_6">
      <g>
       <use xlink:href="#m9bcbde73d1" x="313.437425" y="640.8" style="stroke: #000000; stroke-width: 0.8"/>
      </g>
     </g>
     <g id="text_3">
      <!-- −0.5 -->
      <g transform="translate(301.296019 655.398438)scale(0.1 -0.1)">
       <use xlink:href="#DejaVuSans-2212"/>
       <use xlink:href="#DejaVuSans-30" x="83.789062"/>
       <use xlink:href="#DejaVuSans-2e" x="147.412109"/>
       <use xlink:href="#DejaVuSans-35" x="179.199219"/>
      </g>
     </g>
    </g>
    <g id="xtick_4">
     <g id="line2d_7">
      <path d="M 373.303284 640.8 
L 373.303284 86.4 
" clip-path="url(#pf4bd12135d)" style="fill: none; stroke: #b0b0b0; stroke-width: 0.8; stroke-linecap: square"/>
     </g>
     <g id="line2d_8">
      <g>
       <use xlink:href="#m9bcbde73d1" x="373.303284" y="640.8" style="stroke: #000000; stroke-width: 0.8"/>
      </g>
     </g>
     <g id="text_4">
      <!-- 0.0 -->
      <g transform="translate(365.351721 655.398438)scale(0.1 -0.1)">
       <use xlink:href="#DejaVuSans-30"/>
       <use xlink:href="#DejaVuSans-2e" x="63.623047"/>
       <use xlink:href="#DejaVuSans-30" x="95.410156"/>
      </g>
     </g>
    </g>
    <g id="xtick_5">
     <g id="line2d_9">
      <path d="M 433.169142 640.8 
L 433.169142 86.4 
" clip-path="url(#pf4bd12135d)" style="fill: none; stroke: #b0b0b0; stroke-width: 0.8; stroke-linecap: square"/>
     </g>
     <g id="line2d_10">
      <g>
       <use xlink:href="#m9bcbde73d1" x="433.169142" y="640.8" style="stroke: #000000; stroke-width: 0.8"/>
      </g>
     </g>
     <g id="text_5">
      <!-- 0.5 -->
      <g transform="translate(425.21758 655.398438)scale(0.1 -0.1)">
       <use xlink:href="#DejaVuSans-30"/>
       <use xlink:href="#DejaVuSans-2e" x="63.623047"/>
       <use xlink:href="#DejaVuSans-35" x="95.410156"/>
      </g>
     </g>
    </g>
    <g id="xtick_6">
     <g id="line2d_11">
      <path d="M 493.035001 640.8 
L 493.035001 86.4 
" clip-path="url(#pf4bd12135d)" style="fill: none; stroke: #b0b0b0; stroke-width: 0.8; stroke-linecap: square"/>
     </g>
     <g id="line2d_12">
      <g>
       <use xlink:href="#m9bcbde73d1" x="493.035001" y="640.8" style="stroke: #000000; stroke-width: 0.8"/>
      </g>
     </g>
     <g id="text_6">
      <!-- 1.0 -->
      <g transform="translate(485.083439 655.398438)scale(0.1 -0.1)">
       <use xlink:href="#DejaVuSans-31"/>
       <use xlink:href="#DejaVuSans-2e" x="63.623047"/>
       <use xlink:href="#DejaVuSans-30" x="95.410156"/>
      </g>
     </g>
    </g>
    <g id="xtick_7">
     <g id="line2d_13">
      <path d="M 552.90086 640.8 
L 552.90086 86.4 
" clip-path="url(#pf4bd12135d)" style="fill: none; stroke: #b0b0b0; stroke-width: 0.8; stroke-linecap: square"/>
     </g>
     <g id="line2d_14">
      <g>
       <use xlink:href="#m9bcbde73d1" x="552.90086" y="640.8" style="stroke: #000000; stroke-width: 0.8"/>
      </g>
     </g>
     <g id="text_7">
      <!-- 1.5 -->
      <g transform="translate(544.949297 655.398438)scale(0.1 -0.1)">
       <use xlink:href="#DejaVuSans-31"/>
       <use xlink:href="#DejaVuSans-2e" x="63.623047"/>
       <use xlink:href="#DejaVuSans-35" x="95.410156"/>
      </g>
     </g>
    </g>
    <g id="xtick_8">
     <g id="line2d_15">
      <path d="M 612.766718 640.8 
L 612.766718 86.4 
" clip-path="url(#pf4bd12135d)" style="fill: none; stroke: #b0b0b0; stroke-width: 0.8; stroke-linecap: square"/>
     </g>
     <g id="line2d_16">
      <g>
       <use xlink:href="#m9bcbde73d1" x="612.766718" y="640.8" style="stroke: #000000; stroke-width: 0.8"/>
      </g>
     </g>
     <g id="text_8">
      <!-- 2.0 -->
      <g transform="translate(604.815156 655.398438)scale(0.1 -0.1)">
       <defs>
        <path id="DejaVuSans-32" d="M 1228 531 
L 3431 531 
L 3431 0 
L 469 0 
L 469 531 
Q 828 903 1448 1529 
Q 2069 2156 2228 2338 
Q 2531 2678 2651 2914 
Q 2772 3150 2772 3378 
Q 2772 3750 2511 3984 
Q 2250 4219 1831 4219 
Q 1534 4219 1204 4116 
Q 875 4013 500 3803 
L 500 4441 
Q 881 4594 1212 4672 
Q 1544 4750 1819 4750 
Q 2544 4750 2975 4387 
Q 3406 4025 3406 3419 
Q 3406 3131 3298 2873 
Q 3191 2616 2906 2266 
Q 2828 2175 2409 1742 
Q 1991 1309 1228 531 
z
" transform="scale(0.015625)"/>
       </defs>
       <use xlink:href="#DejaVuSans-32"/>
       <use xlink:href="#DejaVuSans-2e" x="63.623047"/>
       <use xlink:href="#DejaVuSans-30" x="95.410156"/>
      </g>
     </g>
    </g>
    <g id="xtick_9">
     <g id="line2d_17">
      <path d="M 672.632577 640.8 
L 672.632577 86.4 
" clip-path="url(#pf4bd12135d)" style="fill: none; stroke: #b0b0b0; stroke-width: 0.8; stroke-linecap: square"/>
     </g>
     <g id="line2d_18">
      <g>
       <use xlink:href="#m9bcbde73d1" x="672.632577" y="640.8" style="stroke: #000000; stroke-width: 0.8"/>
      </g>
     </g>
     <g id="text_9">
      <!-- 2.5 -->
      <g transform="translate(664.681015 655.398438)scale(0.1 -0.1)">
       <use xlink:href="#DejaVuSans-32"/>
       <use xlink:href="#DejaVuSans-2e" x="63.623047"/>
       <use xlink:href="#DejaVuSans-35" x="95.410156"/>
      </g>
     </g>
    </g>
    <g id="text_10">
     <!-- X  -->
     <g transform="translate(428.622301 669.076563)scale(0.1 -0.1)">
      <defs>
       <path id="DejaVuSans-58" d="M 403 4666 
L 1081 4666 
L 2241 2931 
L 3406 4666 
L 4084 4666 
L 2584 2425 
L 4184 0 
L 3506 0 
L 2194 1984 
L 872 0 
L 191 0 
L 1856 2491 
L 403 4666 
z
" transform="scale(0.015625)"/>
       <path id="DejaVuSans-20" transform="scale(0.015625)"/>
      </defs>
      <use xlink:href="#DejaVuSans-58"/>
      <use xlink:href="#DejaVuSans-20" x="68.505859"/>
     </g>
    </g>
   </g>
   <g id="matplotlib.axis_2">
    <g id="ytick_1">
     <g id="line2d_19">
      <path d="M 180 596.118784 
L 687.272727 596.118784 
" clip-path="url(#pf4bd12135d)" style="fill: none; stroke: #b0b0b0; stroke-width: 0.8; stroke-linecap: square"/>
     </g>
     <g id="line2d_20">
      <defs>
       <path id="maf3252b966" d="M 0 0 
L -3.5 0 
" style="stroke: #000000; stroke-width: 0.8"/>
      </defs>
      <g>
       <use xlink:href="#maf3252b966" x="180" y="596.118784" style="stroke: #000000; stroke-width: 0.8"/>
      </g>
     </g>
     <g id="text_11">
      <!-- −20 -->
      <g transform="translate(151.895312 599.918003)scale(0.1 -0.1)">
       <use xlink:href="#DejaVuSans-2212"/>
       <use xlink:href="#DejaVuSans-32" x="83.789062"/>
       <use xlink:href="#DejaVuSans-30" x="147.412109"/>
      </g>
     </g>
    </g>
    <g id="ytick_2">
     <g id="line2d_21">
      <path d="M 180 508.315205 
L 687.272727 508.315205 
" clip-path="url(#pf4bd12135d)" style="fill: none; stroke: #b0b0b0; stroke-width: 0.8; stroke-linecap: square"/>
     </g>
     <g id="line2d_22">
      <g>
       <use xlink:href="#maf3252b966" x="180" y="508.315205" style="stroke: #000000; stroke-width: 0.8"/>
      </g>
     </g>
     <g id="text_12">
      <!-- −15 -->
      <g transform="translate(151.895312 512.114424)scale(0.1 -0.1)">
       <use xlink:href="#DejaVuSans-2212"/>
       <use xlink:href="#DejaVuSans-31" x="83.789062"/>
       <use xlink:href="#DejaVuSans-35" x="147.412109"/>
      </g>
     </g>
    </g>
    <g id="ytick_3">
     <g id="line2d_23">
      <path d="M 180 420.511626 
L 687.272727 420.511626 
" clip-path="url(#pf4bd12135d)" style="fill: none; stroke: #b0b0b0; stroke-width: 0.8; stroke-linecap: square"/>
     </g>
     <g id="line2d_24">
      <g>
       <use xlink:href="#maf3252b966" x="180" y="420.511626" style="stroke: #000000; stroke-width: 0.8"/>
      </g>
     </g>
     <g id="text_13">
      <!-- −10 -->
      <g transform="translate(151.895312 424.310845)scale(0.1 -0.1)">
       <use xlink:href="#DejaVuSans-2212"/>
       <use xlink:href="#DejaVuSans-31" x="83.789062"/>
       <use xlink:href="#DejaVuSans-30" x="147.412109"/>
      </g>
     </g>
    </g>
    <g id="ytick_4">
     <g id="line2d_25">
      <path d="M 180 332.708048 
L 687.272727 332.708048 
" clip-path="url(#pf4bd12135d)" style="fill: none; stroke: #b0b0b0; stroke-width: 0.8; stroke-linecap: square"/>
     </g>
     <g id="line2d_26">
      <g>
       <use xlink:href="#maf3252b966" x="180" y="332.708048" style="stroke: #000000; stroke-width: 0.8"/>
      </g>
     </g>
     <g id="text_14">
      <!-- −5 -->
      <g transform="translate(158.257812 336.507266)scale(0.1 -0.1)">
       <use xlink:href="#DejaVuSans-2212"/>
       <use xlink:href="#DejaVuSans-35" x="83.789062"/>
      </g>
     </g>
    </g>
    <g id="ytick_5">
     <g id="line2d_27">
      <path d="M 180 244.904469 
L 687.272727 244.904469 
" clip-path="url(#pf4bd12135d)" style="fill: none; stroke: #b0b0b0; stroke-width: 0.8; stroke-linecap: square"/>
     </g>
     <g id="line2d_28">
      <g>
       <use xlink:href="#maf3252b966" x="180" y="244.904469" style="stroke: #000000; stroke-width: 0.8"/>
      </g>
     </g>
     <g id="text_15">
      <!-- 0 -->
      <g transform="translate(166.6375 248.703688)scale(0.1 -0.1)">
       <use xlink:href="#DejaVuSans-30"/>
      </g>
     </g>
    </g>
    <g id="ytick_6">
     <g id="line2d_29">
      <path d="M 180 157.10089 
L 687.272727 157.10089 
" clip-path="url(#pf4bd12135d)" style="fill: none; stroke: #b0b0b0; stroke-width: 0.8; stroke-linecap: square"/>
     </g>
     <g id="line2d_30">
      <g>
       <use xlink:href="#maf3252b966" x="180" y="157.10089" style="stroke: #000000; stroke-width: 0.8"/>
      </g>
     </g>
     <g id="text_16">
      <!-- 5 -->
      <g transform="translate(166.6375 160.900109)scale(0.1 -0.1)">
       <use xlink:href="#DejaVuSans-35"/>
      </g>
     </g>
    </g>
    <g id="text_17">
     <!-- Drift(X) -->
     <g transform="translate(145.815625 381.853906)rotate(-90)scale(0.1 -0.1)">
      <defs>
       <path id="DejaVuSans-44" d="M 1259 4147 
L 1259 519 
L 2022 519 
Q 2988 519 3436 956 
Q 3884 1394 3884 2338 
Q 3884 3275 3436 3711 
Q 2988 4147 2022 4147 
L 1259 4147 
z
M 628 4666 
L 1925 4666 
Q 3281 4666 3915 4102 
Q 4550 3538 4550 2338 
Q 4550 1131 3912 565 
Q 3275 0 1925 0 
L 628 0 
L 628 4666 
z
" transform="scale(0.015625)"/>
       <path id="DejaVuSans-72" d="M 2631 2963 
Q 2534 3019 2420 3045 
Q 2306 3072 2169 3072 
Q 1681 3072 1420 2755 
Q 1159 2438 1159 1844 
L 1159 0 
L 581 0 
L 581 3500 
L 1159 3500 
L 1159 2956 
Q 1341 3275 1631 3429 
Q 1922 3584 2338 3584 
Q 2397 3584 2469 3576 
Q 2541 3569 2628 3553 
L 2631 2963 
z
" transform="scale(0.015625)"/>
       <path id="DejaVuSans-69" d="M 603 3500 
L 1178 3500 
L 1178 0 
L 603 0 
L 603 3500 
z
M 603 4863 
L 1178 4863 
L 1178 4134 
L 603 4134 
L 603 4863 
z
" transform="scale(0.015625)"/>
       <path id="DejaVuSans-66" d="M 2375 4863 
L 2375 4384 
L 1825 4384 
Q 1516 4384 1395 4259 
Q 1275 4134 1275 3809 
L 1275 3500 
L 2222 3500 
L 2222 3053 
L 1275 3053 
L 1275 0 
L 697 0 
L 697 3053 
L 147 3053 
L 147 3500 
L 697 3500 
L 697 3744 
Q 697 4328 969 4595 
Q 1241 4863 1831 4863 
L 2375 4863 
z
" transform="scale(0.015625)"/>
       <path id="DejaVuSans-74" d="M 1172 4494 
L 1172 3500 
L 2356 3500 
L 2356 3053 
L 1172 3053 
L 1172 1153 
Q 1172 725 1289 603 
Q 1406 481 1766 481 
L 2356 481 
L 2356 0 
L 1766 0 
Q 1100 0 847 248 
Q 594 497 594 1153 
L 594 3053 
L 172 3053 
L 172 3500 
L 594 3500 
L 594 4494 
L 1172 4494 
z
" transform="scale(0.015625)"/>
       <path id="DejaVuSans-28" d="M 1984 4856 
Q 1566 4138 1362 3434 
Q 1159 2731 1159 2009 
Q 1159 1288 1364 580 
Q 1569 -128 1984 -844 
L 1484 -844 
Q 1016 -109 783 600 
Q 550 1309 550 2009 
Q 550 2706 781 3412 
Q 1013 4119 1484 4856 
L 1984 4856 
z
" transform="scale(0.015625)"/>
       <path id="DejaVuSans-29" d="M 513 4856 
L 1013 4856 
Q 1481 4119 1714 3412 
Q 1947 2706 1947 2009 
Q 1947 1309 1714 600 
Q 1481 -109 1013 -844 
L 513 -844 
Q 928 -128 1133 580 
Q 1338 1288 1338 2009 
Q 1338 2731 1133 3434 
Q 928 4138 513 4856 
z
" transform="scale(0.015625)"/>
      </defs>
      <use xlink:href="#DejaVuSans-44"/>
      <use xlink:href="#DejaVuSans-72" x="77.001953"/>
      <use xlink:href="#DejaVuSans-69" x="118.115234"/>
      <use xlink:href="#DejaVuSans-66" x="145.898438"/>
      <use xlink:href="#DejaVuSans-74" x="179.353516"/>
      <use xlink:href="#DejaVuSans-28" x="218.5625"/>
      <use xlink:href="#DejaVuSans-58" x="257.576172"/>
      <use xlink:href="#DejaVuSans-29" x="326.082031"/>
     </g>
    </g>
   </g>
   <g id="line2d_31">
    <path d="M 203.057851 176.541804 
L 212.469219 191.031441 
L 221.880587 201.230266 
L 231.291955 208.042491 
L 240.703323 212.259328 
L 250.114691 214.565313 
L 259.526058 215.544628 
L 268.937426 215.687426 
L 278.348794 215.396156 
L 287.760162 214.99188 
L 297.17153 214.720602 
L 306.582898 214.759592 
L 315.994265 215.223702 
L 325.405633 216.171697 
L 334.817001 217.612575 
L 344.228369 219.51189 
L 353.639737 221.798075 
L 363.051105 224.368769 
L 372.462473 227.097133 
L 381.87384 229.83818 
L 391.285208 232.435097 
L 400.696576 234.725564 
L 410.107944 236.548083 
L 419.519312 237.748298 
L 428.93068 238.185317 
L 438.342048 237.73804 
L 447.753415 236.311477 
L 457.164783 233.843075 
L 466.576151 230.30904 
L 475.987519 225.730658 
L 485.398887 220.180624 
L 494.810255 213.78936 
L 504.221623 206.751338 
L 513.63299 199.331408 
L 523.044358 191.871117 
L 532.455726 184.795035 
L 541.867094 178.617076 
L 551.278462 173.946822 
L 560.68983 171.495848 
L 570.101198 172.084041 
L 579.512565 176.64593 
L 588.923933 186.237002 
L 598.335301 202.040029 
L 607.746669 225.371393 
L 617.158037 257.687405 
L 626.569405 300.590631 
L 635.980772 355.836214 
L 645.39214 425.3382 
L 654.803508 511.175857 
L 664.214876 615.6 
" clip-path="url(#pf4bd12135d)" style="fill: none; stroke: #1f77b4; stroke-width: 1.5; stroke-linecap: square"/>
   </g>
   <g id="line2d_32">
    <path d="M 203.057851 161.870228 
L 212.469219 178.177524 
L 221.880587 190.484261 
L 231.291955 199.372679 
L 240.703323 205.440889 
L 250.114691 209.278127 
L 259.526058 211.444493 
L 268.937426 212.454841 
L 278.348794 212.766496 
L 287.760162 212.770485 
L 297.17153 212.785972 
L 306.582898 213.057596 
L 315.994265 213.755417 
L 325.405633 214.977178 
L 334.817001 216.752599 
L 344.228369 219.049443 
L 353.639737 221.781053 
L 363.051105 224.815136 
L 372.462473 227.983504 
L 381.87384 231.092546 
L 391.285208 233.934172 
L 400.696576 236.297008 
L 410.107944 237.977594 
L 419.519312 238.791383 
L 428.93068 238.583305 
L 438.342048 237.237696 
L 447.753415 234.687393 
L 457.164783 230.921784 
L 466.576151 225.993637 
L 475.987519 220.024516 
L 485.398887 213.208612 
L 494.810255 205.814814 
L 504.221623 198.186859 
L 513.63299 190.741403 
L 523.044358 183.963866 
L 532.455726 178.401898 
L 541.867094 174.656338 
L 551.278462 173.369533 
L 560.68983 175.210883 
L 570.101198 180.859514 
L 579.512565 190.983947 
L 588.923933 206.218672 
L 598.335301 227.137525 
L 607.746669 254.223776 
L 617.158037 287.836841 
L 626.569405 328.17555 
L 635.980772 375.237888 
L 645.39214 428.777145 
L 654.803508 488.254426 
L 664.214876 552.787462 
" clip-path="url(#pf4bd12135d)" style="fill: none; stroke: #ff7f0e; stroke-width: 1.5; stroke-linecap: square"/>
   </g>
   <g id="line2d_33">
    <path d="M 203.057851 161.974691 
L 212.469219 178.303235 
L 221.880587 190.61969 
L 231.291955 199.506607 
L 240.703323 205.562986 
L 250.114691 209.379392 
L 259.526058 211.517542 
L 268.937426 212.494085 
L 278.348794 212.768212 
L 287.760162 212.732801 
L 297.17153 212.708783 
L 306.582898 212.94242 
L 315.994265 213.605206 
L 325.405633 214.796096 
L 334.817001 216.545782 
L 344.228369 218.822738 
L 353.639737 221.540764 
L 363.051105 224.567765 
L 372.462473 227.735509 
L 381.87384 230.850114 
L 391.285208 233.703019 
L 400.696576 236.082198 
L 410.107944 237.783401 
L 419.519312 238.621173 
L 428.93068 238.439461 
L 438.342048 237.12158 
L 447.753415 234.599338 
L 457.164783 230.861127 
L 466.576151 225.958783 
L 475.987519 220.013037 
L 485.398887 213.217371 
L 494.810255 205.840117 
L 504.221623 198.224628 
L 513.63299 190.787366 
L 523.044358 184.013751 
L 532.455726 178.451639 
L 541.867094 174.702271 
L 551.278462 173.408584 
L 560.68983 175.240735 
L 570.101198 180.878746 
L 579.512565 190.992133 
L 588.923933 206.216435 
L 598.335301 227.126525 
L 607.746669 254.206634 
L 617.158037 287.816978 
L 626.569405 328.15693 
L 635.980772 375.224652 
L 645.39214 428.773126 
L 654.803508 488.262529 
L 664.214876 552.808891 
" clip-path="url(#pf4bd12135d)" style="fill: none; stroke: #2ca02c; stroke-width: 1.5; stroke-linecap: square"/>
   </g>
   <g id="line2d_34">
    <path d="M 203.057851 162.095365 
L 212.469219 178.481449 
L 221.880587 190.837995 
L 231.291955 199.747154 
L 240.703323 205.808666 
L 250.114691 209.614685 
L 259.526058 211.729127 
L 268.937426 212.671226 
L 278.348794 212.902964 
L 287.760162 212.820063 
L 297.17153 212.74621 
L 306.582898 212.930245 
L 315.994265 213.545967 
L 325.405633 214.69431 
L 334.817001 216.407573 
L 344.228369 218.655441 
L 353.639737 221.352522 
L 363.051105 224.367127 
L 372.462473 227.531049 
L 381.87384 230.650078 
L 391.285208 233.515002 
L 400.696576 235.912877 
L 410.107944 237.638303 
L 419.519312 238.504512 
L 428.93068 238.354023 
L 438.342048 237.068668 
L 447.753415 234.578778 
L 457.164783 230.871329 
L 466.576151 225.996857 
L 475.987519 220.07496 
L 485.398887 213.298197 
L 494.810255 205.934229 
L 504.221623 198.326016 
L 513.63299 190.889928 
L 523.044358 184.111611 
L 532.455726 178.539455 
L 541.867094 174.77554 
L 551.278462 173.463916 
L 560.68983 175.27609 
L 570.101198 180.893613 
L 579.512565 190.987641 
L 588.923933 206.195369 
L 598.335301 227.093244 
L 607.746669 254.166853 
L 617.158037 287.777412 
L 626.569405 328.124766 
L 635.980772 375.206836 
L 645.39214 428.775441 
L 654.803508 488.288437 
L 664.214876 552.85812 
" clip-path="url(#pf4bd12135d)" style="fill: none; stroke: #d62728; stroke-width: 1.5; stroke-linecap: square"/>
   </g>
   <g id="line2d_35">
    <path d="M 203.057851 162.075209 
L 212.469219 178.534941 
L 221.880587 190.950763 
L 231.291955 199.902829 
L 240.703323 205.990419 
L 250.114691 209.806405 
L 259.526058 211.916292 
L 268.937426 212.841505 
L 278.348794 213.046587 
L 287.760162 212.929994 
L 297.17153 212.818161 
L 306.582898 212.962549 
L 315.994265 213.539356 
L 325.405633 214.651609 
L 334.817001 216.333339 
L 344.228369 218.555567 
L 353.639737 221.233823 
L 363.051105 224.236936 
L 372.462473 227.396816 
L 381.87384 230.519003 
L 391.285208 233.393711 
L 400.696576 235.807134 
L 410.107944 237.552788 
L 419.519312 238.442647 
L 428.93068 238.317867 
L 438.342048 237.058872 
L 447.753415 234.594602 
L 457.164783 230.910721 
L 466.576151 226.056589 
L 475.987519 220.150816 
L 485.398887 213.385205 
L 494.810255 206.026932 
L 504.221623 198.418772 
L 513.63299 190.977224 
L 523.044358 184.188385 
L 532.455726 178.601412 
L 541.867094 174.819444 
L 551.278462 173.48784 
L 560.68983 175.279624 
L 570.101198 180.87799 
L 579.512565 190.955778 
L 588.923933 206.1518 
L 598.335301 227.043921 
L 607.746669 254.118799 
L 617.158037 287.738205 
L 626.569405 328.101822 
L 635.980772 375.206484 
L 645.39214 428.801752 
L 654.803508 488.341788 
L 664.214876 552.933476 
" clip-path="url(#pf4bd12135d)" style="fill: none; stroke: #9467bd; stroke-width: 1.5; stroke-linecap: square"/>
   </g>
   <g id="line2d_36">
    <path d="M 203.057851 147.169609 
L 212.469219 161.578442 
L 221.880587 173.811536 
L 231.291955 184.089326 
L 240.703323 192.635196 
L 250.114691 199.668021 
L 259.526058 205.396522 
L 268.937426 210.015174 
L 278.348794 213.70145 
L 287.760162 216.614167 
L 297.17153 218.892751 
L 306.582898 220.657237 
L 315.994265 222.008838 
L 325.405633 223.030946 
L 334.817001 223.790431 
L 344.228369 224.339133 
L 353.639737 224.715464 
L 363.051105 224.946026 
L 372.462473 225.047213 
L 381.87384 225.026745 
L 391.285208 224.885118 
L 400.696576 224.616964 
L 410.107944 224.212348 
L 419.519312 223.658021 
L 428.93068 222.938688 
L 438.342048 222.038361 
L 447.753415 220.941873 
L 457.164783 219.636676 
L 466.576151 218.115027 
L 475.987519 216.376706 
L 485.398887 214.432438 
L 494.810255 212.308166 
L 504.221623 210.050401 
L 513.63299 207.732831 
L 523.044358 205.464436 
L 532.455726 203.399347 
L 541.867094 201.748718 
L 551.278462 200.794883 
L 560.68983 200.908111 
L 570.101198 202.566267 
L 579.512565 206.377715 
L 588.923933 213.107818 
L 598.335301 223.709407 
L 607.746669 239.357601 
L 617.158037 261.489391 
L 626.569405 291.848405 
L 635.980772 332.535302 
L 645.39214 386.064249 
L 654.803508 455.425965 
L 664.214876 544.157812 
" clip-path="url(#pf4bd12135d)" style="fill: none; stroke: #8c564b; stroke-width: 1.5; stroke-linecap: square"/>
   </g>
   <g id="line2d_37">
    <path d="M 203.057851 111.6 
L 212.469219 152.86115 
L 221.880587 182.312022 
L 231.291955 202.98075 
L 240.703323 217.221634 
L 250.114691 226.839545 
L 259.526058 233.196568 
L 268.937426 237.302626 
L 278.348794 239.891698 
L 287.760162 241.485213 
L 297.17153 242.444062 
L 306.582898 243.010642 
L 315.994265 243.342213 
L 325.405633 243.536803 
L 334.817001 243.652778 
L 344.228369 243.723151 
L 353.639737 243.765573 
L 363.051105 243.788907 
L 372.462473 243.797176 
L 381.87384 243.791598 
L 391.285208 243.771345 
L 400.696576 243.733574 
L 410.107944 243.67318 
L 419.519312 243.582676 
L 428.93068 243.452463 
L 438.342048 243.271728 
L 447.753415 243.030091 
L 457.164783 242.720027 
L 466.576151 242.340056 
L 475.987519 241.898544 
L 485.398887 241.417922 
L 494.810255 240.939041 
L 504.221623 240.525258 
L 513.63299 240.265826 
L 523.044358 240.278018 
L 532.455726 240.707374 
L 541.867094 241.72535 
L 551.278462 243.523576 
L 560.68983 246.303841 
L 570.101198 250.262851 
L 579.512565 255.570698 
L 588.923933 262.341918 
L 598.335301 270.59792 
L 607.746669 280.219487 
L 617.158037 290.887963 
L 626.569405 302.013669 
L 635.980772 312.649976 
L 645.39214 321.391425 
L 654.803508 326.254156 
L 664.214876 324.53685 
" clip-path="url(#pf4bd12135d)" style="fill: none; stroke: #e377c2; stroke-width: 1.5; stroke-linecap: square"/>
   </g>
   <g id="patch_3">
    <path d="M 180 640.8 
L 180 86.4 
" style="fill: none; stroke: #000000; stroke-width: 0.8; stroke-linejoin: miter; stroke-linecap: square"/>
   </g>
   <g id="patch_4">
    <path d="M 687.272727 640.8 
L 687.272727 86.4 
" style="fill: none; stroke: #000000; stroke-width: 0.8; stroke-linejoin: miter; stroke-linecap: square"/>
   </g>
   <g id="patch_5">
    <path d="M 180 640.8 
L 687.272727 640.8 
" style="fill: none; stroke: #000000; stroke-width: 0.8; stroke-linejoin: miter; stroke-linecap: square"/>
   </g>
   <g id="patch_6">
    <path d="M 180 86.4 
L 687.272727 86.4 
" style="fill: none; stroke: #000000; stroke-width: 0.8; stroke-linejoin: miter; stroke-linecap: square"/>
   </g>
   <g id="legend_1">
    <g id="patch_7">
     <path d="M 453.072727 472.534375 
L 673.272727 472.534375 
Q 677.272727 472.534375 677.272727 468.534375 
L 677.272727 258.665625 
Q 677.272727 254.665625 673.272727 254.665625 
L 453.072727 254.665625 
Q 449.072727 254.665625 449.072727 258.665625 
L 449.072727 468.534375 
Q 449.072727 472.534375 453.072727 472.534375 
z
" style="fill: #ffffff; opacity: 0.8; stroke: #cccccc; stroke-linejoin: miter"/>
    </g>
    <g id="line2d_38">
     <path d="M 457.072727 270.8625 
L 477.072727 270.8625 
L 497.072727 270.8625 
" style="fill: none; stroke: #1f77b4; stroke-width: 1.5; stroke-linecap: square"/>
    </g>
    <g id="text_18">
     <!-- True -->
     <g transform="translate(513.072727 277.8625)scale(0.2 -0.2)">
      <defs>
       <path id="DejaVuSans-54" d="M -19 4666 
L 3928 4666 
L 3928 4134 
L 2272 4134 
L 2272 0 
L 1638 0 
L 1638 4134 
L -19 4134 
L -19 4666 
z
" transform="scale(0.015625)"/>
       <path id="DejaVuSans-75" d="M 544 1381 
L 544 3500 
L 1119 3500 
L 1119 1403 
Q 1119 906 1312 657 
Q 1506 409 1894 409 
Q 2359 409 2629 706 
Q 2900 1003 2900 1516 
L 2900 3500 
L 3475 3500 
L 3475 0 
L 2900 0 
L 2900 538 
Q 2691 219 2414 64 
Q 2138 -91 1772 -91 
Q 1169 -91 856 284 
Q 544 659 544 1381 
z
M 1991 3584 
L 1991 3584 
z
" transform="scale(0.015625)"/>
       <path id="DejaVuSans-65" d="M 3597 1894 
L 3597 1613 
L 953 1613 
Q 991 1019 1311 708 
Q 1631 397 2203 397 
Q 2534 397 2845 478 
Q 3156 559 3463 722 
L 3463 178 
Q 3153 47 2828 -22 
Q 2503 -91 2169 -91 
Q 1331 -91 842 396 
Q 353 884 353 1716 
Q 353 2575 817 3079 
Q 1281 3584 2069 3584 
Q 2775 3584 3186 3129 
Q 3597 2675 3597 1894 
z
M 3022 2063 
Q 3016 2534 2758 2815 
Q 2500 3097 2075 3097 
Q 1594 3097 1305 2825 
Q 1016 2553 972 2059 
L 3022 2063 
z
" transform="scale(0.015625)"/>
      </defs>
      <use xlink:href="#DejaVuSans-54"/>
      <use xlink:href="#DejaVuSans-72" x="46.333984"/>
      <use xlink:href="#DejaVuSans-75" x="87.447266"/>
      <use xlink:href="#DejaVuSans-65" x="150.826172"/>
     </g>
    </g>
    <g id="line2d_39">
     <path d="M 457.072727 300.21875 
L 477.072727 300.21875 
L 497.072727 300.21875 
" style="fill: none; stroke: #ff7f0e; stroke-width: 1.5; stroke-linecap: square"/>
    </g>
    <g id="text_19">
     <!-- 1 0.7820 -->
     <g transform="translate(513.072727 307.21875)scale(0.2 -0.2)">
      <defs>
       <path id="DejaVuSans-37" d="M 525 4666 
L 3525 4666 
L 3525 4397 
L 1831 0 
L 1172 0 
L 2766 4134 
L 525 4134 
L 525 4666 
z
" transform="scale(0.015625)"/>
       <path id="DejaVuSans-38" d="M 2034 2216 
Q 1584 2216 1326 1975 
Q 1069 1734 1069 1313 
Q 1069 891 1326 650 
Q 1584 409 2034 409 
Q 2484 409 2743 651 
Q 3003 894 3003 1313 
Q 3003 1734 2745 1975 
Q 2488 2216 2034 2216 
z
M 1403 2484 
Q 997 2584 770 2862 
Q 544 3141 544 3541 
Q 544 4100 942 4425 
Q 1341 4750 2034 4750 
Q 2731 4750 3128 4425 
Q 3525 4100 3525 3541 
Q 3525 3141 3298 2862 
Q 3072 2584 2669 2484 
Q 3125 2378 3379 2068 
Q 3634 1759 3634 1313 
Q 3634 634 3220 271 
Q 2806 -91 2034 -91 
Q 1263 -91 848 271 
Q 434 634 434 1313 
Q 434 1759 690 2068 
Q 947 2378 1403 2484 
z
M 1172 3481 
Q 1172 3119 1398 2916 
Q 1625 2713 2034 2713 
Q 2441 2713 2670 2916 
Q 2900 3119 2900 3481 
Q 2900 3844 2670 4047 
Q 2441 4250 2034 4250 
Q 1625 4250 1398 4047 
Q 1172 3844 1172 3481 
z
" transform="scale(0.015625)"/>
      </defs>
      <use xlink:href="#DejaVuSans-31"/>
      <use xlink:href="#DejaVuSans-20" x="63.623047"/>
      <use xlink:href="#DejaVuSans-30" x="95.410156"/>
      <use xlink:href="#DejaVuSans-2e" x="159.033203"/>
      <use xlink:href="#DejaVuSans-37" x="190.820312"/>
      <use xlink:href="#DejaVuSans-38" x="254.443359"/>
      <use xlink:href="#DejaVuSans-32" x="318.066406"/>
      <use xlink:href="#DejaVuSans-30" x="381.689453"/>
     </g>
    </g>
    <g id="line2d_40">
     <path d="M 457.072727 329.575 
L 477.072727 329.575 
L 497.072727 329.575 
" style="fill: none; stroke: #2ca02c; stroke-width: 1.5; stroke-linecap: square"/>
    </g>
    <g id="text_20">
     <!-- 1/n 0.7808 -->
     <g transform="translate(513.072727 336.575)scale(0.2 -0.2)">
      <defs>
       <path id="DejaVuSans-2f" d="M 1625 4666 
L 2156 4666 
L 531 -594 
L 0 -594 
L 1625 4666 
z
" transform="scale(0.015625)"/>
       <path id="DejaVuSans-6e" d="M 3513 2113 
L 3513 0 
L 2938 0 
L 2938 2094 
Q 2938 2591 2744 2837 
Q 2550 3084 2163 3084 
Q 1697 3084 1428 2787 
Q 1159 2491 1159 1978 
L 1159 0 
L 581 0 
L 581 3500 
L 1159 3500 
L 1159 2956 
Q 1366 3272 1645 3428 
Q 1925 3584 2291 3584 
Q 2894 3584 3203 3211 
Q 3513 2838 3513 2113 
z
" transform="scale(0.015625)"/>
      </defs>
      <use xlink:href="#DejaVuSans-31"/>
      <use xlink:href="#DejaVuSans-2f" x="63.623047"/>
      <use xlink:href="#DejaVuSans-6e" x="97.314453"/>
      <use xlink:href="#DejaVuSans-20" x="160.693359"/>
      <use xlink:href="#DejaVuSans-30" x="192.480469"/>
      <use xlink:href="#DejaVuSans-2e" x="256.103516"/>
      <use xlink:href="#DejaVuSans-37" x="287.890625"/>
      <use xlink:href="#DejaVuSans-38" x="351.513672"/>
      <use xlink:href="#DejaVuSans-30" x="415.136719"/>
      <use xlink:href="#DejaVuSans-38" x="478.759766"/>
     </g>
    </g>
    <g id="line2d_41">
     <path d="M 457.072727 360.575 
L 477.072727 360.575 
L 497.072727 360.575 
" style="fill: none; stroke: #d62728; stroke-width: 1.5; stroke-linecap: square"/>
    </g>
    <g id="text_21">
     <!-- $1/(n^3)$ 0.7779 -->
     <g transform="translate(513.072727 367.575)scale(0.2 -0.2)">
      <defs>
       <path id="DejaVuSans-Oblique-6e" d="M 3566 2113 
L 3156 0 
L 2578 0 
L 2988 2091 
Q 3016 2238 3031 2350 
Q 3047 2463 3047 2528 
Q 3047 2791 2881 2937 
Q 2716 3084 2419 3084 
Q 1956 3084 1622 2776 
Q 1288 2469 1184 1941 
L 800 0 
L 225 0 
L 903 3500 
L 1478 3500 
L 1363 2950 
Q 1603 3253 1940 3418 
Q 2278 3584 2650 3584 
Q 3113 3584 3367 3334 
Q 3622 3084 3622 2631 
Q 3622 2519 3608 2391 
Q 3594 2263 3566 2113 
z
" transform="scale(0.015625)"/>
       <path id="DejaVuSans-33" d="M 2597 2516 
Q 3050 2419 3304 2112 
Q 3559 1806 3559 1356 
Q 3559 666 3084 287 
Q 2609 -91 1734 -91 
Q 1441 -91 1130 -33 
Q 819 25 488 141 
L 488 750 
Q 750 597 1062 519 
Q 1375 441 1716 441 
Q 2309 441 2620 675 
Q 2931 909 2931 1356 
Q 2931 1769 2642 2001 
Q 2353 2234 1838 2234 
L 1294 2234 
L 1294 2753 
L 1863 2753 
Q 2328 2753 2575 2939 
Q 2822 3125 2822 3475 
Q 2822 3834 2567 4026 
Q 2313 4219 1838 4219 
Q 1578 4219 1281 4162 
Q 984 4106 628 3988 
L 628 4550 
Q 988 4650 1302 4700 
Q 1616 4750 1894 4750 
Q 2613 4750 3031 4423 
Q 3450 4097 3450 3541 
Q 3450 3153 3228 2886 
Q 3006 2619 2597 2516 
z
" transform="scale(0.015625)"/>
       <path id="DejaVuSans-39" d="M 703 97 
L 703 672 
Q 941 559 1184 500 
Q 1428 441 1663 441 
Q 2288 441 2617 861 
Q 2947 1281 2994 2138 
Q 2813 1869 2534 1725 
Q 2256 1581 1919 1581 
Q 1219 1581 811 2004 
Q 403 2428 403 3163 
Q 403 3881 828 4315 
Q 1253 4750 1959 4750 
Q 2769 4750 3195 4129 
Q 3622 3509 3622 2328 
Q 3622 1225 3098 567 
Q 2575 -91 1691 -91 
Q 1453 -91 1209 -44 
Q 966 3 703 97 
z
M 1959 2075 
Q 2384 2075 2632 2365 
Q 2881 2656 2881 3163 
Q 2881 3666 2632 3958 
Q 2384 4250 1959 4250 
Q 1534 4250 1286 3958 
Q 1038 3666 1038 3163 
Q 1038 2656 1286 2365 
Q 1534 2075 1959 2075 
z
" transform="scale(0.015625)"/>
      </defs>
      <use xlink:href="#DejaVuSans-31" transform="translate(0 0.765625)"/>
      <use xlink:href="#DejaVuSans-2f" transform="translate(63.623047 0.765625)"/>
      <use xlink:href="#DejaVuSans-28" transform="translate(97.314453 0.765625)"/>
      <use xlink:href="#DejaVuSans-Oblique-6e" transform="translate(136.328125 0.765625)"/>
      <use xlink:href="#DejaVuSans-33" transform="translate(204.356927 39.046875)scale(0.7)"/>
      <use xlink:href="#DejaVuSans-29" transform="translate(251.627435 0.765625)"/>
      <use xlink:href="#DejaVuSans-20" transform="translate(290.641107 0.765625)"/>
      <use xlink:href="#DejaVuSans-30" transform="translate(322.428216 0.765625)"/>
      <use xlink:href="#DejaVuSans-2e" transform="translate(386.051263 0.765625)"/>
      <use xlink:href="#DejaVuSans-37" transform="translate(410.088372 0.765625)"/>
      <use xlink:href="#DejaVuSans-37" transform="translate(471.961419 0.765625)"/>
      <use xlink:href="#DejaVuSans-37" transform="translate(533.834466 0.765625)"/>
      <use xlink:href="#DejaVuSans-39" transform="translate(597.457513 0.765625)"/>
     </g>
    </g>
    <g id="line2d_42">
     <path d="M 457.072727 391.375 
L 477.072727 391.375 
L 497.072727 391.375 
" style="fill: none; stroke: #9467bd; stroke-width: 1.5; stroke-linecap: square"/>
    </g>
    <g id="text_22">
     <!-- $1/(n^7)$ 0.7748 -->
     <g transform="translate(513.072727 398.375)scale(0.2 -0.2)">
      <defs>
       <path id="DejaVuSans-34" d="M 2419 4116 
L 825 1625 
L 2419 1625 
L 2419 4116 
z
M 2253 4666 
L 3047 4666 
L 3047 1625 
L 3713 1625 
L 3713 1100 
L 3047 1100 
L 3047 0 
L 2419 0 
L 2419 1100 
L 313 1100 
L 313 1709 
L 2253 4666 
z
" transform="scale(0.015625)"/>
      </defs>
      <use xlink:href="#DejaVuSans-31" transform="translate(0 0.684375)"/>
      <use xlink:href="#DejaVuSans-2f" transform="translate(63.623047 0.684375)"/>
      <use xlink:href="#DejaVuSans-28" transform="translate(97.314453 0.684375)"/>
      <use xlink:href="#DejaVuSans-Oblique-6e" transform="translate(136.328125 0.684375)"/>
      <use xlink:href="#DejaVuSans-37" transform="translate(204.356927 38.965625)scale(0.7)"/>
      <use xlink:href="#DejaVuSans-29" transform="translate(251.627435 0.684375)"/>
      <use xlink:href="#DejaVuSans-20" transform="translate(290.641107 0.684375)"/>
      <use xlink:href="#DejaVuSans-30" transform="translate(322.428216 0.684375)"/>
      <use xlink:href="#DejaVuSans-2e" transform="translate(386.051263 0.684375)"/>
      <use xlink:href="#DejaVuSans-37" transform="translate(410.088372 0.684375)"/>
      <use xlink:href="#DejaVuSans-37" transform="translate(471.961419 0.684375)"/>
      <use xlink:href="#DejaVuSans-34" transform="translate(535.584466 0.684375)"/>
      <use xlink:href="#DejaVuSans-38" transform="translate(599.207513 0.684375)"/>
     </g>
    </g>
    <g id="line2d_43">
     <path d="M 457.072727 422.375 
L 477.072727 422.375 
L 497.072727 422.375 
" style="fill: none; stroke: #8c564b; stroke-width: 1.5; stroke-linecap: square"/>
    </g>
    <g id="text_23">
     <!-- $1/(n^{12})$ 1.4366 -->
     <g transform="translate(513.072727 429.375)scale(0.2 -0.2)">
      <defs>
       <path id="DejaVuSans-36" d="M 2113 2584 
Q 1688 2584 1439 2293 
Q 1191 2003 1191 1497 
Q 1191 994 1439 701 
Q 1688 409 2113 409 
Q 2538 409 2786 701 
Q 3034 994 3034 1497 
Q 3034 2003 2786 2293 
Q 2538 2584 2113 2584 
z
M 3366 4563 
L 3366 3988 
Q 3128 4100 2886 4159 
Q 2644 4219 2406 4219 
Q 1781 4219 1451 3797 
Q 1122 3375 1075 2522 
Q 1259 2794 1537 2939 
Q 1816 3084 2150 3084 
Q 2853 3084 3261 2657 
Q 3669 2231 3669 1497 
Q 3669 778 3244 343 
Q 2819 -91 2113 -91 
Q 1303 -91 875 529 
Q 447 1150 447 2328 
Q 447 3434 972 4092 
Q 1497 4750 2381 4750 
Q 2619 4750 2861 4703 
Q 3103 4656 3366 4563 
z
" transform="scale(0.015625)"/>
      </defs>
      <use xlink:href="#DejaVuSans-31" transform="translate(0 0.765625)"/>
      <use xlink:href="#DejaVuSans-2f" transform="translate(63.623047 0.765625)"/>
      <use xlink:href="#DejaVuSans-28" transform="translate(97.314453 0.765625)"/>
      <use xlink:href="#DejaVuSans-Oblique-6e" transform="translate(136.328125 0.765625)"/>
      <use xlink:href="#DejaVuSans-31" transform="translate(204.356927 39.046875)scale(0.7)"/>
      <use xlink:href="#DejaVuSans-32" transform="translate(248.89306 39.046875)scale(0.7)"/>
      <use xlink:href="#DejaVuSans-29" transform="translate(296.163568 0.765625)"/>
      <use xlink:href="#DejaVuSans-20" transform="translate(335.17724 0.765625)"/>
      <use xlink:href="#DejaVuSans-31" transform="translate(366.964349 0.765625)"/>
      <use xlink:href="#DejaVuSans-2e" transform="translate(430.587396 0.765625)"/>
      <use xlink:href="#DejaVuSans-34" transform="translate(462.374505 0.765625)"/>
      <use xlink:href="#DejaVuSans-33" transform="translate(525.997552 0.765625)"/>
      <use xlink:href="#DejaVuSans-36" transform="translate(589.620599 0.765625)"/>
      <use xlink:href="#DejaVuSans-36" transform="translate(653.243646 0.765625)"/>
     </g>
    </g>
    <g id="line2d_44">
     <path d="M 457.072727 453.375 
L 477.072727 453.375 
L 497.072727 453.375 
" style="fill: none; stroke: #e377c2; stroke-width: 1.5; stroke-linecap: square"/>
    </g>
    <g id="text_24">
     <!-- $1/(n^{20})$ 11.9173 -->
     <g transform="translate(513.072727 460.375)scale(0.2 -0.2)">
      <use xlink:href="#DejaVuSans-31" transform="translate(0 0.765625)"/>
      <use xlink:href="#DejaVuSans-2f" transform="translate(63.623047 0.765625)"/>
      <use xlink:href="#DejaVuSans-28" transform="translate(97.314453 0.765625)"/>
      <use xlink:href="#DejaVuSans-Oblique-6e" transform="translate(136.328125 0.765625)"/>
      <use xlink:href="#DejaVuSans-32" transform="translate(204.356927 39.046875)scale(0.7)"/>
      <use xlink:href="#DejaVuSans-30" transform="translate(248.89306 39.046875)scale(0.7)"/>
      <use xlink:href="#DejaVuSans-29" transform="translate(296.163568 0.765625)"/>
      <use xlink:href="#DejaVuSans-20" transform="translate(335.17724 0.765625)"/>
      <use xlink:href="#DejaVuSans-31" transform="translate(366.964349 0.765625)"/>
      <use xlink:href="#DejaVuSans-31" transform="translate(430.587396 0.765625)"/>
      <use xlink:href="#DejaVuSans-2e" transform="translate(494.210443 0.765625)"/>
      <use xlink:href="#DejaVuSans-39" transform="translate(525.997552 0.765625)"/>
      <use xlink:href="#DejaVuSans-31" transform="translate(589.620599 0.765625)"/>
      <use xlink:href="#DejaVuSans-37" transform="translate(653.243646 0.765625)"/>
      <use xlink:href="#DejaVuSans-33" transform="translate(716.866693 0.765625)"/>
     </g>
    </g>
   </g>
  </g>
  <g id="axes_2">
   <g id="patch_8">
    <path d="M 788.727273 640.8 
L 1296 640.8 
L 1296 86.4 
L 788.727273 86.4 
z
" style="fill: #ffffff"/>
   </g>
   <g id="matplotlib.axis_3">
    <g id="xtick_10">
     <g id="line2d_45">
      <path d="M 831 640.8 
L 831 86.4 
" clip-path="url(#pff06bdaacf)" style="fill: none; stroke: #b0b0b0; stroke-width: 0.8; stroke-linecap: square"/>
     </g>
     <g id="line2d_46">
      <g>
       <use xlink:href="#m9bcbde73d1" x="831" y="640.8" style="stroke: #000000; stroke-width: 0.8"/>
      </g>
     </g>
     <g id="text_25">
      <!-- 1 -->
      <g transform="translate(827.81875 655.398438)scale(0.1 -0.1)">
       <use xlink:href="#DejaVuSans-31"/>
      </g>
     </g>
    </g>
    <g id="xtick_11">
     <g id="line2d_47">
      <path d="M 915.545455 640.8 
L 915.545455 86.4 
" clip-path="url(#pff06bdaacf)" style="fill: none; stroke: #b0b0b0; stroke-width: 0.8; stroke-linecap: square"/>
     </g>
     <g id="line2d_48">
      <g>
       <use xlink:href="#m9bcbde73d1" x="915.545455" y="640.8" style="stroke: #000000; stroke-width: 0.8"/>
      </g>
     </g>
     <g id="text_26">
      <!-- 1/n -->
      <g transform="translate(907.51108 655.398438)scale(0.1 -0.1)">
       <use xlink:href="#DejaVuSans-31"/>
       <use xlink:href="#DejaVuSans-2f" x="63.623047"/>
       <use xlink:href="#DejaVuSans-6e" x="97.314453"/>
      </g>
     </g>
    </g>
    <g id="xtick_12">
     <g id="line2d_49">
      <path d="M 1000.090909 640.8 
L 1000.090909 86.4 
" clip-path="url(#pff06bdaacf)" style="fill: none; stroke: #b0b0b0; stroke-width: 0.8; stroke-linecap: square"/>
     </g>
     <g id="line2d_50">
      <g>
       <use xlink:href="#m9bcbde73d1" x="1000.090909" y="640.8" style="stroke: #000000; stroke-width: 0.8"/>
      </g>
     </g>
     <g id="text_27">
      <!-- $1/(n^3)$ -->
      <g transform="translate(985.540909 656.220312)scale(0.1 -0.1)">
       <use xlink:href="#DejaVuSans-31" transform="translate(0 0.765625)"/>
       <use xlink:href="#DejaVuSans-2f" transform="translate(63.623047 0.765625)"/>
       <use xlink:href="#DejaVuSans-28" transform="translate(97.314453 0.765625)"/>
       <use xlink:href="#DejaVuSans-Oblique-6e" transform="translate(136.328125 0.765625)"/>
       <use xlink:href="#DejaVuSans-33" transform="translate(204.356927 39.046875)scale(0.7)"/>
       <use xlink:href="#DejaVuSans-29" transform="translate(251.627435 0.765625)"/>
      </g>
     </g>
    </g>
    <g id="xtick_13">
     <g id="line2d_51">
      <path d="M 1084.636364 640.8 
L 1084.636364 86.4 
" clip-path="url(#pff06bdaacf)" style="fill: none; stroke: #b0b0b0; stroke-width: 0.8; stroke-linecap: square"/>
     </g>
     <g id="line2d_52">
      <g>
       <use xlink:href="#m9bcbde73d1" x="1084.636364" y="640.8" style="stroke: #000000; stroke-width: 0.8"/>
      </g>
     </g>
     <g id="text_28">
      <!-- $1/(n^7)$ -->
      <g transform="translate(1070.086364 656.120312)scale(0.1 -0.1)">
       <use xlink:href="#DejaVuSans-31" transform="translate(0 0.684375)"/>
       <use xlink:href="#DejaVuSans-2f" transform="translate(63.623047 0.684375)"/>
       <use xlink:href="#DejaVuSans-28" transform="translate(97.314453 0.684375)"/>
       <use xlink:href="#DejaVuSans-Oblique-6e" transform="translate(136.328125 0.684375)"/>
       <use xlink:href="#DejaVuSans-37" transform="translate(204.356927 38.965625)scale(0.7)"/>
       <use xlink:href="#DejaVuSans-29" transform="translate(251.627435 0.684375)"/>
      </g>
     </g>
    </g>
    <g id="xtick_14">
     <g id="line2d_53">
      <path d="M 1169.181818 640.8 
L 1169.181818 86.4 
" clip-path="url(#pff06bdaacf)" style="fill: none; stroke: #b0b0b0; stroke-width: 0.8; stroke-linecap: square"/>
     </g>
     <g id="line2d_54">
      <g>
       <use xlink:href="#m9bcbde73d1" x="1169.181818" y="640.8" style="stroke: #000000; stroke-width: 0.8"/>
      </g>
     </g>
     <g id="text_29">
      <!-- $1/(n^{12})$ -->
      <g transform="translate(1152.381818 656.220312)scale(0.1 -0.1)">
       <use xlink:href="#DejaVuSans-31" transform="translate(0 0.765625)"/>
       <use xlink:href="#DejaVuSans-2f" transform="translate(63.623047 0.765625)"/>
       <use xlink:href="#DejaVuSans-28" transform="translate(97.314453 0.765625)"/>
       <use xlink:href="#DejaVuSans-Oblique-6e" transform="translate(136.328125 0.765625)"/>
       <use xlink:href="#DejaVuSans-31" transform="translate(204.356927 39.046875)scale(0.7)"/>
       <use xlink:href="#DejaVuSans-32" transform="translate(248.89306 39.046875)scale(0.7)"/>
       <use xlink:href="#DejaVuSans-29" transform="translate(296.163568 0.765625)"/>
      </g>
     </g>
    </g>
    <g id="xtick_15">
     <g id="line2d_55">
      <path d="M 1253.727273 640.8 
L 1253.727273 86.4 
" clip-path="url(#pff06bdaacf)" style="fill: none; stroke: #b0b0b0; stroke-width: 0.8; stroke-linecap: square"/>
     </g>
     <g id="line2d_56">
      <g>
       <use xlink:href="#m9bcbde73d1" x="1253.727273" y="640.8" style="stroke: #000000; stroke-width: 0.8"/>
      </g>
     </g>
     <g id="text_30">
      <!-- $1/(n^{20})$ -->
      <g transform="translate(1236.927273 656.220312)scale(0.1 -0.1)">
       <use xlink:href="#DejaVuSans-31" transform="translate(0 0.765625)"/>
       <use xlink:href="#DejaVuSans-2f" transform="translate(63.623047 0.765625)"/>
       <use xlink:href="#DejaVuSans-28" transform="translate(97.314453 0.765625)"/>
       <use xlink:href="#DejaVuSans-Oblique-6e" transform="translate(136.328125 0.765625)"/>
       <use xlink:href="#DejaVuSans-32" transform="translate(204.356927 39.046875)scale(0.7)"/>
       <use xlink:href="#DejaVuSans-30" transform="translate(248.89306 39.046875)scale(0.7)"/>
       <use xlink:href="#DejaVuSans-29" transform="translate(296.163568 0.765625)"/>
      </g>
     </g>
    </g>
    <g id="text_31">
     <!-- L -->
     <g transform="translate(1039.577699 669.898438)scale(0.1 -0.1)">
      <defs>
       <path id="DejaVuSans-4c" d="M 628 4666 
L 1259 4666 
L 1259 531 
L 3531 531 
L 3531 0 
L 628 0 
L 628 4666 
z
" transform="scale(0.015625)"/>
      </defs>
      <use xlink:href="#DejaVuSans-4c"/>
     </g>
    </g>
   </g>
   <g id="matplotlib.axis_4">
    <g id="ytick_7">
     <g id="line2d_57">
      <path d="M 788.727273 560.180408 
L 1296 560.180408 
" clip-path="url(#pff06bdaacf)" style="fill: none; stroke: #b0b0b0; stroke-width: 0.8; stroke-linecap: square"/>
     </g>
     <g id="line2d_58">
      <g>
       <use xlink:href="#maf3252b966" x="788.727273" y="560.180408" style="stroke: #000000; stroke-width: 0.8"/>
      </g>
     </g>
     <g id="text_32">
      <!-- 2 -->
      <g transform="translate(775.364773 563.979627)scale(0.1 -0.1)">
       <use xlink:href="#DejaVuSans-32"/>
      </g>
     </g>
    </g>
    <g id="ytick_8">
     <g id="line2d_59">
      <path d="M 788.727273 469.715925 
L 1296 469.715925 
" clip-path="url(#pff06bdaacf)" style="fill: none; stroke: #b0b0b0; stroke-width: 0.8; stroke-linecap: square"/>
     </g>
     <g id="line2d_60">
      <g>
       <use xlink:href="#maf3252b966" x="788.727273" y="469.715925" style="stroke: #000000; stroke-width: 0.8"/>
      </g>
     </g>
     <g id="text_33">
      <!-- 4 -->
      <g transform="translate(775.364773 473.515144)scale(0.1 -0.1)">
       <use xlink:href="#DejaVuSans-34"/>
      </g>
     </g>
    </g>
    <g id="ytick_9">
     <g id="line2d_61">
      <path d="M 788.727273 379.251442 
L 1296 379.251442 
" clip-path="url(#pff06bdaacf)" style="fill: none; stroke: #b0b0b0; stroke-width: 0.8; stroke-linecap: square"/>
     </g>
     <g id="line2d_62">
      <g>
       <use xlink:href="#maf3252b966" x="788.727273" y="379.251442" style="stroke: #000000; stroke-width: 0.8"/>
      </g>
     </g>
     <g id="text_34">
      <!-- 6 -->
      <g transform="translate(775.364773 383.05066)scale(0.1 -0.1)">
       <use xlink:href="#DejaVuSans-36"/>
      </g>
     </g>
    </g>
    <g id="ytick_10">
     <g id="line2d_63">
      <path d="M 788.727273 288.786958 
L 1296 288.786958 
" clip-path="url(#pff06bdaacf)" style="fill: none; stroke: #b0b0b0; stroke-width: 0.8; stroke-linecap: square"/>
     </g>
     <g id="line2d_64">
      <g>
       <use xlink:href="#maf3252b966" x="788.727273" y="288.786958" style="stroke: #000000; stroke-width: 0.8"/>
      </g>
     </g>
     <g id="text_35">
      <!-- 8 -->
      <g transform="translate(775.364773 292.586177)scale(0.1 -0.1)">
       <use xlink:href="#DejaVuSans-38"/>
      </g>
     </g>
    </g>
    <g id="ytick_11">
     <g id="line2d_65">
      <path d="M 788.727273 198.322475 
L 1296 198.322475 
" clip-path="url(#pff06bdaacf)" style="fill: none; stroke: #b0b0b0; stroke-width: 0.8; stroke-linecap: square"/>
     </g>
     <g id="line2d_66">
      <g>
       <use xlink:href="#maf3252b966" x="788.727273" y="198.322475" style="stroke: #000000; stroke-width: 0.8"/>
      </g>
     </g>
     <g id="text_36">
      <!-- 10 -->
      <g transform="translate(769.002273 202.121694)scale(0.1 -0.1)">
       <use xlink:href="#DejaVuSans-31"/>
       <use xlink:href="#DejaVuSans-30" x="63.623047"/>
      </g>
     </g>
    </g>
    <g id="ytick_12">
     <g id="line2d_67">
      <path d="M 788.727273 107.857992 
L 1296 107.857992 
" clip-path="url(#pff06bdaacf)" style="fill: none; stroke: #b0b0b0; stroke-width: 0.8; stroke-linecap: square"/>
     </g>
     <g id="line2d_68">
      <g>
       <use xlink:href="#maf3252b966" x="788.727273" y="107.857992" style="stroke: #000000; stroke-width: 0.8"/>
      </g>
     </g>
     <g id="text_37">
      <!-- 12 -->
      <g transform="translate(769.002273 111.65721)scale(0.1 -0.1)">
       <use xlink:href="#DejaVuSans-31"/>
       <use xlink:href="#DejaVuSans-32" x="63.623047"/>
      </g>
     </g>
    </g>
    <g id="text_38">
     <!-- Error -->
     <g transform="translate(762.922585 375.785156)rotate(-90)scale(0.1 -0.1)">
      <defs>
       <path id="DejaVuSans-45" d="M 628 4666 
L 3578 4666 
L 3578 4134 
L 1259 4134 
L 1259 2753 
L 3481 2753 
L 3481 2222 
L 1259 2222 
L 1259 531 
L 3634 531 
L 3634 0 
L 628 0 
L 628 4666 
z
" transform="scale(0.015625)"/>
       <path id="DejaVuSans-6f" d="M 1959 3097 
Q 1497 3097 1228 2736 
Q 959 2375 959 1747 
Q 959 1119 1226 758 
Q 1494 397 1959 397 
Q 2419 397 2687 759 
Q 2956 1122 2956 1747 
Q 2956 2369 2687 2733 
Q 2419 3097 1959 3097 
z
M 1959 3584 
Q 2709 3584 3137 3096 
Q 3566 2609 3566 1747 
Q 3566 888 3137 398 
Q 2709 -91 1959 -91 
Q 1206 -91 779 398 
Q 353 888 353 1747 
Q 353 2609 779 3096 
Q 1206 3584 1959 3584 
z
" transform="scale(0.015625)"/>
      </defs>
      <use xlink:href="#DejaVuSans-45"/>
      <use xlink:href="#DejaVuSans-72" x="63.183594"/>
      <use xlink:href="#DejaVuSans-72" x="102.546875"/>
      <use xlink:href="#DejaVuSans-6f" x="141.410156"/>
      <use xlink:href="#DejaVuSans-72" x="202.591797"/>
     </g>
    </g>
   </g>
   <g id="line2d_69">
    <path d="M 809.863636 615.274004 
L 852.136364 615.274004 
L 852.136364 615.274004 
L 809.863636 615.274004 
L 809.863636 615.274004 
" clip-path="url(#pff06bdaacf)" style="fill: none; stroke: #000000; stroke-linecap: square"/>
   </g>
   <g id="line2d_70">
    <path d="M 831 615.274004 
L 831 615.274004 
" clip-path="url(#pff06bdaacf)" style="fill: none; stroke: #000000; stroke-linecap: square"/>
   </g>
   <g id="line2d_71">
    <path d="M 831 615.274004 
L 831 615.274004 
" clip-path="url(#pff06bdaacf)" style="fill: none; stroke: #000000; stroke-linecap: square"/>
   </g>
   <g id="line2d_72">
    <path d="M 820.431818 615.274004 
L 841.568182 615.274004 
" clip-path="url(#pff06bdaacf)" style="fill: none; stroke: #000000; stroke-linecap: square"/>
   </g>
   <g id="line2d_73">
    <path d="M 820.431818 615.274004 
L 841.568182 615.274004 
" clip-path="url(#pff06bdaacf)" style="fill: none; stroke: #000000; stroke-linecap: square"/>
   </g>
   <g id="line2d_74"/>
   <g id="line2d_75">
    <path d="M 894.409091 615.328892 
L 936.681818 615.328892 
L 936.681818 615.328892 
L 894.409091 615.328892 
L 894.409091 615.328892 
" clip-path="url(#pff06bdaacf)" style="fill: none; stroke: #000000; stroke-linecap: square"/>
   </g>
   <g id="line2d_76">
    <path d="M 915.545455 615.328892 
L 915.545455 615.328892 
" clip-path="url(#pff06bdaacf)" style="fill: none; stroke: #000000; stroke-linecap: square"/>
   </g>
   <g id="line2d_77">
    <path d="M 915.545455 615.328892 
L 915.545455 615.328892 
" clip-path="url(#pff06bdaacf)" style="fill: none; stroke: #000000; stroke-linecap: square"/>
   </g>
   <g id="line2d_78">
    <path d="M 904.977273 615.328892 
L 926.113636 615.328892 
" clip-path="url(#pff06bdaacf)" style="fill: none; stroke: #000000; stroke-linecap: square"/>
   </g>
   <g id="line2d_79">
    <path d="M 904.977273 615.328892 
L 926.113636 615.328892 
" clip-path="url(#pff06bdaacf)" style="fill: none; stroke: #000000; stroke-linecap: square"/>
   </g>
   <g id="line2d_80"/>
   <g id="line2d_81">
    <path d="M 978.954545 615.460458 
L 1021.227273 615.460458 
L 1021.227273 615.460458 
L 978.954545 615.460458 
L 978.954545 615.460458 
" clip-path="url(#pff06bdaacf)" style="fill: none; stroke: #000000; stroke-linecap: square"/>
   </g>
   <g id="line2d_82">
    <path d="M 1000.090909 615.460458 
L 1000.090909 615.460458 
" clip-path="url(#pff06bdaacf)" style="fill: none; stroke: #000000; stroke-linecap: square"/>
   </g>
   <g id="line2d_83">
    <path d="M 1000.090909 615.460458 
L 1000.090909 615.460458 
" clip-path="url(#pff06bdaacf)" style="fill: none; stroke: #000000; stroke-linecap: square"/>
   </g>
   <g id="line2d_84">
    <path d="M 989.522727 615.460458 
L 1010.659091 615.460458 
" clip-path="url(#pff06bdaacf)" style="fill: none; stroke: #000000; stroke-linecap: square"/>
   </g>
   <g id="line2d_85">
    <path d="M 989.522727 615.460458 
L 1010.659091 615.460458 
" clip-path="url(#pff06bdaacf)" style="fill: none; stroke: #000000; stroke-linecap: square"/>
   </g>
   <g id="line2d_86"/>
   <g id="line2d_87">
    <path d="M 1063.5 615.6 
L 1105.772727 615.6 
L 1105.772727 615.6 
L 1063.5 615.6 
L 1063.5 615.6 
" clip-path="url(#pff06bdaacf)" style="fill: none; stroke: #000000; stroke-linecap: square"/>
   </g>
   <g id="line2d_88">
    <path d="M 1084.636364 615.6 
L 1084.636364 615.6 
" clip-path="url(#pff06bdaacf)" style="fill: none; stroke: #000000; stroke-linecap: square"/>
   </g>
   <g id="line2d_89">
    <path d="M 1084.636364 615.6 
L 1084.636364 615.6 
" clip-path="url(#pff06bdaacf)" style="fill: none; stroke: #000000; stroke-linecap: square"/>
   </g>
   <g id="line2d_90">
    <path d="M 1074.068182 615.6 
L 1095.204545 615.6 
" clip-path="url(#pff06bdaacf)" style="fill: none; stroke: #000000; stroke-linecap: square"/>
   </g>
   <g id="line2d_91">
    <path d="M 1074.068182 615.6 
L 1095.204545 615.6 
" clip-path="url(#pff06bdaacf)" style="fill: none; stroke: #000000; stroke-linecap: square"/>
   </g>
   <g id="line2d_92"/>
   <g id="line2d_93">
    <path d="M 1148.045455 585.664552 
L 1190.318182 585.664552 
L 1190.318182 585.664552 
L 1148.045455 585.664552 
L 1148.045455 585.664552 
" clip-path="url(#pff06bdaacf)" style="fill: none; stroke: #000000; stroke-linecap: square"/>
   </g>
   <g id="line2d_94">
    <path d="M 1169.181818 585.664552 
L 1169.181818 585.664552 
" clip-path="url(#pff06bdaacf)" style="fill: none; stroke: #000000; stroke-linecap: square"/>
   </g>
   <g id="line2d_95">
    <path d="M 1169.181818 585.664552 
L 1169.181818 585.664552 
" clip-path="url(#pff06bdaacf)" style="fill: none; stroke: #000000; stroke-linecap: square"/>
   </g>
   <g id="line2d_96">
    <path d="M 1158.613636 585.664552 
L 1179.75 585.664552 
" clip-path="url(#pff06bdaacf)" style="fill: none; stroke: #000000; stroke-linecap: square"/>
   </g>
   <g id="line2d_97">
    <path d="M 1158.613636 585.664552 
L 1179.75 585.664552 
" clip-path="url(#pff06bdaacf)" style="fill: none; stroke: #000000; stroke-linecap: square"/>
   </g>
   <g id="line2d_98"/>
   <g id="line2d_99">
    <path d="M 1232.590909 111.6 
L 1274.863636 111.6 
L 1274.863636 111.6 
L 1232.590909 111.6 
L 1232.590909 111.6 
" clip-path="url(#pff06bdaacf)" style="fill: none; stroke: #000000; stroke-linecap: square"/>
   </g>
   <g id="line2d_100">
    <path d="M 1253.727273 111.6 
L 1253.727273 111.6 
" clip-path="url(#pff06bdaacf)" style="fill: none; stroke: #000000; stroke-linecap: square"/>
   </g>
   <g id="line2d_101">
    <path d="M 1253.727273 111.6 
L 1253.727273 111.6 
" clip-path="url(#pff06bdaacf)" style="fill: none; stroke: #000000; stroke-linecap: square"/>
   </g>
   <g id="line2d_102">
    <path d="M 1243.159091 111.6 
L 1264.295455 111.6 
" clip-path="url(#pff06bdaacf)" style="fill: none; stroke: #000000; stroke-linecap: square"/>
   </g>
   <g id="line2d_103">
    <path d="M 1243.159091 111.6 
L 1264.295455 111.6 
" clip-path="url(#pff06bdaacf)" style="fill: none; stroke: #000000; stroke-linecap: square"/>
   </g>
   <g id="line2d_104"/>
   <g id="line2d_105">
    <path d="M 809.863636 615.274004 
L 852.136364 615.274004 
" clip-path="url(#pff06bdaacf)" style="fill: none; stroke: #ff7f0e; stroke-linecap: square"/>
   </g>
   <g id="line2d_106">
    <path d="M 894.409091 615.328892 
L 936.681818 615.328892 
" clip-path="url(#pff06bdaacf)" style="fill: none; stroke: #ff7f0e; stroke-linecap: square"/>
   </g>
   <g id="line2d_107">
    <path d="M 978.954545 615.460458 
L 1021.227273 615.460458 
" clip-path="url(#pff06bdaacf)" style="fill: none; stroke: #ff7f0e; stroke-linecap: square"/>
   </g>
   <g id="line2d_108">
    <path d="M 1063.5 615.6 
L 1105.772727 615.6 
" clip-path="url(#pff06bdaacf)" style="fill: none; stroke: #ff7f0e; stroke-linecap: square"/>
   </g>
   <g id="line2d_109">
    <path d="M 1148.045455 585.664552 
L 1190.318182 585.664552 
" clip-path="url(#pff06bdaacf)" style="fill: none; stroke: #ff7f0e; stroke-linecap: square"/>
   </g>
   <g id="line2d_110">
    <path d="M 1232.590909 111.6 
L 1274.863636 111.6 
" clip-path="url(#pff06bdaacf)" style="fill: none; stroke: #ff7f0e; stroke-linecap: square"/>
   </g>
   <g id="patch_9">
    <path d="M 788.727273 640.8 
L 788.727273 86.4 
" style="fill: none; stroke: #000000; stroke-width: 0.8; stroke-linejoin: miter; stroke-linecap: square"/>
   </g>
   <g id="patch_10">
    <path d="M 1296 640.8 
L 1296 86.4 
" style="fill: none; stroke: #000000; stroke-width: 0.8; stroke-linejoin: miter; stroke-linecap: square"/>
   </g>
   <g id="patch_11">
    <path d="M 788.727273 640.8 
L 1296 640.8 
" style="fill: none; stroke: #000000; stroke-width: 0.8; stroke-linejoin: miter; stroke-linecap: square"/>
   </g>
   <g id="patch_12">
    <path d="M 788.727273 86.4 
L 1296 86.4 
" style="fill: none; stroke: #000000; stroke-width: 0.8; stroke-linejoin: miter; stroke-linecap: square"/>
   </g>
  </g>
 </g>
 <defs>
  <clipPath id="pf4bd12135d">
   <rect x="180" y="86.4" width="507.272727" height="554.4"/>
  </clipPath>
  <clipPath id="pff06bdaacf">
   <rect x="788.727273" y="86.4" width="507.272727" height="554.4"/>
  </clipPath>
 </defs>
</svg>
